0
SECTION
2
HEADER
9
$INSUNITS
70
4
9
$ACADVER
1
AC1014
9
$HANDSEED
5
FFFF
0
ENDSEC
0
SECTION
2
TABLES
0
TABLE
2
VPORT
5
8
100
AcDbSymbolTable
0
ENDTAB
0
TABLE
2
LTYPE
5
5
100
AcDbSymbolTable
0
LTYPE
5
14
100
AcDbSymbolTableRecord
100
AcDbLinetypeTableRecord
2
BYBLOCK
70
0
0
LTYPE
5
15
100
AcDbSymbolTableRecord
100
AcDbLinetypeTableRecord
2
BYLAYER
70
0
0
ENDTAB
0
TABLE
2
LAYER
5
2
100
AcDbSymbolTable
70
2
0
LAYER
5
50
100
AcDbSymbolTableRecord
100
AcDbLayerTableRecord
2
0
70
0
6
CONTINUOUS
0
ENDTAB
0
TABLE
2
STYLE
5
3
100
AcDbSymbolTable
70
1
0
STYLE
5
11
100
AcDbSymbolTableRecord
100
AcDbTextStyleTableRecord
2
STANDARD
70
0
0
ENDTAB
0
TABLE
2
VIEW
5
6
100
AcDbSymbolTable
70
0
0
ENDTAB
0
TABLE
2
UCS
5
7
100
AcDbSymbolTable
70
0
0
ENDTAB
0
TABLE
2
APPID
5
9
100
AcDbSymbolTable
70
2
0
APPID
5
12
100
AcDbSymbolTableRecord
100
AcDbRegAppTableRecord
2
ACAD
70
0
0
ENDTAB
0
TABLE
2
DIMSTYLE
5
A
100
AcDbSymbolTable
70
1
0
ENDTAB
0
TABLE
2
BLOCK_RECORD
5
1
100
AcDbSymbolTable
70
1
0
BLOCK_RECORD
5
1F
100
AcDbSymbolTableRecord
100
AcDbBlockTableRecord
2
*MODEL_SPACE
0
BLOCK_RECORD
5
1B
100
AcDbSymbolTableRecord
100
AcDbBlockTableRecord
2
*PAPER_SPACE
0
ENDTAB
0
ENDSEC
0
SECTION
2
BLOCKS
0
BLOCK
5
20
100
AcDbEntity
100
AcDbBlockBegin
2
*MODEL_SPACE
0
ENDBLK
5
21
100
AcDbEntity
100
AcDbBlockEnd
0
BLOCK
5
1C
100
AcDbEntity
100
AcDbBlockBegin
2
*PAPER_SPACE
0
ENDBLK
5
1D
100
AcDbEntity
100
AcDbBlockEnd
0
ENDSEC
0
SECTION
2
ENTITIES
0
LWPOLYLINE
5
100
100
AcDbEntity
8
0
100
AcDbPolyline
90
46
70
1
43
0.0
10
577.3250000047932
20
-98.546572866712097
42
-0.4142135660983412
10
577.82500001115272
20
-99.046572866712097
10
577.82500001115261
20
-190.9534271332879
42
-0.41421356609827875
10
577.3250000047932
20
-191.45342713328787
10
576.65342713589882
20
-191.45342712474618
42
0.41421356237309503
10
572.65342712099766
20
-195.45342713964737
10
572.6534271295393
20
-196.12500000854172
42
-0.41421356609836202
10
572.1534271295393
20
-196.62500001490116
10
496.47213595125106
20
-196.62500001490122
42
-0.38196601125010388
10
495.97523195625109
20
-196.1805555704567
42
0.8944271909999153
10
488.02476803625183
20
-196.1805555704567
42
-0.38196601125010388
10
487.52786404125186
20
-196.62500001490116
10
412.47213596624505
20
-196.62500001490116
42
-0.38196601135615788
10
411.9752319712245
20
-196.18055557027276
42
0.8944271913331171
10
404.02476802127842
20
-196.18055557027276
42
-0.38196601135615788
10
403.52786402625787
20
-196.62500001490116
10
327.84657286296363
20
-196.62500001490119
42
-0.41421356609838283
10
327.34657286296363
20
-196.12500000854169
10
327.34657287150532
20
-195.45342713964737
42
0.41421356237309503
10
323.3465728566041
20
-191.45342712474618
10
322.67499998770978
20
-191.4534271332879
42
-0.4142135660983412
10
322.17499998135031
20
-190.9534271332879
10
322.17499998135042
20
-99.046572866712097
42
-0.41421356609836202
10
322.67499998770978
20
-98.546572866712097
10
323.3465728566041
20
-98.546572875253773
42
0.41421356237309503
10
327.34657287150526
20
-94.54657286035264
10
327.34657286296368
20
-93.87499999145831
42
-0.4142135660983412
10
327.84657286296357
20
-93.374999985098839
10
358.36078641897723
20
-93.374999985098867
42
0.19891236737965795
10
359.06789320016378
20
-93.082106766285364
10
359.77499998135033
20
-92.374999985098825
10
368.77499998135033
20
-92.374999985098825
10
369.48210676253689
20
-93.082106766285364
42
0.19891236737965803
10
370.18921354372344
20
-93.374999985098839
10
403.52786402625787
20
-93.374999985098825
42
-0.38196601135615788
10
404.02476802127842
20
-93.819444429727241
42
0.8944271913331171
10
411.9752319712245
20
-93.819444429727241
42
-0.38196601135615788
10
412.47213596624505
20
-93.374999985098839
10
487.52786402625793
20
-93.374999985098825
42
-0.38196601135611719
10
488.02476802127842
20
-93.819444429727241
42
0.8944271913331181
10
495.97523197122456
20
-93.819444429727241
42
-0.38196601135617358
10
496.47213596624505
20
-93.374999985098839
10
572.1534271295393
20
-93.37499998509881
42
-0.41421356609838283
10
572.65342712953941
20
-93.87499999145831
10
572.65342712099766
20
-94.54657286035264
42
0.41421356237309503
10
576.65342713589882
20
-98.546572875253815
0
LINE
5
101
100
AcDbEntity
8
0
100
AcDbLine
10
410.99999999625146
20
-353.37499998509884
30
0
11
410.99999999625146
21
-353.37499998509884
31
0
0
LINE
5
102
100
AcDbEntity
8
0
100
AcDbLine
10
488.99999999625152
20
-353.37499998509884
30
0
11
488.99999999625152
21
-353.37499998509884
31
0
0
LINE
5
103
100
AcDbEntity
8
0
100
AcDbLine
10
494.99999999625146
20
-353.37499998509884
30
0
11
494.99999999625146
21
-353.37499998509884
31
0
0
LINE
5
104
100
AcDbEntity
8
0
100
AcDbLine
10
404.99999999625146
20
-353.37499998509884
30
0
11
404.99999999625146
21
-353.37499998509884
31
0
0
ENDSEC
0
SECTION
2
OBJECTS
0
DICTIONARY
5
C
100
AcDbDictionary
3
ACAD_GROUP
350
D
3
ACAD_MLINESTYLE
350
17
0
DICTIONARY
5
D
100
AcDbDictionary
0
DICTIONARY
5
1A
330
C
100
AcDbDictionary
0
DICTIONARY
5
17
100
AcDbDictionary
0
ENDSEC
0
EOF
