0
SECTION
2
HEADER
9
$INSUNITS
70
4
9
$ACADVER
1
AC1014
9
$HANDSEED
5
FFFF
0
ENDSEC
0
SECTION
2
TABLES
0
TABLE
2
VPORT
5
8
100
AcDbSymbolTable
0
ENDTAB
0
TABLE
2
LTYPE
5
5
100
AcDbSymbolTable
0
LTYPE
5
14
100
AcDbSymbolTableRecord
100
AcDbLinetypeTableRecord
2
BYBLOCK
70
0
0
LTYPE
5
15
100
AcDbSymbolTableRecord
100
AcDbLinetypeTableRecord
2
BYLAYER
70
0
0
ENDTAB
0
TABLE
2
LAYER
5
2
100
AcDbSymbolTable
70
2
0
LAYER
5
50
100
AcDbSymbolTableRecord
100
AcDbLayerTableRecord
2
0
70
0
6
CONTINUOUS
0
ENDTAB
0
TABLE
2
STYLE
5
3
100
AcDbSymbolTable
70
1
0
STYLE
5
11
100
AcDbSymbolTableRecord
100
AcDbTextStyleTableRecord
2
STANDARD
70
0
0
ENDTAB
0
TABLE
2
VIEW
5
6
100
AcDbSymbolTable
70
0
0
ENDTAB
0
TABLE
2
UCS
5
7
100
AcDbSymbolTable
70
0
0
ENDTAB
0
TABLE
2
APPID
5
9
100
AcDbSymbolTable
70
2
0
APPID
5
12
100
AcDbSymbolTableRecord
100
AcDbRegAppTableRecord
2
ACAD
70
0
0
ENDTAB
0
TABLE
2
DIMSTYLE
5
A
100
AcDbSymbolTable
70
1
0
ENDTAB
0
TABLE
2
BLOCK_RECORD
5
1
100
AcDbSymbolTable
70
1
0
BLOCK_RECORD
5
1F
100
AcDbSymbolTableRecord
100
AcDbBlockTableRecord
2
*MODEL_SPACE
0
BLOCK_RECORD
5
1B
100
AcDbSymbolTableRecord
100
AcDbBlockTableRecord
2
*PAPER_SPACE
0
ENDTAB
0
ENDSEC
0
SECTION
2
BLOCKS
0
BLOCK
5
20
100
AcDbEntity
100
AcDbBlockBegin
2
*MODEL_SPACE
0
ENDBLK
5
21
100
AcDbEntity
100
AcDbBlockEnd
0
BLOCK
5
1C
100
AcDbEntity
100
AcDbBlockBegin
2
*PAPER_SPACE
0
ENDBLK
5
1D
100
AcDbEntity
100
AcDbBlockEnd
0
ENDSEC
0
SECTION
2
ENTITIES
0
LINE
5
100
100
AcDbEntity
8
0
100
AcDbLine
10
38.999999996251482
20
-51.625000014901168
30
0
11
38.999999996251482
21
-51.625000014901168
31
0
0
LINE
5
101
100
AcDbEntity
8
0
100
AcDbLine
10
-39.000000003748532
20
-51.625000014901168
30
0
11
-39.000000003748532
21
-51.625000014901161
31
0
0
LINE
5
102
100
AcDbEntity
8
0
100
AcDbLine
10
44.999999996251475
20
51.625000014901168
30
0
11
44.999999996251475
21
51.625000014901168
31
0
0
LINE
5
103
100
AcDbEntity
8
0
100
AcDbLine
10
38.999999996251482
20
51.625000014901168
30
0
11
38.999999996251482
21
51.625000014901168
31
0
0
LINE
5
104
100
AcDbEntity
8
0
100
AcDbLine
10
-45.000000003748511
20
-51.625000014901168
30
0
11
-45.000000003748511
21
-51.625000014901161
31
0
0
LINE
5
105
100
AcDbEntity
8
0
100
AcDbLine
10
-39.000000003748525
20
51.625000014901168
30
0
11
-39.000000003748525
21
51.625000014901168
31
0
0
LINE
5
106
100
AcDbEntity
8
0
100
AcDbLine
10
-45.000000003748525
20
51.625000014901168
30
0
11
-45.000000003748525
21
51.625000014901168
31
0
0
LINE
5
107
100
AcDbEntity
8
0
100
AcDbLine
10
44.999999996251461
20
-51.625000014901168
30
0
11
44.999999996251461
21
-51.625000014901154
31
0
0
LWPOLYLINE
5
108
100
AcDbEntity
8
0
100
AcDbPolyline
90
40
70
1
43
0.0
10
37.527864041251924
20
51.625000014901168
10
-37.527864033754945
20
51.625000014901168
42
0.38196601135614272
10
-38.024768028775462
20
51.180555570272752
42
-0.89442719133311355
10
-45.975231978721581
20
51.180555570272752
42
0.38196601135614272
10
-46.472135973742105
20
51.625000014901168
10
-122.15342713703637
20
51.625000014901168
42
0.41421356609839322
10
-122.65342713703639
20
51.125000008541683
10
-122.65342712849468
20
50.453427139647367
42
-0.41421356237309503
10
-126.65342714339586
20
46.453427124746199
10
-127.3250000122902
20
46.453427133287903
42
0.41421356609835164
10
-127.82500001864967
20
45.953427133287903
10
-127.82500001864967
20
-45.953427133287903
42
0.41421356609838283
10
-127.3250000122902
20
-46.453427133287903
10
-126.65342714339586
20
-46.45342712474622
42
-0.41421356237309503
10
-122.65342712849471
20
-50.453427139647367
10
-122.65342713703639
20
-51.12500000854169
42
0.41421356609837245
10
-122.1534271370364
20
-51.625000014901161
10
-46.472135973742098
20
-51.625000014901161
42
0.38196601135616126
10
-45.975231978721574
20
-51.180555570272759
42
-0.89442719133311555
10
-38.024768028775469
20
-51.180555570272759
42
0.38196601135616126
10
-37.527864033754952
20
-51.625000014901161
10
37.52786402625793
20
-51.625000014901168
42
0.38196601135614777
10
38.024768021278454
20
-51.180555570272759
42
-0.8944271913331151
10
45.975231971224524
20
-51.180555570272759
42
0.38196601135617592
10
46.472135966245034
20
-51.625000014901168
10
122.15342712953934
20
-51.625000014901154
42
0.41421356609837762
10
122.65342712953935
20
-51.12500000854169
10
122.65342712099763
20
-50.453427139647367
42
-0.41421356237309503
10
126.6534271358988
20
-46.453427124746199
10
127.32500000479317
20
-46.453427133287889
42
0.41421356609836202
10
127.82500001115267
20
-45.953427133287896
10
127.82500001115264
20
45.95342713328791
42
0.41421356609832038
10
127.32500000479317
20
46.453427133287882
10
126.6534271358988
20
46.453427124746234
42
-0.41421356237309503
10
122.65342712099766
20
50.453427139647367
10
122.65342712953935
20
51.125000008541718
42
0.41421356609837245
10
122.15342712953934
20
51.625000014901168
10
46.472135951251055
20
51.625000014901168
42
0.38196601125010166
10
45.975231956251086
20
51.180555570456711
42
-0.89442719099991341
10
38.024768036251885
20
51.180555570456725
42
0.38196601125008134
0
ENDSEC
0
SECTION
2
OBJECTS
0
DICTIONARY
5
C
100
AcDbDictionary
3
ACAD_GROUP
350
D
3
ACAD_MLINESTYLE
350
17
0
DICTIONARY
5
D
100
AcDbDictionary
0
DICTIONARY
5
1A
330
C
100
AcDbDictionary
0
DICTIONARY
5
17
100
AcDbDictionary
0
ENDSEC
0
EOF
