0
SECTION
2
HEADER
9
$INSUNITS
70
4
9
$ACADVER
1
AC1014
9
$HANDSEED
5
FFFF
0
ENDSEC
0
SECTION
2
TABLES
0
TABLE
2
VPORT
5
8
100
AcDbSymbolTable
0
ENDTAB
0
TABLE
2
LTYPE
5
5
100
AcDbSymbolTable
0
LTYPE
5
14
100
AcDbSymbolTableRecord
100
AcDbLinetypeTableRecord
2
BYBLOCK
70
0
0
LTYPE
5
15
100
AcDbSymbolTableRecord
100
AcDbLinetypeTableRecord
2
BYLAYER
70
0
0
ENDTAB
0
TABLE
2
LAYER
5
2
100
AcDbSymbolTable
70
2
0
LAYER
5
50
100
AcDbSymbolTableRecord
100
AcDbLayerTableRecord
2
0
70
0
6
CONTINUOUS
0
ENDTAB
0
TABLE
2
STYLE
5
3
100
AcDbSymbolTable
70
1
0
STYLE
5
11
100
AcDbSymbolTableRecord
100
AcDbTextStyleTableRecord
2
STANDARD
70
0
0
ENDTAB
0
TABLE
2
VIEW
5
6
100
AcDbSymbolTable
70
0
0
ENDTAB
0
TABLE
2
UCS
5
7
100
AcDbSymbolTable
70
0
0
ENDTAB
0
TABLE
2
APPID
5
9
100
AcDbSymbolTable
70
2
0
APPID
5
12
100
AcDbSymbolTableRecord
100
AcDbRegAppTableRecord
2
ACAD
70
0
0
ENDTAB
0
TABLE
2
DIMSTYLE
5
A
100
AcDbSymbolTable
70
1
0
ENDTAB
0
TABLE
2
BLOCK_RECORD
5
1
100
AcDbSymbolTable
70
1
0
BLOCK_RECORD
5
1F
100
AcDbSymbolTableRecord
100
AcDbBlockTableRecord
2
*MODEL_SPACE
0
BLOCK_RECORD
5
1B
100
AcDbSymbolTableRecord
100
AcDbBlockTableRecord
2
*PAPER_SPACE
0
ENDTAB
0
ENDSEC
0
SECTION
2
BLOCKS
0
BLOCK
5
20
100
AcDbEntity
100
AcDbBlockBegin
2
*MODEL_SPACE
0
ENDBLK
5
21
100
AcDbEntity
100
AcDbBlockEnd
0
BLOCK
5
1C
100
AcDbEntity
100
AcDbBlockBegin
2
*PAPER_SPACE
0
ENDBLK
5
1D
100
AcDbEntity
100
AcDbBlockEnd
0
ENDSEC
0
SECTION
2
ENTITIES
0
LWPOLYLINE
5
100
100
AcDbEntity
8
0
100
AcDbPolyline
90
41
70
1
43
0.0
10
68.380816411546945
20
-12.725000014901154
42
-0.35639395869259888
10
67.401020514433668
20
-13.525000014901153
10
-7.3534271269283824
20
-13.525000014901146
42
-0.41421356609838378
10
-8.353427126928386
20
-12.525000002182207
10
-8.3534271247461618
20
-12.353427139647357
42
0.41421356237309503
10
-12.353427139647323
20
-8.3534271247461938
10
-12.525000002182194
20
-8.3534271269284179
42
-0.41421356609838639
10
-13.525000014901131
20
-7.3534271269284268
10
-13.525000014901131
20
83.553427126928426
42
-0.41421356609837695
10
-12.525000002182193
20
84.553427126928455
10
-12.353427139647316
20
84.553427124746207
42
0.41421356237309503
10
-8.3534271247461476
20
88.553427139647383
10
-8.3534271269283717
20
88.725000002182242
42
-0.41421356609838839
10
-7.3534271269283735
20
89.725000014901184
10
67.401020514433668
20
89.725000014901198
42
-0.35639395869261081
10
68.380816411546945
20
88.925000014901187
42
0.81649658089774158
10
76.219183588395524
20
88.925000014619144
42
-0.35639395878283198
10
77.198979485886539
20
89.725000014548669
10
114.30000000000001
20
89.725000000000023
10
151.4010205141135
20
89.725000014548669
42
-0.35639395878279345
10
152.38081641160448
20
88.925000014619172
42
0.81649658089774246
10
160.21918358845312
20
88.925000014901173
42
-0.3563939586925931
10
161.19897948556641
20
89.72500001490117
10
235.95342712692849
20
89.725000014901184
42
-0.41421356609842969
10
236.95342712692843
20
88.725000002182227
10
236.95342712474621
20
88.553427139647383
42
0.41421356237309503
10
240.95342713964737
20
84.553427124746207
10
241.12500000218222
20
84.553427126928426
42
-0.41421356609834642
10
242.12500001490113
20
83.55342712692844
10
242.12500001490113
20
-7.3784269257627422
42
-0.41421356609834575
10
241.12500000218222
20
-8.3784269257627368
10
240.95342713964732
20
-8.3784269235805233
42
0.41421356237309503
10
236.95342712474616
20
-12.378426938481685
10
236.95342712665106
20
-12.525000001904875
42
-0.41421356617961458
10
235.95342712665109
20
-13.525000014901124
10
161.19897948556644
20
-13.525000014901094
42
-0.35639395869258639
10
160.21918358845315
20
-12.72500001490112
42
0.81649658092772348
10
152.38081641154687
20
-12.725000014901145
42
-0.35639395869258556
10
151.40102051443361
20
-13.525000014901153
10
77.198979485566355
20
-13.525000014901149
42
-0.35639395869259888
10
76.219183588453078
20
-12.725000014901154
42
0.81649658092772481
0
LINE
5
101
100
AcDbEntity
8
0
100
AcDbLine
10
69.300000000000026
20
-13.525000014901156
30
0
11
69.300000000000026
21
-13.525000014901146
31
0
0
LINE
5
102
100
AcDbEntity
8
0
100
AcDbLine
10
75.299999999999997
20
-13.525000014901156
30
0
11
75.299999999999997
21
-13.525000014901147
31
0
0
LINE
5
103
100
AcDbEntity
8
0
100
AcDbLine
10
75.300000000000011
20
89.725000014901184
30
0
11
75.300000000000011
21
89.725000014901184
31
0
0
LINE
5
104
100
AcDbEntity
8
0
100
AcDbLine
10
69.300000000000011
20
89.725000014901184
30
0
11
69.300000000000011
21
89.725000014901184
31
0
0
LINE
5
105
100
AcDbEntity
8
0
100
AcDbLine
10
159.30000000000004
20
-13.525000014901156
30
0
11
159.30000000000004
21
-13.525000014901146
31
0
0
LINE
5
106
100
AcDbEntity
8
0
100
AcDbLine
10
153.30000000000001
20
-13.525000014901156
30
0
11
153.30000000000001
21
-13.52500001490114
31
0
0
LINE
5
107
100
AcDbEntity
8
0
100
AcDbLine
10
159.30000000000004
20
89.725000014901184
30
0
11
159.30000000000004
21
89.725000014901184
31
0
0
LINE
5
108
100
AcDbEntity
8
0
100
AcDbLine
10
153.30000000000001
20
89.725000014901184
30
0
11
153.30000000000001
21
89.725000014901184
31
0
0
ENDSEC
0
SECTION
2
OBJECTS
0
DICTIONARY
5
C
100
AcDbDictionary
3
ACAD_GROUP
350
D
3
ACAD_MLINESTYLE
350
17
0
DICTIONARY
5
D
100
AcDbDictionary
0
DICTIONARY
5
1A
330
C
100
AcDbDictionary
0
DICTIONARY
5
17
100
AcDbDictionary
0
ENDSEC
0
EOF
