G04 #@! TF.GenerationSoftware,KiCad,Pcbnew,5.1.9+dfsg1-1*
G04 #@! TF.CreationDate,2021-12-29T02:20:09+01:00*
G04 #@! TF.ProjectId,okey65-bottom-plate,6f6b6579-3635-42d6-926f-74746f6d2d70,rev?*
G04 #@! TF.SameCoordinates,Original*
G04 #@! TF.FileFunction,Copper,L2,Bot*
G04 #@! TF.FilePolarity,Positive*
%FSLAX46Y46*%
G04 Gerber Fmt 4.6, Leading zero omitted, Abs format (unit mm)*
G04 Created by KiCad (PCBNEW 5.1.9+dfsg1-1) date 2021-12-29 02:20:09*
%MOMM*%
%LPD*%
G01*
G04 APERTURE LIST*
G04 #@! TA.AperFunction,NonConductor*
%ADD10C,0.254000*%
G04 #@! TD*
G04 #@! TA.AperFunction,NonConductor*
%ADD11C,0.100000*%
G04 #@! TD*
G04 APERTURE END LIST*
D10*
X271538486Y-32685221D02*
X272417784Y-32896322D01*
X273253221Y-33242372D01*
X274024244Y-33714855D01*
X274711863Y-34302137D01*
X275299144Y-34989755D01*
X275771629Y-35760781D01*
X276117679Y-36596220D01*
X276328779Y-37475514D01*
X276402000Y-38405875D01*
X276402001Y-133598113D01*
X276328779Y-134528487D01*
X276117679Y-135407781D01*
X275771629Y-136243220D01*
X275299144Y-137014246D01*
X274711863Y-137701864D01*
X274024244Y-138289146D01*
X273253221Y-138761629D01*
X272417784Y-139107679D01*
X271538486Y-139318780D01*
X270608111Y-139392002D01*
X23015875Y-139392000D01*
X22085514Y-139318779D01*
X21206220Y-139107679D01*
X20370776Y-138761627D01*
X19599754Y-138289145D01*
X18912138Y-137701863D01*
X18324855Y-137014245D01*
X17876998Y-136283408D01*
X18412024Y-136283408D01*
X18412024Y-136627448D01*
X18479143Y-136964878D01*
X18610801Y-137282729D01*
X18801940Y-137568788D01*
X19045213Y-137812061D01*
X19331272Y-138003200D01*
X19649123Y-138134858D01*
X19986553Y-138201977D01*
X20330593Y-138201977D01*
X20668023Y-138134858D01*
X20985874Y-138003200D01*
X21271933Y-137812061D01*
X21515206Y-137568788D01*
X21591249Y-137454981D01*
X103065451Y-137454981D01*
X103065451Y-137799021D01*
X103132570Y-138136451D01*
X103264228Y-138454302D01*
X103455367Y-138740361D01*
X103698640Y-138983634D01*
X103984699Y-139174773D01*
X104302550Y-139306431D01*
X104639980Y-139373550D01*
X104984020Y-139373550D01*
X105321450Y-139306431D01*
X105639301Y-139174773D01*
X105925360Y-138983634D01*
X106168633Y-138740361D01*
X106359772Y-138454302D01*
X106491430Y-138136451D01*
X106558549Y-137799021D01*
X106558549Y-137454981D01*
X186986009Y-137454981D01*
X186986009Y-137799021D01*
X187053128Y-138136451D01*
X187184786Y-138454302D01*
X187375925Y-138740361D01*
X187619198Y-138983634D01*
X187905257Y-139174773D01*
X188223108Y-139306431D01*
X188560538Y-139373550D01*
X188904578Y-139373550D01*
X189242008Y-139306431D01*
X189559859Y-139174773D01*
X189845918Y-138983634D01*
X190089191Y-138740361D01*
X190280330Y-138454302D01*
X190411988Y-138136451D01*
X190479107Y-137799021D01*
X190479107Y-137454981D01*
X190411988Y-137117551D01*
X190280330Y-136799700D01*
X190089191Y-136513641D01*
X189858958Y-136283408D01*
X271718878Y-136283408D01*
X271718878Y-136627448D01*
X271785997Y-136964878D01*
X271917655Y-137282729D01*
X272108794Y-137568788D01*
X272352067Y-137812061D01*
X272638126Y-138003200D01*
X272955977Y-138134858D01*
X273293407Y-138201977D01*
X273637447Y-138201977D01*
X273974877Y-138134858D01*
X274292728Y-138003200D01*
X274578787Y-137812061D01*
X274822060Y-137568788D01*
X275013199Y-137282729D01*
X275144857Y-136964878D01*
X275211976Y-136627448D01*
X275211976Y-136283408D01*
X275144857Y-135945978D01*
X275013199Y-135628127D01*
X274822060Y-135342068D01*
X274578787Y-135098795D01*
X274292728Y-134907656D01*
X273974877Y-134775998D01*
X273637447Y-134708879D01*
X273293407Y-134708879D01*
X272955977Y-134775998D01*
X272638126Y-134907656D01*
X272352067Y-135098795D01*
X272108794Y-135342068D01*
X271917655Y-135628127D01*
X271785997Y-135945978D01*
X271718878Y-136283408D01*
X189858958Y-136283408D01*
X189845918Y-136270368D01*
X189559859Y-136079229D01*
X189242008Y-135947571D01*
X188904578Y-135880452D01*
X188560538Y-135880452D01*
X188223108Y-135947571D01*
X187905257Y-136079229D01*
X187619198Y-136270368D01*
X187375925Y-136513641D01*
X187184786Y-136799700D01*
X187053128Y-137117551D01*
X186986009Y-137454981D01*
X106558549Y-137454981D01*
X106491430Y-137117551D01*
X106359772Y-136799700D01*
X106168633Y-136513641D01*
X105925360Y-136270368D01*
X105639301Y-136079229D01*
X105321450Y-135947571D01*
X104984020Y-135880452D01*
X104639980Y-135880452D01*
X104302550Y-135947571D01*
X103984699Y-136079229D01*
X103698640Y-136270368D01*
X103455367Y-136513641D01*
X103264228Y-136799700D01*
X103132570Y-137117551D01*
X103065451Y-137454981D01*
X21591249Y-137454981D01*
X21706345Y-137282729D01*
X21838003Y-136964878D01*
X21905122Y-136627448D01*
X21905122Y-136283408D01*
X21838003Y-135945978D01*
X21706345Y-135628127D01*
X21515206Y-135342068D01*
X21271933Y-135098795D01*
X20985874Y-134907656D01*
X20668023Y-134775998D01*
X20330593Y-134708879D01*
X19986553Y-134708879D01*
X19649123Y-134775998D01*
X19331272Y-134907656D01*
X19045213Y-135098795D01*
X18801940Y-135342068D01*
X18610801Y-135628127D01*
X18479143Y-135945978D01*
X18412024Y-136283408D01*
X17876998Y-136283408D01*
X17852374Y-136243226D01*
X17506322Y-135407779D01*
X17295222Y-134528487D01*
X17222001Y-133598125D01*
X17222001Y-59591325D01*
X64655860Y-59591325D01*
X64655860Y-60562675D01*
X64845361Y-61515361D01*
X65217080Y-62412771D01*
X65756733Y-63220419D01*
X66443581Y-63907267D01*
X67251229Y-64446920D01*
X68148639Y-64818639D01*
X69101325Y-65008140D01*
X70072675Y-65008140D01*
X71025361Y-64818639D01*
X71922771Y-64446920D01*
X72730419Y-63907267D01*
X73417267Y-63220419D01*
X73956920Y-62412771D01*
X74328639Y-61515361D01*
X74518140Y-60562675D01*
X74518140Y-59591325D01*
X74328639Y-58638639D01*
X73956920Y-57741229D01*
X73417267Y-56933581D01*
X72730419Y-56246733D01*
X71922771Y-55707080D01*
X71025361Y-55335361D01*
X70072675Y-55145860D01*
X69101325Y-55145860D01*
X68148639Y-55335361D01*
X67251229Y-55707080D01*
X66443581Y-56246733D01*
X65756733Y-56933581D01*
X65217080Y-57741229D01*
X64845361Y-58638639D01*
X64655860Y-59591325D01*
X17222001Y-59591325D01*
X17222001Y-38405863D01*
X17295221Y-37475514D01*
X17506322Y-36596216D01*
X17852372Y-35760779D01*
X18087825Y-35376553D01*
X18412024Y-35376553D01*
X18412024Y-35720593D01*
X18479143Y-36058023D01*
X18610801Y-36375874D01*
X18801940Y-36661933D01*
X19045213Y-36905206D01*
X19331272Y-37096345D01*
X19649123Y-37228003D01*
X19986553Y-37295122D01*
X20330593Y-37295122D01*
X20668023Y-37228003D01*
X20985874Y-37096345D01*
X21271933Y-36905206D01*
X21515206Y-36661933D01*
X21706345Y-36375874D01*
X21838003Y-36058023D01*
X21905122Y-35720593D01*
X21905122Y-35376553D01*
X21838003Y-35039123D01*
X21706345Y-34721272D01*
X21515206Y-34435213D01*
X21284973Y-34204980D01*
X103065451Y-34204980D01*
X103065451Y-34549020D01*
X103132570Y-34886450D01*
X103264228Y-35204301D01*
X103455367Y-35490360D01*
X103698640Y-35733633D01*
X103984699Y-35924772D01*
X104302550Y-36056430D01*
X104639980Y-36123549D01*
X104984020Y-36123549D01*
X105321450Y-36056430D01*
X105639301Y-35924772D01*
X105925360Y-35733633D01*
X106168633Y-35490360D01*
X106359772Y-35204301D01*
X106491430Y-34886450D01*
X106558549Y-34549020D01*
X106558549Y-34204980D01*
X187065451Y-34204980D01*
X187065451Y-34549020D01*
X187132570Y-34886450D01*
X187264228Y-35204301D01*
X187455367Y-35490360D01*
X187698640Y-35733633D01*
X187984699Y-35924772D01*
X188302550Y-36056430D01*
X188639980Y-36123549D01*
X188984020Y-36123549D01*
X189321450Y-36056430D01*
X189639301Y-35924772D01*
X189925360Y-35733633D01*
X190168633Y-35490360D01*
X190244676Y-35376553D01*
X271718878Y-35376553D01*
X271718878Y-35720593D01*
X271785997Y-36058023D01*
X271917655Y-36375874D01*
X272108794Y-36661933D01*
X272352067Y-36905206D01*
X272638126Y-37096345D01*
X272955977Y-37228003D01*
X273293407Y-37295122D01*
X273637447Y-37295122D01*
X273974877Y-37228003D01*
X274292728Y-37096345D01*
X274578787Y-36905206D01*
X274822060Y-36661933D01*
X275013199Y-36375874D01*
X275144857Y-36058023D01*
X275211976Y-35720593D01*
X275211976Y-35376553D01*
X275144857Y-35039123D01*
X275013199Y-34721272D01*
X274822060Y-34435213D01*
X274578787Y-34191940D01*
X274292728Y-34000801D01*
X273974877Y-33869143D01*
X273637447Y-33802024D01*
X273293407Y-33802024D01*
X272955977Y-33869143D01*
X272638126Y-34000801D01*
X272352067Y-34191940D01*
X272108794Y-34435213D01*
X271917655Y-34721272D01*
X271785997Y-35039123D01*
X271718878Y-35376553D01*
X190244676Y-35376553D01*
X190359772Y-35204301D01*
X190491430Y-34886450D01*
X190558549Y-34549020D01*
X190558549Y-34204980D01*
X190491430Y-33867550D01*
X190359772Y-33549699D01*
X190168633Y-33263640D01*
X189925360Y-33020367D01*
X189639301Y-32829228D01*
X189321450Y-32697570D01*
X188984020Y-32630451D01*
X188639980Y-32630451D01*
X188302550Y-32697570D01*
X187984699Y-32829228D01*
X187698640Y-33020367D01*
X187455367Y-33263640D01*
X187264228Y-33549699D01*
X187132570Y-33867550D01*
X187065451Y-34204980D01*
X106558549Y-34204980D01*
X106491430Y-33867550D01*
X106359772Y-33549699D01*
X106168633Y-33263640D01*
X105925360Y-33020367D01*
X105639301Y-32829228D01*
X105321450Y-32697570D01*
X104984020Y-32630451D01*
X104639980Y-32630451D01*
X104302550Y-32697570D01*
X103984699Y-32829228D01*
X103698640Y-33020367D01*
X103455367Y-33263640D01*
X103264228Y-33549699D01*
X103132570Y-33867550D01*
X103065451Y-34204980D01*
X21284973Y-34204980D01*
X21271933Y-34191940D01*
X20985874Y-34000801D01*
X20668023Y-33869143D01*
X20330593Y-33802024D01*
X19986553Y-33802024D01*
X19649123Y-33869143D01*
X19331272Y-34000801D01*
X19045213Y-34191940D01*
X18801940Y-34435213D01*
X18610801Y-34721272D01*
X18479143Y-35039123D01*
X18412024Y-35376553D01*
X18087825Y-35376553D01*
X18324855Y-34989756D01*
X18912137Y-34302137D01*
X19599755Y-33714856D01*
X20370781Y-33242371D01*
X21206220Y-32896321D01*
X22085514Y-32685221D01*
X23015875Y-32612000D01*
X270608124Y-32612000D01*
X271538486Y-32685221D01*
G04 #@! TA.AperFunction,NonConductor*
D11*
G36*
X271538486Y-32685221D02*
G01*
X272417784Y-32896322D01*
X273253221Y-33242372D01*
X274024244Y-33714855D01*
X274711863Y-34302137D01*
X275299144Y-34989755D01*
X275771629Y-35760781D01*
X276117679Y-36596220D01*
X276328779Y-37475514D01*
X276402000Y-38405875D01*
X276402001Y-133598113D01*
X276328779Y-134528487D01*
X276117679Y-135407781D01*
X275771629Y-136243220D01*
X275299144Y-137014246D01*
X274711863Y-137701864D01*
X274024244Y-138289146D01*
X273253221Y-138761629D01*
X272417784Y-139107679D01*
X271538486Y-139318780D01*
X270608111Y-139392002D01*
X23015875Y-139392000D01*
X22085514Y-139318779D01*
X21206220Y-139107679D01*
X20370776Y-138761627D01*
X19599754Y-138289145D01*
X18912138Y-137701863D01*
X18324855Y-137014245D01*
X17876998Y-136283408D01*
X18412024Y-136283408D01*
X18412024Y-136627448D01*
X18479143Y-136964878D01*
X18610801Y-137282729D01*
X18801940Y-137568788D01*
X19045213Y-137812061D01*
X19331272Y-138003200D01*
X19649123Y-138134858D01*
X19986553Y-138201977D01*
X20330593Y-138201977D01*
X20668023Y-138134858D01*
X20985874Y-138003200D01*
X21271933Y-137812061D01*
X21515206Y-137568788D01*
X21591249Y-137454981D01*
X103065451Y-137454981D01*
X103065451Y-137799021D01*
X103132570Y-138136451D01*
X103264228Y-138454302D01*
X103455367Y-138740361D01*
X103698640Y-138983634D01*
X103984699Y-139174773D01*
X104302550Y-139306431D01*
X104639980Y-139373550D01*
X104984020Y-139373550D01*
X105321450Y-139306431D01*
X105639301Y-139174773D01*
X105925360Y-138983634D01*
X106168633Y-138740361D01*
X106359772Y-138454302D01*
X106491430Y-138136451D01*
X106558549Y-137799021D01*
X106558549Y-137454981D01*
X186986009Y-137454981D01*
X186986009Y-137799021D01*
X187053128Y-138136451D01*
X187184786Y-138454302D01*
X187375925Y-138740361D01*
X187619198Y-138983634D01*
X187905257Y-139174773D01*
X188223108Y-139306431D01*
X188560538Y-139373550D01*
X188904578Y-139373550D01*
X189242008Y-139306431D01*
X189559859Y-139174773D01*
X189845918Y-138983634D01*
X190089191Y-138740361D01*
X190280330Y-138454302D01*
X190411988Y-138136451D01*
X190479107Y-137799021D01*
X190479107Y-137454981D01*
X190411988Y-137117551D01*
X190280330Y-136799700D01*
X190089191Y-136513641D01*
X189858958Y-136283408D01*
X271718878Y-136283408D01*
X271718878Y-136627448D01*
X271785997Y-136964878D01*
X271917655Y-137282729D01*
X272108794Y-137568788D01*
X272352067Y-137812061D01*
X272638126Y-138003200D01*
X272955977Y-138134858D01*
X273293407Y-138201977D01*
X273637447Y-138201977D01*
X273974877Y-138134858D01*
X274292728Y-138003200D01*
X274578787Y-137812061D01*
X274822060Y-137568788D01*
X275013199Y-137282729D01*
X275144857Y-136964878D01*
X275211976Y-136627448D01*
X275211976Y-136283408D01*
X275144857Y-135945978D01*
X275013199Y-135628127D01*
X274822060Y-135342068D01*
X274578787Y-135098795D01*
X274292728Y-134907656D01*
X273974877Y-134775998D01*
X273637447Y-134708879D01*
X273293407Y-134708879D01*
X272955977Y-134775998D01*
X272638126Y-134907656D01*
X272352067Y-135098795D01*
X272108794Y-135342068D01*
X271917655Y-135628127D01*
X271785997Y-135945978D01*
X271718878Y-136283408D01*
X189858958Y-136283408D01*
X189845918Y-136270368D01*
X189559859Y-136079229D01*
X189242008Y-135947571D01*
X188904578Y-135880452D01*
X188560538Y-135880452D01*
X188223108Y-135947571D01*
X187905257Y-136079229D01*
X187619198Y-136270368D01*
X187375925Y-136513641D01*
X187184786Y-136799700D01*
X187053128Y-137117551D01*
X186986009Y-137454981D01*
X106558549Y-137454981D01*
X106491430Y-137117551D01*
X106359772Y-136799700D01*
X106168633Y-136513641D01*
X105925360Y-136270368D01*
X105639301Y-136079229D01*
X105321450Y-135947571D01*
X104984020Y-135880452D01*
X104639980Y-135880452D01*
X104302550Y-135947571D01*
X103984699Y-136079229D01*
X103698640Y-136270368D01*
X103455367Y-136513641D01*
X103264228Y-136799700D01*
X103132570Y-137117551D01*
X103065451Y-137454981D01*
X21591249Y-137454981D01*
X21706345Y-137282729D01*
X21838003Y-136964878D01*
X21905122Y-136627448D01*
X21905122Y-136283408D01*
X21838003Y-135945978D01*
X21706345Y-135628127D01*
X21515206Y-135342068D01*
X21271933Y-135098795D01*
X20985874Y-134907656D01*
X20668023Y-134775998D01*
X20330593Y-134708879D01*
X19986553Y-134708879D01*
X19649123Y-134775998D01*
X19331272Y-134907656D01*
X19045213Y-135098795D01*
X18801940Y-135342068D01*
X18610801Y-135628127D01*
X18479143Y-135945978D01*
X18412024Y-136283408D01*
X17876998Y-136283408D01*
X17852374Y-136243226D01*
X17506322Y-135407779D01*
X17295222Y-134528487D01*
X17222001Y-133598125D01*
X17222001Y-59591325D01*
X64655860Y-59591325D01*
X64655860Y-60562675D01*
X64845361Y-61515361D01*
X65217080Y-62412771D01*
X65756733Y-63220419D01*
X66443581Y-63907267D01*
X67251229Y-64446920D01*
X68148639Y-64818639D01*
X69101325Y-65008140D01*
X70072675Y-65008140D01*
X71025361Y-64818639D01*
X71922771Y-64446920D01*
X72730419Y-63907267D01*
X73417267Y-63220419D01*
X73956920Y-62412771D01*
X74328639Y-61515361D01*
X74518140Y-60562675D01*
X74518140Y-59591325D01*
X74328639Y-58638639D01*
X73956920Y-57741229D01*
X73417267Y-56933581D01*
X72730419Y-56246733D01*
X71922771Y-55707080D01*
X71025361Y-55335361D01*
X70072675Y-55145860D01*
X69101325Y-55145860D01*
X68148639Y-55335361D01*
X67251229Y-55707080D01*
X66443581Y-56246733D01*
X65756733Y-56933581D01*
X65217080Y-57741229D01*
X64845361Y-58638639D01*
X64655860Y-59591325D01*
X17222001Y-59591325D01*
X17222001Y-38405863D01*
X17295221Y-37475514D01*
X17506322Y-36596216D01*
X17852372Y-35760779D01*
X18087825Y-35376553D01*
X18412024Y-35376553D01*
X18412024Y-35720593D01*
X18479143Y-36058023D01*
X18610801Y-36375874D01*
X18801940Y-36661933D01*
X19045213Y-36905206D01*
X19331272Y-37096345D01*
X19649123Y-37228003D01*
X19986553Y-37295122D01*
X20330593Y-37295122D01*
X20668023Y-37228003D01*
X20985874Y-37096345D01*
X21271933Y-36905206D01*
X21515206Y-36661933D01*
X21706345Y-36375874D01*
X21838003Y-36058023D01*
X21905122Y-35720593D01*
X21905122Y-35376553D01*
X21838003Y-35039123D01*
X21706345Y-34721272D01*
X21515206Y-34435213D01*
X21284973Y-34204980D01*
X103065451Y-34204980D01*
X103065451Y-34549020D01*
X103132570Y-34886450D01*
X103264228Y-35204301D01*
X103455367Y-35490360D01*
X103698640Y-35733633D01*
X103984699Y-35924772D01*
X104302550Y-36056430D01*
X104639980Y-36123549D01*
X104984020Y-36123549D01*
X105321450Y-36056430D01*
X105639301Y-35924772D01*
X105925360Y-35733633D01*
X106168633Y-35490360D01*
X106359772Y-35204301D01*
X106491430Y-34886450D01*
X106558549Y-34549020D01*
X106558549Y-34204980D01*
X187065451Y-34204980D01*
X187065451Y-34549020D01*
X187132570Y-34886450D01*
X187264228Y-35204301D01*
X187455367Y-35490360D01*
X187698640Y-35733633D01*
X187984699Y-35924772D01*
X188302550Y-36056430D01*
X188639980Y-36123549D01*
X188984020Y-36123549D01*
X189321450Y-36056430D01*
X189639301Y-35924772D01*
X189925360Y-35733633D01*
X190168633Y-35490360D01*
X190244676Y-35376553D01*
X271718878Y-35376553D01*
X271718878Y-35720593D01*
X271785997Y-36058023D01*
X271917655Y-36375874D01*
X272108794Y-36661933D01*
X272352067Y-36905206D01*
X272638126Y-37096345D01*
X272955977Y-37228003D01*
X273293407Y-37295122D01*
X273637447Y-37295122D01*
X273974877Y-37228003D01*
X274292728Y-37096345D01*
X274578787Y-36905206D01*
X274822060Y-36661933D01*
X275013199Y-36375874D01*
X275144857Y-36058023D01*
X275211976Y-35720593D01*
X275211976Y-35376553D01*
X275144857Y-35039123D01*
X275013199Y-34721272D01*
X274822060Y-34435213D01*
X274578787Y-34191940D01*
X274292728Y-34000801D01*
X273974877Y-33869143D01*
X273637447Y-33802024D01*
X273293407Y-33802024D01*
X272955977Y-33869143D01*
X272638126Y-34000801D01*
X272352067Y-34191940D01*
X272108794Y-34435213D01*
X271917655Y-34721272D01*
X271785997Y-35039123D01*
X271718878Y-35376553D01*
X190244676Y-35376553D01*
X190359772Y-35204301D01*
X190491430Y-34886450D01*
X190558549Y-34549020D01*
X190558549Y-34204980D01*
X190491430Y-33867550D01*
X190359772Y-33549699D01*
X190168633Y-33263640D01*
X189925360Y-33020367D01*
X189639301Y-32829228D01*
X189321450Y-32697570D01*
X188984020Y-32630451D01*
X188639980Y-32630451D01*
X188302550Y-32697570D01*
X187984699Y-32829228D01*
X187698640Y-33020367D01*
X187455367Y-33263640D01*
X187264228Y-33549699D01*
X187132570Y-33867550D01*
X187065451Y-34204980D01*
X106558549Y-34204980D01*
X106491430Y-33867550D01*
X106359772Y-33549699D01*
X106168633Y-33263640D01*
X105925360Y-33020367D01*
X105639301Y-32829228D01*
X105321450Y-32697570D01*
X104984020Y-32630451D01*
X104639980Y-32630451D01*
X104302550Y-32697570D01*
X103984699Y-32829228D01*
X103698640Y-33020367D01*
X103455367Y-33263640D01*
X103264228Y-33549699D01*
X103132570Y-33867550D01*
X103065451Y-34204980D01*
X21284973Y-34204980D01*
X21271933Y-34191940D01*
X20985874Y-34000801D01*
X20668023Y-33869143D01*
X20330593Y-33802024D01*
X19986553Y-33802024D01*
X19649123Y-33869143D01*
X19331272Y-34000801D01*
X19045213Y-34191940D01*
X18801940Y-34435213D01*
X18610801Y-34721272D01*
X18479143Y-35039123D01*
X18412024Y-35376553D01*
X18087825Y-35376553D01*
X18324855Y-34989756D01*
X18912137Y-34302137D01*
X19599755Y-33714856D01*
X20370781Y-33242371D01*
X21206220Y-32896321D01*
X22085514Y-32685221D01*
X23015875Y-32612000D01*
X270608124Y-32612000D01*
X271538486Y-32685221D01*
G37*
G04 #@! TD.AperFunction*
M02*
