%TF.GenerationSoftware,KiCad,Pcbnew,5.1.9+dfsg1-1*%
%TF.CreationDate,2021-12-19T19:28:55+01:00*%
%TF.ProjectId,okey65-bottom-plate,6f6b6579-3635-42d6-926f-74746f6d2d70,rev?*%
%TF.SameCoordinates,Original*%
%TF.FileFunction,Copper,L1,Top*%
%TF.FilePolarity,Positive*%
%FSLAX46Y46*%
G04 Gerber Fmt 4.6, Leading zero omitted, Abs format (unit mm)*
G04 Created by KiCad (PCBNEW 5.1.9+dfsg1-1) date 2021-12-19 19:28:55*
%MOMM*%
%LPD*%
G01*
G04 APERTURE LIST*
%TA.AperFunction,NonConductor*%
%ADD10C,0.254000*%
%TD*%
%TA.AperFunction,NonConductor*%
%ADD11C,0.100000*%
%TD*%
G04 APERTURE END LIST*
D10*
X271538486Y-32408220D02*
X272417784Y-32619321D01*
X273253221Y-32965371D01*
X274024244Y-33437854D01*
X274711863Y-34025136D01*
X275299144Y-34712754D01*
X275771629Y-35483780D01*
X276117679Y-36319219D01*
X276328779Y-37198513D01*
X276402001Y-38128887D01*
X276402000Y-133321125D01*
X276328779Y-134251486D01*
X276117679Y-135130780D01*
X275771629Y-135966219D01*
X275299144Y-136737245D01*
X274711863Y-137424863D01*
X274024244Y-138012145D01*
X273253221Y-138484628D01*
X272417784Y-138830678D01*
X271538486Y-139041779D01*
X270608124Y-139115000D01*
X23015888Y-139115000D01*
X22085514Y-139041778D01*
X21206220Y-138830678D01*
X20370776Y-138484626D01*
X19599754Y-138012144D01*
X18912138Y-137424862D01*
X18324855Y-136737244D01*
X17876998Y-136006407D01*
X18412024Y-136006407D01*
X18412024Y-136350447D01*
X18479143Y-136687877D01*
X18610801Y-137005728D01*
X18801940Y-137291787D01*
X19045213Y-137535060D01*
X19331272Y-137726199D01*
X19649123Y-137857857D01*
X19986553Y-137924976D01*
X20330593Y-137924976D01*
X20668023Y-137857857D01*
X20985874Y-137726199D01*
X21271933Y-137535060D01*
X21515206Y-137291787D01*
X21591249Y-137177980D01*
X103065451Y-137177980D01*
X103065451Y-137522020D01*
X103132570Y-137859450D01*
X103264228Y-138177301D01*
X103455367Y-138463360D01*
X103698640Y-138706633D01*
X103984699Y-138897772D01*
X104302550Y-139029430D01*
X104639980Y-139096549D01*
X104984020Y-139096549D01*
X105321450Y-139029430D01*
X105639301Y-138897772D01*
X105925360Y-138706633D01*
X106168633Y-138463360D01*
X106359772Y-138177301D01*
X106491430Y-137859450D01*
X106558549Y-137522020D01*
X106558549Y-137177980D01*
X187065451Y-137177980D01*
X187065451Y-137522020D01*
X187132570Y-137859450D01*
X187264228Y-138177301D01*
X187455367Y-138463360D01*
X187698640Y-138706633D01*
X187984699Y-138897772D01*
X188302550Y-139029430D01*
X188639980Y-139096549D01*
X188984020Y-139096549D01*
X189321450Y-139029430D01*
X189639301Y-138897772D01*
X189925360Y-138706633D01*
X190168633Y-138463360D01*
X190359772Y-138177301D01*
X190491430Y-137859450D01*
X190558549Y-137522020D01*
X190558549Y-137177980D01*
X190491430Y-136840550D01*
X190359772Y-136522699D01*
X190168633Y-136236640D01*
X189938400Y-136006407D01*
X271718878Y-136006407D01*
X271718878Y-136350447D01*
X271785997Y-136687877D01*
X271917655Y-137005728D01*
X272108794Y-137291787D01*
X272352067Y-137535060D01*
X272638126Y-137726199D01*
X272955977Y-137857857D01*
X273293407Y-137924976D01*
X273637447Y-137924976D01*
X273974877Y-137857857D01*
X274292728Y-137726199D01*
X274578787Y-137535060D01*
X274822060Y-137291787D01*
X275013199Y-137005728D01*
X275144857Y-136687877D01*
X275211976Y-136350447D01*
X275211976Y-136006407D01*
X275144857Y-135668977D01*
X275013199Y-135351126D01*
X274822060Y-135065067D01*
X274578787Y-134821794D01*
X274292728Y-134630655D01*
X273974877Y-134498997D01*
X273637447Y-134431878D01*
X273293407Y-134431878D01*
X272955977Y-134498997D01*
X272638126Y-134630655D01*
X272352067Y-134821794D01*
X272108794Y-135065067D01*
X271917655Y-135351126D01*
X271785997Y-135668977D01*
X271718878Y-136006407D01*
X189938400Y-136006407D01*
X189925360Y-135993367D01*
X189639301Y-135802228D01*
X189321450Y-135670570D01*
X188984020Y-135603451D01*
X188639980Y-135603451D01*
X188302550Y-135670570D01*
X187984699Y-135802228D01*
X187698640Y-135993367D01*
X187455367Y-136236640D01*
X187264228Y-136522699D01*
X187132570Y-136840550D01*
X187065451Y-137177980D01*
X106558549Y-137177980D01*
X106491430Y-136840550D01*
X106359772Y-136522699D01*
X106168633Y-136236640D01*
X105925360Y-135993367D01*
X105639301Y-135802228D01*
X105321450Y-135670570D01*
X104984020Y-135603451D01*
X104639980Y-135603451D01*
X104302550Y-135670570D01*
X103984699Y-135802228D01*
X103698640Y-135993367D01*
X103455367Y-136236640D01*
X103264228Y-136522699D01*
X103132570Y-136840550D01*
X103065451Y-137177980D01*
X21591249Y-137177980D01*
X21706345Y-137005728D01*
X21838003Y-136687877D01*
X21905122Y-136350447D01*
X21905122Y-136006407D01*
X21838003Y-135668977D01*
X21706345Y-135351126D01*
X21515206Y-135065067D01*
X21271933Y-134821794D01*
X20985874Y-134630655D01*
X20668023Y-134498997D01*
X20330593Y-134431878D01*
X19986553Y-134431878D01*
X19649123Y-134498997D01*
X19331272Y-134630655D01*
X19045213Y-134821794D01*
X18801940Y-135065067D01*
X18610801Y-135351126D01*
X18479143Y-135668977D01*
X18412024Y-136006407D01*
X17876998Y-136006407D01*
X17852374Y-135966225D01*
X17506322Y-135130778D01*
X17295222Y-134251486D01*
X17222001Y-133321124D01*
X17222001Y-38128862D01*
X17295221Y-37198513D01*
X17506322Y-36319215D01*
X17852372Y-35483778D01*
X18087825Y-35099552D01*
X18412024Y-35099552D01*
X18412024Y-35443592D01*
X18479143Y-35781022D01*
X18610801Y-36098873D01*
X18801940Y-36384932D01*
X19045213Y-36628205D01*
X19331272Y-36819344D01*
X19649123Y-36951002D01*
X19986553Y-37018121D01*
X20330593Y-37018121D01*
X20668023Y-36951002D01*
X20985874Y-36819344D01*
X21271933Y-36628205D01*
X21515206Y-36384932D01*
X21706345Y-36098873D01*
X21838003Y-35781022D01*
X21905122Y-35443592D01*
X21905122Y-35099552D01*
X21838003Y-34762122D01*
X21706345Y-34444271D01*
X21515206Y-34158212D01*
X21284973Y-33927979D01*
X103065451Y-33927979D01*
X103065451Y-34272019D01*
X103132570Y-34609449D01*
X103264228Y-34927300D01*
X103455367Y-35213359D01*
X103698640Y-35456632D01*
X103984699Y-35647771D01*
X104302550Y-35779429D01*
X104639980Y-35846548D01*
X104984020Y-35846548D01*
X105321450Y-35779429D01*
X105639301Y-35647771D01*
X105925360Y-35456632D01*
X106168633Y-35213359D01*
X106359772Y-34927300D01*
X106491430Y-34609449D01*
X106558549Y-34272019D01*
X106558549Y-33927979D01*
X186986009Y-33927979D01*
X186986009Y-34272019D01*
X187053128Y-34609449D01*
X187184786Y-34927300D01*
X187375925Y-35213359D01*
X187619198Y-35456632D01*
X187905257Y-35647771D01*
X188223108Y-35779429D01*
X188560538Y-35846548D01*
X188904578Y-35846548D01*
X189242008Y-35779429D01*
X189559859Y-35647771D01*
X189845918Y-35456632D01*
X190089191Y-35213359D01*
X190165234Y-35099552D01*
X271718878Y-35099552D01*
X271718878Y-35443592D01*
X271785997Y-35781022D01*
X271917655Y-36098873D01*
X272108794Y-36384932D01*
X272352067Y-36628205D01*
X272638126Y-36819344D01*
X272955977Y-36951002D01*
X273293407Y-37018121D01*
X273637447Y-37018121D01*
X273974877Y-36951002D01*
X274292728Y-36819344D01*
X274578787Y-36628205D01*
X274822060Y-36384932D01*
X275013199Y-36098873D01*
X275144857Y-35781022D01*
X275211976Y-35443592D01*
X275211976Y-35099552D01*
X275144857Y-34762122D01*
X275013199Y-34444271D01*
X274822060Y-34158212D01*
X274578787Y-33914939D01*
X274292728Y-33723800D01*
X273974877Y-33592142D01*
X273637447Y-33525023D01*
X273293407Y-33525023D01*
X272955977Y-33592142D01*
X272638126Y-33723800D01*
X272352067Y-33914939D01*
X272108794Y-34158212D01*
X271917655Y-34444271D01*
X271785997Y-34762122D01*
X271718878Y-35099552D01*
X190165234Y-35099552D01*
X190280330Y-34927300D01*
X190411988Y-34609449D01*
X190479107Y-34272019D01*
X190479107Y-33927979D01*
X190411988Y-33590549D01*
X190280330Y-33272698D01*
X190089191Y-32986639D01*
X189845918Y-32743366D01*
X189559859Y-32552227D01*
X189242008Y-32420569D01*
X188904578Y-32353450D01*
X188560538Y-32353450D01*
X188223108Y-32420569D01*
X187905257Y-32552227D01*
X187619198Y-32743366D01*
X187375925Y-32986639D01*
X187184786Y-33272698D01*
X187053128Y-33590549D01*
X186986009Y-33927979D01*
X106558549Y-33927979D01*
X106491430Y-33590549D01*
X106359772Y-33272698D01*
X106168633Y-32986639D01*
X105925360Y-32743366D01*
X105639301Y-32552227D01*
X105321450Y-32420569D01*
X104984020Y-32353450D01*
X104639980Y-32353450D01*
X104302550Y-32420569D01*
X103984699Y-32552227D01*
X103698640Y-32743366D01*
X103455367Y-32986639D01*
X103264228Y-33272698D01*
X103132570Y-33590549D01*
X103065451Y-33927979D01*
X21284973Y-33927979D01*
X21271933Y-33914939D01*
X20985874Y-33723800D01*
X20668023Y-33592142D01*
X20330593Y-33525023D01*
X19986553Y-33525023D01*
X19649123Y-33592142D01*
X19331272Y-33723800D01*
X19045213Y-33914939D01*
X18801940Y-34158212D01*
X18610801Y-34444271D01*
X18479143Y-34762122D01*
X18412024Y-35099552D01*
X18087825Y-35099552D01*
X18324855Y-34712755D01*
X18912137Y-34025136D01*
X19599755Y-33437855D01*
X20370781Y-32965370D01*
X21206220Y-32619320D01*
X22085514Y-32408220D01*
X23015875Y-32334999D01*
X270608124Y-32334999D01*
X271538486Y-32408220D01*
%TA.AperFunction,NonConductor*%
D11*
G36*
X271538486Y-32408220D02*
G01*
X272417784Y-32619321D01*
X273253221Y-32965371D01*
X274024244Y-33437854D01*
X274711863Y-34025136D01*
X275299144Y-34712754D01*
X275771629Y-35483780D01*
X276117679Y-36319219D01*
X276328779Y-37198513D01*
X276402001Y-38128887D01*
X276402000Y-133321125D01*
X276328779Y-134251486D01*
X276117679Y-135130780D01*
X275771629Y-135966219D01*
X275299144Y-136737245D01*
X274711863Y-137424863D01*
X274024244Y-138012145D01*
X273253221Y-138484628D01*
X272417784Y-138830678D01*
X271538486Y-139041779D01*
X270608124Y-139115000D01*
X23015888Y-139115000D01*
X22085514Y-139041778D01*
X21206220Y-138830678D01*
X20370776Y-138484626D01*
X19599754Y-138012144D01*
X18912138Y-137424862D01*
X18324855Y-136737244D01*
X17876998Y-136006407D01*
X18412024Y-136006407D01*
X18412024Y-136350447D01*
X18479143Y-136687877D01*
X18610801Y-137005728D01*
X18801940Y-137291787D01*
X19045213Y-137535060D01*
X19331272Y-137726199D01*
X19649123Y-137857857D01*
X19986553Y-137924976D01*
X20330593Y-137924976D01*
X20668023Y-137857857D01*
X20985874Y-137726199D01*
X21271933Y-137535060D01*
X21515206Y-137291787D01*
X21591249Y-137177980D01*
X103065451Y-137177980D01*
X103065451Y-137522020D01*
X103132570Y-137859450D01*
X103264228Y-138177301D01*
X103455367Y-138463360D01*
X103698640Y-138706633D01*
X103984699Y-138897772D01*
X104302550Y-139029430D01*
X104639980Y-139096549D01*
X104984020Y-139096549D01*
X105321450Y-139029430D01*
X105639301Y-138897772D01*
X105925360Y-138706633D01*
X106168633Y-138463360D01*
X106359772Y-138177301D01*
X106491430Y-137859450D01*
X106558549Y-137522020D01*
X106558549Y-137177980D01*
X187065451Y-137177980D01*
X187065451Y-137522020D01*
X187132570Y-137859450D01*
X187264228Y-138177301D01*
X187455367Y-138463360D01*
X187698640Y-138706633D01*
X187984699Y-138897772D01*
X188302550Y-139029430D01*
X188639980Y-139096549D01*
X188984020Y-139096549D01*
X189321450Y-139029430D01*
X189639301Y-138897772D01*
X189925360Y-138706633D01*
X190168633Y-138463360D01*
X190359772Y-138177301D01*
X190491430Y-137859450D01*
X190558549Y-137522020D01*
X190558549Y-137177980D01*
X190491430Y-136840550D01*
X190359772Y-136522699D01*
X190168633Y-136236640D01*
X189938400Y-136006407D01*
X271718878Y-136006407D01*
X271718878Y-136350447D01*
X271785997Y-136687877D01*
X271917655Y-137005728D01*
X272108794Y-137291787D01*
X272352067Y-137535060D01*
X272638126Y-137726199D01*
X272955977Y-137857857D01*
X273293407Y-137924976D01*
X273637447Y-137924976D01*
X273974877Y-137857857D01*
X274292728Y-137726199D01*
X274578787Y-137535060D01*
X274822060Y-137291787D01*
X275013199Y-137005728D01*
X275144857Y-136687877D01*
X275211976Y-136350447D01*
X275211976Y-136006407D01*
X275144857Y-135668977D01*
X275013199Y-135351126D01*
X274822060Y-135065067D01*
X274578787Y-134821794D01*
X274292728Y-134630655D01*
X273974877Y-134498997D01*
X273637447Y-134431878D01*
X273293407Y-134431878D01*
X272955977Y-134498997D01*
X272638126Y-134630655D01*
X272352067Y-134821794D01*
X272108794Y-135065067D01*
X271917655Y-135351126D01*
X271785997Y-135668977D01*
X271718878Y-136006407D01*
X189938400Y-136006407D01*
X189925360Y-135993367D01*
X189639301Y-135802228D01*
X189321450Y-135670570D01*
X188984020Y-135603451D01*
X188639980Y-135603451D01*
X188302550Y-135670570D01*
X187984699Y-135802228D01*
X187698640Y-135993367D01*
X187455367Y-136236640D01*
X187264228Y-136522699D01*
X187132570Y-136840550D01*
X187065451Y-137177980D01*
X106558549Y-137177980D01*
X106491430Y-136840550D01*
X106359772Y-136522699D01*
X106168633Y-136236640D01*
X105925360Y-135993367D01*
X105639301Y-135802228D01*
X105321450Y-135670570D01*
X104984020Y-135603451D01*
X104639980Y-135603451D01*
X104302550Y-135670570D01*
X103984699Y-135802228D01*
X103698640Y-135993367D01*
X103455367Y-136236640D01*
X103264228Y-136522699D01*
X103132570Y-136840550D01*
X103065451Y-137177980D01*
X21591249Y-137177980D01*
X21706345Y-137005728D01*
X21838003Y-136687877D01*
X21905122Y-136350447D01*
X21905122Y-136006407D01*
X21838003Y-135668977D01*
X21706345Y-135351126D01*
X21515206Y-135065067D01*
X21271933Y-134821794D01*
X20985874Y-134630655D01*
X20668023Y-134498997D01*
X20330593Y-134431878D01*
X19986553Y-134431878D01*
X19649123Y-134498997D01*
X19331272Y-134630655D01*
X19045213Y-134821794D01*
X18801940Y-135065067D01*
X18610801Y-135351126D01*
X18479143Y-135668977D01*
X18412024Y-136006407D01*
X17876998Y-136006407D01*
X17852374Y-135966225D01*
X17506322Y-135130778D01*
X17295222Y-134251486D01*
X17222001Y-133321124D01*
X17222001Y-38128862D01*
X17295221Y-37198513D01*
X17506322Y-36319215D01*
X17852372Y-35483778D01*
X18087825Y-35099552D01*
X18412024Y-35099552D01*
X18412024Y-35443592D01*
X18479143Y-35781022D01*
X18610801Y-36098873D01*
X18801940Y-36384932D01*
X19045213Y-36628205D01*
X19331272Y-36819344D01*
X19649123Y-36951002D01*
X19986553Y-37018121D01*
X20330593Y-37018121D01*
X20668023Y-36951002D01*
X20985874Y-36819344D01*
X21271933Y-36628205D01*
X21515206Y-36384932D01*
X21706345Y-36098873D01*
X21838003Y-35781022D01*
X21905122Y-35443592D01*
X21905122Y-35099552D01*
X21838003Y-34762122D01*
X21706345Y-34444271D01*
X21515206Y-34158212D01*
X21284973Y-33927979D01*
X103065451Y-33927979D01*
X103065451Y-34272019D01*
X103132570Y-34609449D01*
X103264228Y-34927300D01*
X103455367Y-35213359D01*
X103698640Y-35456632D01*
X103984699Y-35647771D01*
X104302550Y-35779429D01*
X104639980Y-35846548D01*
X104984020Y-35846548D01*
X105321450Y-35779429D01*
X105639301Y-35647771D01*
X105925360Y-35456632D01*
X106168633Y-35213359D01*
X106359772Y-34927300D01*
X106491430Y-34609449D01*
X106558549Y-34272019D01*
X106558549Y-33927979D01*
X186986009Y-33927979D01*
X186986009Y-34272019D01*
X187053128Y-34609449D01*
X187184786Y-34927300D01*
X187375925Y-35213359D01*
X187619198Y-35456632D01*
X187905257Y-35647771D01*
X188223108Y-35779429D01*
X188560538Y-35846548D01*
X188904578Y-35846548D01*
X189242008Y-35779429D01*
X189559859Y-35647771D01*
X189845918Y-35456632D01*
X190089191Y-35213359D01*
X190165234Y-35099552D01*
X271718878Y-35099552D01*
X271718878Y-35443592D01*
X271785997Y-35781022D01*
X271917655Y-36098873D01*
X272108794Y-36384932D01*
X272352067Y-36628205D01*
X272638126Y-36819344D01*
X272955977Y-36951002D01*
X273293407Y-37018121D01*
X273637447Y-37018121D01*
X273974877Y-36951002D01*
X274292728Y-36819344D01*
X274578787Y-36628205D01*
X274822060Y-36384932D01*
X275013199Y-36098873D01*
X275144857Y-35781022D01*
X275211976Y-35443592D01*
X275211976Y-35099552D01*
X275144857Y-34762122D01*
X275013199Y-34444271D01*
X274822060Y-34158212D01*
X274578787Y-33914939D01*
X274292728Y-33723800D01*
X273974877Y-33592142D01*
X273637447Y-33525023D01*
X273293407Y-33525023D01*
X272955977Y-33592142D01*
X272638126Y-33723800D01*
X272352067Y-33914939D01*
X272108794Y-34158212D01*
X271917655Y-34444271D01*
X271785997Y-34762122D01*
X271718878Y-35099552D01*
X190165234Y-35099552D01*
X190280330Y-34927300D01*
X190411988Y-34609449D01*
X190479107Y-34272019D01*
X190479107Y-33927979D01*
X190411988Y-33590549D01*
X190280330Y-33272698D01*
X190089191Y-32986639D01*
X189845918Y-32743366D01*
X189559859Y-32552227D01*
X189242008Y-32420569D01*
X188904578Y-32353450D01*
X188560538Y-32353450D01*
X188223108Y-32420569D01*
X187905257Y-32552227D01*
X187619198Y-32743366D01*
X187375925Y-32986639D01*
X187184786Y-33272698D01*
X187053128Y-33590549D01*
X186986009Y-33927979D01*
X106558549Y-33927979D01*
X106491430Y-33590549D01*
X106359772Y-33272698D01*
X106168633Y-32986639D01*
X105925360Y-32743366D01*
X105639301Y-32552227D01*
X105321450Y-32420569D01*
X104984020Y-32353450D01*
X104639980Y-32353450D01*
X104302550Y-32420569D01*
X103984699Y-32552227D01*
X103698640Y-32743366D01*
X103455367Y-32986639D01*
X103264228Y-33272698D01*
X103132570Y-33590549D01*
X103065451Y-33927979D01*
X21284973Y-33927979D01*
X21271933Y-33914939D01*
X20985874Y-33723800D01*
X20668023Y-33592142D01*
X20330593Y-33525023D01*
X19986553Y-33525023D01*
X19649123Y-33592142D01*
X19331272Y-33723800D01*
X19045213Y-33914939D01*
X18801940Y-34158212D01*
X18610801Y-34444271D01*
X18479143Y-34762122D01*
X18412024Y-35099552D01*
X18087825Y-35099552D01*
X18324855Y-34712755D01*
X18912137Y-34025136D01*
X19599755Y-33437855D01*
X20370781Y-32965370D01*
X21206220Y-32619320D01*
X22085514Y-32408220D01*
X23015875Y-32334999D01*
X270608124Y-32334999D01*
X271538486Y-32408220D01*
G37*
%TD.AperFunction*%
M02*
