%TF.GenerationSoftware,KiCad,Pcbnew,5.1.9+dfsg1-1*%
%TF.CreationDate,2021-12-19T00:26:22+01:00*%
%TF.ProjectId,okey65-pcb,6f6b6579-3635-42d7-9063-622e6b696361,rev?*%
%TF.SameCoordinates,Original*%
%TF.FileFunction,Legend,Bot*%
%TF.FilePolarity,Positive*%
%FSLAX46Y46*%
G04 Gerber Fmt 4.6, Leading zero omitted, Abs format (unit mm)*
G04 Created by KiCad (PCBNEW 5.1.9+dfsg1-1) date 2021-12-19 00:26:22*
%MOMM*%
%LPD*%
G01*
G04 APERTURE LIST*
%ADD10C,0.300000*%
%ADD11C,0.500000*%
%ADD12C,0.120000*%
%ADD13C,0.150000*%
%ADD14C,2.250000*%
%ADD15C,3.987800*%
%ADD16C,1.750000*%
%ADD17R,1.400000X1.200000*%
%ADD18R,0.550000X1.500000*%
%ADD19R,1.500000X0.550000*%
%ADD20R,1.800000X1.100000*%
%ADD21R,0.600000X1.160000*%
%ADD22C,0.600000*%
%ADD23R,0.300000X1.160000*%
%ADD24O,0.900000X1.700000*%
%ADD25O,0.900000X2.000000*%
%ADD26O,1.800000X2.400000*%
%ADD27R,1.200000X0.900000*%
%ADD28R,0.900000X1.200000*%
G04 APERTURE END LIST*
D10*
X98072428Y-109870761D02*
X98072428Y-107870761D01*
X97215285Y-109870761D02*
X97215285Y-108823142D01*
X97310523Y-108632666D01*
X97501000Y-108537428D01*
X97786714Y-108537428D01*
X97977190Y-108632666D01*
X98072428Y-108727904D01*
X96548619Y-108537428D02*
X95786714Y-108537428D01*
X96262904Y-107870761D02*
X96262904Y-109585047D01*
X96167666Y-109775523D01*
X95977190Y-109870761D01*
X95786714Y-109870761D01*
X95405761Y-108537428D02*
X94643857Y-108537428D01*
X95120047Y-107870761D02*
X95120047Y-109585047D01*
X95024809Y-109775523D01*
X94834333Y-109870761D01*
X94643857Y-109870761D01*
X93977190Y-108537428D02*
X93977190Y-110537428D01*
X93977190Y-108632666D02*
X93786714Y-108537428D01*
X93405761Y-108537428D01*
X93215285Y-108632666D01*
X93120047Y-108727904D01*
X93024809Y-108918380D01*
X93024809Y-109489809D01*
X93120047Y-109680285D01*
X93215285Y-109775523D01*
X93405761Y-109870761D01*
X93786714Y-109870761D01*
X93977190Y-109775523D01*
X92262904Y-109775523D02*
X92072428Y-109870761D01*
X91691476Y-109870761D01*
X91501000Y-109775523D01*
X91405761Y-109585047D01*
X91405761Y-109489809D01*
X91501000Y-109299333D01*
X91691476Y-109204095D01*
X91977190Y-109204095D01*
X92167666Y-109108857D01*
X92262904Y-108918380D01*
X92262904Y-108823142D01*
X92167666Y-108632666D01*
X91977190Y-108537428D01*
X91691476Y-108537428D01*
X91501000Y-108632666D01*
X90548619Y-109680285D02*
X90453380Y-109775523D01*
X90548619Y-109870761D01*
X90643857Y-109775523D01*
X90548619Y-109680285D01*
X90548619Y-109870761D01*
X90548619Y-108632666D02*
X90453380Y-108727904D01*
X90548619Y-108823142D01*
X90643857Y-108727904D01*
X90548619Y-108632666D01*
X90548619Y-108823142D01*
X88167666Y-107775523D02*
X89881952Y-110346952D01*
X86072428Y-107775523D02*
X87786714Y-110346952D01*
X84548619Y-108537428D02*
X84548619Y-110156476D01*
X84643857Y-110346952D01*
X84739095Y-110442190D01*
X84929571Y-110537428D01*
X85215285Y-110537428D01*
X85405761Y-110442190D01*
X84548619Y-109775523D02*
X84739095Y-109870761D01*
X85120047Y-109870761D01*
X85310523Y-109775523D01*
X85405761Y-109680285D01*
X85501000Y-109489809D01*
X85501000Y-108918380D01*
X85405761Y-108727904D01*
X85310523Y-108632666D01*
X85120047Y-108537428D01*
X84739095Y-108537428D01*
X84548619Y-108632666D01*
X83596238Y-109870761D02*
X83596238Y-108537428D01*
X83596238Y-107870761D02*
X83691476Y-107966000D01*
X83596238Y-108061238D01*
X83501000Y-107966000D01*
X83596238Y-107870761D01*
X83596238Y-108061238D01*
X82929571Y-108537428D02*
X82167666Y-108537428D01*
X82643857Y-107870761D02*
X82643857Y-109585047D01*
X82548619Y-109775523D01*
X82358142Y-109870761D01*
X82167666Y-109870761D01*
X81501000Y-109870761D02*
X81501000Y-107870761D01*
X80643857Y-109870761D02*
X80643857Y-108823142D01*
X80739095Y-108632666D01*
X80929571Y-108537428D01*
X81215285Y-108537428D01*
X81405761Y-108632666D01*
X81501000Y-108727904D01*
X78834333Y-108537428D02*
X78834333Y-109870761D01*
X79691476Y-108537428D02*
X79691476Y-109585047D01*
X79596238Y-109775523D01*
X79405761Y-109870761D01*
X79120047Y-109870761D01*
X78929571Y-109775523D01*
X78834333Y-109680285D01*
X77881952Y-109870761D02*
X77881952Y-107870761D01*
X77881952Y-108632666D02*
X77691476Y-108537428D01*
X77310523Y-108537428D01*
X77120047Y-108632666D01*
X77024809Y-108727904D01*
X76929571Y-108918380D01*
X76929571Y-109489809D01*
X77024809Y-109680285D01*
X77120047Y-109775523D01*
X77310523Y-109870761D01*
X77691476Y-109870761D01*
X77881952Y-109775523D01*
X76072428Y-109680285D02*
X75977190Y-109775523D01*
X76072428Y-109870761D01*
X76167666Y-109775523D01*
X76072428Y-109680285D01*
X76072428Y-109870761D01*
X74262904Y-109775523D02*
X74453380Y-109870761D01*
X74834333Y-109870761D01*
X75024809Y-109775523D01*
X75120047Y-109680285D01*
X75215285Y-109489809D01*
X75215285Y-108918380D01*
X75120047Y-108727904D01*
X75024809Y-108632666D01*
X74834333Y-108537428D01*
X74453380Y-108537428D01*
X74262904Y-108632666D01*
X73120047Y-109870761D02*
X73310523Y-109775523D01*
X73405761Y-109680285D01*
X73501000Y-109489809D01*
X73501000Y-108918380D01*
X73405761Y-108727904D01*
X73310523Y-108632666D01*
X73120047Y-108537428D01*
X72834333Y-108537428D01*
X72643857Y-108632666D01*
X72548619Y-108727904D01*
X72453380Y-108918380D01*
X72453380Y-109489809D01*
X72548619Y-109680285D01*
X72643857Y-109775523D01*
X72834333Y-109870761D01*
X73120047Y-109870761D01*
X71596238Y-109870761D02*
X71596238Y-108537428D01*
X71596238Y-108727904D02*
X71501000Y-108632666D01*
X71310523Y-108537428D01*
X71024809Y-108537428D01*
X70834333Y-108632666D01*
X70739095Y-108823142D01*
X70739095Y-109870761D01*
X70739095Y-108823142D02*
X70643857Y-108632666D01*
X70453380Y-108537428D01*
X70167666Y-108537428D01*
X69977190Y-108632666D01*
X69881952Y-108823142D01*
X69881952Y-109870761D01*
X67501000Y-107775523D02*
X69215285Y-110346952D01*
X66834333Y-109870761D02*
X66834333Y-107870761D01*
X66643857Y-109108857D02*
X66072428Y-109870761D01*
X66072428Y-108537428D02*
X66834333Y-109299333D01*
X65215285Y-109870761D02*
X65215285Y-108537428D01*
X65215285Y-107870761D02*
X65310523Y-107966000D01*
X65215285Y-108061238D01*
X65120047Y-107966000D01*
X65215285Y-107870761D01*
X65215285Y-108061238D01*
X64262904Y-109870761D02*
X64262904Y-107870761D01*
X64072428Y-109108857D02*
X63501000Y-109870761D01*
X63501000Y-108537428D02*
X64262904Y-109299333D01*
X62739095Y-109775523D02*
X62548619Y-109870761D01*
X62167666Y-109870761D01*
X61977190Y-109775523D01*
X61881952Y-109585047D01*
X61881952Y-109489809D01*
X61977190Y-109299333D01*
X62167666Y-109204095D01*
X62453380Y-109204095D01*
X62643857Y-109108857D01*
X62739095Y-108918380D01*
X62739095Y-108823142D01*
X62643857Y-108632666D01*
X62453380Y-108537428D01*
X62167666Y-108537428D01*
X61977190Y-108632666D01*
X60167666Y-107870761D02*
X60548619Y-107870761D01*
X60739095Y-107966000D01*
X60834333Y-108061238D01*
X61024809Y-108346952D01*
X61120047Y-108727904D01*
X61120047Y-109489809D01*
X61024809Y-109680285D01*
X60929571Y-109775523D01*
X60739095Y-109870761D01*
X60358142Y-109870761D01*
X60167666Y-109775523D01*
X60072428Y-109680285D01*
X59977190Y-109489809D01*
X59977190Y-109013619D01*
X60072428Y-108823142D01*
X60167666Y-108727904D01*
X60358142Y-108632666D01*
X60739095Y-108632666D01*
X60929571Y-108727904D01*
X61024809Y-108823142D01*
X61120047Y-109013619D01*
X58262904Y-108537428D02*
X58262904Y-109870761D01*
X58739095Y-107775523D02*
X59215285Y-109204095D01*
X57977190Y-109204095D01*
X55786714Y-107775523D02*
X57501000Y-110346952D01*
X54739095Y-107870761D02*
X54358142Y-107870761D01*
X54167666Y-107966000D01*
X53977190Y-108156476D01*
X53881952Y-108537428D01*
X53881952Y-109204095D01*
X53977190Y-109585047D01*
X54167666Y-109775523D01*
X54358142Y-109870761D01*
X54739095Y-109870761D01*
X54929571Y-109775523D01*
X55120047Y-109585047D01*
X55215285Y-109204095D01*
X55215285Y-108537428D01*
X55120047Y-108156476D01*
X54929571Y-107966000D01*
X54739095Y-107870761D01*
X53024809Y-109870761D02*
X53024809Y-107870761D01*
X51881952Y-109870761D02*
X52739095Y-108727904D01*
X51881952Y-107870761D02*
X53024809Y-109013619D01*
X50262904Y-109775523D02*
X50453380Y-109870761D01*
X50834333Y-109870761D01*
X51024809Y-109775523D01*
X51120047Y-109585047D01*
X51120047Y-108823142D01*
X51024809Y-108632666D01*
X50834333Y-108537428D01*
X50453380Y-108537428D01*
X50262904Y-108632666D01*
X50167666Y-108823142D01*
X50167666Y-109013619D01*
X51120047Y-109204095D01*
X49501000Y-108537428D02*
X49024809Y-109870761D01*
X48548619Y-108537428D02*
X49024809Y-109870761D01*
X49215285Y-110346952D01*
X49310523Y-110442190D01*
X49501000Y-110537428D01*
X46929571Y-107870761D02*
X47310523Y-107870761D01*
X47501000Y-107966000D01*
X47596238Y-108061238D01*
X47786714Y-108346952D01*
X47881952Y-108727904D01*
X47881952Y-109489809D01*
X47786714Y-109680285D01*
X47691476Y-109775523D01*
X47501000Y-109870761D01*
X47120047Y-109870761D01*
X46929571Y-109775523D01*
X46834333Y-109680285D01*
X46739095Y-109489809D01*
X46739095Y-109013619D01*
X46834333Y-108823142D01*
X46929571Y-108727904D01*
X47120047Y-108632666D01*
X47501000Y-108632666D01*
X47691476Y-108727904D01*
X47786714Y-108823142D01*
X47881952Y-109013619D01*
X44929571Y-107870761D02*
X45881952Y-107870761D01*
X45977190Y-108823142D01*
X45881952Y-108727904D01*
X45691476Y-108632666D01*
X45215285Y-108632666D01*
X45024809Y-108727904D01*
X44929571Y-108823142D01*
X44834333Y-109013619D01*
X44834333Y-109489809D01*
X44929571Y-109680285D01*
X45024809Y-109775523D01*
X45215285Y-109870761D01*
X45691476Y-109870761D01*
X45881952Y-109775523D01*
X45977190Y-109680285D01*
X157964208Y-110124761D02*
X157714208Y-108124761D01*
X156952303Y-108124761D01*
X156773732Y-108220000D01*
X156690398Y-108315238D01*
X156618970Y-108505714D01*
X156654684Y-108791428D01*
X156773732Y-108981904D01*
X156880875Y-109077142D01*
X157083255Y-109172380D01*
X157845160Y-109172380D01*
X155678494Y-110124761D02*
X155857065Y-110029523D01*
X155940398Y-109934285D01*
X156011827Y-109743809D01*
X155940398Y-109172380D01*
X155821351Y-108981904D01*
X155714208Y-108886666D01*
X155511827Y-108791428D01*
X155226113Y-108791428D01*
X155047541Y-108886666D01*
X154964208Y-108981904D01*
X154892779Y-109172380D01*
X154964208Y-109743809D01*
X155083255Y-109934285D01*
X155190398Y-110029523D01*
X155392779Y-110124761D01*
X155678494Y-110124761D01*
X154178494Y-108791428D02*
X153964208Y-110124761D01*
X153464208Y-109172380D01*
X153202303Y-110124761D01*
X152654684Y-108791428D01*
X151285636Y-110029523D02*
X151488017Y-110124761D01*
X151868970Y-110124761D01*
X152047541Y-110029523D01*
X152118970Y-109839047D01*
X152023732Y-109077142D01*
X151904684Y-108886666D01*
X151702303Y-108791428D01*
X151321351Y-108791428D01*
X151142779Y-108886666D01*
X151071351Y-109077142D01*
X151095160Y-109267619D01*
X152071351Y-109458095D01*
X150345160Y-110124761D02*
X150178494Y-108791428D01*
X150226113Y-109172380D02*
X150107065Y-108981904D01*
X149999922Y-108886666D01*
X149797541Y-108791428D01*
X149607065Y-108791428D01*
X148333255Y-110029523D02*
X148535636Y-110124761D01*
X148916589Y-110124761D01*
X149095160Y-110029523D01*
X149166589Y-109839047D01*
X149071351Y-109077142D01*
X148952303Y-108886666D01*
X148749922Y-108791428D01*
X148368970Y-108791428D01*
X148190398Y-108886666D01*
X148118970Y-109077142D01*
X148142779Y-109267619D01*
X149118970Y-109458095D01*
X146535636Y-110124761D02*
X146285636Y-108124761D01*
X146523732Y-110029523D02*
X146726113Y-110124761D01*
X147107065Y-110124761D01*
X147285636Y-110029523D01*
X147368970Y-109934285D01*
X147440398Y-109743809D01*
X147368970Y-109172380D01*
X147249922Y-108981904D01*
X147142779Y-108886666D01*
X146940398Y-108791428D01*
X146559446Y-108791428D01*
X146380875Y-108886666D01*
X144059446Y-110124761D02*
X143809446Y-108124761D01*
X143904684Y-108886666D02*
X143702303Y-108791428D01*
X143321351Y-108791428D01*
X143142779Y-108886666D01*
X143059446Y-108981904D01*
X142988017Y-109172380D01*
X143059446Y-109743809D01*
X143178494Y-109934285D01*
X143285636Y-110029523D01*
X143488017Y-110124761D01*
X143868970Y-110124761D01*
X144047541Y-110029523D01*
X142273732Y-108791428D02*
X141964208Y-110124761D01*
X141321351Y-108791428D02*
X141964208Y-110124761D01*
X142214208Y-110600952D01*
X142321351Y-110696190D01*
X142523732Y-110791428D01*
X137892779Y-110315238D02*
X138071351Y-110220000D01*
X138238017Y-110029523D01*
X138488017Y-109743809D01*
X138666589Y-109648571D01*
X138857065Y-109648571D01*
X138821351Y-110124761D02*
X138999922Y-110029523D01*
X139166589Y-109839047D01*
X139214208Y-109458095D01*
X139130875Y-108791428D01*
X138988017Y-108410476D01*
X138773732Y-108220000D01*
X138571351Y-108124761D01*
X138190398Y-108124761D01*
X138011827Y-108220000D01*
X137845160Y-108410476D01*
X137797541Y-108791428D01*
X137880875Y-109458095D01*
X138023732Y-109839047D01*
X138238017Y-110029523D01*
X138440398Y-110124761D01*
X138821351Y-110124761D01*
X137107065Y-110124761D02*
X136857065Y-108124761D01*
X136368970Y-109553333D01*
X135523732Y-108124761D01*
X135773732Y-110124761D01*
X134821351Y-110124761D02*
X134571351Y-108124761D01*
X133678494Y-110124761D02*
X134392779Y-108981904D01*
X133428494Y-108124761D02*
X134714208Y-109267619D01*
D11*
X221517428Y-107069142D02*
X220946000Y-107069142D01*
X220660285Y-107212000D01*
X220374571Y-107497714D01*
X220231714Y-108069142D01*
X220231714Y-109069142D01*
X220374571Y-109640571D01*
X220660285Y-109926285D01*
X220946000Y-110069142D01*
X221517428Y-110069142D01*
X221803142Y-109926285D01*
X222088857Y-109640571D01*
X222231714Y-109069142D01*
X222231714Y-108069142D01*
X222088857Y-107497714D01*
X221803142Y-107212000D01*
X221517428Y-107069142D01*
X218946000Y-110069142D02*
X218946000Y-107069142D01*
X217231714Y-110069142D02*
X218517428Y-108354857D01*
X217231714Y-107069142D02*
X218946000Y-108783428D01*
X214803142Y-109926285D02*
X215088857Y-110069142D01*
X215660285Y-110069142D01*
X215946000Y-109926285D01*
X216088857Y-109640571D01*
X216088857Y-108497714D01*
X215946000Y-108212000D01*
X215660285Y-108069142D01*
X215088857Y-108069142D01*
X214803142Y-108212000D01*
X214660285Y-108497714D01*
X214660285Y-108783428D01*
X216088857Y-109069142D01*
X213660285Y-108069142D02*
X212946000Y-110069142D01*
X212231714Y-108069142D02*
X212946000Y-110069142D01*
X213231714Y-110783428D01*
X213374571Y-110926285D01*
X213660285Y-111069142D01*
X209803142Y-107069142D02*
X210374571Y-107069142D01*
X210660285Y-107212000D01*
X210803142Y-107354857D01*
X211088857Y-107783428D01*
X211231714Y-108354857D01*
X211231714Y-109497714D01*
X211088857Y-109783428D01*
X210946000Y-109926285D01*
X210660285Y-110069142D01*
X210088857Y-110069142D01*
X209803142Y-109926285D01*
X209660285Y-109783428D01*
X209517428Y-109497714D01*
X209517428Y-108783428D01*
X209660285Y-108497714D01*
X209803142Y-108354857D01*
X210088857Y-108212000D01*
X210660285Y-108212000D01*
X210946000Y-108354857D01*
X211088857Y-108497714D01*
X211231714Y-108783428D01*
X206803142Y-107069142D02*
X208231714Y-107069142D01*
X208374571Y-108497714D01*
X208231714Y-108354857D01*
X207946000Y-108212000D01*
X207231714Y-108212000D01*
X206946000Y-108354857D01*
X206803142Y-108497714D01*
X206660285Y-108783428D01*
X206660285Y-109497714D01*
X206803142Y-109783428D01*
X206946000Y-109926285D01*
X207231714Y-110069142D01*
X207946000Y-110069142D01*
X208231714Y-109926285D01*
X208374571Y-109783428D01*
X198517428Y-110069142D02*
X198517428Y-108069142D01*
X198517428Y-108640571D02*
X198374571Y-108354857D01*
X198231714Y-108212000D01*
X197946000Y-108069142D01*
X197660285Y-108069142D01*
X195517428Y-109926285D02*
X195803142Y-110069142D01*
X196374571Y-110069142D01*
X196660285Y-109926285D01*
X196803142Y-109640571D01*
X196803142Y-108497714D01*
X196660285Y-108212000D01*
X196374571Y-108069142D01*
X195803142Y-108069142D01*
X195517428Y-108212000D01*
X195374571Y-108497714D01*
X195374571Y-108783428D01*
X196803142Y-109069142D01*
X194374571Y-108069142D02*
X193660285Y-110069142D01*
X192946000Y-108069142D01*
X187946000Y-110069142D02*
X189660285Y-110069142D01*
X188803142Y-110069142D02*
X188803142Y-107069142D01*
X189088857Y-107497714D01*
X189374571Y-107783428D01*
X189660285Y-107926285D01*
X186660285Y-109783428D02*
X186517428Y-109926285D01*
X186660285Y-110069142D01*
X186803142Y-109926285D01*
X186660285Y-109783428D01*
X186660285Y-110069142D01*
X184660285Y-107069142D02*
X184374571Y-107069142D01*
X184088857Y-107212000D01*
X183946000Y-107354857D01*
X183803142Y-107640571D01*
X183660285Y-108212000D01*
X183660285Y-108926285D01*
X183803142Y-109497714D01*
X183946000Y-109783428D01*
X184088857Y-109926285D01*
X184374571Y-110069142D01*
X184660285Y-110069142D01*
X184946000Y-109926285D01*
X185088857Y-109783428D01*
X185231714Y-109497714D01*
X185374571Y-108926285D01*
X185374571Y-108212000D01*
X185231714Y-107640571D01*
X185088857Y-107354857D01*
X184946000Y-107212000D01*
X184660285Y-107069142D01*
D12*
%TO.C,F1*%
X59647500Y-54764564D02*
X59647500Y-53560436D01*
X57827500Y-54764564D02*
X57827500Y-53560436D01*
%TO.C,Y1*%
X85343750Y-54650000D02*
X85343750Y-57950000D01*
X85343750Y-57950000D02*
X81343750Y-57950000D01*
D13*
%TO.C,U1*%
X75787500Y-76612500D02*
X75787500Y-76037500D01*
X86137500Y-76612500D02*
X86137500Y-75937500D01*
X86137500Y-66262500D02*
X86137500Y-66937500D01*
X75787500Y-66262500D02*
X75787500Y-66937500D01*
X75787500Y-76612500D02*
X76462500Y-76612500D01*
X75787500Y-66262500D02*
X76462500Y-66262500D01*
X86137500Y-66262500D02*
X85462500Y-66262500D01*
X86137500Y-76612500D02*
X85462500Y-76612500D01*
X75787500Y-76037500D02*
X74512500Y-76037500D01*
%TO.C,SW1*%
X67250000Y-56043750D02*
X72450000Y-56043750D01*
X72450000Y-56043750D02*
X72450000Y-50843750D01*
X72450000Y-50843750D02*
X67250000Y-50843750D01*
X67250000Y-50843750D02*
X67250000Y-56043750D01*
X70850000Y-53443750D02*
G75*
G03*
X70850000Y-53443750I-1000000J0D01*
G01*
D12*
%TO.C,R8*%
X153760436Y-75347500D02*
X154214564Y-75347500D01*
X153760436Y-73877500D02*
X154214564Y-73877500D01*
%TO.C,R7*%
X67527500Y-35610436D02*
X67527500Y-36064564D01*
X68997500Y-35610436D02*
X68997500Y-36064564D01*
%TO.C,R6*%
X54827500Y-35610436D02*
X54827500Y-36064564D01*
X56297500Y-35610436D02*
X56297500Y-36064564D01*
%TO.C,R5*%
X39460436Y-94397500D02*
X39914564Y-94397500D01*
X39460436Y-92927500D02*
X39914564Y-92927500D01*
%TO.C,R4*%
X86291686Y-82491250D02*
X86745814Y-82491250D01*
X86291686Y-81021250D02*
X86745814Y-81021250D01*
%TO.C,R3*%
X61060000Y-45470814D02*
X61060000Y-45016686D01*
X59590000Y-45470814D02*
X59590000Y-45016686D01*
%TO.C,R2*%
X63441250Y-45470814D02*
X63441250Y-45016686D01*
X61971250Y-45470814D02*
X61971250Y-45016686D01*
%TO.C,R1*%
X67695814Y-57208750D02*
X67241686Y-57208750D01*
X67695814Y-58678750D02*
X67241686Y-58678750D01*
%TO.C,J1*%
X66382500Y-26910000D02*
X57442500Y-26910000D01*
X66382500Y-32420000D02*
X66382500Y-30620000D01*
X66382500Y-26910000D02*
X66382500Y-28370000D01*
X57442500Y-26910000D02*
X57442500Y-28370000D01*
X57442500Y-32420000D02*
X57442500Y-30620000D01*
%TO.C,D67*%
X149237500Y-76072500D02*
X145352500Y-76072500D01*
X145352500Y-76072500D02*
X145352500Y-73152500D01*
X145352500Y-73152500D02*
X149237500Y-73152500D01*
%TO.C,D66*%
X34937500Y-95122500D02*
X31052500Y-95122500D01*
X31052500Y-95122500D02*
X31052500Y-92202500D01*
X31052500Y-92202500D02*
X34937500Y-92202500D01*
%TO.C,D65*%
X253000000Y-115225000D02*
X255000000Y-115225000D01*
X255000000Y-115225000D02*
X255000000Y-119125000D01*
X253000000Y-115225000D02*
X253000000Y-119125000D01*
%TO.C,D64*%
X233950000Y-115225000D02*
X235950000Y-115225000D01*
X235950000Y-115225000D02*
X235950000Y-119125000D01*
X233950000Y-115225000D02*
X233950000Y-119125000D01*
%TO.C,D63*%
X214900000Y-115225000D02*
X216900000Y-115225000D01*
X216900000Y-115225000D02*
X216900000Y-119125000D01*
X214900000Y-115225000D02*
X214900000Y-119125000D01*
%TO.C,D62*%
X195850000Y-115225000D02*
X197850000Y-115225000D01*
X197850000Y-115225000D02*
X197850000Y-119125000D01*
X195850000Y-115225000D02*
X195850000Y-119125000D01*
%TO.C,D61*%
X176800000Y-115225000D02*
X178800000Y-115225000D01*
X178800000Y-115225000D02*
X178800000Y-119125000D01*
X176800000Y-115225000D02*
X176800000Y-119125000D01*
%TO.C,D60*%
X157750000Y-115225000D02*
X159750000Y-115225000D01*
X159750000Y-115225000D02*
X159750000Y-119125000D01*
X157750000Y-115225000D02*
X157750000Y-119125000D01*
%TO.C,D59*%
X138700000Y-115225000D02*
X140700000Y-115225000D01*
X140700000Y-115225000D02*
X140700000Y-119125000D01*
X138700000Y-115225000D02*
X138700000Y-119125000D01*
%TO.C,D58*%
X119650000Y-115225000D02*
X121650000Y-115225000D01*
X121650000Y-115225000D02*
X121650000Y-119125000D01*
X119650000Y-115225000D02*
X119650000Y-119125000D01*
%TO.C,D57*%
X100600000Y-115225000D02*
X102600000Y-115225000D01*
X102600000Y-115225000D02*
X102600000Y-119125000D01*
X100600000Y-115225000D02*
X100600000Y-119125000D01*
%TO.C,D56*%
X81550000Y-115225000D02*
X83550000Y-115225000D01*
X83550000Y-115225000D02*
X83550000Y-119125000D01*
X81550000Y-115225000D02*
X81550000Y-119125000D01*
%TO.C,D55*%
X62500000Y-115225000D02*
X64500000Y-115225000D01*
X64500000Y-115225000D02*
X64500000Y-119125000D01*
X62500000Y-115225000D02*
X62500000Y-119125000D01*
%TO.C,D54*%
X43450000Y-115225000D02*
X45450000Y-115225000D01*
X45450000Y-115225000D02*
X45450000Y-119125000D01*
X43450000Y-115225000D02*
X43450000Y-119125000D01*
%TO.C,D53*%
X24400000Y-115225000D02*
X26400000Y-115225000D01*
X26400000Y-115225000D02*
X26400000Y-119125000D01*
X24400000Y-115225000D02*
X24400000Y-119125000D01*
%TO.C,D52*%
X253000000Y-96175000D02*
X255000000Y-96175000D01*
X255000000Y-96175000D02*
X255000000Y-100075000D01*
X253000000Y-96175000D02*
X253000000Y-100075000D01*
%TO.C,D51*%
X233950000Y-96175000D02*
X235950000Y-96175000D01*
X235950000Y-96175000D02*
X235950000Y-100075000D01*
X233950000Y-96175000D02*
X233950000Y-100075000D01*
%TO.C,D50*%
X214900000Y-96175000D02*
X216900000Y-96175000D01*
X216900000Y-96175000D02*
X216900000Y-100075000D01*
X214900000Y-96175000D02*
X214900000Y-100075000D01*
%TO.C,D49*%
X195850000Y-96175000D02*
X197850000Y-96175000D01*
X197850000Y-96175000D02*
X197850000Y-100075000D01*
X195850000Y-96175000D02*
X195850000Y-100075000D01*
%TO.C,D48*%
X176800000Y-96175000D02*
X178800000Y-96175000D01*
X178800000Y-96175000D02*
X178800000Y-100075000D01*
X176800000Y-96175000D02*
X176800000Y-100075000D01*
%TO.C,D47*%
X157750000Y-96175000D02*
X159750000Y-96175000D01*
X159750000Y-96175000D02*
X159750000Y-100075000D01*
X157750000Y-96175000D02*
X157750000Y-100075000D01*
%TO.C,D46*%
X138700000Y-96175000D02*
X140700000Y-96175000D01*
X140700000Y-96175000D02*
X140700000Y-100075000D01*
X138700000Y-96175000D02*
X138700000Y-100075000D01*
%TO.C,D45*%
X119650000Y-96175000D02*
X121650000Y-96175000D01*
X121650000Y-96175000D02*
X121650000Y-100075000D01*
X119650000Y-96175000D02*
X119650000Y-100075000D01*
%TO.C,D44*%
X100600000Y-96175000D02*
X102600000Y-96175000D01*
X102600000Y-96175000D02*
X102600000Y-100075000D01*
X100600000Y-96175000D02*
X100600000Y-100075000D01*
%TO.C,D43*%
X81550000Y-96175000D02*
X83550000Y-96175000D01*
X83550000Y-96175000D02*
X83550000Y-100075000D01*
X81550000Y-96175000D02*
X81550000Y-100075000D01*
%TO.C,D42*%
X62500000Y-96175000D02*
X64500000Y-96175000D01*
X64500000Y-96175000D02*
X64500000Y-100075000D01*
X62500000Y-96175000D02*
X62500000Y-100075000D01*
%TO.C,D41*%
X43450000Y-96175000D02*
X45450000Y-96175000D01*
X45450000Y-96175000D02*
X45450000Y-100075000D01*
X43450000Y-96175000D02*
X43450000Y-100075000D01*
%TO.C,D40*%
X24400000Y-96175000D02*
X26400000Y-96175000D01*
X26400000Y-96175000D02*
X26400000Y-100075000D01*
X24400000Y-96175000D02*
X24400000Y-100075000D01*
%TO.C,D39*%
X253000000Y-77125000D02*
X255000000Y-77125000D01*
X255000000Y-77125000D02*
X255000000Y-81025000D01*
X253000000Y-77125000D02*
X253000000Y-81025000D01*
%TO.C,D38*%
X233950000Y-77125000D02*
X235950000Y-77125000D01*
X235950000Y-77125000D02*
X235950000Y-81025000D01*
X233950000Y-77125000D02*
X233950000Y-81025000D01*
%TO.C,D37*%
X214900000Y-77125000D02*
X216900000Y-77125000D01*
X216900000Y-77125000D02*
X216900000Y-81025000D01*
X214900000Y-77125000D02*
X214900000Y-81025000D01*
%TO.C,D36*%
X195850000Y-77125000D02*
X197850000Y-77125000D01*
X197850000Y-77125000D02*
X197850000Y-81025000D01*
X195850000Y-77125000D02*
X195850000Y-81025000D01*
%TO.C,D35*%
X176800000Y-77125000D02*
X178800000Y-77125000D01*
X178800000Y-77125000D02*
X178800000Y-81025000D01*
X176800000Y-77125000D02*
X176800000Y-81025000D01*
%TO.C,D34*%
X157750000Y-77125000D02*
X159750000Y-77125000D01*
X159750000Y-77125000D02*
X159750000Y-81025000D01*
X157750000Y-77125000D02*
X157750000Y-81025000D01*
%TO.C,D33*%
X138700000Y-77125000D02*
X140700000Y-77125000D01*
X140700000Y-77125000D02*
X140700000Y-81025000D01*
X138700000Y-77125000D02*
X138700000Y-81025000D01*
%TO.C,D32*%
X119650000Y-77125000D02*
X121650000Y-77125000D01*
X121650000Y-77125000D02*
X121650000Y-81025000D01*
X119650000Y-77125000D02*
X119650000Y-81025000D01*
%TO.C,D31*%
X100600000Y-77125000D02*
X102600000Y-77125000D01*
X102600000Y-77125000D02*
X102600000Y-81025000D01*
X100600000Y-77125000D02*
X100600000Y-81025000D01*
%TO.C,D30*%
X97425000Y-77125000D02*
X99425000Y-77125000D01*
X99425000Y-77125000D02*
X99425000Y-81025000D01*
X97425000Y-77125000D02*
X97425000Y-81025000D01*
%TO.C,D29*%
X62500000Y-77125000D02*
X64500000Y-77125000D01*
X64500000Y-77125000D02*
X64500000Y-81025000D01*
X62500000Y-77125000D02*
X62500000Y-81025000D01*
%TO.C,D28*%
X43450000Y-77125000D02*
X45450000Y-77125000D01*
X45450000Y-77125000D02*
X45450000Y-81025000D01*
X43450000Y-77125000D02*
X43450000Y-81025000D01*
%TO.C,D27*%
X24400000Y-77125000D02*
X26400000Y-77125000D01*
X26400000Y-77125000D02*
X26400000Y-81025000D01*
X24400000Y-77125000D02*
X24400000Y-81025000D01*
%TO.C,D26*%
X253000000Y-58075000D02*
X255000000Y-58075000D01*
X255000000Y-58075000D02*
X255000000Y-61975000D01*
X253000000Y-58075000D02*
X253000000Y-61975000D01*
%TO.C,D25*%
X233950000Y-58075000D02*
X235950000Y-58075000D01*
X235950000Y-58075000D02*
X235950000Y-61975000D01*
X233950000Y-58075000D02*
X233950000Y-61975000D01*
%TO.C,D24*%
X214900000Y-58075000D02*
X216900000Y-58075000D01*
X216900000Y-58075000D02*
X216900000Y-61975000D01*
X214900000Y-58075000D02*
X214900000Y-61975000D01*
%TO.C,D23*%
X195850000Y-58075000D02*
X197850000Y-58075000D01*
X197850000Y-58075000D02*
X197850000Y-61975000D01*
X195850000Y-58075000D02*
X195850000Y-61975000D01*
%TO.C,D22*%
X176800000Y-58075000D02*
X178800000Y-58075000D01*
X178800000Y-58075000D02*
X178800000Y-61975000D01*
X176800000Y-58075000D02*
X176800000Y-61975000D01*
%TO.C,D21*%
X157750000Y-58075000D02*
X159750000Y-58075000D01*
X159750000Y-58075000D02*
X159750000Y-61975000D01*
X157750000Y-58075000D02*
X157750000Y-61975000D01*
%TO.C,D20*%
X138700000Y-58075000D02*
X140700000Y-58075000D01*
X140700000Y-58075000D02*
X140700000Y-61975000D01*
X138700000Y-58075000D02*
X138700000Y-61975000D01*
%TO.C,D19*%
X119650000Y-58075000D02*
X121650000Y-58075000D01*
X121650000Y-58075000D02*
X121650000Y-61975000D01*
X119650000Y-58075000D02*
X119650000Y-61975000D01*
%TO.C,D18*%
X100600000Y-58075000D02*
X102600000Y-58075000D01*
X102600000Y-58075000D02*
X102600000Y-61975000D01*
X100600000Y-58075000D02*
X100600000Y-61975000D01*
%TO.C,D17*%
X97425000Y-58075000D02*
X99425000Y-58075000D01*
X99425000Y-58075000D02*
X99425000Y-61975000D01*
X97425000Y-58075000D02*
X97425000Y-61975000D01*
%TO.C,D16*%
X62837500Y-64500000D02*
X62837500Y-62500000D01*
X62837500Y-62500000D02*
X66737500Y-62500000D01*
X62837500Y-64500000D02*
X66737500Y-64500000D01*
%TO.C,D15*%
X43450000Y-58075000D02*
X45450000Y-58075000D01*
X45450000Y-58075000D02*
X45450000Y-61975000D01*
X43450000Y-58075000D02*
X43450000Y-61975000D01*
%TO.C,D14*%
X24400000Y-58075000D02*
X26400000Y-58075000D01*
X26400000Y-58075000D02*
X26400000Y-61975000D01*
X24400000Y-58075000D02*
X24400000Y-61975000D01*
%TO.C,D13*%
X253000000Y-39025000D02*
X255000000Y-39025000D01*
X255000000Y-39025000D02*
X255000000Y-42925000D01*
X253000000Y-39025000D02*
X253000000Y-42925000D01*
%TO.C,D12*%
X233950000Y-39025000D02*
X235950000Y-39025000D01*
X235950000Y-39025000D02*
X235950000Y-42925000D01*
X233950000Y-39025000D02*
X233950000Y-42925000D01*
%TO.C,D11*%
X214900000Y-39025000D02*
X216900000Y-39025000D01*
X216900000Y-39025000D02*
X216900000Y-42925000D01*
X214900000Y-39025000D02*
X214900000Y-42925000D01*
%TO.C,D10*%
X195850000Y-39025000D02*
X197850000Y-39025000D01*
X197850000Y-39025000D02*
X197850000Y-42925000D01*
X195850000Y-39025000D02*
X195850000Y-42925000D01*
%TO.C,D9*%
X176800000Y-39025000D02*
X178800000Y-39025000D01*
X178800000Y-39025000D02*
X178800000Y-42925000D01*
X176800000Y-39025000D02*
X176800000Y-42925000D01*
%TO.C,D8*%
X157750000Y-39025000D02*
X159750000Y-39025000D01*
X159750000Y-39025000D02*
X159750000Y-42925000D01*
X157750000Y-39025000D02*
X157750000Y-42925000D01*
%TO.C,D7*%
X138700000Y-39025000D02*
X140700000Y-39025000D01*
X140700000Y-39025000D02*
X140700000Y-42925000D01*
X138700000Y-39025000D02*
X138700000Y-42925000D01*
%TO.C,D6*%
X119650000Y-39025000D02*
X121650000Y-39025000D01*
X121650000Y-39025000D02*
X121650000Y-42925000D01*
X119650000Y-39025000D02*
X119650000Y-42925000D01*
%TO.C,D5*%
X100600000Y-39025000D02*
X102600000Y-39025000D01*
X102600000Y-39025000D02*
X102600000Y-42925000D01*
X100600000Y-39025000D02*
X100600000Y-42925000D01*
%TO.C,D4*%
X81550000Y-39025000D02*
X83550000Y-39025000D01*
X83550000Y-39025000D02*
X83550000Y-42925000D01*
X81550000Y-39025000D02*
X81550000Y-42925000D01*
%TO.C,D3*%
X78375000Y-39025000D02*
X80375000Y-39025000D01*
X80375000Y-39025000D02*
X80375000Y-42925000D01*
X78375000Y-39025000D02*
X78375000Y-42925000D01*
%TO.C,D2*%
X43450000Y-39025000D02*
X45450000Y-39025000D01*
X45450000Y-39025000D02*
X45450000Y-42925000D01*
X43450000Y-39025000D02*
X43450000Y-42925000D01*
%TO.C,D1*%
X24400000Y-39025000D02*
X26400000Y-39025000D01*
X26400000Y-39025000D02*
X26400000Y-42925000D01*
X24400000Y-39025000D02*
X24400000Y-42925000D01*
%TO.C,C7*%
X68099000Y-70731748D02*
X68099000Y-71254252D01*
X69569000Y-70731748D02*
X69569000Y-71254252D01*
%TO.C,C6*%
X76732498Y-84196250D02*
X77255002Y-84196250D01*
X76732498Y-85666250D02*
X77255002Y-85666250D01*
%TO.C,C5*%
X90546250Y-67730002D02*
X90546250Y-67207498D01*
X92016250Y-67730002D02*
X92016250Y-67207498D01*
%TO.C,C4*%
X75144998Y-57208750D02*
X75667502Y-57208750D01*
X75144998Y-58678750D02*
X75667502Y-58678750D01*
%TO.C,C3*%
X70702500Y-69432498D02*
X70702500Y-69955002D01*
X72172500Y-69432498D02*
X72172500Y-69955002D01*
%TO.C,C2*%
X80110000Y-56617502D02*
X80110000Y-56094998D01*
X78640000Y-56617502D02*
X78640000Y-56094998D01*
%TO.C,C1*%
X88047500Y-56617502D02*
X88047500Y-56094998D01*
X86577500Y-56617502D02*
X86577500Y-56094998D01*
%TO.C,F1*%
D13*
X60486071Y-53829166D02*
X60486071Y-53495833D01*
X61009880Y-53495833D02*
X60009880Y-53495833D01*
X60009880Y-53972023D01*
X61009880Y-54876785D02*
X61009880Y-54305357D01*
X61009880Y-54591071D02*
X60009880Y-54591071D01*
X60152738Y-54495833D01*
X60247976Y-54400595D01*
X60295595Y-54305357D01*
%TO.C,Y1*%
X83819940Y-53826190D02*
X83819940Y-54302380D01*
X84153273Y-53302380D02*
X83819940Y-53826190D01*
X83486607Y-53302380D01*
X82629464Y-54302380D02*
X83200892Y-54302380D01*
X82915178Y-54302380D02*
X82915178Y-53302380D01*
X83010416Y-53445238D01*
X83105654Y-53540476D01*
X83200892Y-53588095D01*
%TO.C,U1*%
X81724404Y-78339880D02*
X81724404Y-79149404D01*
X81676785Y-79244642D01*
X81629166Y-79292261D01*
X81533928Y-79339880D01*
X81343452Y-79339880D01*
X81248214Y-79292261D01*
X81200595Y-79244642D01*
X81152976Y-79149404D01*
X81152976Y-78339880D01*
X80152976Y-79339880D02*
X80724404Y-79339880D01*
X80438690Y-79339880D02*
X80438690Y-78339880D01*
X80533928Y-78482738D01*
X80629166Y-78577976D01*
X80724404Y-78625595D01*
%TO.C,SW1*%
X71183333Y-49784511D02*
X71040476Y-49832130D01*
X70802380Y-49832130D01*
X70707142Y-49784511D01*
X70659523Y-49736892D01*
X70611904Y-49641654D01*
X70611904Y-49546416D01*
X70659523Y-49451178D01*
X70707142Y-49403559D01*
X70802380Y-49355940D01*
X70992857Y-49308321D01*
X71088095Y-49260702D01*
X71135714Y-49213083D01*
X71183333Y-49117845D01*
X71183333Y-49022607D01*
X71135714Y-48927369D01*
X71088095Y-48879750D01*
X70992857Y-48832130D01*
X70754761Y-48832130D01*
X70611904Y-48879750D01*
X70278571Y-48832130D02*
X70040476Y-49832130D01*
X69850000Y-49117845D01*
X69659523Y-49832130D01*
X69421428Y-48832130D01*
X68516666Y-49832130D02*
X69088095Y-49832130D01*
X68802380Y-49832130D02*
X68802380Y-48832130D01*
X68897619Y-48974988D01*
X68992857Y-49070226D01*
X69088095Y-49117845D01*
%TO.C,R8*%
X154154166Y-76714880D02*
X154487500Y-76238690D01*
X154725595Y-76714880D02*
X154725595Y-75714880D01*
X154344642Y-75714880D01*
X154249404Y-75762500D01*
X154201785Y-75810119D01*
X154154166Y-75905357D01*
X154154166Y-76048214D01*
X154201785Y-76143452D01*
X154249404Y-76191071D01*
X154344642Y-76238690D01*
X154725595Y-76238690D01*
X153582738Y-76143452D02*
X153677976Y-76095833D01*
X153725595Y-76048214D01*
X153773214Y-75952976D01*
X153773214Y-75905357D01*
X153725595Y-75810119D01*
X153677976Y-75762500D01*
X153582738Y-75714880D01*
X153392261Y-75714880D01*
X153297023Y-75762500D01*
X153249404Y-75810119D01*
X153201785Y-75905357D01*
X153201785Y-75952976D01*
X153249404Y-76048214D01*
X153297023Y-76095833D01*
X153392261Y-76143452D01*
X153582738Y-76143452D01*
X153677976Y-76191071D01*
X153725595Y-76238690D01*
X153773214Y-76333928D01*
X153773214Y-76524404D01*
X153725595Y-76619642D01*
X153677976Y-76667261D01*
X153582738Y-76714880D01*
X153392261Y-76714880D01*
X153297023Y-76667261D01*
X153249404Y-76619642D01*
X153201785Y-76524404D01*
X153201785Y-76333928D01*
X153249404Y-76238690D01*
X153297023Y-76191071D01*
X153392261Y-76143452D01*
%TO.C,R7*%
X67064880Y-35670833D02*
X66588690Y-35337500D01*
X67064880Y-35099404D02*
X66064880Y-35099404D01*
X66064880Y-35480357D01*
X66112500Y-35575595D01*
X66160119Y-35623214D01*
X66255357Y-35670833D01*
X66398214Y-35670833D01*
X66493452Y-35623214D01*
X66541071Y-35575595D01*
X66588690Y-35480357D01*
X66588690Y-35099404D01*
X66064880Y-36004166D02*
X66064880Y-36670833D01*
X67064880Y-36242261D01*
%TO.C,R6*%
X54364880Y-35670833D02*
X53888690Y-35337500D01*
X54364880Y-35099404D02*
X53364880Y-35099404D01*
X53364880Y-35480357D01*
X53412500Y-35575595D01*
X53460119Y-35623214D01*
X53555357Y-35670833D01*
X53698214Y-35670833D01*
X53793452Y-35623214D01*
X53841071Y-35575595D01*
X53888690Y-35480357D01*
X53888690Y-35099404D01*
X53364880Y-36527976D02*
X53364880Y-36337500D01*
X53412500Y-36242261D01*
X53460119Y-36194642D01*
X53602976Y-36099404D01*
X53793452Y-36051785D01*
X54174404Y-36051785D01*
X54269642Y-36099404D01*
X54317261Y-36147023D01*
X54364880Y-36242261D01*
X54364880Y-36432738D01*
X54317261Y-36527976D01*
X54269642Y-36575595D01*
X54174404Y-36623214D01*
X53936309Y-36623214D01*
X53841071Y-36575595D01*
X53793452Y-36527976D01*
X53745833Y-36432738D01*
X53745833Y-36242261D01*
X53793452Y-36147023D01*
X53841071Y-36099404D01*
X53936309Y-36051785D01*
%TO.C,R5*%
X39854166Y-95764880D02*
X40187500Y-95288690D01*
X40425595Y-95764880D02*
X40425595Y-94764880D01*
X40044642Y-94764880D01*
X39949404Y-94812500D01*
X39901785Y-94860119D01*
X39854166Y-94955357D01*
X39854166Y-95098214D01*
X39901785Y-95193452D01*
X39949404Y-95241071D01*
X40044642Y-95288690D01*
X40425595Y-95288690D01*
X38949404Y-94764880D02*
X39425595Y-94764880D01*
X39473214Y-95241071D01*
X39425595Y-95193452D01*
X39330357Y-95145833D01*
X39092261Y-95145833D01*
X38997023Y-95193452D01*
X38949404Y-95241071D01*
X38901785Y-95336309D01*
X38901785Y-95574404D01*
X38949404Y-95669642D01*
X38997023Y-95717261D01*
X39092261Y-95764880D01*
X39330357Y-95764880D01*
X39425595Y-95717261D01*
X39473214Y-95669642D01*
%TO.C,R4*%
X86685416Y-83858630D02*
X87018750Y-83382440D01*
X87256845Y-83858630D02*
X87256845Y-82858630D01*
X86875892Y-82858630D01*
X86780654Y-82906250D01*
X86733035Y-82953869D01*
X86685416Y-83049107D01*
X86685416Y-83191964D01*
X86733035Y-83287202D01*
X86780654Y-83334821D01*
X86875892Y-83382440D01*
X87256845Y-83382440D01*
X85828273Y-83191964D02*
X85828273Y-83858630D01*
X86066369Y-82811011D02*
X86304464Y-83525297D01*
X85685416Y-83525297D01*
%TO.C,R3*%
X62427380Y-45077083D02*
X61951190Y-44743750D01*
X62427380Y-44505654D02*
X61427380Y-44505654D01*
X61427380Y-44886607D01*
X61475000Y-44981845D01*
X61522619Y-45029464D01*
X61617857Y-45077083D01*
X61760714Y-45077083D01*
X61855952Y-45029464D01*
X61903571Y-44981845D01*
X61951190Y-44886607D01*
X61951190Y-44505654D01*
X61427380Y-45410416D02*
X61427380Y-46029464D01*
X61808333Y-45696130D01*
X61808333Y-45838988D01*
X61855952Y-45934226D01*
X61903571Y-45981845D01*
X61998809Y-46029464D01*
X62236904Y-46029464D01*
X62332142Y-45981845D01*
X62379761Y-45934226D01*
X62427380Y-45838988D01*
X62427380Y-45553273D01*
X62379761Y-45458035D01*
X62332142Y-45410416D01*
%TO.C,R2*%
X64808630Y-45077083D02*
X64332440Y-44743750D01*
X64808630Y-44505654D02*
X63808630Y-44505654D01*
X63808630Y-44886607D01*
X63856250Y-44981845D01*
X63903869Y-45029464D01*
X63999107Y-45077083D01*
X64141964Y-45077083D01*
X64237202Y-45029464D01*
X64284821Y-44981845D01*
X64332440Y-44886607D01*
X64332440Y-44505654D01*
X63903869Y-45458035D02*
X63856250Y-45505654D01*
X63808630Y-45600892D01*
X63808630Y-45838988D01*
X63856250Y-45934226D01*
X63903869Y-45981845D01*
X63999107Y-46029464D01*
X64094345Y-46029464D01*
X64237202Y-45981845D01*
X64808630Y-45410416D01*
X64808630Y-46029464D01*
%TO.C,R1*%
X67635416Y-56746130D02*
X67968750Y-56269940D01*
X68206845Y-56746130D02*
X68206845Y-55746130D01*
X67825892Y-55746130D01*
X67730654Y-55793750D01*
X67683035Y-55841369D01*
X67635416Y-55936607D01*
X67635416Y-56079464D01*
X67683035Y-56174702D01*
X67730654Y-56222321D01*
X67825892Y-56269940D01*
X68206845Y-56269940D01*
X66683035Y-56746130D02*
X67254464Y-56746130D01*
X66968750Y-56746130D02*
X66968750Y-55746130D01*
X67063988Y-55888988D01*
X67159226Y-55984226D01*
X67254464Y-56031845D01*
%TO.C,J1*%
X62245833Y-35782380D02*
X62245833Y-36496666D01*
X62293452Y-36639523D01*
X62388690Y-36734761D01*
X62531547Y-36782380D01*
X62626785Y-36782380D01*
X61245833Y-36782380D02*
X61817261Y-36782380D01*
X61531547Y-36782380D02*
X61531547Y-35782380D01*
X61626785Y-35925238D01*
X61722023Y-36020476D01*
X61817261Y-36068095D01*
%TO.C,D67*%
X148851785Y-77209880D02*
X148851785Y-76209880D01*
X148613690Y-76209880D01*
X148470833Y-76257500D01*
X148375595Y-76352738D01*
X148327976Y-76447976D01*
X148280357Y-76638452D01*
X148280357Y-76781309D01*
X148327976Y-76971785D01*
X148375595Y-77067023D01*
X148470833Y-77162261D01*
X148613690Y-77209880D01*
X148851785Y-77209880D01*
X147423214Y-76209880D02*
X147613690Y-76209880D01*
X147708928Y-76257500D01*
X147756547Y-76305119D01*
X147851785Y-76447976D01*
X147899404Y-76638452D01*
X147899404Y-77019404D01*
X147851785Y-77114642D01*
X147804166Y-77162261D01*
X147708928Y-77209880D01*
X147518452Y-77209880D01*
X147423214Y-77162261D01*
X147375595Y-77114642D01*
X147327976Y-77019404D01*
X147327976Y-76781309D01*
X147375595Y-76686071D01*
X147423214Y-76638452D01*
X147518452Y-76590833D01*
X147708928Y-76590833D01*
X147804166Y-76638452D01*
X147851785Y-76686071D01*
X147899404Y-76781309D01*
X146994642Y-76209880D02*
X146327976Y-76209880D01*
X146756547Y-77209880D01*
%TO.C,D66*%
X34551785Y-96259880D02*
X34551785Y-95259880D01*
X34313690Y-95259880D01*
X34170833Y-95307500D01*
X34075595Y-95402738D01*
X34027976Y-95497976D01*
X33980357Y-95688452D01*
X33980357Y-95831309D01*
X34027976Y-96021785D01*
X34075595Y-96117023D01*
X34170833Y-96212261D01*
X34313690Y-96259880D01*
X34551785Y-96259880D01*
X33123214Y-95259880D02*
X33313690Y-95259880D01*
X33408928Y-95307500D01*
X33456547Y-95355119D01*
X33551785Y-95497976D01*
X33599404Y-95688452D01*
X33599404Y-96069404D01*
X33551785Y-96164642D01*
X33504166Y-96212261D01*
X33408928Y-96259880D01*
X33218452Y-96259880D01*
X33123214Y-96212261D01*
X33075595Y-96164642D01*
X33027976Y-96069404D01*
X33027976Y-95831309D01*
X33075595Y-95736071D01*
X33123214Y-95688452D01*
X33218452Y-95640833D01*
X33408928Y-95640833D01*
X33504166Y-95688452D01*
X33551785Y-95736071D01*
X33599404Y-95831309D01*
X32170833Y-95259880D02*
X32361309Y-95259880D01*
X32456547Y-95307500D01*
X32504166Y-95355119D01*
X32599404Y-95497976D01*
X32647023Y-95688452D01*
X32647023Y-96069404D01*
X32599404Y-96164642D01*
X32551785Y-96212261D01*
X32456547Y-96259880D01*
X32266071Y-96259880D01*
X32170833Y-96212261D01*
X32123214Y-96164642D01*
X32075595Y-96069404D01*
X32075595Y-95831309D01*
X32123214Y-95736071D01*
X32170833Y-95688452D01*
X32266071Y-95640833D01*
X32456547Y-95640833D01*
X32551785Y-95688452D01*
X32599404Y-95736071D01*
X32647023Y-95831309D01*
%TO.C,D65*%
X252452380Y-116260714D02*
X251452380Y-116260714D01*
X251452380Y-116498809D01*
X251500000Y-116641666D01*
X251595238Y-116736904D01*
X251690476Y-116784523D01*
X251880952Y-116832142D01*
X252023809Y-116832142D01*
X252214285Y-116784523D01*
X252309523Y-116736904D01*
X252404761Y-116641666D01*
X252452380Y-116498809D01*
X252452380Y-116260714D01*
X251452380Y-117689285D02*
X251452380Y-117498809D01*
X251500000Y-117403571D01*
X251547619Y-117355952D01*
X251690476Y-117260714D01*
X251880952Y-117213095D01*
X252261904Y-117213095D01*
X252357142Y-117260714D01*
X252404761Y-117308333D01*
X252452380Y-117403571D01*
X252452380Y-117594047D01*
X252404761Y-117689285D01*
X252357142Y-117736904D01*
X252261904Y-117784523D01*
X252023809Y-117784523D01*
X251928571Y-117736904D01*
X251880952Y-117689285D01*
X251833333Y-117594047D01*
X251833333Y-117403571D01*
X251880952Y-117308333D01*
X251928571Y-117260714D01*
X252023809Y-117213095D01*
X251452380Y-118689285D02*
X251452380Y-118213095D01*
X251928571Y-118165476D01*
X251880952Y-118213095D01*
X251833333Y-118308333D01*
X251833333Y-118546428D01*
X251880952Y-118641666D01*
X251928571Y-118689285D01*
X252023809Y-118736904D01*
X252261904Y-118736904D01*
X252357142Y-118689285D01*
X252404761Y-118641666D01*
X252452380Y-118546428D01*
X252452380Y-118308333D01*
X252404761Y-118213095D01*
X252357142Y-118165476D01*
%TO.C,D64*%
X233402380Y-116260714D02*
X232402380Y-116260714D01*
X232402380Y-116498809D01*
X232450000Y-116641666D01*
X232545238Y-116736904D01*
X232640476Y-116784523D01*
X232830952Y-116832142D01*
X232973809Y-116832142D01*
X233164285Y-116784523D01*
X233259523Y-116736904D01*
X233354761Y-116641666D01*
X233402380Y-116498809D01*
X233402380Y-116260714D01*
X232402380Y-117689285D02*
X232402380Y-117498809D01*
X232450000Y-117403571D01*
X232497619Y-117355952D01*
X232640476Y-117260714D01*
X232830952Y-117213095D01*
X233211904Y-117213095D01*
X233307142Y-117260714D01*
X233354761Y-117308333D01*
X233402380Y-117403571D01*
X233402380Y-117594047D01*
X233354761Y-117689285D01*
X233307142Y-117736904D01*
X233211904Y-117784523D01*
X232973809Y-117784523D01*
X232878571Y-117736904D01*
X232830952Y-117689285D01*
X232783333Y-117594047D01*
X232783333Y-117403571D01*
X232830952Y-117308333D01*
X232878571Y-117260714D01*
X232973809Y-117213095D01*
X232735714Y-118641666D02*
X233402380Y-118641666D01*
X232354761Y-118403571D02*
X233069047Y-118165476D01*
X233069047Y-118784523D01*
%TO.C,D63*%
X214352380Y-116260714D02*
X213352380Y-116260714D01*
X213352380Y-116498809D01*
X213400000Y-116641666D01*
X213495238Y-116736904D01*
X213590476Y-116784523D01*
X213780952Y-116832142D01*
X213923809Y-116832142D01*
X214114285Y-116784523D01*
X214209523Y-116736904D01*
X214304761Y-116641666D01*
X214352380Y-116498809D01*
X214352380Y-116260714D01*
X213352380Y-117689285D02*
X213352380Y-117498809D01*
X213400000Y-117403571D01*
X213447619Y-117355952D01*
X213590476Y-117260714D01*
X213780952Y-117213095D01*
X214161904Y-117213095D01*
X214257142Y-117260714D01*
X214304761Y-117308333D01*
X214352380Y-117403571D01*
X214352380Y-117594047D01*
X214304761Y-117689285D01*
X214257142Y-117736904D01*
X214161904Y-117784523D01*
X213923809Y-117784523D01*
X213828571Y-117736904D01*
X213780952Y-117689285D01*
X213733333Y-117594047D01*
X213733333Y-117403571D01*
X213780952Y-117308333D01*
X213828571Y-117260714D01*
X213923809Y-117213095D01*
X213352380Y-118117857D02*
X213352380Y-118736904D01*
X213733333Y-118403571D01*
X213733333Y-118546428D01*
X213780952Y-118641666D01*
X213828571Y-118689285D01*
X213923809Y-118736904D01*
X214161904Y-118736904D01*
X214257142Y-118689285D01*
X214304761Y-118641666D01*
X214352380Y-118546428D01*
X214352380Y-118260714D01*
X214304761Y-118165476D01*
X214257142Y-118117857D01*
%TO.C,D62*%
X195302380Y-116260714D02*
X194302380Y-116260714D01*
X194302380Y-116498809D01*
X194350000Y-116641666D01*
X194445238Y-116736904D01*
X194540476Y-116784523D01*
X194730952Y-116832142D01*
X194873809Y-116832142D01*
X195064285Y-116784523D01*
X195159523Y-116736904D01*
X195254761Y-116641666D01*
X195302380Y-116498809D01*
X195302380Y-116260714D01*
X194302380Y-117689285D02*
X194302380Y-117498809D01*
X194350000Y-117403571D01*
X194397619Y-117355952D01*
X194540476Y-117260714D01*
X194730952Y-117213095D01*
X195111904Y-117213095D01*
X195207142Y-117260714D01*
X195254761Y-117308333D01*
X195302380Y-117403571D01*
X195302380Y-117594047D01*
X195254761Y-117689285D01*
X195207142Y-117736904D01*
X195111904Y-117784523D01*
X194873809Y-117784523D01*
X194778571Y-117736904D01*
X194730952Y-117689285D01*
X194683333Y-117594047D01*
X194683333Y-117403571D01*
X194730952Y-117308333D01*
X194778571Y-117260714D01*
X194873809Y-117213095D01*
X194397619Y-118165476D02*
X194350000Y-118213095D01*
X194302380Y-118308333D01*
X194302380Y-118546428D01*
X194350000Y-118641666D01*
X194397619Y-118689285D01*
X194492857Y-118736904D01*
X194588095Y-118736904D01*
X194730952Y-118689285D01*
X195302380Y-118117857D01*
X195302380Y-118736904D01*
%TO.C,D61*%
X176252380Y-116260714D02*
X175252380Y-116260714D01*
X175252380Y-116498809D01*
X175300000Y-116641666D01*
X175395238Y-116736904D01*
X175490476Y-116784523D01*
X175680952Y-116832142D01*
X175823809Y-116832142D01*
X176014285Y-116784523D01*
X176109523Y-116736904D01*
X176204761Y-116641666D01*
X176252380Y-116498809D01*
X176252380Y-116260714D01*
X175252380Y-117689285D02*
X175252380Y-117498809D01*
X175300000Y-117403571D01*
X175347619Y-117355952D01*
X175490476Y-117260714D01*
X175680952Y-117213095D01*
X176061904Y-117213095D01*
X176157142Y-117260714D01*
X176204761Y-117308333D01*
X176252380Y-117403571D01*
X176252380Y-117594047D01*
X176204761Y-117689285D01*
X176157142Y-117736904D01*
X176061904Y-117784523D01*
X175823809Y-117784523D01*
X175728571Y-117736904D01*
X175680952Y-117689285D01*
X175633333Y-117594047D01*
X175633333Y-117403571D01*
X175680952Y-117308333D01*
X175728571Y-117260714D01*
X175823809Y-117213095D01*
X176252380Y-118736904D02*
X176252380Y-118165476D01*
X176252380Y-118451190D02*
X175252380Y-118451190D01*
X175395238Y-118355952D01*
X175490476Y-118260714D01*
X175538095Y-118165476D01*
%TO.C,D60*%
X157202380Y-116260714D02*
X156202380Y-116260714D01*
X156202380Y-116498809D01*
X156250000Y-116641666D01*
X156345238Y-116736904D01*
X156440476Y-116784523D01*
X156630952Y-116832142D01*
X156773809Y-116832142D01*
X156964285Y-116784523D01*
X157059523Y-116736904D01*
X157154761Y-116641666D01*
X157202380Y-116498809D01*
X157202380Y-116260714D01*
X156202380Y-117689285D02*
X156202380Y-117498809D01*
X156250000Y-117403571D01*
X156297619Y-117355952D01*
X156440476Y-117260714D01*
X156630952Y-117213095D01*
X157011904Y-117213095D01*
X157107142Y-117260714D01*
X157154761Y-117308333D01*
X157202380Y-117403571D01*
X157202380Y-117594047D01*
X157154761Y-117689285D01*
X157107142Y-117736904D01*
X157011904Y-117784523D01*
X156773809Y-117784523D01*
X156678571Y-117736904D01*
X156630952Y-117689285D01*
X156583333Y-117594047D01*
X156583333Y-117403571D01*
X156630952Y-117308333D01*
X156678571Y-117260714D01*
X156773809Y-117213095D01*
X156202380Y-118403571D02*
X156202380Y-118498809D01*
X156250000Y-118594047D01*
X156297619Y-118641666D01*
X156392857Y-118689285D01*
X156583333Y-118736904D01*
X156821428Y-118736904D01*
X157011904Y-118689285D01*
X157107142Y-118641666D01*
X157154761Y-118594047D01*
X157202380Y-118498809D01*
X157202380Y-118403571D01*
X157154761Y-118308333D01*
X157107142Y-118260714D01*
X157011904Y-118213095D01*
X156821428Y-118165476D01*
X156583333Y-118165476D01*
X156392857Y-118213095D01*
X156297619Y-118260714D01*
X156250000Y-118308333D01*
X156202380Y-118403571D01*
%TO.C,D59*%
X138152380Y-116260714D02*
X137152380Y-116260714D01*
X137152380Y-116498809D01*
X137200000Y-116641666D01*
X137295238Y-116736904D01*
X137390476Y-116784523D01*
X137580952Y-116832142D01*
X137723809Y-116832142D01*
X137914285Y-116784523D01*
X138009523Y-116736904D01*
X138104761Y-116641666D01*
X138152380Y-116498809D01*
X138152380Y-116260714D01*
X137152380Y-117736904D02*
X137152380Y-117260714D01*
X137628571Y-117213095D01*
X137580952Y-117260714D01*
X137533333Y-117355952D01*
X137533333Y-117594047D01*
X137580952Y-117689285D01*
X137628571Y-117736904D01*
X137723809Y-117784523D01*
X137961904Y-117784523D01*
X138057142Y-117736904D01*
X138104761Y-117689285D01*
X138152380Y-117594047D01*
X138152380Y-117355952D01*
X138104761Y-117260714D01*
X138057142Y-117213095D01*
X138152380Y-118260714D02*
X138152380Y-118451190D01*
X138104761Y-118546428D01*
X138057142Y-118594047D01*
X137914285Y-118689285D01*
X137723809Y-118736904D01*
X137342857Y-118736904D01*
X137247619Y-118689285D01*
X137200000Y-118641666D01*
X137152380Y-118546428D01*
X137152380Y-118355952D01*
X137200000Y-118260714D01*
X137247619Y-118213095D01*
X137342857Y-118165476D01*
X137580952Y-118165476D01*
X137676190Y-118213095D01*
X137723809Y-118260714D01*
X137771428Y-118355952D01*
X137771428Y-118546428D01*
X137723809Y-118641666D01*
X137676190Y-118689285D01*
X137580952Y-118736904D01*
%TO.C,D58*%
X119102380Y-116260714D02*
X118102380Y-116260714D01*
X118102380Y-116498809D01*
X118150000Y-116641666D01*
X118245238Y-116736904D01*
X118340476Y-116784523D01*
X118530952Y-116832142D01*
X118673809Y-116832142D01*
X118864285Y-116784523D01*
X118959523Y-116736904D01*
X119054761Y-116641666D01*
X119102380Y-116498809D01*
X119102380Y-116260714D01*
X118102380Y-117736904D02*
X118102380Y-117260714D01*
X118578571Y-117213095D01*
X118530952Y-117260714D01*
X118483333Y-117355952D01*
X118483333Y-117594047D01*
X118530952Y-117689285D01*
X118578571Y-117736904D01*
X118673809Y-117784523D01*
X118911904Y-117784523D01*
X119007142Y-117736904D01*
X119054761Y-117689285D01*
X119102380Y-117594047D01*
X119102380Y-117355952D01*
X119054761Y-117260714D01*
X119007142Y-117213095D01*
X118530952Y-118355952D02*
X118483333Y-118260714D01*
X118435714Y-118213095D01*
X118340476Y-118165476D01*
X118292857Y-118165476D01*
X118197619Y-118213095D01*
X118150000Y-118260714D01*
X118102380Y-118355952D01*
X118102380Y-118546428D01*
X118150000Y-118641666D01*
X118197619Y-118689285D01*
X118292857Y-118736904D01*
X118340476Y-118736904D01*
X118435714Y-118689285D01*
X118483333Y-118641666D01*
X118530952Y-118546428D01*
X118530952Y-118355952D01*
X118578571Y-118260714D01*
X118626190Y-118213095D01*
X118721428Y-118165476D01*
X118911904Y-118165476D01*
X119007142Y-118213095D01*
X119054761Y-118260714D01*
X119102380Y-118355952D01*
X119102380Y-118546428D01*
X119054761Y-118641666D01*
X119007142Y-118689285D01*
X118911904Y-118736904D01*
X118721428Y-118736904D01*
X118626190Y-118689285D01*
X118578571Y-118641666D01*
X118530952Y-118546428D01*
%TO.C,D57*%
X100052380Y-116260714D02*
X99052380Y-116260714D01*
X99052380Y-116498809D01*
X99100000Y-116641666D01*
X99195238Y-116736904D01*
X99290476Y-116784523D01*
X99480952Y-116832142D01*
X99623809Y-116832142D01*
X99814285Y-116784523D01*
X99909523Y-116736904D01*
X100004761Y-116641666D01*
X100052380Y-116498809D01*
X100052380Y-116260714D01*
X99052380Y-117736904D02*
X99052380Y-117260714D01*
X99528571Y-117213095D01*
X99480952Y-117260714D01*
X99433333Y-117355952D01*
X99433333Y-117594047D01*
X99480952Y-117689285D01*
X99528571Y-117736904D01*
X99623809Y-117784523D01*
X99861904Y-117784523D01*
X99957142Y-117736904D01*
X100004761Y-117689285D01*
X100052380Y-117594047D01*
X100052380Y-117355952D01*
X100004761Y-117260714D01*
X99957142Y-117213095D01*
X99052380Y-118117857D02*
X99052380Y-118784523D01*
X100052380Y-118355952D01*
%TO.C,D56*%
X81002380Y-116260714D02*
X80002380Y-116260714D01*
X80002380Y-116498809D01*
X80050000Y-116641666D01*
X80145238Y-116736904D01*
X80240476Y-116784523D01*
X80430952Y-116832142D01*
X80573809Y-116832142D01*
X80764285Y-116784523D01*
X80859523Y-116736904D01*
X80954761Y-116641666D01*
X81002380Y-116498809D01*
X81002380Y-116260714D01*
X80002380Y-117736904D02*
X80002380Y-117260714D01*
X80478571Y-117213095D01*
X80430952Y-117260714D01*
X80383333Y-117355952D01*
X80383333Y-117594047D01*
X80430952Y-117689285D01*
X80478571Y-117736904D01*
X80573809Y-117784523D01*
X80811904Y-117784523D01*
X80907142Y-117736904D01*
X80954761Y-117689285D01*
X81002380Y-117594047D01*
X81002380Y-117355952D01*
X80954761Y-117260714D01*
X80907142Y-117213095D01*
X80002380Y-118641666D02*
X80002380Y-118451190D01*
X80050000Y-118355952D01*
X80097619Y-118308333D01*
X80240476Y-118213095D01*
X80430952Y-118165476D01*
X80811904Y-118165476D01*
X80907142Y-118213095D01*
X80954761Y-118260714D01*
X81002380Y-118355952D01*
X81002380Y-118546428D01*
X80954761Y-118641666D01*
X80907142Y-118689285D01*
X80811904Y-118736904D01*
X80573809Y-118736904D01*
X80478571Y-118689285D01*
X80430952Y-118641666D01*
X80383333Y-118546428D01*
X80383333Y-118355952D01*
X80430952Y-118260714D01*
X80478571Y-118213095D01*
X80573809Y-118165476D01*
%TO.C,D55*%
X61952380Y-116260714D02*
X60952380Y-116260714D01*
X60952380Y-116498809D01*
X61000000Y-116641666D01*
X61095238Y-116736904D01*
X61190476Y-116784523D01*
X61380952Y-116832142D01*
X61523809Y-116832142D01*
X61714285Y-116784523D01*
X61809523Y-116736904D01*
X61904761Y-116641666D01*
X61952380Y-116498809D01*
X61952380Y-116260714D01*
X60952380Y-117736904D02*
X60952380Y-117260714D01*
X61428571Y-117213095D01*
X61380952Y-117260714D01*
X61333333Y-117355952D01*
X61333333Y-117594047D01*
X61380952Y-117689285D01*
X61428571Y-117736904D01*
X61523809Y-117784523D01*
X61761904Y-117784523D01*
X61857142Y-117736904D01*
X61904761Y-117689285D01*
X61952380Y-117594047D01*
X61952380Y-117355952D01*
X61904761Y-117260714D01*
X61857142Y-117213095D01*
X60952380Y-118689285D02*
X60952380Y-118213095D01*
X61428571Y-118165476D01*
X61380952Y-118213095D01*
X61333333Y-118308333D01*
X61333333Y-118546428D01*
X61380952Y-118641666D01*
X61428571Y-118689285D01*
X61523809Y-118736904D01*
X61761904Y-118736904D01*
X61857142Y-118689285D01*
X61904761Y-118641666D01*
X61952380Y-118546428D01*
X61952380Y-118308333D01*
X61904761Y-118213095D01*
X61857142Y-118165476D01*
%TO.C,D54*%
X42902380Y-116260714D02*
X41902380Y-116260714D01*
X41902380Y-116498809D01*
X41950000Y-116641666D01*
X42045238Y-116736904D01*
X42140476Y-116784523D01*
X42330952Y-116832142D01*
X42473809Y-116832142D01*
X42664285Y-116784523D01*
X42759523Y-116736904D01*
X42854761Y-116641666D01*
X42902380Y-116498809D01*
X42902380Y-116260714D01*
X41902380Y-117736904D02*
X41902380Y-117260714D01*
X42378571Y-117213095D01*
X42330952Y-117260714D01*
X42283333Y-117355952D01*
X42283333Y-117594047D01*
X42330952Y-117689285D01*
X42378571Y-117736904D01*
X42473809Y-117784523D01*
X42711904Y-117784523D01*
X42807142Y-117736904D01*
X42854761Y-117689285D01*
X42902380Y-117594047D01*
X42902380Y-117355952D01*
X42854761Y-117260714D01*
X42807142Y-117213095D01*
X42235714Y-118641666D02*
X42902380Y-118641666D01*
X41854761Y-118403571D02*
X42569047Y-118165476D01*
X42569047Y-118784523D01*
%TO.C,D53*%
X23852380Y-116260714D02*
X22852380Y-116260714D01*
X22852380Y-116498809D01*
X22900000Y-116641666D01*
X22995238Y-116736904D01*
X23090476Y-116784523D01*
X23280952Y-116832142D01*
X23423809Y-116832142D01*
X23614285Y-116784523D01*
X23709523Y-116736904D01*
X23804761Y-116641666D01*
X23852380Y-116498809D01*
X23852380Y-116260714D01*
X22852380Y-117736904D02*
X22852380Y-117260714D01*
X23328571Y-117213095D01*
X23280952Y-117260714D01*
X23233333Y-117355952D01*
X23233333Y-117594047D01*
X23280952Y-117689285D01*
X23328571Y-117736904D01*
X23423809Y-117784523D01*
X23661904Y-117784523D01*
X23757142Y-117736904D01*
X23804761Y-117689285D01*
X23852380Y-117594047D01*
X23852380Y-117355952D01*
X23804761Y-117260714D01*
X23757142Y-117213095D01*
X22852380Y-118117857D02*
X22852380Y-118736904D01*
X23233333Y-118403571D01*
X23233333Y-118546428D01*
X23280952Y-118641666D01*
X23328571Y-118689285D01*
X23423809Y-118736904D01*
X23661904Y-118736904D01*
X23757142Y-118689285D01*
X23804761Y-118641666D01*
X23852380Y-118546428D01*
X23852380Y-118260714D01*
X23804761Y-118165476D01*
X23757142Y-118117857D01*
%TO.C,D52*%
X252452380Y-97210714D02*
X251452380Y-97210714D01*
X251452380Y-97448809D01*
X251500000Y-97591666D01*
X251595238Y-97686904D01*
X251690476Y-97734523D01*
X251880952Y-97782142D01*
X252023809Y-97782142D01*
X252214285Y-97734523D01*
X252309523Y-97686904D01*
X252404761Y-97591666D01*
X252452380Y-97448809D01*
X252452380Y-97210714D01*
X251452380Y-98686904D02*
X251452380Y-98210714D01*
X251928571Y-98163095D01*
X251880952Y-98210714D01*
X251833333Y-98305952D01*
X251833333Y-98544047D01*
X251880952Y-98639285D01*
X251928571Y-98686904D01*
X252023809Y-98734523D01*
X252261904Y-98734523D01*
X252357142Y-98686904D01*
X252404761Y-98639285D01*
X252452380Y-98544047D01*
X252452380Y-98305952D01*
X252404761Y-98210714D01*
X252357142Y-98163095D01*
X251547619Y-99115476D02*
X251500000Y-99163095D01*
X251452380Y-99258333D01*
X251452380Y-99496428D01*
X251500000Y-99591666D01*
X251547619Y-99639285D01*
X251642857Y-99686904D01*
X251738095Y-99686904D01*
X251880952Y-99639285D01*
X252452380Y-99067857D01*
X252452380Y-99686904D01*
%TO.C,D51*%
X233402380Y-97210714D02*
X232402380Y-97210714D01*
X232402380Y-97448809D01*
X232450000Y-97591666D01*
X232545238Y-97686904D01*
X232640476Y-97734523D01*
X232830952Y-97782142D01*
X232973809Y-97782142D01*
X233164285Y-97734523D01*
X233259523Y-97686904D01*
X233354761Y-97591666D01*
X233402380Y-97448809D01*
X233402380Y-97210714D01*
X232402380Y-98686904D02*
X232402380Y-98210714D01*
X232878571Y-98163095D01*
X232830952Y-98210714D01*
X232783333Y-98305952D01*
X232783333Y-98544047D01*
X232830952Y-98639285D01*
X232878571Y-98686904D01*
X232973809Y-98734523D01*
X233211904Y-98734523D01*
X233307142Y-98686904D01*
X233354761Y-98639285D01*
X233402380Y-98544047D01*
X233402380Y-98305952D01*
X233354761Y-98210714D01*
X233307142Y-98163095D01*
X233402380Y-99686904D02*
X233402380Y-99115476D01*
X233402380Y-99401190D02*
X232402380Y-99401190D01*
X232545238Y-99305952D01*
X232640476Y-99210714D01*
X232688095Y-99115476D01*
%TO.C,D50*%
X214352380Y-97210714D02*
X213352380Y-97210714D01*
X213352380Y-97448809D01*
X213400000Y-97591666D01*
X213495238Y-97686904D01*
X213590476Y-97734523D01*
X213780952Y-97782142D01*
X213923809Y-97782142D01*
X214114285Y-97734523D01*
X214209523Y-97686904D01*
X214304761Y-97591666D01*
X214352380Y-97448809D01*
X214352380Y-97210714D01*
X213352380Y-98686904D02*
X213352380Y-98210714D01*
X213828571Y-98163095D01*
X213780952Y-98210714D01*
X213733333Y-98305952D01*
X213733333Y-98544047D01*
X213780952Y-98639285D01*
X213828571Y-98686904D01*
X213923809Y-98734523D01*
X214161904Y-98734523D01*
X214257142Y-98686904D01*
X214304761Y-98639285D01*
X214352380Y-98544047D01*
X214352380Y-98305952D01*
X214304761Y-98210714D01*
X214257142Y-98163095D01*
X213352380Y-99353571D02*
X213352380Y-99448809D01*
X213400000Y-99544047D01*
X213447619Y-99591666D01*
X213542857Y-99639285D01*
X213733333Y-99686904D01*
X213971428Y-99686904D01*
X214161904Y-99639285D01*
X214257142Y-99591666D01*
X214304761Y-99544047D01*
X214352380Y-99448809D01*
X214352380Y-99353571D01*
X214304761Y-99258333D01*
X214257142Y-99210714D01*
X214161904Y-99163095D01*
X213971428Y-99115476D01*
X213733333Y-99115476D01*
X213542857Y-99163095D01*
X213447619Y-99210714D01*
X213400000Y-99258333D01*
X213352380Y-99353571D01*
%TO.C,D49*%
X195302380Y-97210714D02*
X194302380Y-97210714D01*
X194302380Y-97448809D01*
X194350000Y-97591666D01*
X194445238Y-97686904D01*
X194540476Y-97734523D01*
X194730952Y-97782142D01*
X194873809Y-97782142D01*
X195064285Y-97734523D01*
X195159523Y-97686904D01*
X195254761Y-97591666D01*
X195302380Y-97448809D01*
X195302380Y-97210714D01*
X194635714Y-98639285D02*
X195302380Y-98639285D01*
X194254761Y-98401190D02*
X194969047Y-98163095D01*
X194969047Y-98782142D01*
X195302380Y-99210714D02*
X195302380Y-99401190D01*
X195254761Y-99496428D01*
X195207142Y-99544047D01*
X195064285Y-99639285D01*
X194873809Y-99686904D01*
X194492857Y-99686904D01*
X194397619Y-99639285D01*
X194350000Y-99591666D01*
X194302380Y-99496428D01*
X194302380Y-99305952D01*
X194350000Y-99210714D01*
X194397619Y-99163095D01*
X194492857Y-99115476D01*
X194730952Y-99115476D01*
X194826190Y-99163095D01*
X194873809Y-99210714D01*
X194921428Y-99305952D01*
X194921428Y-99496428D01*
X194873809Y-99591666D01*
X194826190Y-99639285D01*
X194730952Y-99686904D01*
%TO.C,D48*%
X176252380Y-97210714D02*
X175252380Y-97210714D01*
X175252380Y-97448809D01*
X175300000Y-97591666D01*
X175395238Y-97686904D01*
X175490476Y-97734523D01*
X175680952Y-97782142D01*
X175823809Y-97782142D01*
X176014285Y-97734523D01*
X176109523Y-97686904D01*
X176204761Y-97591666D01*
X176252380Y-97448809D01*
X176252380Y-97210714D01*
X175585714Y-98639285D02*
X176252380Y-98639285D01*
X175204761Y-98401190D02*
X175919047Y-98163095D01*
X175919047Y-98782142D01*
X175680952Y-99305952D02*
X175633333Y-99210714D01*
X175585714Y-99163095D01*
X175490476Y-99115476D01*
X175442857Y-99115476D01*
X175347619Y-99163095D01*
X175300000Y-99210714D01*
X175252380Y-99305952D01*
X175252380Y-99496428D01*
X175300000Y-99591666D01*
X175347619Y-99639285D01*
X175442857Y-99686904D01*
X175490476Y-99686904D01*
X175585714Y-99639285D01*
X175633333Y-99591666D01*
X175680952Y-99496428D01*
X175680952Y-99305952D01*
X175728571Y-99210714D01*
X175776190Y-99163095D01*
X175871428Y-99115476D01*
X176061904Y-99115476D01*
X176157142Y-99163095D01*
X176204761Y-99210714D01*
X176252380Y-99305952D01*
X176252380Y-99496428D01*
X176204761Y-99591666D01*
X176157142Y-99639285D01*
X176061904Y-99686904D01*
X175871428Y-99686904D01*
X175776190Y-99639285D01*
X175728571Y-99591666D01*
X175680952Y-99496428D01*
%TO.C,D47*%
X157202380Y-97210714D02*
X156202380Y-97210714D01*
X156202380Y-97448809D01*
X156250000Y-97591666D01*
X156345238Y-97686904D01*
X156440476Y-97734523D01*
X156630952Y-97782142D01*
X156773809Y-97782142D01*
X156964285Y-97734523D01*
X157059523Y-97686904D01*
X157154761Y-97591666D01*
X157202380Y-97448809D01*
X157202380Y-97210714D01*
X156535714Y-98639285D02*
X157202380Y-98639285D01*
X156154761Y-98401190D02*
X156869047Y-98163095D01*
X156869047Y-98782142D01*
X156202380Y-99067857D02*
X156202380Y-99734523D01*
X157202380Y-99305952D01*
%TO.C,D46*%
X138152380Y-97210714D02*
X137152380Y-97210714D01*
X137152380Y-97448809D01*
X137200000Y-97591666D01*
X137295238Y-97686904D01*
X137390476Y-97734523D01*
X137580952Y-97782142D01*
X137723809Y-97782142D01*
X137914285Y-97734523D01*
X138009523Y-97686904D01*
X138104761Y-97591666D01*
X138152380Y-97448809D01*
X138152380Y-97210714D01*
X137485714Y-98639285D02*
X138152380Y-98639285D01*
X137104761Y-98401190D02*
X137819047Y-98163095D01*
X137819047Y-98782142D01*
X137152380Y-99591666D02*
X137152380Y-99401190D01*
X137200000Y-99305952D01*
X137247619Y-99258333D01*
X137390476Y-99163095D01*
X137580952Y-99115476D01*
X137961904Y-99115476D01*
X138057142Y-99163095D01*
X138104761Y-99210714D01*
X138152380Y-99305952D01*
X138152380Y-99496428D01*
X138104761Y-99591666D01*
X138057142Y-99639285D01*
X137961904Y-99686904D01*
X137723809Y-99686904D01*
X137628571Y-99639285D01*
X137580952Y-99591666D01*
X137533333Y-99496428D01*
X137533333Y-99305952D01*
X137580952Y-99210714D01*
X137628571Y-99163095D01*
X137723809Y-99115476D01*
%TO.C,D45*%
X119102380Y-97210714D02*
X118102380Y-97210714D01*
X118102380Y-97448809D01*
X118150000Y-97591666D01*
X118245238Y-97686904D01*
X118340476Y-97734523D01*
X118530952Y-97782142D01*
X118673809Y-97782142D01*
X118864285Y-97734523D01*
X118959523Y-97686904D01*
X119054761Y-97591666D01*
X119102380Y-97448809D01*
X119102380Y-97210714D01*
X118435714Y-98639285D02*
X119102380Y-98639285D01*
X118054761Y-98401190D02*
X118769047Y-98163095D01*
X118769047Y-98782142D01*
X118102380Y-99639285D02*
X118102380Y-99163095D01*
X118578571Y-99115476D01*
X118530952Y-99163095D01*
X118483333Y-99258333D01*
X118483333Y-99496428D01*
X118530952Y-99591666D01*
X118578571Y-99639285D01*
X118673809Y-99686904D01*
X118911904Y-99686904D01*
X119007142Y-99639285D01*
X119054761Y-99591666D01*
X119102380Y-99496428D01*
X119102380Y-99258333D01*
X119054761Y-99163095D01*
X119007142Y-99115476D01*
%TO.C,D44*%
X100052380Y-97210714D02*
X99052380Y-97210714D01*
X99052380Y-97448809D01*
X99100000Y-97591666D01*
X99195238Y-97686904D01*
X99290476Y-97734523D01*
X99480952Y-97782142D01*
X99623809Y-97782142D01*
X99814285Y-97734523D01*
X99909523Y-97686904D01*
X100004761Y-97591666D01*
X100052380Y-97448809D01*
X100052380Y-97210714D01*
X99385714Y-98639285D02*
X100052380Y-98639285D01*
X99004761Y-98401190D02*
X99719047Y-98163095D01*
X99719047Y-98782142D01*
X99385714Y-99591666D02*
X100052380Y-99591666D01*
X99004761Y-99353571D02*
X99719047Y-99115476D01*
X99719047Y-99734523D01*
%TO.C,D43*%
X81002380Y-97210714D02*
X80002380Y-97210714D01*
X80002380Y-97448809D01*
X80050000Y-97591666D01*
X80145238Y-97686904D01*
X80240476Y-97734523D01*
X80430952Y-97782142D01*
X80573809Y-97782142D01*
X80764285Y-97734523D01*
X80859523Y-97686904D01*
X80954761Y-97591666D01*
X81002380Y-97448809D01*
X81002380Y-97210714D01*
X80335714Y-98639285D02*
X81002380Y-98639285D01*
X79954761Y-98401190D02*
X80669047Y-98163095D01*
X80669047Y-98782142D01*
X80002380Y-99067857D02*
X80002380Y-99686904D01*
X80383333Y-99353571D01*
X80383333Y-99496428D01*
X80430952Y-99591666D01*
X80478571Y-99639285D01*
X80573809Y-99686904D01*
X80811904Y-99686904D01*
X80907142Y-99639285D01*
X80954761Y-99591666D01*
X81002380Y-99496428D01*
X81002380Y-99210714D01*
X80954761Y-99115476D01*
X80907142Y-99067857D01*
%TO.C,D42*%
X61952380Y-97210714D02*
X60952380Y-97210714D01*
X60952380Y-97448809D01*
X61000000Y-97591666D01*
X61095238Y-97686904D01*
X61190476Y-97734523D01*
X61380952Y-97782142D01*
X61523809Y-97782142D01*
X61714285Y-97734523D01*
X61809523Y-97686904D01*
X61904761Y-97591666D01*
X61952380Y-97448809D01*
X61952380Y-97210714D01*
X61285714Y-98639285D02*
X61952380Y-98639285D01*
X60904761Y-98401190D02*
X61619047Y-98163095D01*
X61619047Y-98782142D01*
X61047619Y-99115476D02*
X61000000Y-99163095D01*
X60952380Y-99258333D01*
X60952380Y-99496428D01*
X61000000Y-99591666D01*
X61047619Y-99639285D01*
X61142857Y-99686904D01*
X61238095Y-99686904D01*
X61380952Y-99639285D01*
X61952380Y-99067857D01*
X61952380Y-99686904D01*
%TO.C,D41*%
X42902380Y-97210714D02*
X41902380Y-97210714D01*
X41902380Y-97448809D01*
X41950000Y-97591666D01*
X42045238Y-97686904D01*
X42140476Y-97734523D01*
X42330952Y-97782142D01*
X42473809Y-97782142D01*
X42664285Y-97734523D01*
X42759523Y-97686904D01*
X42854761Y-97591666D01*
X42902380Y-97448809D01*
X42902380Y-97210714D01*
X42235714Y-98639285D02*
X42902380Y-98639285D01*
X41854761Y-98401190D02*
X42569047Y-98163095D01*
X42569047Y-98782142D01*
X42902380Y-99686904D02*
X42902380Y-99115476D01*
X42902380Y-99401190D02*
X41902380Y-99401190D01*
X42045238Y-99305952D01*
X42140476Y-99210714D01*
X42188095Y-99115476D01*
%TO.C,D40*%
X23852380Y-97210714D02*
X22852380Y-97210714D01*
X22852380Y-97448809D01*
X22900000Y-97591666D01*
X22995238Y-97686904D01*
X23090476Y-97734523D01*
X23280952Y-97782142D01*
X23423809Y-97782142D01*
X23614285Y-97734523D01*
X23709523Y-97686904D01*
X23804761Y-97591666D01*
X23852380Y-97448809D01*
X23852380Y-97210714D01*
X23185714Y-98639285D02*
X23852380Y-98639285D01*
X22804761Y-98401190D02*
X23519047Y-98163095D01*
X23519047Y-98782142D01*
X22852380Y-99353571D02*
X22852380Y-99448809D01*
X22900000Y-99544047D01*
X22947619Y-99591666D01*
X23042857Y-99639285D01*
X23233333Y-99686904D01*
X23471428Y-99686904D01*
X23661904Y-99639285D01*
X23757142Y-99591666D01*
X23804761Y-99544047D01*
X23852380Y-99448809D01*
X23852380Y-99353571D01*
X23804761Y-99258333D01*
X23757142Y-99210714D01*
X23661904Y-99163095D01*
X23471428Y-99115476D01*
X23233333Y-99115476D01*
X23042857Y-99163095D01*
X22947619Y-99210714D01*
X22900000Y-99258333D01*
X22852380Y-99353571D01*
%TO.C,D39*%
X252452380Y-78160714D02*
X251452380Y-78160714D01*
X251452380Y-78398809D01*
X251500000Y-78541666D01*
X251595238Y-78636904D01*
X251690476Y-78684523D01*
X251880952Y-78732142D01*
X252023809Y-78732142D01*
X252214285Y-78684523D01*
X252309523Y-78636904D01*
X252404761Y-78541666D01*
X252452380Y-78398809D01*
X252452380Y-78160714D01*
X251452380Y-79065476D02*
X251452380Y-79684523D01*
X251833333Y-79351190D01*
X251833333Y-79494047D01*
X251880952Y-79589285D01*
X251928571Y-79636904D01*
X252023809Y-79684523D01*
X252261904Y-79684523D01*
X252357142Y-79636904D01*
X252404761Y-79589285D01*
X252452380Y-79494047D01*
X252452380Y-79208333D01*
X252404761Y-79113095D01*
X252357142Y-79065476D01*
X252452380Y-80160714D02*
X252452380Y-80351190D01*
X252404761Y-80446428D01*
X252357142Y-80494047D01*
X252214285Y-80589285D01*
X252023809Y-80636904D01*
X251642857Y-80636904D01*
X251547619Y-80589285D01*
X251500000Y-80541666D01*
X251452380Y-80446428D01*
X251452380Y-80255952D01*
X251500000Y-80160714D01*
X251547619Y-80113095D01*
X251642857Y-80065476D01*
X251880952Y-80065476D01*
X251976190Y-80113095D01*
X252023809Y-80160714D01*
X252071428Y-80255952D01*
X252071428Y-80446428D01*
X252023809Y-80541666D01*
X251976190Y-80589285D01*
X251880952Y-80636904D01*
%TO.C,D38*%
X233402380Y-78160714D02*
X232402380Y-78160714D01*
X232402380Y-78398809D01*
X232450000Y-78541666D01*
X232545238Y-78636904D01*
X232640476Y-78684523D01*
X232830952Y-78732142D01*
X232973809Y-78732142D01*
X233164285Y-78684523D01*
X233259523Y-78636904D01*
X233354761Y-78541666D01*
X233402380Y-78398809D01*
X233402380Y-78160714D01*
X232402380Y-79065476D02*
X232402380Y-79684523D01*
X232783333Y-79351190D01*
X232783333Y-79494047D01*
X232830952Y-79589285D01*
X232878571Y-79636904D01*
X232973809Y-79684523D01*
X233211904Y-79684523D01*
X233307142Y-79636904D01*
X233354761Y-79589285D01*
X233402380Y-79494047D01*
X233402380Y-79208333D01*
X233354761Y-79113095D01*
X233307142Y-79065476D01*
X232830952Y-80255952D02*
X232783333Y-80160714D01*
X232735714Y-80113095D01*
X232640476Y-80065476D01*
X232592857Y-80065476D01*
X232497619Y-80113095D01*
X232450000Y-80160714D01*
X232402380Y-80255952D01*
X232402380Y-80446428D01*
X232450000Y-80541666D01*
X232497619Y-80589285D01*
X232592857Y-80636904D01*
X232640476Y-80636904D01*
X232735714Y-80589285D01*
X232783333Y-80541666D01*
X232830952Y-80446428D01*
X232830952Y-80255952D01*
X232878571Y-80160714D01*
X232926190Y-80113095D01*
X233021428Y-80065476D01*
X233211904Y-80065476D01*
X233307142Y-80113095D01*
X233354761Y-80160714D01*
X233402380Y-80255952D01*
X233402380Y-80446428D01*
X233354761Y-80541666D01*
X233307142Y-80589285D01*
X233211904Y-80636904D01*
X233021428Y-80636904D01*
X232926190Y-80589285D01*
X232878571Y-80541666D01*
X232830952Y-80446428D01*
%TO.C,D37*%
X214352380Y-78160714D02*
X213352380Y-78160714D01*
X213352380Y-78398809D01*
X213400000Y-78541666D01*
X213495238Y-78636904D01*
X213590476Y-78684523D01*
X213780952Y-78732142D01*
X213923809Y-78732142D01*
X214114285Y-78684523D01*
X214209523Y-78636904D01*
X214304761Y-78541666D01*
X214352380Y-78398809D01*
X214352380Y-78160714D01*
X213352380Y-79065476D02*
X213352380Y-79684523D01*
X213733333Y-79351190D01*
X213733333Y-79494047D01*
X213780952Y-79589285D01*
X213828571Y-79636904D01*
X213923809Y-79684523D01*
X214161904Y-79684523D01*
X214257142Y-79636904D01*
X214304761Y-79589285D01*
X214352380Y-79494047D01*
X214352380Y-79208333D01*
X214304761Y-79113095D01*
X214257142Y-79065476D01*
X213352380Y-80017857D02*
X213352380Y-80684523D01*
X214352380Y-80255952D01*
%TO.C,D36*%
X195302380Y-78160714D02*
X194302380Y-78160714D01*
X194302380Y-78398809D01*
X194350000Y-78541666D01*
X194445238Y-78636904D01*
X194540476Y-78684523D01*
X194730952Y-78732142D01*
X194873809Y-78732142D01*
X195064285Y-78684523D01*
X195159523Y-78636904D01*
X195254761Y-78541666D01*
X195302380Y-78398809D01*
X195302380Y-78160714D01*
X194302380Y-79065476D02*
X194302380Y-79684523D01*
X194683333Y-79351190D01*
X194683333Y-79494047D01*
X194730952Y-79589285D01*
X194778571Y-79636904D01*
X194873809Y-79684523D01*
X195111904Y-79684523D01*
X195207142Y-79636904D01*
X195254761Y-79589285D01*
X195302380Y-79494047D01*
X195302380Y-79208333D01*
X195254761Y-79113095D01*
X195207142Y-79065476D01*
X194302380Y-80541666D02*
X194302380Y-80351190D01*
X194350000Y-80255952D01*
X194397619Y-80208333D01*
X194540476Y-80113095D01*
X194730952Y-80065476D01*
X195111904Y-80065476D01*
X195207142Y-80113095D01*
X195254761Y-80160714D01*
X195302380Y-80255952D01*
X195302380Y-80446428D01*
X195254761Y-80541666D01*
X195207142Y-80589285D01*
X195111904Y-80636904D01*
X194873809Y-80636904D01*
X194778571Y-80589285D01*
X194730952Y-80541666D01*
X194683333Y-80446428D01*
X194683333Y-80255952D01*
X194730952Y-80160714D01*
X194778571Y-80113095D01*
X194873809Y-80065476D01*
%TO.C,D35*%
X176252380Y-78160714D02*
X175252380Y-78160714D01*
X175252380Y-78398809D01*
X175300000Y-78541666D01*
X175395238Y-78636904D01*
X175490476Y-78684523D01*
X175680952Y-78732142D01*
X175823809Y-78732142D01*
X176014285Y-78684523D01*
X176109523Y-78636904D01*
X176204761Y-78541666D01*
X176252380Y-78398809D01*
X176252380Y-78160714D01*
X175252380Y-79065476D02*
X175252380Y-79684523D01*
X175633333Y-79351190D01*
X175633333Y-79494047D01*
X175680952Y-79589285D01*
X175728571Y-79636904D01*
X175823809Y-79684523D01*
X176061904Y-79684523D01*
X176157142Y-79636904D01*
X176204761Y-79589285D01*
X176252380Y-79494047D01*
X176252380Y-79208333D01*
X176204761Y-79113095D01*
X176157142Y-79065476D01*
X175252380Y-80589285D02*
X175252380Y-80113095D01*
X175728571Y-80065476D01*
X175680952Y-80113095D01*
X175633333Y-80208333D01*
X175633333Y-80446428D01*
X175680952Y-80541666D01*
X175728571Y-80589285D01*
X175823809Y-80636904D01*
X176061904Y-80636904D01*
X176157142Y-80589285D01*
X176204761Y-80541666D01*
X176252380Y-80446428D01*
X176252380Y-80208333D01*
X176204761Y-80113095D01*
X176157142Y-80065476D01*
%TO.C,D34*%
X157202380Y-78160714D02*
X156202380Y-78160714D01*
X156202380Y-78398809D01*
X156250000Y-78541666D01*
X156345238Y-78636904D01*
X156440476Y-78684523D01*
X156630952Y-78732142D01*
X156773809Y-78732142D01*
X156964285Y-78684523D01*
X157059523Y-78636904D01*
X157154761Y-78541666D01*
X157202380Y-78398809D01*
X157202380Y-78160714D01*
X156202380Y-79065476D02*
X156202380Y-79684523D01*
X156583333Y-79351190D01*
X156583333Y-79494047D01*
X156630952Y-79589285D01*
X156678571Y-79636904D01*
X156773809Y-79684523D01*
X157011904Y-79684523D01*
X157107142Y-79636904D01*
X157154761Y-79589285D01*
X157202380Y-79494047D01*
X157202380Y-79208333D01*
X157154761Y-79113095D01*
X157107142Y-79065476D01*
X156535714Y-80541666D02*
X157202380Y-80541666D01*
X156154761Y-80303571D02*
X156869047Y-80065476D01*
X156869047Y-80684523D01*
%TO.C,D33*%
X138152380Y-78160714D02*
X137152380Y-78160714D01*
X137152380Y-78398809D01*
X137200000Y-78541666D01*
X137295238Y-78636904D01*
X137390476Y-78684523D01*
X137580952Y-78732142D01*
X137723809Y-78732142D01*
X137914285Y-78684523D01*
X138009523Y-78636904D01*
X138104761Y-78541666D01*
X138152380Y-78398809D01*
X138152380Y-78160714D01*
X137152380Y-79065476D02*
X137152380Y-79684523D01*
X137533333Y-79351190D01*
X137533333Y-79494047D01*
X137580952Y-79589285D01*
X137628571Y-79636904D01*
X137723809Y-79684523D01*
X137961904Y-79684523D01*
X138057142Y-79636904D01*
X138104761Y-79589285D01*
X138152380Y-79494047D01*
X138152380Y-79208333D01*
X138104761Y-79113095D01*
X138057142Y-79065476D01*
X137152380Y-80017857D02*
X137152380Y-80636904D01*
X137533333Y-80303571D01*
X137533333Y-80446428D01*
X137580952Y-80541666D01*
X137628571Y-80589285D01*
X137723809Y-80636904D01*
X137961904Y-80636904D01*
X138057142Y-80589285D01*
X138104761Y-80541666D01*
X138152380Y-80446428D01*
X138152380Y-80160714D01*
X138104761Y-80065476D01*
X138057142Y-80017857D01*
%TO.C,D32*%
X119102380Y-78160714D02*
X118102380Y-78160714D01*
X118102380Y-78398809D01*
X118150000Y-78541666D01*
X118245238Y-78636904D01*
X118340476Y-78684523D01*
X118530952Y-78732142D01*
X118673809Y-78732142D01*
X118864285Y-78684523D01*
X118959523Y-78636904D01*
X119054761Y-78541666D01*
X119102380Y-78398809D01*
X119102380Y-78160714D01*
X118102380Y-79065476D02*
X118102380Y-79684523D01*
X118483333Y-79351190D01*
X118483333Y-79494047D01*
X118530952Y-79589285D01*
X118578571Y-79636904D01*
X118673809Y-79684523D01*
X118911904Y-79684523D01*
X119007142Y-79636904D01*
X119054761Y-79589285D01*
X119102380Y-79494047D01*
X119102380Y-79208333D01*
X119054761Y-79113095D01*
X119007142Y-79065476D01*
X118197619Y-80065476D02*
X118150000Y-80113095D01*
X118102380Y-80208333D01*
X118102380Y-80446428D01*
X118150000Y-80541666D01*
X118197619Y-80589285D01*
X118292857Y-80636904D01*
X118388095Y-80636904D01*
X118530952Y-80589285D01*
X119102380Y-80017857D01*
X119102380Y-80636904D01*
%TO.C,D31*%
X100052380Y-78160714D02*
X99052380Y-78160714D01*
X99052380Y-78398809D01*
X99100000Y-78541666D01*
X99195238Y-78636904D01*
X99290476Y-78684523D01*
X99480952Y-78732142D01*
X99623809Y-78732142D01*
X99814285Y-78684523D01*
X99909523Y-78636904D01*
X100004761Y-78541666D01*
X100052380Y-78398809D01*
X100052380Y-78160714D01*
X99052380Y-79065476D02*
X99052380Y-79684523D01*
X99433333Y-79351190D01*
X99433333Y-79494047D01*
X99480952Y-79589285D01*
X99528571Y-79636904D01*
X99623809Y-79684523D01*
X99861904Y-79684523D01*
X99957142Y-79636904D01*
X100004761Y-79589285D01*
X100052380Y-79494047D01*
X100052380Y-79208333D01*
X100004761Y-79113095D01*
X99957142Y-79065476D01*
X100052380Y-80636904D02*
X100052380Y-80065476D01*
X100052380Y-80351190D02*
X99052380Y-80351190D01*
X99195238Y-80255952D01*
X99290476Y-80160714D01*
X99338095Y-80065476D01*
%TO.C,D30*%
X96877380Y-78160714D02*
X95877380Y-78160714D01*
X95877380Y-78398809D01*
X95925000Y-78541666D01*
X96020238Y-78636904D01*
X96115476Y-78684523D01*
X96305952Y-78732142D01*
X96448809Y-78732142D01*
X96639285Y-78684523D01*
X96734523Y-78636904D01*
X96829761Y-78541666D01*
X96877380Y-78398809D01*
X96877380Y-78160714D01*
X95877380Y-79065476D02*
X95877380Y-79684523D01*
X96258333Y-79351190D01*
X96258333Y-79494047D01*
X96305952Y-79589285D01*
X96353571Y-79636904D01*
X96448809Y-79684523D01*
X96686904Y-79684523D01*
X96782142Y-79636904D01*
X96829761Y-79589285D01*
X96877380Y-79494047D01*
X96877380Y-79208333D01*
X96829761Y-79113095D01*
X96782142Y-79065476D01*
X95877380Y-80303571D02*
X95877380Y-80398809D01*
X95925000Y-80494047D01*
X95972619Y-80541666D01*
X96067857Y-80589285D01*
X96258333Y-80636904D01*
X96496428Y-80636904D01*
X96686904Y-80589285D01*
X96782142Y-80541666D01*
X96829761Y-80494047D01*
X96877380Y-80398809D01*
X96877380Y-80303571D01*
X96829761Y-80208333D01*
X96782142Y-80160714D01*
X96686904Y-80113095D01*
X96496428Y-80065476D01*
X96258333Y-80065476D01*
X96067857Y-80113095D01*
X95972619Y-80160714D01*
X95925000Y-80208333D01*
X95877380Y-80303571D01*
%TO.C,D29*%
X61952380Y-78160714D02*
X60952380Y-78160714D01*
X60952380Y-78398809D01*
X61000000Y-78541666D01*
X61095238Y-78636904D01*
X61190476Y-78684523D01*
X61380952Y-78732142D01*
X61523809Y-78732142D01*
X61714285Y-78684523D01*
X61809523Y-78636904D01*
X61904761Y-78541666D01*
X61952380Y-78398809D01*
X61952380Y-78160714D01*
X61047619Y-79113095D02*
X61000000Y-79160714D01*
X60952380Y-79255952D01*
X60952380Y-79494047D01*
X61000000Y-79589285D01*
X61047619Y-79636904D01*
X61142857Y-79684523D01*
X61238095Y-79684523D01*
X61380952Y-79636904D01*
X61952380Y-79065476D01*
X61952380Y-79684523D01*
X61952380Y-80160714D02*
X61952380Y-80351190D01*
X61904761Y-80446428D01*
X61857142Y-80494047D01*
X61714285Y-80589285D01*
X61523809Y-80636904D01*
X61142857Y-80636904D01*
X61047619Y-80589285D01*
X61000000Y-80541666D01*
X60952380Y-80446428D01*
X60952380Y-80255952D01*
X61000000Y-80160714D01*
X61047619Y-80113095D01*
X61142857Y-80065476D01*
X61380952Y-80065476D01*
X61476190Y-80113095D01*
X61523809Y-80160714D01*
X61571428Y-80255952D01*
X61571428Y-80446428D01*
X61523809Y-80541666D01*
X61476190Y-80589285D01*
X61380952Y-80636904D01*
%TO.C,D28*%
X42902380Y-78160714D02*
X41902380Y-78160714D01*
X41902380Y-78398809D01*
X41950000Y-78541666D01*
X42045238Y-78636904D01*
X42140476Y-78684523D01*
X42330952Y-78732142D01*
X42473809Y-78732142D01*
X42664285Y-78684523D01*
X42759523Y-78636904D01*
X42854761Y-78541666D01*
X42902380Y-78398809D01*
X42902380Y-78160714D01*
X41997619Y-79113095D02*
X41950000Y-79160714D01*
X41902380Y-79255952D01*
X41902380Y-79494047D01*
X41950000Y-79589285D01*
X41997619Y-79636904D01*
X42092857Y-79684523D01*
X42188095Y-79684523D01*
X42330952Y-79636904D01*
X42902380Y-79065476D01*
X42902380Y-79684523D01*
X42330952Y-80255952D02*
X42283333Y-80160714D01*
X42235714Y-80113095D01*
X42140476Y-80065476D01*
X42092857Y-80065476D01*
X41997619Y-80113095D01*
X41950000Y-80160714D01*
X41902380Y-80255952D01*
X41902380Y-80446428D01*
X41950000Y-80541666D01*
X41997619Y-80589285D01*
X42092857Y-80636904D01*
X42140476Y-80636904D01*
X42235714Y-80589285D01*
X42283333Y-80541666D01*
X42330952Y-80446428D01*
X42330952Y-80255952D01*
X42378571Y-80160714D01*
X42426190Y-80113095D01*
X42521428Y-80065476D01*
X42711904Y-80065476D01*
X42807142Y-80113095D01*
X42854761Y-80160714D01*
X42902380Y-80255952D01*
X42902380Y-80446428D01*
X42854761Y-80541666D01*
X42807142Y-80589285D01*
X42711904Y-80636904D01*
X42521428Y-80636904D01*
X42426190Y-80589285D01*
X42378571Y-80541666D01*
X42330952Y-80446428D01*
%TO.C,D27*%
X23852380Y-78160714D02*
X22852380Y-78160714D01*
X22852380Y-78398809D01*
X22900000Y-78541666D01*
X22995238Y-78636904D01*
X23090476Y-78684523D01*
X23280952Y-78732142D01*
X23423809Y-78732142D01*
X23614285Y-78684523D01*
X23709523Y-78636904D01*
X23804761Y-78541666D01*
X23852380Y-78398809D01*
X23852380Y-78160714D01*
X22947619Y-79113095D02*
X22900000Y-79160714D01*
X22852380Y-79255952D01*
X22852380Y-79494047D01*
X22900000Y-79589285D01*
X22947619Y-79636904D01*
X23042857Y-79684523D01*
X23138095Y-79684523D01*
X23280952Y-79636904D01*
X23852380Y-79065476D01*
X23852380Y-79684523D01*
X22852380Y-80017857D02*
X22852380Y-80684523D01*
X23852380Y-80255952D01*
%TO.C,D26*%
X252452380Y-59110714D02*
X251452380Y-59110714D01*
X251452380Y-59348809D01*
X251500000Y-59491666D01*
X251595238Y-59586904D01*
X251690476Y-59634523D01*
X251880952Y-59682142D01*
X252023809Y-59682142D01*
X252214285Y-59634523D01*
X252309523Y-59586904D01*
X252404761Y-59491666D01*
X252452380Y-59348809D01*
X252452380Y-59110714D01*
X251547619Y-60063095D02*
X251500000Y-60110714D01*
X251452380Y-60205952D01*
X251452380Y-60444047D01*
X251500000Y-60539285D01*
X251547619Y-60586904D01*
X251642857Y-60634523D01*
X251738095Y-60634523D01*
X251880952Y-60586904D01*
X252452380Y-60015476D01*
X252452380Y-60634523D01*
X251452380Y-61491666D02*
X251452380Y-61301190D01*
X251500000Y-61205952D01*
X251547619Y-61158333D01*
X251690476Y-61063095D01*
X251880952Y-61015476D01*
X252261904Y-61015476D01*
X252357142Y-61063095D01*
X252404761Y-61110714D01*
X252452380Y-61205952D01*
X252452380Y-61396428D01*
X252404761Y-61491666D01*
X252357142Y-61539285D01*
X252261904Y-61586904D01*
X252023809Y-61586904D01*
X251928571Y-61539285D01*
X251880952Y-61491666D01*
X251833333Y-61396428D01*
X251833333Y-61205952D01*
X251880952Y-61110714D01*
X251928571Y-61063095D01*
X252023809Y-61015476D01*
%TO.C,D25*%
X233402380Y-59110714D02*
X232402380Y-59110714D01*
X232402380Y-59348809D01*
X232450000Y-59491666D01*
X232545238Y-59586904D01*
X232640476Y-59634523D01*
X232830952Y-59682142D01*
X232973809Y-59682142D01*
X233164285Y-59634523D01*
X233259523Y-59586904D01*
X233354761Y-59491666D01*
X233402380Y-59348809D01*
X233402380Y-59110714D01*
X232497619Y-60063095D02*
X232450000Y-60110714D01*
X232402380Y-60205952D01*
X232402380Y-60444047D01*
X232450000Y-60539285D01*
X232497619Y-60586904D01*
X232592857Y-60634523D01*
X232688095Y-60634523D01*
X232830952Y-60586904D01*
X233402380Y-60015476D01*
X233402380Y-60634523D01*
X232402380Y-61539285D02*
X232402380Y-61063095D01*
X232878571Y-61015476D01*
X232830952Y-61063095D01*
X232783333Y-61158333D01*
X232783333Y-61396428D01*
X232830952Y-61491666D01*
X232878571Y-61539285D01*
X232973809Y-61586904D01*
X233211904Y-61586904D01*
X233307142Y-61539285D01*
X233354761Y-61491666D01*
X233402380Y-61396428D01*
X233402380Y-61158333D01*
X233354761Y-61063095D01*
X233307142Y-61015476D01*
%TO.C,D24*%
X214352380Y-59110714D02*
X213352380Y-59110714D01*
X213352380Y-59348809D01*
X213400000Y-59491666D01*
X213495238Y-59586904D01*
X213590476Y-59634523D01*
X213780952Y-59682142D01*
X213923809Y-59682142D01*
X214114285Y-59634523D01*
X214209523Y-59586904D01*
X214304761Y-59491666D01*
X214352380Y-59348809D01*
X214352380Y-59110714D01*
X213447619Y-60063095D02*
X213400000Y-60110714D01*
X213352380Y-60205952D01*
X213352380Y-60444047D01*
X213400000Y-60539285D01*
X213447619Y-60586904D01*
X213542857Y-60634523D01*
X213638095Y-60634523D01*
X213780952Y-60586904D01*
X214352380Y-60015476D01*
X214352380Y-60634523D01*
X213685714Y-61491666D02*
X214352380Y-61491666D01*
X213304761Y-61253571D02*
X214019047Y-61015476D01*
X214019047Y-61634523D01*
%TO.C,D23*%
X195302380Y-59110714D02*
X194302380Y-59110714D01*
X194302380Y-59348809D01*
X194350000Y-59491666D01*
X194445238Y-59586904D01*
X194540476Y-59634523D01*
X194730952Y-59682142D01*
X194873809Y-59682142D01*
X195064285Y-59634523D01*
X195159523Y-59586904D01*
X195254761Y-59491666D01*
X195302380Y-59348809D01*
X195302380Y-59110714D01*
X194397619Y-60063095D02*
X194350000Y-60110714D01*
X194302380Y-60205952D01*
X194302380Y-60444047D01*
X194350000Y-60539285D01*
X194397619Y-60586904D01*
X194492857Y-60634523D01*
X194588095Y-60634523D01*
X194730952Y-60586904D01*
X195302380Y-60015476D01*
X195302380Y-60634523D01*
X194302380Y-60967857D02*
X194302380Y-61586904D01*
X194683333Y-61253571D01*
X194683333Y-61396428D01*
X194730952Y-61491666D01*
X194778571Y-61539285D01*
X194873809Y-61586904D01*
X195111904Y-61586904D01*
X195207142Y-61539285D01*
X195254761Y-61491666D01*
X195302380Y-61396428D01*
X195302380Y-61110714D01*
X195254761Y-61015476D01*
X195207142Y-60967857D01*
%TO.C,D22*%
X176252380Y-59110714D02*
X175252380Y-59110714D01*
X175252380Y-59348809D01*
X175300000Y-59491666D01*
X175395238Y-59586904D01*
X175490476Y-59634523D01*
X175680952Y-59682142D01*
X175823809Y-59682142D01*
X176014285Y-59634523D01*
X176109523Y-59586904D01*
X176204761Y-59491666D01*
X176252380Y-59348809D01*
X176252380Y-59110714D01*
X175347619Y-60063095D02*
X175300000Y-60110714D01*
X175252380Y-60205952D01*
X175252380Y-60444047D01*
X175300000Y-60539285D01*
X175347619Y-60586904D01*
X175442857Y-60634523D01*
X175538095Y-60634523D01*
X175680952Y-60586904D01*
X176252380Y-60015476D01*
X176252380Y-60634523D01*
X175347619Y-61015476D02*
X175300000Y-61063095D01*
X175252380Y-61158333D01*
X175252380Y-61396428D01*
X175300000Y-61491666D01*
X175347619Y-61539285D01*
X175442857Y-61586904D01*
X175538095Y-61586904D01*
X175680952Y-61539285D01*
X176252380Y-60967857D01*
X176252380Y-61586904D01*
%TO.C,D21*%
X157202380Y-59110714D02*
X156202380Y-59110714D01*
X156202380Y-59348809D01*
X156250000Y-59491666D01*
X156345238Y-59586904D01*
X156440476Y-59634523D01*
X156630952Y-59682142D01*
X156773809Y-59682142D01*
X156964285Y-59634523D01*
X157059523Y-59586904D01*
X157154761Y-59491666D01*
X157202380Y-59348809D01*
X157202380Y-59110714D01*
X156297619Y-60063095D02*
X156250000Y-60110714D01*
X156202380Y-60205952D01*
X156202380Y-60444047D01*
X156250000Y-60539285D01*
X156297619Y-60586904D01*
X156392857Y-60634523D01*
X156488095Y-60634523D01*
X156630952Y-60586904D01*
X157202380Y-60015476D01*
X157202380Y-60634523D01*
X157202380Y-61586904D02*
X157202380Y-61015476D01*
X157202380Y-61301190D02*
X156202380Y-61301190D01*
X156345238Y-61205952D01*
X156440476Y-61110714D01*
X156488095Y-61015476D01*
%TO.C,D20*%
X138152380Y-59110714D02*
X137152380Y-59110714D01*
X137152380Y-59348809D01*
X137200000Y-59491666D01*
X137295238Y-59586904D01*
X137390476Y-59634523D01*
X137580952Y-59682142D01*
X137723809Y-59682142D01*
X137914285Y-59634523D01*
X138009523Y-59586904D01*
X138104761Y-59491666D01*
X138152380Y-59348809D01*
X138152380Y-59110714D01*
X137247619Y-60063095D02*
X137200000Y-60110714D01*
X137152380Y-60205952D01*
X137152380Y-60444047D01*
X137200000Y-60539285D01*
X137247619Y-60586904D01*
X137342857Y-60634523D01*
X137438095Y-60634523D01*
X137580952Y-60586904D01*
X138152380Y-60015476D01*
X138152380Y-60634523D01*
X137152380Y-61253571D02*
X137152380Y-61348809D01*
X137200000Y-61444047D01*
X137247619Y-61491666D01*
X137342857Y-61539285D01*
X137533333Y-61586904D01*
X137771428Y-61586904D01*
X137961904Y-61539285D01*
X138057142Y-61491666D01*
X138104761Y-61444047D01*
X138152380Y-61348809D01*
X138152380Y-61253571D01*
X138104761Y-61158333D01*
X138057142Y-61110714D01*
X137961904Y-61063095D01*
X137771428Y-61015476D01*
X137533333Y-61015476D01*
X137342857Y-61063095D01*
X137247619Y-61110714D01*
X137200000Y-61158333D01*
X137152380Y-61253571D01*
%TO.C,D19*%
X119102380Y-59110714D02*
X118102380Y-59110714D01*
X118102380Y-59348809D01*
X118150000Y-59491666D01*
X118245238Y-59586904D01*
X118340476Y-59634523D01*
X118530952Y-59682142D01*
X118673809Y-59682142D01*
X118864285Y-59634523D01*
X118959523Y-59586904D01*
X119054761Y-59491666D01*
X119102380Y-59348809D01*
X119102380Y-59110714D01*
X119102380Y-60634523D02*
X119102380Y-60063095D01*
X119102380Y-60348809D02*
X118102380Y-60348809D01*
X118245238Y-60253571D01*
X118340476Y-60158333D01*
X118388095Y-60063095D01*
X119102380Y-61110714D02*
X119102380Y-61301190D01*
X119054761Y-61396428D01*
X119007142Y-61444047D01*
X118864285Y-61539285D01*
X118673809Y-61586904D01*
X118292857Y-61586904D01*
X118197619Y-61539285D01*
X118150000Y-61491666D01*
X118102380Y-61396428D01*
X118102380Y-61205952D01*
X118150000Y-61110714D01*
X118197619Y-61063095D01*
X118292857Y-61015476D01*
X118530952Y-61015476D01*
X118626190Y-61063095D01*
X118673809Y-61110714D01*
X118721428Y-61205952D01*
X118721428Y-61396428D01*
X118673809Y-61491666D01*
X118626190Y-61539285D01*
X118530952Y-61586904D01*
%TO.C,D18*%
X100052380Y-59110714D02*
X99052380Y-59110714D01*
X99052380Y-59348809D01*
X99100000Y-59491666D01*
X99195238Y-59586904D01*
X99290476Y-59634523D01*
X99480952Y-59682142D01*
X99623809Y-59682142D01*
X99814285Y-59634523D01*
X99909523Y-59586904D01*
X100004761Y-59491666D01*
X100052380Y-59348809D01*
X100052380Y-59110714D01*
X100052380Y-60634523D02*
X100052380Y-60063095D01*
X100052380Y-60348809D02*
X99052380Y-60348809D01*
X99195238Y-60253571D01*
X99290476Y-60158333D01*
X99338095Y-60063095D01*
X99480952Y-61205952D02*
X99433333Y-61110714D01*
X99385714Y-61063095D01*
X99290476Y-61015476D01*
X99242857Y-61015476D01*
X99147619Y-61063095D01*
X99100000Y-61110714D01*
X99052380Y-61205952D01*
X99052380Y-61396428D01*
X99100000Y-61491666D01*
X99147619Y-61539285D01*
X99242857Y-61586904D01*
X99290476Y-61586904D01*
X99385714Y-61539285D01*
X99433333Y-61491666D01*
X99480952Y-61396428D01*
X99480952Y-61205952D01*
X99528571Y-61110714D01*
X99576190Y-61063095D01*
X99671428Y-61015476D01*
X99861904Y-61015476D01*
X99957142Y-61063095D01*
X100004761Y-61110714D01*
X100052380Y-61205952D01*
X100052380Y-61396428D01*
X100004761Y-61491666D01*
X99957142Y-61539285D01*
X99861904Y-61586904D01*
X99671428Y-61586904D01*
X99576190Y-61539285D01*
X99528571Y-61491666D01*
X99480952Y-61396428D01*
%TO.C,D17*%
X96877380Y-59110714D02*
X95877380Y-59110714D01*
X95877380Y-59348809D01*
X95925000Y-59491666D01*
X96020238Y-59586904D01*
X96115476Y-59634523D01*
X96305952Y-59682142D01*
X96448809Y-59682142D01*
X96639285Y-59634523D01*
X96734523Y-59586904D01*
X96829761Y-59491666D01*
X96877380Y-59348809D01*
X96877380Y-59110714D01*
X96877380Y-60634523D02*
X96877380Y-60063095D01*
X96877380Y-60348809D02*
X95877380Y-60348809D01*
X96020238Y-60253571D01*
X96115476Y-60158333D01*
X96163095Y-60063095D01*
X95877380Y-60967857D02*
X95877380Y-61634523D01*
X96877380Y-61205952D01*
%TO.C,D16*%
X66301785Y-65952380D02*
X66301785Y-64952380D01*
X66063690Y-64952380D01*
X65920833Y-65000000D01*
X65825595Y-65095238D01*
X65777976Y-65190476D01*
X65730357Y-65380952D01*
X65730357Y-65523809D01*
X65777976Y-65714285D01*
X65825595Y-65809523D01*
X65920833Y-65904761D01*
X66063690Y-65952380D01*
X66301785Y-65952380D01*
X64777976Y-65952380D02*
X65349404Y-65952380D01*
X65063690Y-65952380D02*
X65063690Y-64952380D01*
X65158928Y-65095238D01*
X65254166Y-65190476D01*
X65349404Y-65238095D01*
X63920833Y-64952380D02*
X64111309Y-64952380D01*
X64206547Y-65000000D01*
X64254166Y-65047619D01*
X64349404Y-65190476D01*
X64397023Y-65380952D01*
X64397023Y-65761904D01*
X64349404Y-65857142D01*
X64301785Y-65904761D01*
X64206547Y-65952380D01*
X64016071Y-65952380D01*
X63920833Y-65904761D01*
X63873214Y-65857142D01*
X63825595Y-65761904D01*
X63825595Y-65523809D01*
X63873214Y-65428571D01*
X63920833Y-65380952D01*
X64016071Y-65333333D01*
X64206547Y-65333333D01*
X64301785Y-65380952D01*
X64349404Y-65428571D01*
X64397023Y-65523809D01*
%TO.C,D15*%
X42902380Y-59110714D02*
X41902380Y-59110714D01*
X41902380Y-59348809D01*
X41950000Y-59491666D01*
X42045238Y-59586904D01*
X42140476Y-59634523D01*
X42330952Y-59682142D01*
X42473809Y-59682142D01*
X42664285Y-59634523D01*
X42759523Y-59586904D01*
X42854761Y-59491666D01*
X42902380Y-59348809D01*
X42902380Y-59110714D01*
X42902380Y-60634523D02*
X42902380Y-60063095D01*
X42902380Y-60348809D02*
X41902380Y-60348809D01*
X42045238Y-60253571D01*
X42140476Y-60158333D01*
X42188095Y-60063095D01*
X41902380Y-61539285D02*
X41902380Y-61063095D01*
X42378571Y-61015476D01*
X42330952Y-61063095D01*
X42283333Y-61158333D01*
X42283333Y-61396428D01*
X42330952Y-61491666D01*
X42378571Y-61539285D01*
X42473809Y-61586904D01*
X42711904Y-61586904D01*
X42807142Y-61539285D01*
X42854761Y-61491666D01*
X42902380Y-61396428D01*
X42902380Y-61158333D01*
X42854761Y-61063095D01*
X42807142Y-61015476D01*
%TO.C,D14*%
X23852380Y-59110714D02*
X22852380Y-59110714D01*
X22852380Y-59348809D01*
X22900000Y-59491666D01*
X22995238Y-59586904D01*
X23090476Y-59634523D01*
X23280952Y-59682142D01*
X23423809Y-59682142D01*
X23614285Y-59634523D01*
X23709523Y-59586904D01*
X23804761Y-59491666D01*
X23852380Y-59348809D01*
X23852380Y-59110714D01*
X23852380Y-60634523D02*
X23852380Y-60063095D01*
X23852380Y-60348809D02*
X22852380Y-60348809D01*
X22995238Y-60253571D01*
X23090476Y-60158333D01*
X23138095Y-60063095D01*
X23185714Y-61491666D02*
X23852380Y-61491666D01*
X22804761Y-61253571D02*
X23519047Y-61015476D01*
X23519047Y-61634523D01*
%TO.C,D13*%
X252452380Y-40060714D02*
X251452380Y-40060714D01*
X251452380Y-40298809D01*
X251500000Y-40441666D01*
X251595238Y-40536904D01*
X251690476Y-40584523D01*
X251880952Y-40632142D01*
X252023809Y-40632142D01*
X252214285Y-40584523D01*
X252309523Y-40536904D01*
X252404761Y-40441666D01*
X252452380Y-40298809D01*
X252452380Y-40060714D01*
X252452380Y-41584523D02*
X252452380Y-41013095D01*
X252452380Y-41298809D02*
X251452380Y-41298809D01*
X251595238Y-41203571D01*
X251690476Y-41108333D01*
X251738095Y-41013095D01*
X251452380Y-41917857D02*
X251452380Y-42536904D01*
X251833333Y-42203571D01*
X251833333Y-42346428D01*
X251880952Y-42441666D01*
X251928571Y-42489285D01*
X252023809Y-42536904D01*
X252261904Y-42536904D01*
X252357142Y-42489285D01*
X252404761Y-42441666D01*
X252452380Y-42346428D01*
X252452380Y-42060714D01*
X252404761Y-41965476D01*
X252357142Y-41917857D01*
%TO.C,D12*%
X233402380Y-40060714D02*
X232402380Y-40060714D01*
X232402380Y-40298809D01*
X232450000Y-40441666D01*
X232545238Y-40536904D01*
X232640476Y-40584523D01*
X232830952Y-40632142D01*
X232973809Y-40632142D01*
X233164285Y-40584523D01*
X233259523Y-40536904D01*
X233354761Y-40441666D01*
X233402380Y-40298809D01*
X233402380Y-40060714D01*
X233402380Y-41584523D02*
X233402380Y-41013095D01*
X233402380Y-41298809D02*
X232402380Y-41298809D01*
X232545238Y-41203571D01*
X232640476Y-41108333D01*
X232688095Y-41013095D01*
X232497619Y-41965476D02*
X232450000Y-42013095D01*
X232402380Y-42108333D01*
X232402380Y-42346428D01*
X232450000Y-42441666D01*
X232497619Y-42489285D01*
X232592857Y-42536904D01*
X232688095Y-42536904D01*
X232830952Y-42489285D01*
X233402380Y-41917857D01*
X233402380Y-42536904D01*
%TO.C,D11*%
X214352380Y-40060714D02*
X213352380Y-40060714D01*
X213352380Y-40298809D01*
X213400000Y-40441666D01*
X213495238Y-40536904D01*
X213590476Y-40584523D01*
X213780952Y-40632142D01*
X213923809Y-40632142D01*
X214114285Y-40584523D01*
X214209523Y-40536904D01*
X214304761Y-40441666D01*
X214352380Y-40298809D01*
X214352380Y-40060714D01*
X214352380Y-41584523D02*
X214352380Y-41013095D01*
X214352380Y-41298809D02*
X213352380Y-41298809D01*
X213495238Y-41203571D01*
X213590476Y-41108333D01*
X213638095Y-41013095D01*
X214352380Y-42536904D02*
X214352380Y-41965476D01*
X214352380Y-42251190D02*
X213352380Y-42251190D01*
X213495238Y-42155952D01*
X213590476Y-42060714D01*
X213638095Y-41965476D01*
%TO.C,D10*%
X195302380Y-40060714D02*
X194302380Y-40060714D01*
X194302380Y-40298809D01*
X194350000Y-40441666D01*
X194445238Y-40536904D01*
X194540476Y-40584523D01*
X194730952Y-40632142D01*
X194873809Y-40632142D01*
X195064285Y-40584523D01*
X195159523Y-40536904D01*
X195254761Y-40441666D01*
X195302380Y-40298809D01*
X195302380Y-40060714D01*
X195302380Y-41584523D02*
X195302380Y-41013095D01*
X195302380Y-41298809D02*
X194302380Y-41298809D01*
X194445238Y-41203571D01*
X194540476Y-41108333D01*
X194588095Y-41013095D01*
X194302380Y-42203571D02*
X194302380Y-42298809D01*
X194350000Y-42394047D01*
X194397619Y-42441666D01*
X194492857Y-42489285D01*
X194683333Y-42536904D01*
X194921428Y-42536904D01*
X195111904Y-42489285D01*
X195207142Y-42441666D01*
X195254761Y-42394047D01*
X195302380Y-42298809D01*
X195302380Y-42203571D01*
X195254761Y-42108333D01*
X195207142Y-42060714D01*
X195111904Y-42013095D01*
X194921428Y-41965476D01*
X194683333Y-41965476D01*
X194492857Y-42013095D01*
X194397619Y-42060714D01*
X194350000Y-42108333D01*
X194302380Y-42203571D01*
%TO.C,D9*%
X176252380Y-40536904D02*
X175252380Y-40536904D01*
X175252380Y-40775000D01*
X175300000Y-40917857D01*
X175395238Y-41013095D01*
X175490476Y-41060714D01*
X175680952Y-41108333D01*
X175823809Y-41108333D01*
X176014285Y-41060714D01*
X176109523Y-41013095D01*
X176204761Y-40917857D01*
X176252380Y-40775000D01*
X176252380Y-40536904D01*
X176252380Y-41584523D02*
X176252380Y-41775000D01*
X176204761Y-41870238D01*
X176157142Y-41917857D01*
X176014285Y-42013095D01*
X175823809Y-42060714D01*
X175442857Y-42060714D01*
X175347619Y-42013095D01*
X175300000Y-41965476D01*
X175252380Y-41870238D01*
X175252380Y-41679761D01*
X175300000Y-41584523D01*
X175347619Y-41536904D01*
X175442857Y-41489285D01*
X175680952Y-41489285D01*
X175776190Y-41536904D01*
X175823809Y-41584523D01*
X175871428Y-41679761D01*
X175871428Y-41870238D01*
X175823809Y-41965476D01*
X175776190Y-42013095D01*
X175680952Y-42060714D01*
%TO.C,D8*%
X157202380Y-40536904D02*
X156202380Y-40536904D01*
X156202380Y-40775000D01*
X156250000Y-40917857D01*
X156345238Y-41013095D01*
X156440476Y-41060714D01*
X156630952Y-41108333D01*
X156773809Y-41108333D01*
X156964285Y-41060714D01*
X157059523Y-41013095D01*
X157154761Y-40917857D01*
X157202380Y-40775000D01*
X157202380Y-40536904D01*
X156630952Y-41679761D02*
X156583333Y-41584523D01*
X156535714Y-41536904D01*
X156440476Y-41489285D01*
X156392857Y-41489285D01*
X156297619Y-41536904D01*
X156250000Y-41584523D01*
X156202380Y-41679761D01*
X156202380Y-41870238D01*
X156250000Y-41965476D01*
X156297619Y-42013095D01*
X156392857Y-42060714D01*
X156440476Y-42060714D01*
X156535714Y-42013095D01*
X156583333Y-41965476D01*
X156630952Y-41870238D01*
X156630952Y-41679761D01*
X156678571Y-41584523D01*
X156726190Y-41536904D01*
X156821428Y-41489285D01*
X157011904Y-41489285D01*
X157107142Y-41536904D01*
X157154761Y-41584523D01*
X157202380Y-41679761D01*
X157202380Y-41870238D01*
X157154761Y-41965476D01*
X157107142Y-42013095D01*
X157011904Y-42060714D01*
X156821428Y-42060714D01*
X156726190Y-42013095D01*
X156678571Y-41965476D01*
X156630952Y-41870238D01*
%TO.C,D7*%
X138152380Y-40536904D02*
X137152380Y-40536904D01*
X137152380Y-40775000D01*
X137200000Y-40917857D01*
X137295238Y-41013095D01*
X137390476Y-41060714D01*
X137580952Y-41108333D01*
X137723809Y-41108333D01*
X137914285Y-41060714D01*
X138009523Y-41013095D01*
X138104761Y-40917857D01*
X138152380Y-40775000D01*
X138152380Y-40536904D01*
X137152380Y-41441666D02*
X137152380Y-42108333D01*
X138152380Y-41679761D01*
%TO.C,D6*%
X119102380Y-40536904D02*
X118102380Y-40536904D01*
X118102380Y-40775000D01*
X118150000Y-40917857D01*
X118245238Y-41013095D01*
X118340476Y-41060714D01*
X118530952Y-41108333D01*
X118673809Y-41108333D01*
X118864285Y-41060714D01*
X118959523Y-41013095D01*
X119054761Y-40917857D01*
X119102380Y-40775000D01*
X119102380Y-40536904D01*
X118102380Y-41965476D02*
X118102380Y-41775000D01*
X118150000Y-41679761D01*
X118197619Y-41632142D01*
X118340476Y-41536904D01*
X118530952Y-41489285D01*
X118911904Y-41489285D01*
X119007142Y-41536904D01*
X119054761Y-41584523D01*
X119102380Y-41679761D01*
X119102380Y-41870238D01*
X119054761Y-41965476D01*
X119007142Y-42013095D01*
X118911904Y-42060714D01*
X118673809Y-42060714D01*
X118578571Y-42013095D01*
X118530952Y-41965476D01*
X118483333Y-41870238D01*
X118483333Y-41679761D01*
X118530952Y-41584523D01*
X118578571Y-41536904D01*
X118673809Y-41489285D01*
%TO.C,D5*%
X100052380Y-40536904D02*
X99052380Y-40536904D01*
X99052380Y-40775000D01*
X99100000Y-40917857D01*
X99195238Y-41013095D01*
X99290476Y-41060714D01*
X99480952Y-41108333D01*
X99623809Y-41108333D01*
X99814285Y-41060714D01*
X99909523Y-41013095D01*
X100004761Y-40917857D01*
X100052380Y-40775000D01*
X100052380Y-40536904D01*
X99052380Y-42013095D02*
X99052380Y-41536904D01*
X99528571Y-41489285D01*
X99480952Y-41536904D01*
X99433333Y-41632142D01*
X99433333Y-41870238D01*
X99480952Y-41965476D01*
X99528571Y-42013095D01*
X99623809Y-42060714D01*
X99861904Y-42060714D01*
X99957142Y-42013095D01*
X100004761Y-41965476D01*
X100052380Y-41870238D01*
X100052380Y-41632142D01*
X100004761Y-41536904D01*
X99957142Y-41489285D01*
%TO.C,D4*%
X81002380Y-40536904D02*
X80002380Y-40536904D01*
X80002380Y-40775000D01*
X80050000Y-40917857D01*
X80145238Y-41013095D01*
X80240476Y-41060714D01*
X80430952Y-41108333D01*
X80573809Y-41108333D01*
X80764285Y-41060714D01*
X80859523Y-41013095D01*
X80954761Y-40917857D01*
X81002380Y-40775000D01*
X81002380Y-40536904D01*
X80335714Y-41965476D02*
X81002380Y-41965476D01*
X79954761Y-41727380D02*
X80669047Y-41489285D01*
X80669047Y-42108333D01*
%TO.C,D3*%
X77827380Y-40536904D02*
X76827380Y-40536904D01*
X76827380Y-40775000D01*
X76875000Y-40917857D01*
X76970238Y-41013095D01*
X77065476Y-41060714D01*
X77255952Y-41108333D01*
X77398809Y-41108333D01*
X77589285Y-41060714D01*
X77684523Y-41013095D01*
X77779761Y-40917857D01*
X77827380Y-40775000D01*
X77827380Y-40536904D01*
X76827380Y-41441666D02*
X76827380Y-42060714D01*
X77208333Y-41727380D01*
X77208333Y-41870238D01*
X77255952Y-41965476D01*
X77303571Y-42013095D01*
X77398809Y-42060714D01*
X77636904Y-42060714D01*
X77732142Y-42013095D01*
X77779761Y-41965476D01*
X77827380Y-41870238D01*
X77827380Y-41584523D01*
X77779761Y-41489285D01*
X77732142Y-41441666D01*
%TO.C,D2*%
X42902380Y-40536904D02*
X41902380Y-40536904D01*
X41902380Y-40775000D01*
X41950000Y-40917857D01*
X42045238Y-41013095D01*
X42140476Y-41060714D01*
X42330952Y-41108333D01*
X42473809Y-41108333D01*
X42664285Y-41060714D01*
X42759523Y-41013095D01*
X42854761Y-40917857D01*
X42902380Y-40775000D01*
X42902380Y-40536904D01*
X41997619Y-41489285D02*
X41950000Y-41536904D01*
X41902380Y-41632142D01*
X41902380Y-41870238D01*
X41950000Y-41965476D01*
X41997619Y-42013095D01*
X42092857Y-42060714D01*
X42188095Y-42060714D01*
X42330952Y-42013095D01*
X42902380Y-41441666D01*
X42902380Y-42060714D01*
%TO.C,D1*%
X23852380Y-40536904D02*
X22852380Y-40536904D01*
X22852380Y-40775000D01*
X22900000Y-40917857D01*
X22995238Y-41013095D01*
X23090476Y-41060714D01*
X23280952Y-41108333D01*
X23423809Y-41108333D01*
X23614285Y-41060714D01*
X23709523Y-41013095D01*
X23804761Y-40917857D01*
X23852380Y-40775000D01*
X23852380Y-40536904D01*
X23852380Y-42060714D02*
X23852380Y-41489285D01*
X23852380Y-41775000D02*
X22852380Y-41775000D01*
X22995238Y-41679761D01*
X23090476Y-41584523D01*
X23138095Y-41489285D01*
%TO.C,C7*%
X67511142Y-70826333D02*
X67558761Y-70778714D01*
X67606380Y-70635857D01*
X67606380Y-70540619D01*
X67558761Y-70397761D01*
X67463523Y-70302523D01*
X67368285Y-70254904D01*
X67177809Y-70207285D01*
X67034952Y-70207285D01*
X66844476Y-70254904D01*
X66749238Y-70302523D01*
X66654000Y-70397761D01*
X66606380Y-70540619D01*
X66606380Y-70635857D01*
X66654000Y-70778714D01*
X66701619Y-70826333D01*
X66606380Y-71159666D02*
X66606380Y-71826333D01*
X67606380Y-71397761D01*
%TO.C,C6*%
X77160416Y-86968392D02*
X77208035Y-87016011D01*
X77350892Y-87063630D01*
X77446130Y-87063630D01*
X77588988Y-87016011D01*
X77684226Y-86920773D01*
X77731845Y-86825535D01*
X77779464Y-86635059D01*
X77779464Y-86492202D01*
X77731845Y-86301726D01*
X77684226Y-86206488D01*
X77588988Y-86111250D01*
X77446130Y-86063630D01*
X77350892Y-86063630D01*
X77208035Y-86111250D01*
X77160416Y-86158869D01*
X76303273Y-86063630D02*
X76493750Y-86063630D01*
X76588988Y-86111250D01*
X76636607Y-86158869D01*
X76731845Y-86301726D01*
X76779464Y-86492202D01*
X76779464Y-86873154D01*
X76731845Y-86968392D01*
X76684226Y-87016011D01*
X76588988Y-87063630D01*
X76398511Y-87063630D01*
X76303273Y-87016011D01*
X76255654Y-86968392D01*
X76208035Y-86873154D01*
X76208035Y-86635059D01*
X76255654Y-86539821D01*
X76303273Y-86492202D01*
X76398511Y-86444583D01*
X76588988Y-86444583D01*
X76684226Y-86492202D01*
X76731845Y-86539821D01*
X76779464Y-86635059D01*
%TO.C,C5*%
X93318392Y-67302083D02*
X93366011Y-67254464D01*
X93413630Y-67111607D01*
X93413630Y-67016369D01*
X93366011Y-66873511D01*
X93270773Y-66778273D01*
X93175535Y-66730654D01*
X92985059Y-66683035D01*
X92842202Y-66683035D01*
X92651726Y-66730654D01*
X92556488Y-66778273D01*
X92461250Y-66873511D01*
X92413630Y-67016369D01*
X92413630Y-67111607D01*
X92461250Y-67254464D01*
X92508869Y-67302083D01*
X92413630Y-68206845D02*
X92413630Y-67730654D01*
X92889821Y-67683035D01*
X92842202Y-67730654D01*
X92794583Y-67825892D01*
X92794583Y-68063988D01*
X92842202Y-68159226D01*
X92889821Y-68206845D01*
X92985059Y-68254464D01*
X93223154Y-68254464D01*
X93318392Y-68206845D01*
X93366011Y-68159226D01*
X93413630Y-68063988D01*
X93413630Y-67825892D01*
X93366011Y-67730654D01*
X93318392Y-67683035D01*
%TO.C,C4*%
X75572916Y-59980892D02*
X75620535Y-60028511D01*
X75763392Y-60076130D01*
X75858630Y-60076130D01*
X76001488Y-60028511D01*
X76096726Y-59933273D01*
X76144345Y-59838035D01*
X76191964Y-59647559D01*
X76191964Y-59504702D01*
X76144345Y-59314226D01*
X76096726Y-59218988D01*
X76001488Y-59123750D01*
X75858630Y-59076130D01*
X75763392Y-59076130D01*
X75620535Y-59123750D01*
X75572916Y-59171369D01*
X74715773Y-59409464D02*
X74715773Y-60076130D01*
X74953869Y-59028511D02*
X75191964Y-59742797D01*
X74572916Y-59742797D01*
%TO.C,C3*%
X70114642Y-69527083D02*
X70162261Y-69479464D01*
X70209880Y-69336607D01*
X70209880Y-69241369D01*
X70162261Y-69098511D01*
X70067023Y-69003273D01*
X69971785Y-68955654D01*
X69781309Y-68908035D01*
X69638452Y-68908035D01*
X69447976Y-68955654D01*
X69352738Y-69003273D01*
X69257500Y-69098511D01*
X69209880Y-69241369D01*
X69209880Y-69336607D01*
X69257500Y-69479464D01*
X69305119Y-69527083D01*
X69209880Y-69860416D02*
X69209880Y-70479464D01*
X69590833Y-70146130D01*
X69590833Y-70288988D01*
X69638452Y-70384226D01*
X69686071Y-70431845D01*
X69781309Y-70479464D01*
X70019404Y-70479464D01*
X70114642Y-70431845D01*
X70162261Y-70384226D01*
X70209880Y-70288988D01*
X70209880Y-70003273D01*
X70162261Y-69908035D01*
X70114642Y-69860416D01*
%TO.C,C2*%
X81412142Y-56189583D02*
X81459761Y-56141964D01*
X81507380Y-55999107D01*
X81507380Y-55903869D01*
X81459761Y-55761011D01*
X81364523Y-55665773D01*
X81269285Y-55618154D01*
X81078809Y-55570535D01*
X80935952Y-55570535D01*
X80745476Y-55618154D01*
X80650238Y-55665773D01*
X80555000Y-55761011D01*
X80507380Y-55903869D01*
X80507380Y-55999107D01*
X80555000Y-56141964D01*
X80602619Y-56189583D01*
X80602619Y-56570535D02*
X80555000Y-56618154D01*
X80507380Y-56713392D01*
X80507380Y-56951488D01*
X80555000Y-57046726D01*
X80602619Y-57094345D01*
X80697857Y-57141964D01*
X80793095Y-57141964D01*
X80935952Y-57094345D01*
X81507380Y-56522916D01*
X81507380Y-57141964D01*
%TO.C,C1*%
X89349642Y-56189583D02*
X89397261Y-56141964D01*
X89444880Y-55999107D01*
X89444880Y-55903869D01*
X89397261Y-55761011D01*
X89302023Y-55665773D01*
X89206785Y-55618154D01*
X89016309Y-55570535D01*
X88873452Y-55570535D01*
X88682976Y-55618154D01*
X88587738Y-55665773D01*
X88492500Y-55761011D01*
X88444880Y-55903869D01*
X88444880Y-55999107D01*
X88492500Y-56141964D01*
X88540119Y-56189583D01*
X89444880Y-57141964D02*
X89444880Y-56570535D01*
X89444880Y-56856250D02*
X88444880Y-56856250D01*
X88587738Y-56761011D01*
X88682976Y-56665773D01*
X88730595Y-56570535D01*
%TD*%
%LPC*%
D14*
%TO.C,MX3*%
X68897500Y-46355000D03*
D15*
X71437500Y-41275000D03*
D14*
X75247500Y-43815000D03*
D16*
X76517500Y-41275000D03*
X66357500Y-41275000D03*
%TD*%
D14*
%TO.C,MX34*%
X164147500Y-84455000D03*
D15*
X166687500Y-79375000D03*
D14*
X170497500Y-81915000D03*
D16*
X171767500Y-79375000D03*
X161607500Y-79375000D03*
%TD*%
D14*
%TO.C,MX30*%
X87947500Y-84455000D03*
D15*
X90487500Y-79375000D03*
D14*
X94297500Y-81915000D03*
D16*
X95567500Y-79375000D03*
X85407500Y-79375000D03*
%TD*%
D14*
%TO.C,MX29*%
X68897500Y-84455000D03*
D15*
X71437500Y-79375000D03*
D14*
X75247500Y-81915000D03*
D16*
X76517500Y-79375000D03*
X66357500Y-79375000D03*
%TD*%
D14*
%TO.C,MX16*%
X68897500Y-65405000D03*
D15*
X71437500Y-60325000D03*
D14*
X75247500Y-62865000D03*
D16*
X76517500Y-60325000D03*
X66357500Y-60325000D03*
%TD*%
%TO.C,F1*%
G36*
G01*
X59362500Y-53387500D02*
X58112500Y-53387500D01*
G75*
G02*
X57862500Y-53137500I0J250000D01*
G01*
X57862500Y-52387500D01*
G75*
G02*
X58112500Y-52137500I250000J0D01*
G01*
X59362500Y-52137500D01*
G75*
G02*
X59612500Y-52387500I0J-250000D01*
G01*
X59612500Y-53137500D01*
G75*
G02*
X59362500Y-53387500I-250000J0D01*
G01*
G37*
G36*
G01*
X59362500Y-56187500D02*
X58112500Y-56187500D01*
G75*
G02*
X57862500Y-55937500I0J250000D01*
G01*
X57862500Y-55187500D01*
G75*
G02*
X58112500Y-54937500I250000J0D01*
G01*
X59362500Y-54937500D01*
G75*
G02*
X59612500Y-55187500I0J-250000D01*
G01*
X59612500Y-55937500D01*
G75*
G02*
X59362500Y-56187500I-250000J0D01*
G01*
G37*
%TD*%
D17*
%TO.C,Y1*%
X84443750Y-55450000D03*
X82243750Y-55450000D03*
X82243750Y-57150000D03*
X84443750Y-57150000D03*
%TD*%
D18*
%TO.C,U1*%
X76962500Y-77137500D03*
X77762500Y-77137500D03*
X78562500Y-77137500D03*
X79362500Y-77137500D03*
X80162500Y-77137500D03*
X80962500Y-77137500D03*
X81762500Y-77137500D03*
X82562500Y-77137500D03*
X83362500Y-77137500D03*
X84162500Y-77137500D03*
X84962500Y-77137500D03*
D19*
X86662500Y-75437500D03*
X86662500Y-74637500D03*
X86662500Y-73837500D03*
X86662500Y-73037500D03*
X86662500Y-72237500D03*
X86662500Y-71437500D03*
X86662500Y-70637500D03*
X86662500Y-69837500D03*
X86662500Y-69037500D03*
X86662500Y-68237500D03*
X86662500Y-67437500D03*
D18*
X84962500Y-65737500D03*
X84162500Y-65737500D03*
X83362500Y-65737500D03*
X82562500Y-65737500D03*
X81762500Y-65737500D03*
X80962500Y-65737500D03*
X80162500Y-65737500D03*
X79362500Y-65737500D03*
X78562500Y-65737500D03*
X77762500Y-65737500D03*
X76962500Y-65737500D03*
D19*
X75262500Y-67437500D03*
X75262500Y-68237500D03*
X75262500Y-69037500D03*
X75262500Y-69837500D03*
X75262500Y-70637500D03*
X75262500Y-71437500D03*
X75262500Y-72237500D03*
X75262500Y-73037500D03*
X75262500Y-73837500D03*
X75262500Y-74637500D03*
X75262500Y-75437500D03*
%TD*%
D20*
%TO.C,SW1*%
X72950000Y-51593750D03*
X66750000Y-55293750D03*
X72950000Y-55293750D03*
X66750000Y-51593750D03*
%TD*%
%TO.C,R8*%
G36*
G01*
X154387500Y-75062501D02*
X154387500Y-74162499D01*
G75*
G02*
X154637499Y-73912500I249999J0D01*
G01*
X155162501Y-73912500D01*
G75*
G02*
X155412500Y-74162499I0J-249999D01*
G01*
X155412500Y-75062501D01*
G75*
G02*
X155162501Y-75312500I-249999J0D01*
G01*
X154637499Y-75312500D01*
G75*
G02*
X154387500Y-75062501I0J249999D01*
G01*
G37*
G36*
G01*
X152562500Y-75062501D02*
X152562500Y-74162499D01*
G75*
G02*
X152812499Y-73912500I249999J0D01*
G01*
X153337501Y-73912500D01*
G75*
G02*
X153587500Y-74162499I0J-249999D01*
G01*
X153587500Y-75062501D01*
G75*
G02*
X153337501Y-75312500I-249999J0D01*
G01*
X152812499Y-75312500D01*
G75*
G02*
X152562500Y-75062501I0J249999D01*
G01*
G37*
%TD*%
%TO.C,R7*%
G36*
G01*
X67812499Y-36237500D02*
X68712501Y-36237500D01*
G75*
G02*
X68962500Y-36487499I0J-249999D01*
G01*
X68962500Y-37012501D01*
G75*
G02*
X68712501Y-37262500I-249999J0D01*
G01*
X67812499Y-37262500D01*
G75*
G02*
X67562500Y-37012501I0J249999D01*
G01*
X67562500Y-36487499D01*
G75*
G02*
X67812499Y-36237500I249999J0D01*
G01*
G37*
G36*
G01*
X67812499Y-34412500D02*
X68712501Y-34412500D01*
G75*
G02*
X68962500Y-34662499I0J-249999D01*
G01*
X68962500Y-35187501D01*
G75*
G02*
X68712501Y-35437500I-249999J0D01*
G01*
X67812499Y-35437500D01*
G75*
G02*
X67562500Y-35187501I0J249999D01*
G01*
X67562500Y-34662499D01*
G75*
G02*
X67812499Y-34412500I249999J0D01*
G01*
G37*
%TD*%
%TO.C,R6*%
G36*
G01*
X55112499Y-36237500D02*
X56012501Y-36237500D01*
G75*
G02*
X56262500Y-36487499I0J-249999D01*
G01*
X56262500Y-37012501D01*
G75*
G02*
X56012501Y-37262500I-249999J0D01*
G01*
X55112499Y-37262500D01*
G75*
G02*
X54862500Y-37012501I0J249999D01*
G01*
X54862500Y-36487499D01*
G75*
G02*
X55112499Y-36237500I249999J0D01*
G01*
G37*
G36*
G01*
X55112499Y-34412500D02*
X56012501Y-34412500D01*
G75*
G02*
X56262500Y-34662499I0J-249999D01*
G01*
X56262500Y-35187501D01*
G75*
G02*
X56012501Y-35437500I-249999J0D01*
G01*
X55112499Y-35437500D01*
G75*
G02*
X54862500Y-35187501I0J249999D01*
G01*
X54862500Y-34662499D01*
G75*
G02*
X55112499Y-34412500I249999J0D01*
G01*
G37*
%TD*%
%TO.C,R5*%
G36*
G01*
X40087500Y-94112501D02*
X40087500Y-93212499D01*
G75*
G02*
X40337499Y-92962500I249999J0D01*
G01*
X40862501Y-92962500D01*
G75*
G02*
X41112500Y-93212499I0J-249999D01*
G01*
X41112500Y-94112501D01*
G75*
G02*
X40862501Y-94362500I-249999J0D01*
G01*
X40337499Y-94362500D01*
G75*
G02*
X40087500Y-94112501I0J249999D01*
G01*
G37*
G36*
G01*
X38262500Y-94112501D02*
X38262500Y-93212499D01*
G75*
G02*
X38512499Y-92962500I249999J0D01*
G01*
X39037501Y-92962500D01*
G75*
G02*
X39287500Y-93212499I0J-249999D01*
G01*
X39287500Y-94112501D01*
G75*
G02*
X39037501Y-94362500I-249999J0D01*
G01*
X38512499Y-94362500D01*
G75*
G02*
X38262500Y-94112501I0J249999D01*
G01*
G37*
%TD*%
%TO.C,R4*%
G36*
G01*
X86918750Y-82206251D02*
X86918750Y-81306249D01*
G75*
G02*
X87168749Y-81056250I249999J0D01*
G01*
X87693751Y-81056250D01*
G75*
G02*
X87943750Y-81306249I0J-249999D01*
G01*
X87943750Y-82206251D01*
G75*
G02*
X87693751Y-82456250I-249999J0D01*
G01*
X87168749Y-82456250D01*
G75*
G02*
X86918750Y-82206251I0J249999D01*
G01*
G37*
G36*
G01*
X85093750Y-82206251D02*
X85093750Y-81306249D01*
G75*
G02*
X85343749Y-81056250I249999J0D01*
G01*
X85868751Y-81056250D01*
G75*
G02*
X86118750Y-81306249I0J-249999D01*
G01*
X86118750Y-82206251D01*
G75*
G02*
X85868751Y-82456250I-249999J0D01*
G01*
X85343749Y-82456250D01*
G75*
G02*
X85093750Y-82206251I0J249999D01*
G01*
G37*
%TD*%
%TO.C,R3*%
G36*
G01*
X60775001Y-44843750D02*
X59874999Y-44843750D01*
G75*
G02*
X59625000Y-44593751I0J249999D01*
G01*
X59625000Y-44068749D01*
G75*
G02*
X59874999Y-43818750I249999J0D01*
G01*
X60775001Y-43818750D01*
G75*
G02*
X61025000Y-44068749I0J-249999D01*
G01*
X61025000Y-44593751D01*
G75*
G02*
X60775001Y-44843750I-249999J0D01*
G01*
G37*
G36*
G01*
X60775001Y-46668750D02*
X59874999Y-46668750D01*
G75*
G02*
X59625000Y-46418751I0J249999D01*
G01*
X59625000Y-45893749D01*
G75*
G02*
X59874999Y-45643750I249999J0D01*
G01*
X60775001Y-45643750D01*
G75*
G02*
X61025000Y-45893749I0J-249999D01*
G01*
X61025000Y-46418751D01*
G75*
G02*
X60775001Y-46668750I-249999J0D01*
G01*
G37*
%TD*%
%TO.C,R2*%
G36*
G01*
X63156251Y-44843750D02*
X62256249Y-44843750D01*
G75*
G02*
X62006250Y-44593751I0J249999D01*
G01*
X62006250Y-44068749D01*
G75*
G02*
X62256249Y-43818750I249999J0D01*
G01*
X63156251Y-43818750D01*
G75*
G02*
X63406250Y-44068749I0J-249999D01*
G01*
X63406250Y-44593751D01*
G75*
G02*
X63156251Y-44843750I-249999J0D01*
G01*
G37*
G36*
G01*
X63156251Y-46668750D02*
X62256249Y-46668750D01*
G75*
G02*
X62006250Y-46418751I0J249999D01*
G01*
X62006250Y-45893749D01*
G75*
G02*
X62256249Y-45643750I249999J0D01*
G01*
X63156251Y-45643750D01*
G75*
G02*
X63406250Y-45893749I0J-249999D01*
G01*
X63406250Y-46418751D01*
G75*
G02*
X63156251Y-46668750I-249999J0D01*
G01*
G37*
%TD*%
%TO.C,R1*%
G36*
G01*
X67068750Y-57493749D02*
X67068750Y-58393751D01*
G75*
G02*
X66818751Y-58643750I-249999J0D01*
G01*
X66293749Y-58643750D01*
G75*
G02*
X66043750Y-58393751I0J249999D01*
G01*
X66043750Y-57493749D01*
G75*
G02*
X66293749Y-57243750I249999J0D01*
G01*
X66818751Y-57243750D01*
G75*
G02*
X67068750Y-57493749I0J-249999D01*
G01*
G37*
G36*
G01*
X68893750Y-57493749D02*
X68893750Y-58393751D01*
G75*
G02*
X68643751Y-58643750I-249999J0D01*
G01*
X68118749Y-58643750D01*
G75*
G02*
X67868750Y-58393751I0J249999D01*
G01*
X67868750Y-57493749D01*
G75*
G02*
X68118749Y-57243750I249999J0D01*
G01*
X68643751Y-57243750D01*
G75*
G02*
X68893750Y-57493749I0J-249999D01*
G01*
G37*
%TD*%
D14*
%TO.C,MX65*%
X259397500Y-122555000D03*
D15*
X261937500Y-117475000D03*
D14*
X265747500Y-120015000D03*
D16*
X267017500Y-117475000D03*
X256857500Y-117475000D03*
%TD*%
D14*
%TO.C,MX64*%
X240347500Y-122555000D03*
D15*
X242887500Y-117475000D03*
D14*
X246697500Y-120015000D03*
D16*
X247967500Y-117475000D03*
X237807500Y-117475000D03*
%TD*%
D14*
%TO.C,MX63*%
X221297500Y-122555000D03*
D15*
X223837500Y-117475000D03*
D14*
X227647500Y-120015000D03*
D16*
X228917500Y-117475000D03*
X218757500Y-117475000D03*
%TD*%
D14*
%TO.C,MX62*%
X202247500Y-122555000D03*
D15*
X204787500Y-117475000D03*
D14*
X208597500Y-120015000D03*
D16*
X209867500Y-117475000D03*
X199707500Y-117475000D03*
%TD*%
D14*
%TO.C,MX61*%
X183197500Y-122555000D03*
D15*
X185737500Y-117475000D03*
D14*
X189547500Y-120015000D03*
D16*
X190817500Y-117475000D03*
X180657500Y-117475000D03*
%TD*%
D14*
%TO.C,MX60*%
X164147500Y-122555000D03*
D15*
X166687500Y-117475000D03*
D14*
X170497500Y-120015000D03*
D16*
X171767500Y-117475000D03*
X161607500Y-117475000D03*
%TD*%
D14*
%TO.C,MX59*%
X145097500Y-122555000D03*
D15*
X147637500Y-117475000D03*
D14*
X151447500Y-120015000D03*
D16*
X152717500Y-117475000D03*
X142557500Y-117475000D03*
%TD*%
D14*
%TO.C,MX58*%
X126047500Y-122555000D03*
D15*
X128587500Y-117475000D03*
D14*
X132397500Y-120015000D03*
D16*
X133667500Y-117475000D03*
X123507500Y-117475000D03*
%TD*%
D14*
%TO.C,MX57*%
X106997500Y-122555000D03*
D15*
X109537500Y-117475000D03*
D14*
X113347500Y-120015000D03*
D16*
X114617500Y-117475000D03*
X104457500Y-117475000D03*
%TD*%
D14*
%TO.C,MX56*%
X87947500Y-122555000D03*
D15*
X90487500Y-117475000D03*
D14*
X94297500Y-120015000D03*
D16*
X95567500Y-117475000D03*
X85407500Y-117475000D03*
%TD*%
D14*
%TO.C,MX55*%
X68897500Y-122555000D03*
D15*
X71437500Y-117475000D03*
D14*
X75247500Y-120015000D03*
D16*
X76517500Y-117475000D03*
X66357500Y-117475000D03*
%TD*%
D14*
%TO.C,MX54*%
X49847500Y-122555000D03*
D15*
X52387500Y-117475000D03*
D14*
X56197500Y-120015000D03*
D16*
X57467500Y-117475000D03*
X47307500Y-117475000D03*
%TD*%
D14*
%TO.C,MX53*%
X30797500Y-122555000D03*
D15*
X33337500Y-117475000D03*
D14*
X37147500Y-120015000D03*
D16*
X38417500Y-117475000D03*
X28257500Y-117475000D03*
%TD*%
D14*
%TO.C,MX52*%
X259397500Y-103505000D03*
D15*
X261937500Y-98425000D03*
D14*
X265747500Y-100965000D03*
D16*
X267017500Y-98425000D03*
X256857500Y-98425000D03*
%TD*%
D14*
%TO.C,MX51*%
X240347500Y-103505000D03*
D15*
X242887500Y-98425000D03*
D14*
X246697500Y-100965000D03*
D16*
X247967500Y-98425000D03*
X237807500Y-98425000D03*
%TD*%
D14*
%TO.C,MX50*%
X221297500Y-103505000D03*
D15*
X223837500Y-98425000D03*
D14*
X227647500Y-100965000D03*
D16*
X228917500Y-98425000D03*
X218757500Y-98425000D03*
%TD*%
D14*
%TO.C,MX49*%
X202247500Y-103505000D03*
D15*
X204787500Y-98425000D03*
D14*
X208597500Y-100965000D03*
D16*
X209867500Y-98425000D03*
X199707500Y-98425000D03*
%TD*%
D14*
%TO.C,MX48*%
X183197500Y-103505000D03*
D15*
X185737500Y-98425000D03*
D14*
X189547500Y-100965000D03*
D16*
X190817500Y-98425000D03*
X180657500Y-98425000D03*
%TD*%
D14*
%TO.C,MX47*%
X164147500Y-103505000D03*
D15*
X166687500Y-98425000D03*
D14*
X170497500Y-100965000D03*
D16*
X171767500Y-98425000D03*
X161607500Y-98425000D03*
%TD*%
D14*
%TO.C,MX46*%
X145097500Y-103505000D03*
D15*
X147637500Y-98425000D03*
D14*
X151447500Y-100965000D03*
D16*
X152717500Y-98425000D03*
X142557500Y-98425000D03*
%TD*%
D14*
%TO.C,MX45*%
X126047500Y-103505000D03*
D15*
X128587500Y-98425000D03*
D14*
X132397500Y-100965000D03*
D16*
X133667500Y-98425000D03*
X123507500Y-98425000D03*
%TD*%
D14*
%TO.C,MX44*%
X106997500Y-103505000D03*
D15*
X109537500Y-98425000D03*
D14*
X113347500Y-100965000D03*
D16*
X114617500Y-98425000D03*
X104457500Y-98425000D03*
%TD*%
D14*
%TO.C,MX43*%
X87947500Y-103505000D03*
D15*
X90487500Y-98425000D03*
D14*
X94297500Y-100965000D03*
D16*
X95567500Y-98425000D03*
X85407500Y-98425000D03*
%TD*%
D14*
%TO.C,MX42*%
X68897500Y-103505000D03*
D15*
X71437500Y-98425000D03*
D14*
X75247500Y-100965000D03*
D16*
X76517500Y-98425000D03*
X66357500Y-98425000D03*
%TD*%
D14*
%TO.C,MX41*%
X49847500Y-103505000D03*
D15*
X52387500Y-98425000D03*
D14*
X56197500Y-100965000D03*
D16*
X57467500Y-98425000D03*
X47307500Y-98425000D03*
%TD*%
D14*
%TO.C,MX40*%
X30797500Y-103505000D03*
D15*
X33337500Y-98425000D03*
D14*
X37147500Y-100965000D03*
D16*
X38417500Y-98425000D03*
X28257500Y-98425000D03*
%TD*%
D14*
%TO.C,MX39*%
X259397500Y-84455000D03*
D15*
X261937500Y-79375000D03*
D14*
X265747500Y-81915000D03*
D16*
X267017500Y-79375000D03*
X256857500Y-79375000D03*
%TD*%
D14*
%TO.C,MX38*%
X240347500Y-84455000D03*
D15*
X242887500Y-79375000D03*
D14*
X246697500Y-81915000D03*
D16*
X247967500Y-79375000D03*
X237807500Y-79375000D03*
%TD*%
D14*
%TO.C,MX37*%
X221297500Y-84455000D03*
D15*
X223837500Y-79375000D03*
D14*
X227647500Y-81915000D03*
D16*
X228917500Y-79375000D03*
X218757500Y-79375000D03*
%TD*%
D14*
%TO.C,MX36*%
X202247500Y-84455000D03*
D15*
X204787500Y-79375000D03*
D14*
X208597500Y-81915000D03*
D16*
X209867500Y-79375000D03*
X199707500Y-79375000D03*
%TD*%
D14*
%TO.C,MX35*%
X183197500Y-84455000D03*
D15*
X185737500Y-79375000D03*
D14*
X189547500Y-81915000D03*
D16*
X190817500Y-79375000D03*
X180657500Y-79375000D03*
%TD*%
D14*
%TO.C,MX33*%
X145097500Y-84455000D03*
D15*
X147637500Y-79375000D03*
D14*
X151447500Y-81915000D03*
D16*
X152717500Y-79375000D03*
X142557500Y-79375000D03*
%TD*%
D14*
%TO.C,MX32*%
X126047500Y-84455000D03*
D15*
X128587500Y-79375000D03*
D14*
X132397500Y-81915000D03*
D16*
X133667500Y-79375000D03*
X123507500Y-79375000D03*
%TD*%
D14*
%TO.C,MX31*%
X106997500Y-84455000D03*
D15*
X109537500Y-79375000D03*
D14*
X113347500Y-81915000D03*
D16*
X114617500Y-79375000D03*
X104457500Y-79375000D03*
%TD*%
D14*
%TO.C,MX28*%
X49847500Y-84455000D03*
D15*
X52387500Y-79375000D03*
D14*
X56197500Y-81915000D03*
D16*
X57467500Y-79375000D03*
X47307500Y-79375000D03*
%TD*%
D14*
%TO.C,MX27*%
X30797500Y-84455000D03*
D15*
X33337500Y-79375000D03*
D14*
X37147500Y-81915000D03*
D16*
X38417500Y-79375000D03*
X28257500Y-79375000D03*
%TD*%
D14*
%TO.C,MX26*%
X259397500Y-65405000D03*
D15*
X261937500Y-60325000D03*
D14*
X265747500Y-62865000D03*
D16*
X267017500Y-60325000D03*
X256857500Y-60325000D03*
%TD*%
D14*
%TO.C,MX25*%
X240347500Y-65405000D03*
D15*
X242887500Y-60325000D03*
D14*
X246697500Y-62865000D03*
D16*
X247967500Y-60325000D03*
X237807500Y-60325000D03*
%TD*%
D14*
%TO.C,MX24*%
X221297500Y-65405000D03*
D15*
X223837500Y-60325000D03*
D14*
X227647500Y-62865000D03*
D16*
X228917500Y-60325000D03*
X218757500Y-60325000D03*
%TD*%
D14*
%TO.C,MX23*%
X202247500Y-65405000D03*
D15*
X204787500Y-60325000D03*
D14*
X208597500Y-62865000D03*
D16*
X209867500Y-60325000D03*
X199707500Y-60325000D03*
%TD*%
D14*
%TO.C,MX22*%
X183197500Y-65405000D03*
D15*
X185737500Y-60325000D03*
D14*
X189547500Y-62865000D03*
D16*
X190817500Y-60325000D03*
X180657500Y-60325000D03*
%TD*%
D14*
%TO.C,MX21*%
X164147500Y-65405000D03*
D15*
X166687500Y-60325000D03*
D14*
X170497500Y-62865000D03*
D16*
X171767500Y-60325000D03*
X161607500Y-60325000D03*
%TD*%
D14*
%TO.C,MX20*%
X145097500Y-65405000D03*
D15*
X147637500Y-60325000D03*
D14*
X151447500Y-62865000D03*
D16*
X152717500Y-60325000D03*
X142557500Y-60325000D03*
%TD*%
D14*
%TO.C,MX19*%
X126047500Y-65405000D03*
D15*
X128587500Y-60325000D03*
D14*
X132397500Y-62865000D03*
D16*
X133667500Y-60325000D03*
X123507500Y-60325000D03*
%TD*%
D14*
%TO.C,MX18*%
X106997500Y-65405000D03*
D15*
X109537500Y-60325000D03*
D14*
X113347500Y-62865000D03*
D16*
X114617500Y-60325000D03*
X104457500Y-60325000D03*
%TD*%
D14*
%TO.C,MX17*%
X87947500Y-65405000D03*
D15*
X90487500Y-60325000D03*
D14*
X94297500Y-62865000D03*
D16*
X95567500Y-60325000D03*
X85407500Y-60325000D03*
%TD*%
D14*
%TO.C,MX15*%
X49847500Y-65405000D03*
D15*
X52387500Y-60325000D03*
D14*
X56197500Y-62865000D03*
D16*
X57467500Y-60325000D03*
X47307500Y-60325000D03*
%TD*%
D14*
%TO.C,MX14*%
X30797500Y-65405000D03*
D15*
X33337500Y-60325000D03*
D14*
X37147500Y-62865000D03*
D16*
X38417500Y-60325000D03*
X28257500Y-60325000D03*
%TD*%
D14*
%TO.C,MX13*%
X259397500Y-46355000D03*
D15*
X261937500Y-41275000D03*
D14*
X265747500Y-43815000D03*
D16*
X267017500Y-41275000D03*
X256857500Y-41275000D03*
%TD*%
D14*
%TO.C,MX12*%
X240347500Y-46355000D03*
D15*
X242887500Y-41275000D03*
D14*
X246697500Y-43815000D03*
D16*
X247967500Y-41275000D03*
X237807500Y-41275000D03*
%TD*%
D14*
%TO.C,MX11*%
X221297500Y-46355000D03*
D15*
X223837500Y-41275000D03*
D14*
X227647500Y-43815000D03*
D16*
X228917500Y-41275000D03*
X218757500Y-41275000D03*
%TD*%
D14*
%TO.C,MX10*%
X202247500Y-46355000D03*
D15*
X204787500Y-41275000D03*
D14*
X208597500Y-43815000D03*
D16*
X209867500Y-41275000D03*
X199707500Y-41275000D03*
%TD*%
D14*
%TO.C,MX9*%
X183197500Y-46355000D03*
D15*
X185737500Y-41275000D03*
D14*
X189547500Y-43815000D03*
D16*
X190817500Y-41275000D03*
X180657500Y-41275000D03*
%TD*%
D14*
%TO.C,MX8*%
X164147500Y-46355000D03*
D15*
X166687500Y-41275000D03*
D14*
X170497500Y-43815000D03*
D16*
X171767500Y-41275000D03*
X161607500Y-41275000D03*
%TD*%
D14*
%TO.C,MX7*%
X145097500Y-46355000D03*
D15*
X147637500Y-41275000D03*
D14*
X151447500Y-43815000D03*
D16*
X152717500Y-41275000D03*
X142557500Y-41275000D03*
%TD*%
D14*
%TO.C,MX6*%
X126047500Y-46355000D03*
D15*
X128587500Y-41275000D03*
D14*
X132397500Y-43815000D03*
D16*
X133667500Y-41275000D03*
X123507500Y-41275000D03*
%TD*%
D14*
%TO.C,MX5*%
X106997500Y-46355000D03*
D15*
X109537500Y-41275000D03*
D14*
X113347500Y-43815000D03*
D16*
X114617500Y-41275000D03*
X104457500Y-41275000D03*
%TD*%
D14*
%TO.C,MX4*%
X87947500Y-46355000D03*
D15*
X90487500Y-41275000D03*
D14*
X94297500Y-43815000D03*
D16*
X95567500Y-41275000D03*
X85407500Y-41275000D03*
%TD*%
D14*
%TO.C,MX2*%
X49847500Y-46355000D03*
D15*
X52387500Y-41275000D03*
D14*
X56197500Y-43815000D03*
D16*
X57467500Y-41275000D03*
X47307500Y-41275000D03*
%TD*%
D14*
%TO.C,MX1*%
X30797500Y-46355000D03*
D15*
X33337500Y-41275000D03*
D14*
X37147500Y-43815000D03*
D16*
X38417500Y-41275000D03*
X28257500Y-41275000D03*
%TD*%
D21*
%TO.C,J1*%
X65112500Y-34260000D03*
X64312500Y-34260000D03*
X65112500Y-34260000D03*
X64312500Y-34260000D03*
X58712500Y-34260000D03*
X58712500Y-34260000D03*
X59512500Y-34260000D03*
X59512500Y-34260000D03*
D22*
X59022500Y-33200000D03*
X64802500Y-33200000D03*
D23*
X63662500Y-34260000D03*
X62662500Y-34260000D03*
X63162500Y-34260000D03*
X60662500Y-34260000D03*
X60162500Y-34260000D03*
X62162500Y-34260000D03*
X61662500Y-34260000D03*
X61162500Y-34260000D03*
D24*
X66232500Y-29510000D03*
X57592500Y-29510000D03*
D25*
X66232500Y-33680000D03*
X57592500Y-33680000D03*
%TD*%
D26*
%TO.C,D67*%
X147637500Y-74612500D03*
G36*
G01*
X148712500Y-75297500D02*
X148712500Y-73927500D01*
G75*
G02*
X148902500Y-73737500I190000J0D01*
G01*
X149472500Y-73737500D01*
G75*
G02*
X149662500Y-73927500I0J-190000D01*
G01*
X149662500Y-75297500D01*
G75*
G02*
X149472500Y-75487500I-190000J0D01*
G01*
X148902500Y-75487500D01*
G75*
G02*
X148712500Y-75297500I0J190000D01*
G01*
G37*
G36*
G01*
X145612500Y-75297500D02*
X145612500Y-73927500D01*
G75*
G02*
X145802500Y-73737500I190000J0D01*
G01*
X146372500Y-73737500D01*
G75*
G02*
X146562500Y-73927500I0J-190000D01*
G01*
X146562500Y-75297500D01*
G75*
G02*
X146372500Y-75487500I-190000J0D01*
G01*
X145802500Y-75487500D01*
G75*
G02*
X145612500Y-75297500I0J190000D01*
G01*
G37*
%TD*%
%TO.C,D66*%
X33337500Y-93662500D03*
G36*
G01*
X34412500Y-94347500D02*
X34412500Y-92977500D01*
G75*
G02*
X34602500Y-92787500I190000J0D01*
G01*
X35172500Y-92787500D01*
G75*
G02*
X35362500Y-92977500I0J-190000D01*
G01*
X35362500Y-94347500D01*
G75*
G02*
X35172500Y-94537500I-190000J0D01*
G01*
X34602500Y-94537500D01*
G75*
G02*
X34412500Y-94347500I0J190000D01*
G01*
G37*
G36*
G01*
X31312500Y-94347500D02*
X31312500Y-92977500D01*
G75*
G02*
X31502500Y-92787500I190000J0D01*
G01*
X32072500Y-92787500D01*
G75*
G02*
X32262500Y-92977500I0J-190000D01*
G01*
X32262500Y-94347500D01*
G75*
G02*
X32072500Y-94537500I-190000J0D01*
G01*
X31502500Y-94537500D01*
G75*
G02*
X31312500Y-94347500I0J190000D01*
G01*
G37*
%TD*%
D27*
%TO.C,D65*%
X254000000Y-119125000D03*
X254000000Y-115825000D03*
%TD*%
%TO.C,D64*%
X234950000Y-119125000D03*
X234950000Y-115825000D03*
%TD*%
%TO.C,D63*%
X215900000Y-119125000D03*
X215900000Y-115825000D03*
%TD*%
%TO.C,D62*%
X196850000Y-119125000D03*
X196850000Y-115825000D03*
%TD*%
%TO.C,D61*%
X177800000Y-119125000D03*
X177800000Y-115825000D03*
%TD*%
%TO.C,D60*%
X158750000Y-119125000D03*
X158750000Y-115825000D03*
%TD*%
%TO.C,D59*%
X139700000Y-119125000D03*
X139700000Y-115825000D03*
%TD*%
%TO.C,D58*%
X120650000Y-119125000D03*
X120650000Y-115825000D03*
%TD*%
%TO.C,D57*%
X101600000Y-119125000D03*
X101600000Y-115825000D03*
%TD*%
%TO.C,D56*%
X82550000Y-119125000D03*
X82550000Y-115825000D03*
%TD*%
%TO.C,D55*%
X63500000Y-119125000D03*
X63500000Y-115825000D03*
%TD*%
%TO.C,D54*%
X44450000Y-119125000D03*
X44450000Y-115825000D03*
%TD*%
%TO.C,D53*%
X25400000Y-119125000D03*
X25400000Y-115825000D03*
%TD*%
%TO.C,D52*%
X254000000Y-100075000D03*
X254000000Y-96775000D03*
%TD*%
%TO.C,D51*%
X234950000Y-100075000D03*
X234950000Y-96775000D03*
%TD*%
%TO.C,D50*%
X215900000Y-100075000D03*
X215900000Y-96775000D03*
%TD*%
%TO.C,D49*%
X196850000Y-100075000D03*
X196850000Y-96775000D03*
%TD*%
%TO.C,D48*%
X177800000Y-100075000D03*
X177800000Y-96775000D03*
%TD*%
%TO.C,D47*%
X158750000Y-100075000D03*
X158750000Y-96775000D03*
%TD*%
%TO.C,D46*%
X139700000Y-100075000D03*
X139700000Y-96775000D03*
%TD*%
%TO.C,D45*%
X120650000Y-100075000D03*
X120650000Y-96775000D03*
%TD*%
%TO.C,D44*%
X101600000Y-100075000D03*
X101600000Y-96775000D03*
%TD*%
%TO.C,D43*%
X82550000Y-100075000D03*
X82550000Y-96775000D03*
%TD*%
%TO.C,D42*%
X63500000Y-100075000D03*
X63500000Y-96775000D03*
%TD*%
%TO.C,D41*%
X44450000Y-100075000D03*
X44450000Y-96775000D03*
%TD*%
%TO.C,D40*%
X25400000Y-100075000D03*
X25400000Y-96775000D03*
%TD*%
%TO.C,D39*%
X254000000Y-81025000D03*
X254000000Y-77725000D03*
%TD*%
%TO.C,D38*%
X234950000Y-81025000D03*
X234950000Y-77725000D03*
%TD*%
%TO.C,D37*%
X215900000Y-81025000D03*
X215900000Y-77725000D03*
%TD*%
%TO.C,D36*%
X196850000Y-81025000D03*
X196850000Y-77725000D03*
%TD*%
%TO.C,D35*%
X177800000Y-81025000D03*
X177800000Y-77725000D03*
%TD*%
%TO.C,D34*%
X158750000Y-81025000D03*
X158750000Y-77725000D03*
%TD*%
%TO.C,D33*%
X139700000Y-81025000D03*
X139700000Y-77725000D03*
%TD*%
%TO.C,D32*%
X120650000Y-81025000D03*
X120650000Y-77725000D03*
%TD*%
%TO.C,D31*%
X101600000Y-81025000D03*
X101600000Y-77725000D03*
%TD*%
%TO.C,D30*%
X98425000Y-81025000D03*
X98425000Y-77725000D03*
%TD*%
%TO.C,D29*%
X63500000Y-81025000D03*
X63500000Y-77725000D03*
%TD*%
%TO.C,D28*%
X44450000Y-81025000D03*
X44450000Y-77725000D03*
%TD*%
%TO.C,D27*%
X25400000Y-81025000D03*
X25400000Y-77725000D03*
%TD*%
%TO.C,D26*%
X254000000Y-61975000D03*
X254000000Y-58675000D03*
%TD*%
%TO.C,D25*%
X234950000Y-61975000D03*
X234950000Y-58675000D03*
%TD*%
%TO.C,D24*%
X215900000Y-61975000D03*
X215900000Y-58675000D03*
%TD*%
%TO.C,D23*%
X196850000Y-61975000D03*
X196850000Y-58675000D03*
%TD*%
%TO.C,D22*%
X177800000Y-61975000D03*
X177800000Y-58675000D03*
%TD*%
%TO.C,D21*%
X158750000Y-61975000D03*
X158750000Y-58675000D03*
%TD*%
%TO.C,D20*%
X139700000Y-61975000D03*
X139700000Y-58675000D03*
%TD*%
%TO.C,D19*%
X120650000Y-61975000D03*
X120650000Y-58675000D03*
%TD*%
%TO.C,D18*%
X101600000Y-61975000D03*
X101600000Y-58675000D03*
%TD*%
%TO.C,D17*%
X98425000Y-61975000D03*
X98425000Y-58675000D03*
%TD*%
D28*
%TO.C,D16*%
X66737500Y-63500000D03*
X63437500Y-63500000D03*
%TD*%
D27*
%TO.C,D15*%
X44450000Y-61975000D03*
X44450000Y-58675000D03*
%TD*%
%TO.C,D14*%
X25400000Y-61975000D03*
X25400000Y-58675000D03*
%TD*%
%TO.C,D13*%
X254000000Y-42925000D03*
X254000000Y-39625000D03*
%TD*%
%TO.C,D12*%
X234950000Y-42925000D03*
X234950000Y-39625000D03*
%TD*%
%TO.C,D11*%
X215900000Y-42925000D03*
X215900000Y-39625000D03*
%TD*%
%TO.C,D10*%
X196850000Y-42925000D03*
X196850000Y-39625000D03*
%TD*%
%TO.C,D9*%
X177800000Y-42925000D03*
X177800000Y-39625000D03*
%TD*%
%TO.C,D8*%
X158750000Y-42925000D03*
X158750000Y-39625000D03*
%TD*%
%TO.C,D7*%
X139700000Y-42925000D03*
X139700000Y-39625000D03*
%TD*%
%TO.C,D6*%
X120650000Y-42925000D03*
X120650000Y-39625000D03*
%TD*%
%TO.C,D5*%
X101600000Y-42925000D03*
X101600000Y-39625000D03*
%TD*%
%TO.C,D4*%
X82550000Y-42925000D03*
X82550000Y-39625000D03*
%TD*%
%TO.C,D3*%
X79375000Y-42925000D03*
X79375000Y-39625000D03*
%TD*%
%TO.C,D2*%
X44450000Y-42925000D03*
X44450000Y-39625000D03*
%TD*%
%TO.C,D1*%
X25400000Y-42925000D03*
X25400000Y-39625000D03*
%TD*%
%TO.C,C7*%
G36*
G01*
X68359000Y-71443000D02*
X69309000Y-71443000D01*
G75*
G02*
X69559000Y-71693000I0J-250000D01*
G01*
X69559000Y-72193000D01*
G75*
G02*
X69309000Y-72443000I-250000J0D01*
G01*
X68359000Y-72443000D01*
G75*
G02*
X68109000Y-72193000I0J250000D01*
G01*
X68109000Y-71693000D01*
G75*
G02*
X68359000Y-71443000I250000J0D01*
G01*
G37*
G36*
G01*
X68359000Y-69543000D02*
X69309000Y-69543000D01*
G75*
G02*
X69559000Y-69793000I0J-250000D01*
G01*
X69559000Y-70293000D01*
G75*
G02*
X69309000Y-70543000I-250000J0D01*
G01*
X68359000Y-70543000D01*
G75*
G02*
X68109000Y-70293000I0J250000D01*
G01*
X68109000Y-69793000D01*
G75*
G02*
X68359000Y-69543000I250000J0D01*
G01*
G37*
%TD*%
%TO.C,C6*%
G36*
G01*
X75543750Y-85406250D02*
X75543750Y-84456250D01*
G75*
G02*
X75793750Y-84206250I250000J0D01*
G01*
X76293750Y-84206250D01*
G75*
G02*
X76543750Y-84456250I0J-250000D01*
G01*
X76543750Y-85406250D01*
G75*
G02*
X76293750Y-85656250I-250000J0D01*
G01*
X75793750Y-85656250D01*
G75*
G02*
X75543750Y-85406250I0J250000D01*
G01*
G37*
G36*
G01*
X77443750Y-85406250D02*
X77443750Y-84456250D01*
G75*
G02*
X77693750Y-84206250I250000J0D01*
G01*
X78193750Y-84206250D01*
G75*
G02*
X78443750Y-84456250I0J-250000D01*
G01*
X78443750Y-85406250D01*
G75*
G02*
X78193750Y-85656250I-250000J0D01*
G01*
X77693750Y-85656250D01*
G75*
G02*
X77443750Y-85406250I0J250000D01*
G01*
G37*
%TD*%
%TO.C,C5*%
G36*
G01*
X91756250Y-68918750D02*
X90806250Y-68918750D01*
G75*
G02*
X90556250Y-68668750I0J250000D01*
G01*
X90556250Y-68168750D01*
G75*
G02*
X90806250Y-67918750I250000J0D01*
G01*
X91756250Y-67918750D01*
G75*
G02*
X92006250Y-68168750I0J-250000D01*
G01*
X92006250Y-68668750D01*
G75*
G02*
X91756250Y-68918750I-250000J0D01*
G01*
G37*
G36*
G01*
X91756250Y-67018750D02*
X90806250Y-67018750D01*
G75*
G02*
X90556250Y-66768750I0J250000D01*
G01*
X90556250Y-66268750D01*
G75*
G02*
X90806250Y-66018750I250000J0D01*
G01*
X91756250Y-66018750D01*
G75*
G02*
X92006250Y-66268750I0J-250000D01*
G01*
X92006250Y-66768750D01*
G75*
G02*
X91756250Y-67018750I-250000J0D01*
G01*
G37*
%TD*%
%TO.C,C4*%
G36*
G01*
X73956250Y-58418750D02*
X73956250Y-57468750D01*
G75*
G02*
X74206250Y-57218750I250000J0D01*
G01*
X74706250Y-57218750D01*
G75*
G02*
X74956250Y-57468750I0J-250000D01*
G01*
X74956250Y-58418750D01*
G75*
G02*
X74706250Y-58668750I-250000J0D01*
G01*
X74206250Y-58668750D01*
G75*
G02*
X73956250Y-58418750I0J250000D01*
G01*
G37*
G36*
G01*
X75856250Y-58418750D02*
X75856250Y-57468750D01*
G75*
G02*
X76106250Y-57218750I250000J0D01*
G01*
X76606250Y-57218750D01*
G75*
G02*
X76856250Y-57468750I0J-250000D01*
G01*
X76856250Y-58418750D01*
G75*
G02*
X76606250Y-58668750I-250000J0D01*
G01*
X76106250Y-58668750D01*
G75*
G02*
X75856250Y-58418750I0J250000D01*
G01*
G37*
%TD*%
%TO.C,C3*%
G36*
G01*
X70962500Y-70143750D02*
X71912500Y-70143750D01*
G75*
G02*
X72162500Y-70393750I0J-250000D01*
G01*
X72162500Y-70893750D01*
G75*
G02*
X71912500Y-71143750I-250000J0D01*
G01*
X70962500Y-71143750D01*
G75*
G02*
X70712500Y-70893750I0J250000D01*
G01*
X70712500Y-70393750D01*
G75*
G02*
X70962500Y-70143750I250000J0D01*
G01*
G37*
G36*
G01*
X70962500Y-68243750D02*
X71912500Y-68243750D01*
G75*
G02*
X72162500Y-68493750I0J-250000D01*
G01*
X72162500Y-68993750D01*
G75*
G02*
X71912500Y-69243750I-250000J0D01*
G01*
X70962500Y-69243750D01*
G75*
G02*
X70712500Y-68993750I0J250000D01*
G01*
X70712500Y-68493750D01*
G75*
G02*
X70962500Y-68243750I250000J0D01*
G01*
G37*
%TD*%
%TO.C,C2*%
G36*
G01*
X79850000Y-55906250D02*
X78900000Y-55906250D01*
G75*
G02*
X78650000Y-55656250I0J250000D01*
G01*
X78650000Y-55156250D01*
G75*
G02*
X78900000Y-54906250I250000J0D01*
G01*
X79850000Y-54906250D01*
G75*
G02*
X80100000Y-55156250I0J-250000D01*
G01*
X80100000Y-55656250D01*
G75*
G02*
X79850000Y-55906250I-250000J0D01*
G01*
G37*
G36*
G01*
X79850000Y-57806250D02*
X78900000Y-57806250D01*
G75*
G02*
X78650000Y-57556250I0J250000D01*
G01*
X78650000Y-57056250D01*
G75*
G02*
X78900000Y-56806250I250000J0D01*
G01*
X79850000Y-56806250D01*
G75*
G02*
X80100000Y-57056250I0J-250000D01*
G01*
X80100000Y-57556250D01*
G75*
G02*
X79850000Y-57806250I-250000J0D01*
G01*
G37*
%TD*%
%TO.C,C1*%
G36*
G01*
X87787500Y-55906250D02*
X86837500Y-55906250D01*
G75*
G02*
X86587500Y-55656250I0J250000D01*
G01*
X86587500Y-55156250D01*
G75*
G02*
X86837500Y-54906250I250000J0D01*
G01*
X87787500Y-54906250D01*
G75*
G02*
X88037500Y-55156250I0J-250000D01*
G01*
X88037500Y-55656250D01*
G75*
G02*
X87787500Y-55906250I-250000J0D01*
G01*
G37*
G36*
G01*
X87787500Y-57806250D02*
X86837500Y-57806250D01*
G75*
G02*
X86587500Y-57556250I0J250000D01*
G01*
X86587500Y-57056250D01*
G75*
G02*
X86837500Y-56806250I250000J0D01*
G01*
X87787500Y-56806250D01*
G75*
G02*
X88037500Y-57056250I0J-250000D01*
G01*
X88037500Y-57556250D01*
G75*
G02*
X87787500Y-57806250I-250000J0D01*
G01*
G37*
%TD*%
M02*
