M48
INCH,TZ
T1C0.0157
T2C0.0236
T3C0.0579
%
G90
G05
T1
X16250Y-34688
X17813Y-34688
X22188Y-15313
X22500Y-19375
X23119Y-14375
X23750Y-14375
X25000Y-19375
X25122Y-13939
X25625Y-14375
X25938Y-15313
X25938Y-25625
X27188Y-27188
X27188Y-29375
X27279Y-24750
X27813Y-19375
X29063Y-27500
X29063Y-30313
X29618Y-34132
X30341Y-24971
X31250Y-33125
X31250Y-35000
X31850Y-28050
X34098Y-31586
X34708Y-30313
X36650Y-26950
X37813Y-26250
X38750Y-36563
X38750Y-39688
X39375Y-29063
T3
X12125Y-18250
X12125Y-25750
X12125Y-33250
X12125Y-40750
X12125Y-48250
X14625Y-17250
X14625Y-24750
X14625Y-32250
X14625Y-39750
X14625Y-47250
X19625Y-18250
X19625Y-25750
X19625Y-33250
X19625Y-40750
X19625Y-48250
X22125Y-17250
X22125Y-24750
X22125Y-32250
X22125Y-39750
X22125Y-47250
X27125Y-18250
X27125Y-25750
X27125Y-33250
X27125Y-40750
X27125Y-48250
X29625Y-17250
X29625Y-24750
X29625Y-32250
X29625Y-39750
X29625Y-47250
X34625Y-18250
X34625Y-25750
X34625Y-33250
X34625Y-40750
X34625Y-48250
X37125Y-17250
X37125Y-24750
X37125Y-32250
X37125Y-39750
X37125Y-47250
X42125Y-18250
X42125Y-25750
X42125Y-33250
X42125Y-40750
X42125Y-48250
X44625Y-17250
X44625Y-24750
X44625Y-32250
X44625Y-39750
X44625Y-47250
X49625Y-18250
X49625Y-25750
X49625Y-33250
X49625Y-40750
X49625Y-48250
X52125Y-17250
X52125Y-24750
X52125Y-32250
X52125Y-39750
X52125Y-47250
X57125Y-18250
X57125Y-25750
X57125Y-33250
X57125Y-40750
X57125Y-48250
X59625Y-17250
X59625Y-24750
X59625Y-32250
X59625Y-39750
X59625Y-47250
X64625Y-18250
X64625Y-25750
X64625Y-33250
X64625Y-40750
X64625Y-48250
X67125Y-17250
X67125Y-24750
X67125Y-32250
X67125Y-39750
X67125Y-47250
X72125Y-18250
X72125Y-25750
X72125Y-33250
X72125Y-40750
X72125Y-48250
X74625Y-17250
X74625Y-24750
X74625Y-32250
X74625Y-39750
X74625Y-47250
X79625Y-18250
X79625Y-25750
X79625Y-33250
X79625Y-40750
X79625Y-48250
X82125Y-17250
X82125Y-24750
X82125Y-32250
X82125Y-39750
X82125Y-47250
X87125Y-18250
X87125Y-25750
X87125Y-33250
X87125Y-40750
X87125Y-48250
X89625Y-17250
X89625Y-24750
X89625Y-32250
X89625Y-39750
X89625Y-47250
X94625Y-18250
X94625Y-25750
X94625Y-33250
X94625Y-40750
X94625Y-48250
X97125Y-17250
X97125Y-24750
X97125Y-32250
X97125Y-39750
X97125Y-47250
X102125Y-18250
X102125Y-25750
X102125Y-33250
X102125Y-40750
X102125Y-48250
X104625Y-17250
X104625Y-24750
X104625Y-32250
X104625Y-39750
X104625Y-47250
T2
G00X22674Y-11461
M15
G01X22674Y-11776
M16
G05
G00X22674Y-13043
M15
G01X22674Y-13476
M16
G05
G00X26076Y-11461
M15
G01X26076Y-11776
M16
G05
G00X26076Y-13043
M15
G01X26076Y-13476
M16
G05
T0
M30
