G04 #@! TF.GenerationSoftware,KiCad,Pcbnew,5.1.9+dfsg1-1*
G04 #@! TF.CreationDate,2021-12-29T06:26:28+01:00*
G04 #@! TF.ProjectId,okey65-pcb,6f6b6579-3635-42d7-9063-622e6b696361,rev?*
G04 #@! TF.SameCoordinates,Original*
G04 #@! TF.FileFunction,Profile,NP*
%FSLAX46Y46*%
G04 Gerber Fmt 4.6, Leading zero omitted, Abs format (unit mm)*
G04 Created by KiCad (PCBNEW 5.1.9+dfsg1-1) date 2021-12-29 06:26:28*
%MOMM*%
%LPD*%
G01*
G04 APERTURE LIST*
G04 #@! TA.AperFunction,Profile*
%ADD10C,0.200000*%
G04 #@! TD*
G04 APERTURE END LIST*
D10*
X185144792Y-131030600D02*
X110089063Y-131030600D01*
X194089063Y-27780599D02*
X269770355Y-27780599D01*
X270270355Y-129859027D02*
X270270355Y-130530600D01*
X270270355Y-129859027D02*
G75*
G02*
X274270355Y-125859027I4000000J0D01*
G01*
X274941928Y-125859027D02*
X274270355Y-125859027D01*
X275441928Y-125359027D02*
G75*
G02*
X274941928Y-125859027I-500000J0D01*
G01*
X193592158Y-28225043D02*
G75*
G02*
X185641696Y-28225044I-3975231J444444D01*
G01*
X56684821Y-27487706D02*
X57391927Y-26780599D01*
X101144793Y-27780599D02*
G75*
G02*
X101641696Y-28225044I-1J-500000D01*
G01*
X274941928Y-32952172D02*
G75*
G02*
X275441928Y-33452172I0J-500000D01*
G01*
X110089063Y-27780599D02*
X185144792Y-27780599D01*
X66391927Y-26780599D02*
X67099034Y-27487706D01*
X194089062Y-131030600D02*
G75*
G02*
X193592159Y-130586155I1J500000D01*
G01*
X269770355Y-131030600D02*
X194089063Y-131030600D01*
X193592159Y-28225043D02*
G75*
G02*
X194089063Y-27780599I496904J-55556D01*
G01*
X24963500Y-28952172D02*
G75*
G02*
X20963500Y-32952172I-4000000J0D01*
G01*
X20963500Y-125859027D02*
X20291927Y-125859027D01*
X275441928Y-33452172D02*
X275441928Y-125359027D01*
X102553427Y-287678999D02*
X102553427Y-287678999D01*
X192553427Y-287678999D02*
X192553427Y-287678999D01*
X108553427Y-287678999D02*
X108553427Y-287678999D01*
X109592158Y-28225043D02*
G75*
G02*
X101641696Y-28225044I-3975231J444444D01*
G01*
X101641696Y-130586156D02*
G75*
G02*
X101144792Y-131030600I-496904J55556D01*
G01*
X274270355Y-32952172D02*
X274941928Y-32952172D01*
X19791927Y-125359027D02*
X19791927Y-33452172D01*
X24963500Y-130530600D02*
X24963500Y-129859027D01*
X101144792Y-131030600D02*
X25463500Y-131030600D01*
X185144793Y-27780599D02*
G75*
G02*
X185641696Y-28225044I-1J-500000D01*
G01*
X110089062Y-131030600D02*
G75*
G02*
X109592159Y-130586155I1J500000D01*
G01*
X185641695Y-130586156D02*
G75*
G02*
X193592159Y-130586155I3975232J-444444D01*
G01*
X270270355Y-130530600D02*
G75*
G02*
X269770355Y-131030600I-500000J0D01*
G01*
X20291927Y-125859027D02*
G75*
G02*
X19791927Y-125359027I0J500000D01*
G01*
X20963500Y-125859027D02*
G75*
G02*
X24963500Y-129859027I0J-4000000D01*
G01*
X24963500Y-28952172D02*
X24963500Y-28280599D01*
X24963500Y-28280599D02*
G75*
G02*
X25463500Y-27780599I500000J0D01*
G01*
X20291927Y-32952172D02*
X20963500Y-32952172D01*
X19791927Y-33452172D02*
G75*
G02*
X20291927Y-32952172I500000J0D01*
G01*
X57391927Y-26780599D02*
X66391927Y-26780599D01*
X101641695Y-130586156D02*
G75*
G02*
X109592159Y-130586155I3975232J-444444D01*
G01*
X56684821Y-27487706D02*
G75*
G02*
X55977714Y-27780599I-707107J707107D01*
G01*
X109592159Y-28225043D02*
G75*
G02*
X110089063Y-27780599I496904J-55556D01*
G01*
X185641696Y-130586156D02*
G75*
G02*
X185144792Y-131030600I-496904J55556D01*
G01*
X25463500Y-27780599D02*
X55977714Y-27780599D01*
X67806141Y-27780599D02*
G75*
G02*
X67099034Y-27487706I0J1000000D01*
G01*
X269770355Y-27780599D02*
G75*
G02*
X270270355Y-28280599I0J-500000D01*
G01*
X270270355Y-28280599D02*
X270270355Y-28952172D01*
X67806141Y-27780599D02*
X101144792Y-27780599D01*
X274270355Y-32952172D02*
G75*
G02*
X270270355Y-28952172I0J4000000D01*
G01*
X186553427Y-287678999D02*
X186553427Y-287678999D01*
X25463500Y-131030600D02*
G75*
G02*
X24963500Y-130530600I0J500000D01*
G01*
M02*
