M48
INCH,TZ
T1C0.0236
T2C0.0689
T3C0.0709
T4C0.1570
%
G90
G05
T1
X23237Y-13071
X25513Y-13071
T2
X11125Y-16250
X11125Y-23750
X11125Y-31250
X11125Y-38750
X11125Y-46250
X15125Y-16250
X15125Y-23750
X15125Y-31250
X15125Y-38750
X15125Y-46250
X18625Y-16250
X18625Y-23750
X18625Y-31250
X18625Y-38750
X18625Y-46250
X22625Y-16250
X22625Y-23750
X22625Y-31250
X22625Y-38750
X22625Y-46250
X26125Y-16250
X26125Y-23750
X26125Y-31250
X26125Y-38750
X26125Y-46250
X30125Y-16250
X30125Y-23750
X30125Y-31250
X30125Y-38750
X30125Y-46250
X33625Y-16250
X33625Y-23750
X33625Y-31250
X33625Y-38750
X33625Y-46250
X37625Y-16250
X37625Y-23750
X37625Y-31250
X37625Y-38750
X37625Y-46250
X41125Y-16250
X41125Y-23750
X41125Y-31250
X41125Y-38750
X41125Y-46250
X45125Y-16250
X45125Y-23750
X45125Y-31250
X45125Y-38750
X45125Y-46250
X48625Y-16250
X48625Y-23750
X48625Y-31250
X48625Y-38750
X48625Y-46250
X52625Y-16250
X52625Y-23750
X52625Y-31250
X52625Y-38750
X52625Y-46250
X56125Y-16250
X56125Y-23750
X56125Y-31250
X56125Y-38750
X56125Y-46250
X60125Y-16250
X60125Y-23750
X60125Y-31250
X60125Y-38750
X60125Y-46250
X63625Y-16250
X63625Y-23750
X63625Y-31250
X63625Y-38750
X63625Y-46250
X67625Y-16250
X67625Y-23750
X67625Y-31250
X67625Y-38750
X67625Y-46250
X71125Y-16250
X71125Y-23750
X71125Y-31250
X71125Y-38750
X71125Y-46250
X75125Y-16250
X75125Y-23750
X75125Y-31250
X75125Y-38750
X75125Y-46250
X78625Y-16250
X78625Y-23750
X78625Y-31250
X78625Y-38750
X78625Y-46250
X82625Y-16250
X82625Y-23750
X82625Y-31250
X82625Y-38750
X82625Y-46250
X86125Y-16250
X86125Y-23750
X86125Y-31250
X86125Y-38750
X86125Y-46250
X90125Y-16250
X90125Y-23750
X90125Y-31250
X90125Y-38750
X90125Y-46250
X93625Y-16250
X93625Y-23750
X93625Y-31250
X93625Y-38750
X93625Y-46250
X97625Y-16250
X97625Y-23750
X97625Y-31250
X97625Y-38750
X97625Y-46250
X101125Y-16250
X101125Y-23750
X101125Y-31250
X101125Y-38750
X101125Y-46250
X105125Y-16250
X105125Y-23750
X105125Y-31250
X105125Y-38750
X105125Y-46250
T4
X13125Y-16250
X13125Y-23750
X13125Y-31250
X13125Y-38750
X13125Y-46250
X20625Y-16250
X20625Y-23750
X20625Y-31250
X20625Y-38750
X20625Y-46250
X28125Y-16250
X28125Y-23750
X28125Y-31250
X28125Y-38750
X28125Y-46250
X35625Y-16250
X35625Y-23750
X35625Y-31250
X35625Y-38750
X35625Y-46250
X43125Y-16250
X43125Y-23750
X43125Y-31250
X43125Y-38750
X43125Y-46250
X50625Y-16250
X50625Y-23750
X50625Y-31250
X50625Y-38750
X50625Y-46250
X58125Y-16250
X58125Y-23750
X58125Y-31250
X58125Y-38750
X58125Y-46250
X65625Y-16250
X65625Y-23750
X65625Y-31250
X65625Y-38750
X65625Y-46250
X73125Y-16250
X73125Y-23750
X73125Y-31250
X73125Y-38750
X73125Y-46250
X80625Y-16250
X80625Y-23750
X80625Y-31250
X80625Y-38750
X80625Y-46250
X88125Y-16250
X88125Y-23750
X88125Y-31250
X88125Y-38750
X88125Y-46250
X95625Y-16250
X95625Y-23750
X95625Y-31250
X95625Y-38750
X95625Y-46250
X103125Y-16250
X103125Y-23750
X103125Y-31250
X103125Y-38750
X103125Y-46250
T3
G00X13125Y-36757
M15
G01X13125Y-36993
M16
G05
G00X58125Y-29257
M15
G01X58125Y-29493
M16
G05
T0
M30
