G04 #@! TF.GenerationSoftware,KiCad,Pcbnew,5.1.9+dfsg1-1*
G04 #@! TF.CreationDate,2021-12-17T14:02:51+01:00*
G04 #@! TF.ProjectId,okey65-pcb,6f6b6579-3635-42d7-9063-622e6b696361,rev?*
G04 #@! TF.SameCoordinates,Original*
G04 #@! TF.FileFunction,Soldermask,Top*
G04 #@! TF.FilePolarity,Negative*
%FSLAX46Y46*%
G04 Gerber Fmt 4.6, Leading zero omitted, Abs format (unit mm)*
G04 Created by KiCad (PCBNEW 5.1.9+dfsg1-1) date 2021-12-17 14:02:51*
%MOMM*%
%LPD*%
G01*
G04 APERTURE LIST*
%ADD10C,3.987800*%
%ADD11C,1.750000*%
%ADD12C,0.600000*%
%ADD13O,0.900000X1.700000*%
%ADD14O,0.900000X2.000000*%
%ADD15O,1.800000X2.400000*%
G04 APERTURE END LIST*
D10*
X71437500Y-41275000D03*
D11*
X76517500Y-41275000D03*
X66357500Y-41275000D03*
D10*
X166687500Y-79375000D03*
D11*
X171767500Y-79375000D03*
X161607500Y-79375000D03*
D10*
X90487500Y-79375000D03*
D11*
X95567500Y-79375000D03*
X85407500Y-79375000D03*
D10*
X71437500Y-79375000D03*
D11*
X76517500Y-79375000D03*
X66357500Y-79375000D03*
D10*
X71437500Y-60325000D03*
D11*
X76517500Y-60325000D03*
X66357500Y-60325000D03*
D10*
X261937500Y-117475000D03*
D11*
X267017500Y-117475000D03*
X256857500Y-117475000D03*
D10*
X242887500Y-117475000D03*
D11*
X247967500Y-117475000D03*
X237807500Y-117475000D03*
D10*
X223837500Y-117475000D03*
D11*
X228917500Y-117475000D03*
X218757500Y-117475000D03*
D10*
X204787500Y-117475000D03*
D11*
X209867500Y-117475000D03*
X199707500Y-117475000D03*
D10*
X185737500Y-117475000D03*
D11*
X190817500Y-117475000D03*
X180657500Y-117475000D03*
D10*
X166687500Y-117475000D03*
D11*
X171767500Y-117475000D03*
X161607500Y-117475000D03*
D10*
X147637500Y-117475000D03*
D11*
X152717500Y-117475000D03*
X142557500Y-117475000D03*
D10*
X128587500Y-117475000D03*
D11*
X133667500Y-117475000D03*
X123507500Y-117475000D03*
D10*
X109537500Y-117475000D03*
D11*
X114617500Y-117475000D03*
X104457500Y-117475000D03*
D10*
X90487500Y-117475000D03*
D11*
X95567500Y-117475000D03*
X85407500Y-117475000D03*
D10*
X71437500Y-117475000D03*
D11*
X76517500Y-117475000D03*
X66357500Y-117475000D03*
D10*
X52387500Y-117475000D03*
D11*
X57467500Y-117475000D03*
X47307500Y-117475000D03*
D10*
X33337500Y-117475000D03*
D11*
X38417500Y-117475000D03*
X28257500Y-117475000D03*
D10*
X261937500Y-98425000D03*
D11*
X267017500Y-98425000D03*
X256857500Y-98425000D03*
D10*
X242887500Y-98425000D03*
D11*
X247967500Y-98425000D03*
X237807500Y-98425000D03*
D10*
X223837500Y-98425000D03*
D11*
X228917500Y-98425000D03*
X218757500Y-98425000D03*
D10*
X204787500Y-98425000D03*
D11*
X209867500Y-98425000D03*
X199707500Y-98425000D03*
D10*
X185737500Y-98425000D03*
D11*
X190817500Y-98425000D03*
X180657500Y-98425000D03*
D10*
X166687500Y-98425000D03*
D11*
X171767500Y-98425000D03*
X161607500Y-98425000D03*
D10*
X147637500Y-98425000D03*
D11*
X152717500Y-98425000D03*
X142557500Y-98425000D03*
D10*
X128587500Y-98425000D03*
D11*
X133667500Y-98425000D03*
X123507500Y-98425000D03*
D10*
X109537500Y-98425000D03*
D11*
X114617500Y-98425000D03*
X104457500Y-98425000D03*
D10*
X90487500Y-98425000D03*
D11*
X95567500Y-98425000D03*
X85407500Y-98425000D03*
D10*
X71437500Y-98425000D03*
D11*
X76517500Y-98425000D03*
X66357500Y-98425000D03*
D10*
X52387500Y-98425000D03*
D11*
X57467500Y-98425000D03*
X47307500Y-98425000D03*
D10*
X33337500Y-98425000D03*
D11*
X38417500Y-98425000D03*
X28257500Y-98425000D03*
D10*
X261937500Y-79375000D03*
D11*
X267017500Y-79375000D03*
X256857500Y-79375000D03*
D10*
X242887500Y-79375000D03*
D11*
X247967500Y-79375000D03*
X237807500Y-79375000D03*
D10*
X223837500Y-79375000D03*
D11*
X228917500Y-79375000D03*
X218757500Y-79375000D03*
D10*
X204787500Y-79375000D03*
D11*
X209867500Y-79375000D03*
X199707500Y-79375000D03*
D10*
X185737500Y-79375000D03*
D11*
X190817500Y-79375000D03*
X180657500Y-79375000D03*
D10*
X147637500Y-79375000D03*
D11*
X152717500Y-79375000D03*
X142557500Y-79375000D03*
D10*
X128587500Y-79375000D03*
D11*
X133667500Y-79375000D03*
X123507500Y-79375000D03*
D10*
X109537500Y-79375000D03*
D11*
X114617500Y-79375000D03*
X104457500Y-79375000D03*
D10*
X52387500Y-79375000D03*
D11*
X57467500Y-79375000D03*
X47307500Y-79375000D03*
D10*
X33337500Y-79375000D03*
D11*
X38417500Y-79375000D03*
X28257500Y-79375000D03*
D10*
X261937500Y-60325000D03*
D11*
X267017500Y-60325000D03*
X256857500Y-60325000D03*
D10*
X242887500Y-60325000D03*
D11*
X247967500Y-60325000D03*
X237807500Y-60325000D03*
D10*
X223837500Y-60325000D03*
D11*
X228917500Y-60325000D03*
X218757500Y-60325000D03*
D10*
X204787500Y-60325000D03*
D11*
X209867500Y-60325000D03*
X199707500Y-60325000D03*
D10*
X185737500Y-60325000D03*
D11*
X190817500Y-60325000D03*
X180657500Y-60325000D03*
D10*
X166687500Y-60325000D03*
D11*
X171767500Y-60325000D03*
X161607500Y-60325000D03*
D10*
X147637500Y-60325000D03*
D11*
X152717500Y-60325000D03*
X142557500Y-60325000D03*
D10*
X128587500Y-60325000D03*
D11*
X133667500Y-60325000D03*
X123507500Y-60325000D03*
D10*
X109537500Y-60325000D03*
D11*
X114617500Y-60325000D03*
X104457500Y-60325000D03*
D10*
X90487500Y-60325000D03*
D11*
X95567500Y-60325000D03*
X85407500Y-60325000D03*
D10*
X52387500Y-60325000D03*
D11*
X57467500Y-60325000D03*
X47307500Y-60325000D03*
D10*
X33337500Y-60325000D03*
D11*
X38417500Y-60325000D03*
X28257500Y-60325000D03*
D10*
X261937500Y-41275000D03*
D11*
X267017500Y-41275000D03*
X256857500Y-41275000D03*
D10*
X242887500Y-41275000D03*
D11*
X247967500Y-41275000D03*
X237807500Y-41275000D03*
D10*
X223837500Y-41275000D03*
D11*
X228917500Y-41275000D03*
X218757500Y-41275000D03*
D10*
X204787500Y-41275000D03*
D11*
X209867500Y-41275000D03*
X199707500Y-41275000D03*
D10*
X185737500Y-41275000D03*
D11*
X190817500Y-41275000D03*
X180657500Y-41275000D03*
D10*
X166687500Y-41275000D03*
D11*
X171767500Y-41275000D03*
X161607500Y-41275000D03*
D10*
X147637500Y-41275000D03*
D11*
X152717500Y-41275000D03*
X142557500Y-41275000D03*
D10*
X128587500Y-41275000D03*
D11*
X133667500Y-41275000D03*
X123507500Y-41275000D03*
D10*
X109537500Y-41275000D03*
D11*
X114617500Y-41275000D03*
X104457500Y-41275000D03*
D10*
X90487500Y-41275000D03*
D11*
X95567500Y-41275000D03*
X85407500Y-41275000D03*
D10*
X52387500Y-41275000D03*
D11*
X57467500Y-41275000D03*
X47307500Y-41275000D03*
D10*
X33337500Y-41275000D03*
D11*
X38417500Y-41275000D03*
X28257500Y-41275000D03*
D12*
X59022500Y-33200000D03*
X64802500Y-33200000D03*
D13*
X66232500Y-29510000D03*
X57592500Y-29510000D03*
D14*
X66232500Y-33680000D03*
X57592500Y-33680000D03*
D15*
X147637500Y-74612500D03*
X33337500Y-93662500D03*
M02*
