M48
; DRILL file {KiCad 5.1.9+dfsg1-1} date Wed Dec 29 06:26:33 2021
; FORMAT={-:-/ absolute / metric / decimal}
; #@! TF.CreationDate,2021-12-29T06:26:33+01:00
; #@! TF.GenerationSoftware,Kicad,Pcbnew,5.1.9+dfsg1-1
; #@! TF.FileFunction,NonPlated,1,2,NPTH
FMAT,2
METRIC
T1C0.600
T2C1.750
T3C1.800
T4C3.988
%
G90
G05
T1
X59.023Y-31.676
X64.802Y-31.676
T2
X28.258Y-41.275
X28.258Y-60.325
X28.258Y-79.375
X28.258Y-98.425
X28.258Y-117.475
X38.417Y-41.275
X38.417Y-60.325
X38.417Y-79.375
X38.417Y-98.425
X38.417Y-117.475
X47.307Y-41.275
X47.307Y-60.325
X47.307Y-79.375
X47.307Y-98.425
X47.307Y-117.475
X57.467Y-41.275
X57.467Y-60.325
X57.467Y-79.375
X57.467Y-98.425
X57.467Y-117.475
X66.358Y-41.275
X66.358Y-60.325
X66.358Y-79.375
X66.358Y-98.425
X66.358Y-117.475
X76.517Y-41.275
X76.517Y-60.325
X76.517Y-79.375
X76.517Y-98.425
X76.517Y-117.475
X85.407Y-41.275
X85.407Y-60.325
X85.407Y-79.375
X85.407Y-98.425
X85.407Y-117.475
X95.567Y-41.275
X95.567Y-60.325
X95.567Y-79.375
X95.567Y-98.425
X95.567Y-117.475
X104.457Y-41.275
X104.457Y-60.325
X104.457Y-79.375
X104.457Y-98.425
X104.457Y-117.475
X114.617Y-41.275
X114.617Y-60.325
X114.617Y-79.375
X114.617Y-98.425
X114.617Y-117.475
X123.507Y-41.275
X123.507Y-60.325
X123.507Y-79.375
X123.507Y-98.425
X123.507Y-117.475
X133.667Y-41.275
X133.667Y-60.325
X133.667Y-79.375
X133.667Y-98.425
X133.667Y-117.475
X142.558Y-41.275
X142.558Y-60.325
X142.558Y-79.375
X142.558Y-98.425
X142.558Y-117.475
X152.718Y-41.275
X152.718Y-60.325
X152.718Y-79.375
X152.718Y-98.425
X152.718Y-117.475
X161.607Y-41.275
X161.607Y-60.325
X161.607Y-79.375
X161.607Y-98.425
X161.607Y-117.475
X171.767Y-41.275
X171.767Y-60.325
X171.767Y-79.375
X171.767Y-98.425
X171.767Y-117.475
X180.657Y-41.275
X180.657Y-60.325
X180.657Y-79.375
X180.657Y-98.425
X180.657Y-117.475
X190.817Y-41.275
X190.817Y-60.325
X190.817Y-79.375
X190.817Y-98.425
X190.817Y-117.475
X199.707Y-41.275
X199.707Y-60.325
X199.707Y-79.375
X199.707Y-98.425
X199.707Y-117.475
X209.867Y-41.275
X209.867Y-60.325
X209.867Y-79.375
X209.867Y-98.425
X209.867Y-117.475
X218.757Y-41.275
X218.757Y-60.325
X218.757Y-79.375
X218.757Y-98.425
X218.757Y-117.475
X228.917Y-41.275
X228.917Y-60.325
X228.917Y-79.375
X228.917Y-98.425
X228.917Y-117.475
X237.807Y-41.275
X237.807Y-60.325
X237.807Y-79.375
X237.807Y-98.425
X237.807Y-117.475
X247.968Y-41.275
X247.968Y-60.325
X247.968Y-79.375
X247.968Y-98.425
X247.968Y-117.475
X256.858Y-41.275
X256.858Y-60.325
X256.858Y-79.375
X256.858Y-98.425
X256.858Y-117.475
X267.017Y-41.275
X267.017Y-60.325
X267.017Y-79.375
X267.017Y-98.425
X267.017Y-117.475
T4
X33.337Y-41.275
X33.337Y-60.325
X33.337Y-79.375
X33.337Y-98.425
X33.337Y-117.475
X52.387Y-41.275
X52.387Y-60.325
X52.387Y-79.375
X52.387Y-98.425
X52.387Y-117.475
X71.438Y-41.275
X71.438Y-60.325
X71.438Y-79.375
X71.438Y-98.425
X71.438Y-117.475
X90.487Y-41.275
X90.487Y-60.325
X90.487Y-79.375
X90.487Y-98.425
X90.487Y-117.475
X109.537Y-41.275
X109.537Y-60.325
X109.537Y-79.375
X109.537Y-98.425
X109.537Y-117.475
X128.588Y-41.275
X128.588Y-60.325
X128.588Y-79.375
X128.588Y-98.425
X128.588Y-117.475
X147.637Y-41.275
X147.637Y-60.325
X147.637Y-79.375
X147.637Y-98.425
X147.637Y-117.475
X166.688Y-41.275
X166.688Y-60.325
X166.688Y-79.375
X166.688Y-98.425
X166.688Y-117.475
X185.737Y-41.275
X185.737Y-60.325
X185.737Y-79.375
X185.737Y-98.425
X185.737Y-117.475
X204.787Y-41.275
X204.787Y-60.325
X204.787Y-79.375
X204.787Y-98.425
X204.787Y-117.475
X223.837Y-41.275
X223.837Y-60.325
X223.837Y-79.375
X223.837Y-98.425
X223.837Y-117.475
X242.887Y-41.275
X242.887Y-60.325
X242.887Y-79.375
X242.887Y-98.425
X242.887Y-117.475
X261.938Y-41.275
X261.938Y-60.325
X261.938Y-79.375
X261.938Y-98.425
X261.938Y-117.475
T3
X33.337Y-93.362G85X33.337Y-93.962
G05
X147.637Y-74.312G85X147.637Y-74.912
G05
T0
M30
