G04 #@! TF.GenerationSoftware,KiCad,Pcbnew,5.1.9+dfsg1-1*
G04 #@! TF.CreationDate,2021-12-17T14:02:51+01:00*
G04 #@! TF.ProjectId,okey65-pcb,6f6b6579-3635-42d7-9063-622e6b696361,rev?*
G04 #@! TF.SameCoordinates,Original*
G04 #@! TF.FileFunction,Soldermask,Bot*
G04 #@! TF.FilePolarity,Negative*
%FSLAX46Y46*%
G04 Gerber Fmt 4.6, Leading zero omitted, Abs format (unit mm)*
G04 Created by KiCad (PCBNEW 5.1.9+dfsg1-1) date 2021-12-17 14:02:51*
%MOMM*%
%LPD*%
G01*
G04 APERTURE LIST*
%ADD10C,2.250000*%
%ADD11C,3.987800*%
%ADD12C,1.750000*%
%ADD13R,1.400000X1.200000*%
%ADD14R,0.550000X1.500000*%
%ADD15R,1.500000X0.550000*%
%ADD16R,1.800000X1.100000*%
%ADD17R,0.600000X1.160000*%
%ADD18C,0.600000*%
%ADD19R,0.300000X1.160000*%
%ADD20O,0.900000X1.700000*%
%ADD21O,0.900000X2.000000*%
%ADD22O,1.800000X2.400000*%
%ADD23R,1.200000X0.900000*%
%ADD24R,0.900000X1.200000*%
G04 APERTURE END LIST*
D10*
X68897500Y-46355000D03*
D11*
X71437500Y-41275000D03*
D10*
X75247500Y-43815000D03*
D12*
X76517500Y-41275000D03*
X66357500Y-41275000D03*
D10*
X164147500Y-84455000D03*
D11*
X166687500Y-79375000D03*
D10*
X170497500Y-81915000D03*
D12*
X171767500Y-79375000D03*
X161607500Y-79375000D03*
D10*
X87947500Y-84455000D03*
D11*
X90487500Y-79375000D03*
D10*
X94297500Y-81915000D03*
D12*
X95567500Y-79375000D03*
X85407500Y-79375000D03*
D10*
X68897500Y-84455000D03*
D11*
X71437500Y-79375000D03*
D10*
X75247500Y-81915000D03*
D12*
X76517500Y-79375000D03*
X66357500Y-79375000D03*
D10*
X68897500Y-65405000D03*
D11*
X71437500Y-60325000D03*
D10*
X75247500Y-62865000D03*
D12*
X76517500Y-60325000D03*
X66357500Y-60325000D03*
G36*
G01*
X59362500Y-53387500D02*
X58112500Y-53387500D01*
G75*
G02*
X57862500Y-53137500I0J250000D01*
G01*
X57862500Y-52387500D01*
G75*
G02*
X58112500Y-52137500I250000J0D01*
G01*
X59362500Y-52137500D01*
G75*
G02*
X59612500Y-52387500I0J-250000D01*
G01*
X59612500Y-53137500D01*
G75*
G02*
X59362500Y-53387500I-250000J0D01*
G01*
G37*
G36*
G01*
X59362500Y-56187500D02*
X58112500Y-56187500D01*
G75*
G02*
X57862500Y-55937500I0J250000D01*
G01*
X57862500Y-55187500D01*
G75*
G02*
X58112500Y-54937500I250000J0D01*
G01*
X59362500Y-54937500D01*
G75*
G02*
X59612500Y-55187500I0J-250000D01*
G01*
X59612500Y-55937500D01*
G75*
G02*
X59362500Y-56187500I-250000J0D01*
G01*
G37*
D13*
X84443750Y-55450000D03*
X82243750Y-55450000D03*
X82243750Y-57150000D03*
X84443750Y-57150000D03*
D14*
X76962500Y-77137500D03*
X77762500Y-77137500D03*
X78562500Y-77137500D03*
X79362500Y-77137500D03*
X80162500Y-77137500D03*
X80962500Y-77137500D03*
X81762500Y-77137500D03*
X82562500Y-77137500D03*
X83362500Y-77137500D03*
X84162500Y-77137500D03*
X84962500Y-77137500D03*
D15*
X86662500Y-75437500D03*
X86662500Y-74637500D03*
X86662500Y-73837500D03*
X86662500Y-73037500D03*
X86662500Y-72237500D03*
X86662500Y-71437500D03*
X86662500Y-70637500D03*
X86662500Y-69837500D03*
X86662500Y-69037500D03*
X86662500Y-68237500D03*
X86662500Y-67437500D03*
D14*
X84962500Y-65737500D03*
X84162500Y-65737500D03*
X83362500Y-65737500D03*
X82562500Y-65737500D03*
X81762500Y-65737500D03*
X80962500Y-65737500D03*
X80162500Y-65737500D03*
X79362500Y-65737500D03*
X78562500Y-65737500D03*
X77762500Y-65737500D03*
X76962500Y-65737500D03*
D15*
X75262500Y-67437500D03*
X75262500Y-68237500D03*
X75262500Y-69037500D03*
X75262500Y-69837500D03*
X75262500Y-70637500D03*
X75262500Y-71437500D03*
X75262500Y-72237500D03*
X75262500Y-73037500D03*
X75262500Y-73837500D03*
X75262500Y-74637500D03*
X75262500Y-75437500D03*
D16*
X72950000Y-51593750D03*
X66750000Y-55293750D03*
X72950000Y-55293750D03*
X66750000Y-51593750D03*
G36*
G01*
X154387500Y-75062501D02*
X154387500Y-74162499D01*
G75*
G02*
X154637499Y-73912500I249999J0D01*
G01*
X155162501Y-73912500D01*
G75*
G02*
X155412500Y-74162499I0J-249999D01*
G01*
X155412500Y-75062501D01*
G75*
G02*
X155162501Y-75312500I-249999J0D01*
G01*
X154637499Y-75312500D01*
G75*
G02*
X154387500Y-75062501I0J249999D01*
G01*
G37*
G36*
G01*
X152562500Y-75062501D02*
X152562500Y-74162499D01*
G75*
G02*
X152812499Y-73912500I249999J0D01*
G01*
X153337501Y-73912500D01*
G75*
G02*
X153587500Y-74162499I0J-249999D01*
G01*
X153587500Y-75062501D01*
G75*
G02*
X153337501Y-75312500I-249999J0D01*
G01*
X152812499Y-75312500D01*
G75*
G02*
X152562500Y-75062501I0J249999D01*
G01*
G37*
G36*
G01*
X67812499Y-36237500D02*
X68712501Y-36237500D01*
G75*
G02*
X68962500Y-36487499I0J-249999D01*
G01*
X68962500Y-37012501D01*
G75*
G02*
X68712501Y-37262500I-249999J0D01*
G01*
X67812499Y-37262500D01*
G75*
G02*
X67562500Y-37012501I0J249999D01*
G01*
X67562500Y-36487499D01*
G75*
G02*
X67812499Y-36237500I249999J0D01*
G01*
G37*
G36*
G01*
X67812499Y-34412500D02*
X68712501Y-34412500D01*
G75*
G02*
X68962500Y-34662499I0J-249999D01*
G01*
X68962500Y-35187501D01*
G75*
G02*
X68712501Y-35437500I-249999J0D01*
G01*
X67812499Y-35437500D01*
G75*
G02*
X67562500Y-35187501I0J249999D01*
G01*
X67562500Y-34662499D01*
G75*
G02*
X67812499Y-34412500I249999J0D01*
G01*
G37*
G36*
G01*
X55112499Y-36237500D02*
X56012501Y-36237500D01*
G75*
G02*
X56262500Y-36487499I0J-249999D01*
G01*
X56262500Y-37012501D01*
G75*
G02*
X56012501Y-37262500I-249999J0D01*
G01*
X55112499Y-37262500D01*
G75*
G02*
X54862500Y-37012501I0J249999D01*
G01*
X54862500Y-36487499D01*
G75*
G02*
X55112499Y-36237500I249999J0D01*
G01*
G37*
G36*
G01*
X55112499Y-34412500D02*
X56012501Y-34412500D01*
G75*
G02*
X56262500Y-34662499I0J-249999D01*
G01*
X56262500Y-35187501D01*
G75*
G02*
X56012501Y-35437500I-249999J0D01*
G01*
X55112499Y-35437500D01*
G75*
G02*
X54862500Y-35187501I0J249999D01*
G01*
X54862500Y-34662499D01*
G75*
G02*
X55112499Y-34412500I249999J0D01*
G01*
G37*
G36*
G01*
X40087500Y-94112501D02*
X40087500Y-93212499D01*
G75*
G02*
X40337499Y-92962500I249999J0D01*
G01*
X40862501Y-92962500D01*
G75*
G02*
X41112500Y-93212499I0J-249999D01*
G01*
X41112500Y-94112501D01*
G75*
G02*
X40862501Y-94362500I-249999J0D01*
G01*
X40337499Y-94362500D01*
G75*
G02*
X40087500Y-94112501I0J249999D01*
G01*
G37*
G36*
G01*
X38262500Y-94112501D02*
X38262500Y-93212499D01*
G75*
G02*
X38512499Y-92962500I249999J0D01*
G01*
X39037501Y-92962500D01*
G75*
G02*
X39287500Y-93212499I0J-249999D01*
G01*
X39287500Y-94112501D01*
G75*
G02*
X39037501Y-94362500I-249999J0D01*
G01*
X38512499Y-94362500D01*
G75*
G02*
X38262500Y-94112501I0J249999D01*
G01*
G37*
G36*
G01*
X86918750Y-82206251D02*
X86918750Y-81306249D01*
G75*
G02*
X87168749Y-81056250I249999J0D01*
G01*
X87693751Y-81056250D01*
G75*
G02*
X87943750Y-81306249I0J-249999D01*
G01*
X87943750Y-82206251D01*
G75*
G02*
X87693751Y-82456250I-249999J0D01*
G01*
X87168749Y-82456250D01*
G75*
G02*
X86918750Y-82206251I0J249999D01*
G01*
G37*
G36*
G01*
X85093750Y-82206251D02*
X85093750Y-81306249D01*
G75*
G02*
X85343749Y-81056250I249999J0D01*
G01*
X85868751Y-81056250D01*
G75*
G02*
X86118750Y-81306249I0J-249999D01*
G01*
X86118750Y-82206251D01*
G75*
G02*
X85868751Y-82456250I-249999J0D01*
G01*
X85343749Y-82456250D01*
G75*
G02*
X85093750Y-82206251I0J249999D01*
G01*
G37*
G36*
G01*
X60775001Y-44843750D02*
X59874999Y-44843750D01*
G75*
G02*
X59625000Y-44593751I0J249999D01*
G01*
X59625000Y-44068749D01*
G75*
G02*
X59874999Y-43818750I249999J0D01*
G01*
X60775001Y-43818750D01*
G75*
G02*
X61025000Y-44068749I0J-249999D01*
G01*
X61025000Y-44593751D01*
G75*
G02*
X60775001Y-44843750I-249999J0D01*
G01*
G37*
G36*
G01*
X60775001Y-46668750D02*
X59874999Y-46668750D01*
G75*
G02*
X59625000Y-46418751I0J249999D01*
G01*
X59625000Y-45893749D01*
G75*
G02*
X59874999Y-45643750I249999J0D01*
G01*
X60775001Y-45643750D01*
G75*
G02*
X61025000Y-45893749I0J-249999D01*
G01*
X61025000Y-46418751D01*
G75*
G02*
X60775001Y-46668750I-249999J0D01*
G01*
G37*
G36*
G01*
X63156251Y-44843750D02*
X62256249Y-44843750D01*
G75*
G02*
X62006250Y-44593751I0J249999D01*
G01*
X62006250Y-44068749D01*
G75*
G02*
X62256249Y-43818750I249999J0D01*
G01*
X63156251Y-43818750D01*
G75*
G02*
X63406250Y-44068749I0J-249999D01*
G01*
X63406250Y-44593751D01*
G75*
G02*
X63156251Y-44843750I-249999J0D01*
G01*
G37*
G36*
G01*
X63156251Y-46668750D02*
X62256249Y-46668750D01*
G75*
G02*
X62006250Y-46418751I0J249999D01*
G01*
X62006250Y-45893749D01*
G75*
G02*
X62256249Y-45643750I249999J0D01*
G01*
X63156251Y-45643750D01*
G75*
G02*
X63406250Y-45893749I0J-249999D01*
G01*
X63406250Y-46418751D01*
G75*
G02*
X63156251Y-46668750I-249999J0D01*
G01*
G37*
G36*
G01*
X67068750Y-57493749D02*
X67068750Y-58393751D01*
G75*
G02*
X66818751Y-58643750I-249999J0D01*
G01*
X66293749Y-58643750D01*
G75*
G02*
X66043750Y-58393751I0J249999D01*
G01*
X66043750Y-57493749D01*
G75*
G02*
X66293749Y-57243750I249999J0D01*
G01*
X66818751Y-57243750D01*
G75*
G02*
X67068750Y-57493749I0J-249999D01*
G01*
G37*
G36*
G01*
X68893750Y-57493749D02*
X68893750Y-58393751D01*
G75*
G02*
X68643751Y-58643750I-249999J0D01*
G01*
X68118749Y-58643750D01*
G75*
G02*
X67868750Y-58393751I0J249999D01*
G01*
X67868750Y-57493749D01*
G75*
G02*
X68118749Y-57243750I249999J0D01*
G01*
X68643751Y-57243750D01*
G75*
G02*
X68893750Y-57493749I0J-249999D01*
G01*
G37*
D10*
X259397500Y-122555000D03*
D11*
X261937500Y-117475000D03*
D10*
X265747500Y-120015000D03*
D12*
X267017500Y-117475000D03*
X256857500Y-117475000D03*
D10*
X240347500Y-122555000D03*
D11*
X242887500Y-117475000D03*
D10*
X246697500Y-120015000D03*
D12*
X247967500Y-117475000D03*
X237807500Y-117475000D03*
D10*
X221297500Y-122555000D03*
D11*
X223837500Y-117475000D03*
D10*
X227647500Y-120015000D03*
D12*
X228917500Y-117475000D03*
X218757500Y-117475000D03*
D10*
X202247500Y-122555000D03*
D11*
X204787500Y-117475000D03*
D10*
X208597500Y-120015000D03*
D12*
X209867500Y-117475000D03*
X199707500Y-117475000D03*
D10*
X183197500Y-122555000D03*
D11*
X185737500Y-117475000D03*
D10*
X189547500Y-120015000D03*
D12*
X190817500Y-117475000D03*
X180657500Y-117475000D03*
D10*
X164147500Y-122555000D03*
D11*
X166687500Y-117475000D03*
D10*
X170497500Y-120015000D03*
D12*
X171767500Y-117475000D03*
X161607500Y-117475000D03*
D10*
X145097500Y-122555000D03*
D11*
X147637500Y-117475000D03*
D10*
X151447500Y-120015000D03*
D12*
X152717500Y-117475000D03*
X142557500Y-117475000D03*
D10*
X126047500Y-122555000D03*
D11*
X128587500Y-117475000D03*
D10*
X132397500Y-120015000D03*
D12*
X133667500Y-117475000D03*
X123507500Y-117475000D03*
D10*
X106997500Y-122555000D03*
D11*
X109537500Y-117475000D03*
D10*
X113347500Y-120015000D03*
D12*
X114617500Y-117475000D03*
X104457500Y-117475000D03*
D10*
X87947500Y-122555000D03*
D11*
X90487500Y-117475000D03*
D10*
X94297500Y-120015000D03*
D12*
X95567500Y-117475000D03*
X85407500Y-117475000D03*
D10*
X68897500Y-122555000D03*
D11*
X71437500Y-117475000D03*
D10*
X75247500Y-120015000D03*
D12*
X76517500Y-117475000D03*
X66357500Y-117475000D03*
D10*
X49847500Y-122555000D03*
D11*
X52387500Y-117475000D03*
D10*
X56197500Y-120015000D03*
D12*
X57467500Y-117475000D03*
X47307500Y-117475000D03*
D10*
X30797500Y-122555000D03*
D11*
X33337500Y-117475000D03*
D10*
X37147500Y-120015000D03*
D12*
X38417500Y-117475000D03*
X28257500Y-117475000D03*
D10*
X259397500Y-103505000D03*
D11*
X261937500Y-98425000D03*
D10*
X265747500Y-100965000D03*
D12*
X267017500Y-98425000D03*
X256857500Y-98425000D03*
D10*
X240347500Y-103505000D03*
D11*
X242887500Y-98425000D03*
D10*
X246697500Y-100965000D03*
D12*
X247967500Y-98425000D03*
X237807500Y-98425000D03*
D10*
X221297500Y-103505000D03*
D11*
X223837500Y-98425000D03*
D10*
X227647500Y-100965000D03*
D12*
X228917500Y-98425000D03*
X218757500Y-98425000D03*
D10*
X202247500Y-103505000D03*
D11*
X204787500Y-98425000D03*
D10*
X208597500Y-100965000D03*
D12*
X209867500Y-98425000D03*
X199707500Y-98425000D03*
D10*
X183197500Y-103505000D03*
D11*
X185737500Y-98425000D03*
D10*
X189547500Y-100965000D03*
D12*
X190817500Y-98425000D03*
X180657500Y-98425000D03*
D10*
X164147500Y-103505000D03*
D11*
X166687500Y-98425000D03*
D10*
X170497500Y-100965000D03*
D12*
X171767500Y-98425000D03*
X161607500Y-98425000D03*
D10*
X145097500Y-103505000D03*
D11*
X147637500Y-98425000D03*
D10*
X151447500Y-100965000D03*
D12*
X152717500Y-98425000D03*
X142557500Y-98425000D03*
D10*
X126047500Y-103505000D03*
D11*
X128587500Y-98425000D03*
D10*
X132397500Y-100965000D03*
D12*
X133667500Y-98425000D03*
X123507500Y-98425000D03*
D10*
X106997500Y-103505000D03*
D11*
X109537500Y-98425000D03*
D10*
X113347500Y-100965000D03*
D12*
X114617500Y-98425000D03*
X104457500Y-98425000D03*
D10*
X87947500Y-103505000D03*
D11*
X90487500Y-98425000D03*
D10*
X94297500Y-100965000D03*
D12*
X95567500Y-98425000D03*
X85407500Y-98425000D03*
D10*
X68897500Y-103505000D03*
D11*
X71437500Y-98425000D03*
D10*
X75247500Y-100965000D03*
D12*
X76517500Y-98425000D03*
X66357500Y-98425000D03*
D10*
X49847500Y-103505000D03*
D11*
X52387500Y-98425000D03*
D10*
X56197500Y-100965000D03*
D12*
X57467500Y-98425000D03*
X47307500Y-98425000D03*
D10*
X30797500Y-103505000D03*
D11*
X33337500Y-98425000D03*
D10*
X37147500Y-100965000D03*
D12*
X38417500Y-98425000D03*
X28257500Y-98425000D03*
D10*
X259397500Y-84455000D03*
D11*
X261937500Y-79375000D03*
D10*
X265747500Y-81915000D03*
D12*
X267017500Y-79375000D03*
X256857500Y-79375000D03*
D10*
X240347500Y-84455000D03*
D11*
X242887500Y-79375000D03*
D10*
X246697500Y-81915000D03*
D12*
X247967500Y-79375000D03*
X237807500Y-79375000D03*
D10*
X221297500Y-84455000D03*
D11*
X223837500Y-79375000D03*
D10*
X227647500Y-81915000D03*
D12*
X228917500Y-79375000D03*
X218757500Y-79375000D03*
D10*
X202247500Y-84455000D03*
D11*
X204787500Y-79375000D03*
D10*
X208597500Y-81915000D03*
D12*
X209867500Y-79375000D03*
X199707500Y-79375000D03*
D10*
X183197500Y-84455000D03*
D11*
X185737500Y-79375000D03*
D10*
X189547500Y-81915000D03*
D12*
X190817500Y-79375000D03*
X180657500Y-79375000D03*
D10*
X145097500Y-84455000D03*
D11*
X147637500Y-79375000D03*
D10*
X151447500Y-81915000D03*
D12*
X152717500Y-79375000D03*
X142557500Y-79375000D03*
D10*
X126047500Y-84455000D03*
D11*
X128587500Y-79375000D03*
D10*
X132397500Y-81915000D03*
D12*
X133667500Y-79375000D03*
X123507500Y-79375000D03*
D10*
X106997500Y-84455000D03*
D11*
X109537500Y-79375000D03*
D10*
X113347500Y-81915000D03*
D12*
X114617500Y-79375000D03*
X104457500Y-79375000D03*
D10*
X49847500Y-84455000D03*
D11*
X52387500Y-79375000D03*
D10*
X56197500Y-81915000D03*
D12*
X57467500Y-79375000D03*
X47307500Y-79375000D03*
D10*
X30797500Y-84455000D03*
D11*
X33337500Y-79375000D03*
D10*
X37147500Y-81915000D03*
D12*
X38417500Y-79375000D03*
X28257500Y-79375000D03*
D10*
X259397500Y-65405000D03*
D11*
X261937500Y-60325000D03*
D10*
X265747500Y-62865000D03*
D12*
X267017500Y-60325000D03*
X256857500Y-60325000D03*
D10*
X240347500Y-65405000D03*
D11*
X242887500Y-60325000D03*
D10*
X246697500Y-62865000D03*
D12*
X247967500Y-60325000D03*
X237807500Y-60325000D03*
D10*
X221297500Y-65405000D03*
D11*
X223837500Y-60325000D03*
D10*
X227647500Y-62865000D03*
D12*
X228917500Y-60325000D03*
X218757500Y-60325000D03*
D10*
X202247500Y-65405000D03*
D11*
X204787500Y-60325000D03*
D10*
X208597500Y-62865000D03*
D12*
X209867500Y-60325000D03*
X199707500Y-60325000D03*
D10*
X183197500Y-65405000D03*
D11*
X185737500Y-60325000D03*
D10*
X189547500Y-62865000D03*
D12*
X190817500Y-60325000D03*
X180657500Y-60325000D03*
D10*
X164147500Y-65405000D03*
D11*
X166687500Y-60325000D03*
D10*
X170497500Y-62865000D03*
D12*
X171767500Y-60325000D03*
X161607500Y-60325000D03*
D10*
X145097500Y-65405000D03*
D11*
X147637500Y-60325000D03*
D10*
X151447500Y-62865000D03*
D12*
X152717500Y-60325000D03*
X142557500Y-60325000D03*
D10*
X126047500Y-65405000D03*
D11*
X128587500Y-60325000D03*
D10*
X132397500Y-62865000D03*
D12*
X133667500Y-60325000D03*
X123507500Y-60325000D03*
D10*
X106997500Y-65405000D03*
D11*
X109537500Y-60325000D03*
D10*
X113347500Y-62865000D03*
D12*
X114617500Y-60325000D03*
X104457500Y-60325000D03*
D10*
X87947500Y-65405000D03*
D11*
X90487500Y-60325000D03*
D10*
X94297500Y-62865000D03*
D12*
X95567500Y-60325000D03*
X85407500Y-60325000D03*
D10*
X49847500Y-65405000D03*
D11*
X52387500Y-60325000D03*
D10*
X56197500Y-62865000D03*
D12*
X57467500Y-60325000D03*
X47307500Y-60325000D03*
D10*
X30797500Y-65405000D03*
D11*
X33337500Y-60325000D03*
D10*
X37147500Y-62865000D03*
D12*
X38417500Y-60325000D03*
X28257500Y-60325000D03*
D10*
X259397500Y-46355000D03*
D11*
X261937500Y-41275000D03*
D10*
X265747500Y-43815000D03*
D12*
X267017500Y-41275000D03*
X256857500Y-41275000D03*
D10*
X240347500Y-46355000D03*
D11*
X242887500Y-41275000D03*
D10*
X246697500Y-43815000D03*
D12*
X247967500Y-41275000D03*
X237807500Y-41275000D03*
D10*
X221297500Y-46355000D03*
D11*
X223837500Y-41275000D03*
D10*
X227647500Y-43815000D03*
D12*
X228917500Y-41275000D03*
X218757500Y-41275000D03*
D10*
X202247500Y-46355000D03*
D11*
X204787500Y-41275000D03*
D10*
X208597500Y-43815000D03*
D12*
X209867500Y-41275000D03*
X199707500Y-41275000D03*
D10*
X183197500Y-46355000D03*
D11*
X185737500Y-41275000D03*
D10*
X189547500Y-43815000D03*
D12*
X190817500Y-41275000D03*
X180657500Y-41275000D03*
D10*
X164147500Y-46355000D03*
D11*
X166687500Y-41275000D03*
D10*
X170497500Y-43815000D03*
D12*
X171767500Y-41275000D03*
X161607500Y-41275000D03*
D10*
X145097500Y-46355000D03*
D11*
X147637500Y-41275000D03*
D10*
X151447500Y-43815000D03*
D12*
X152717500Y-41275000D03*
X142557500Y-41275000D03*
D10*
X126047500Y-46355000D03*
D11*
X128587500Y-41275000D03*
D10*
X132397500Y-43815000D03*
D12*
X133667500Y-41275000D03*
X123507500Y-41275000D03*
D10*
X106997500Y-46355000D03*
D11*
X109537500Y-41275000D03*
D10*
X113347500Y-43815000D03*
D12*
X114617500Y-41275000D03*
X104457500Y-41275000D03*
D10*
X87947500Y-46355000D03*
D11*
X90487500Y-41275000D03*
D10*
X94297500Y-43815000D03*
D12*
X95567500Y-41275000D03*
X85407500Y-41275000D03*
D10*
X49847500Y-46355000D03*
D11*
X52387500Y-41275000D03*
D10*
X56197500Y-43815000D03*
D12*
X57467500Y-41275000D03*
X47307500Y-41275000D03*
D10*
X30797500Y-46355000D03*
D11*
X33337500Y-41275000D03*
D10*
X37147500Y-43815000D03*
D12*
X38417500Y-41275000D03*
X28257500Y-41275000D03*
D17*
X65112500Y-34260000D03*
X64312500Y-34260000D03*
X65112500Y-34260000D03*
X64312500Y-34260000D03*
X58712500Y-34260000D03*
X58712500Y-34260000D03*
X59512500Y-34260000D03*
X59512500Y-34260000D03*
D18*
X59022500Y-33200000D03*
X64802500Y-33200000D03*
D19*
X63662500Y-34260000D03*
X62662500Y-34260000D03*
X63162500Y-34260000D03*
X60662500Y-34260000D03*
X60162500Y-34260000D03*
X62162500Y-34260000D03*
X61662500Y-34260000D03*
X61162500Y-34260000D03*
D20*
X66232500Y-29510000D03*
X57592500Y-29510000D03*
D21*
X66232500Y-33680000D03*
X57592500Y-33680000D03*
D22*
X147637500Y-74612500D03*
G36*
G01*
X148712500Y-75297500D02*
X148712500Y-73927500D01*
G75*
G02*
X148902500Y-73737500I190000J0D01*
G01*
X149472500Y-73737500D01*
G75*
G02*
X149662500Y-73927500I0J-190000D01*
G01*
X149662500Y-75297500D01*
G75*
G02*
X149472500Y-75487500I-190000J0D01*
G01*
X148902500Y-75487500D01*
G75*
G02*
X148712500Y-75297500I0J190000D01*
G01*
G37*
G36*
G01*
X145612500Y-75297500D02*
X145612500Y-73927500D01*
G75*
G02*
X145802500Y-73737500I190000J0D01*
G01*
X146372500Y-73737500D01*
G75*
G02*
X146562500Y-73927500I0J-190000D01*
G01*
X146562500Y-75297500D01*
G75*
G02*
X146372500Y-75487500I-190000J0D01*
G01*
X145802500Y-75487500D01*
G75*
G02*
X145612500Y-75297500I0J190000D01*
G01*
G37*
X33337500Y-93662500D03*
G36*
G01*
X34412500Y-94347500D02*
X34412500Y-92977500D01*
G75*
G02*
X34602500Y-92787500I190000J0D01*
G01*
X35172500Y-92787500D01*
G75*
G02*
X35362500Y-92977500I0J-190000D01*
G01*
X35362500Y-94347500D01*
G75*
G02*
X35172500Y-94537500I-190000J0D01*
G01*
X34602500Y-94537500D01*
G75*
G02*
X34412500Y-94347500I0J190000D01*
G01*
G37*
G36*
G01*
X31312500Y-94347500D02*
X31312500Y-92977500D01*
G75*
G02*
X31502500Y-92787500I190000J0D01*
G01*
X32072500Y-92787500D01*
G75*
G02*
X32262500Y-92977500I0J-190000D01*
G01*
X32262500Y-94347500D01*
G75*
G02*
X32072500Y-94537500I-190000J0D01*
G01*
X31502500Y-94537500D01*
G75*
G02*
X31312500Y-94347500I0J190000D01*
G01*
G37*
D23*
X254000000Y-119125000D03*
X254000000Y-115825000D03*
X234950000Y-119125000D03*
X234950000Y-115825000D03*
X215900000Y-119125000D03*
X215900000Y-115825000D03*
X196850000Y-119125000D03*
X196850000Y-115825000D03*
X177800000Y-119125000D03*
X177800000Y-115825000D03*
X158750000Y-119125000D03*
X158750000Y-115825000D03*
X139700000Y-119125000D03*
X139700000Y-115825000D03*
X120650000Y-119125000D03*
X120650000Y-115825000D03*
X101600000Y-119125000D03*
X101600000Y-115825000D03*
X82550000Y-119125000D03*
X82550000Y-115825000D03*
X63500000Y-119125000D03*
X63500000Y-115825000D03*
X44450000Y-119125000D03*
X44450000Y-115825000D03*
X25400000Y-119125000D03*
X25400000Y-115825000D03*
X254000000Y-100075000D03*
X254000000Y-96775000D03*
X234950000Y-100075000D03*
X234950000Y-96775000D03*
X215900000Y-100075000D03*
X215900000Y-96775000D03*
X196850000Y-100075000D03*
X196850000Y-96775000D03*
X177800000Y-100075000D03*
X177800000Y-96775000D03*
X158750000Y-100075000D03*
X158750000Y-96775000D03*
X139700000Y-100075000D03*
X139700000Y-96775000D03*
X120650000Y-100075000D03*
X120650000Y-96775000D03*
X101600000Y-100075000D03*
X101600000Y-96775000D03*
X82550000Y-100075000D03*
X82550000Y-96775000D03*
X63500000Y-100075000D03*
X63500000Y-96775000D03*
X44450000Y-100075000D03*
X44450000Y-96775000D03*
X25400000Y-100075000D03*
X25400000Y-96775000D03*
X254000000Y-81025000D03*
X254000000Y-77725000D03*
X234950000Y-81025000D03*
X234950000Y-77725000D03*
X215900000Y-81025000D03*
X215900000Y-77725000D03*
X196850000Y-81025000D03*
X196850000Y-77725000D03*
X177800000Y-81025000D03*
X177800000Y-77725000D03*
X158750000Y-81025000D03*
X158750000Y-77725000D03*
X139700000Y-81025000D03*
X139700000Y-77725000D03*
X120650000Y-81025000D03*
X120650000Y-77725000D03*
X101600000Y-81025000D03*
X101600000Y-77725000D03*
X98425000Y-81025000D03*
X98425000Y-77725000D03*
X63500000Y-81025000D03*
X63500000Y-77725000D03*
X44450000Y-81025000D03*
X44450000Y-77725000D03*
X25400000Y-81025000D03*
X25400000Y-77725000D03*
X254000000Y-61975000D03*
X254000000Y-58675000D03*
X234950000Y-61975000D03*
X234950000Y-58675000D03*
X215900000Y-61975000D03*
X215900000Y-58675000D03*
X196850000Y-61975000D03*
X196850000Y-58675000D03*
X177800000Y-61975000D03*
X177800000Y-58675000D03*
X158750000Y-61975000D03*
X158750000Y-58675000D03*
X139700000Y-61975000D03*
X139700000Y-58675000D03*
X120650000Y-61975000D03*
X120650000Y-58675000D03*
X101600000Y-61975000D03*
X101600000Y-58675000D03*
X98425000Y-61975000D03*
X98425000Y-58675000D03*
D24*
X66737500Y-63500000D03*
X63437500Y-63500000D03*
D23*
X44450000Y-61975000D03*
X44450000Y-58675000D03*
X25400000Y-61975000D03*
X25400000Y-58675000D03*
X254000000Y-42925000D03*
X254000000Y-39625000D03*
X234950000Y-42925000D03*
X234950000Y-39625000D03*
X215900000Y-42925000D03*
X215900000Y-39625000D03*
X196850000Y-42925000D03*
X196850000Y-39625000D03*
X177800000Y-42925000D03*
X177800000Y-39625000D03*
X158750000Y-42925000D03*
X158750000Y-39625000D03*
X139700000Y-42925000D03*
X139700000Y-39625000D03*
X120650000Y-42925000D03*
X120650000Y-39625000D03*
X101600000Y-42925000D03*
X101600000Y-39625000D03*
X82550000Y-42925000D03*
X82550000Y-39625000D03*
X79375000Y-42925000D03*
X79375000Y-39625000D03*
X44450000Y-42925000D03*
X44450000Y-39625000D03*
X25400000Y-42925000D03*
X25400000Y-39625000D03*
G36*
G01*
X68359000Y-71443000D02*
X69309000Y-71443000D01*
G75*
G02*
X69559000Y-71693000I0J-250000D01*
G01*
X69559000Y-72193000D01*
G75*
G02*
X69309000Y-72443000I-250000J0D01*
G01*
X68359000Y-72443000D01*
G75*
G02*
X68109000Y-72193000I0J250000D01*
G01*
X68109000Y-71693000D01*
G75*
G02*
X68359000Y-71443000I250000J0D01*
G01*
G37*
G36*
G01*
X68359000Y-69543000D02*
X69309000Y-69543000D01*
G75*
G02*
X69559000Y-69793000I0J-250000D01*
G01*
X69559000Y-70293000D01*
G75*
G02*
X69309000Y-70543000I-250000J0D01*
G01*
X68359000Y-70543000D01*
G75*
G02*
X68109000Y-70293000I0J250000D01*
G01*
X68109000Y-69793000D01*
G75*
G02*
X68359000Y-69543000I250000J0D01*
G01*
G37*
G36*
G01*
X75543750Y-85406250D02*
X75543750Y-84456250D01*
G75*
G02*
X75793750Y-84206250I250000J0D01*
G01*
X76293750Y-84206250D01*
G75*
G02*
X76543750Y-84456250I0J-250000D01*
G01*
X76543750Y-85406250D01*
G75*
G02*
X76293750Y-85656250I-250000J0D01*
G01*
X75793750Y-85656250D01*
G75*
G02*
X75543750Y-85406250I0J250000D01*
G01*
G37*
G36*
G01*
X77443750Y-85406250D02*
X77443750Y-84456250D01*
G75*
G02*
X77693750Y-84206250I250000J0D01*
G01*
X78193750Y-84206250D01*
G75*
G02*
X78443750Y-84456250I0J-250000D01*
G01*
X78443750Y-85406250D01*
G75*
G02*
X78193750Y-85656250I-250000J0D01*
G01*
X77693750Y-85656250D01*
G75*
G02*
X77443750Y-85406250I0J250000D01*
G01*
G37*
G36*
G01*
X91756250Y-68918750D02*
X90806250Y-68918750D01*
G75*
G02*
X90556250Y-68668750I0J250000D01*
G01*
X90556250Y-68168750D01*
G75*
G02*
X90806250Y-67918750I250000J0D01*
G01*
X91756250Y-67918750D01*
G75*
G02*
X92006250Y-68168750I0J-250000D01*
G01*
X92006250Y-68668750D01*
G75*
G02*
X91756250Y-68918750I-250000J0D01*
G01*
G37*
G36*
G01*
X91756250Y-67018750D02*
X90806250Y-67018750D01*
G75*
G02*
X90556250Y-66768750I0J250000D01*
G01*
X90556250Y-66268750D01*
G75*
G02*
X90806250Y-66018750I250000J0D01*
G01*
X91756250Y-66018750D01*
G75*
G02*
X92006250Y-66268750I0J-250000D01*
G01*
X92006250Y-66768750D01*
G75*
G02*
X91756250Y-67018750I-250000J0D01*
G01*
G37*
G36*
G01*
X73956250Y-58418750D02*
X73956250Y-57468750D01*
G75*
G02*
X74206250Y-57218750I250000J0D01*
G01*
X74706250Y-57218750D01*
G75*
G02*
X74956250Y-57468750I0J-250000D01*
G01*
X74956250Y-58418750D01*
G75*
G02*
X74706250Y-58668750I-250000J0D01*
G01*
X74206250Y-58668750D01*
G75*
G02*
X73956250Y-58418750I0J250000D01*
G01*
G37*
G36*
G01*
X75856250Y-58418750D02*
X75856250Y-57468750D01*
G75*
G02*
X76106250Y-57218750I250000J0D01*
G01*
X76606250Y-57218750D01*
G75*
G02*
X76856250Y-57468750I0J-250000D01*
G01*
X76856250Y-58418750D01*
G75*
G02*
X76606250Y-58668750I-250000J0D01*
G01*
X76106250Y-58668750D01*
G75*
G02*
X75856250Y-58418750I0J250000D01*
G01*
G37*
G36*
G01*
X70962500Y-70143750D02*
X71912500Y-70143750D01*
G75*
G02*
X72162500Y-70393750I0J-250000D01*
G01*
X72162500Y-70893750D01*
G75*
G02*
X71912500Y-71143750I-250000J0D01*
G01*
X70962500Y-71143750D01*
G75*
G02*
X70712500Y-70893750I0J250000D01*
G01*
X70712500Y-70393750D01*
G75*
G02*
X70962500Y-70143750I250000J0D01*
G01*
G37*
G36*
G01*
X70962500Y-68243750D02*
X71912500Y-68243750D01*
G75*
G02*
X72162500Y-68493750I0J-250000D01*
G01*
X72162500Y-68993750D01*
G75*
G02*
X71912500Y-69243750I-250000J0D01*
G01*
X70962500Y-69243750D01*
G75*
G02*
X70712500Y-68993750I0J250000D01*
G01*
X70712500Y-68493750D01*
G75*
G02*
X70962500Y-68243750I250000J0D01*
G01*
G37*
G36*
G01*
X79850000Y-55906250D02*
X78900000Y-55906250D01*
G75*
G02*
X78650000Y-55656250I0J250000D01*
G01*
X78650000Y-55156250D01*
G75*
G02*
X78900000Y-54906250I250000J0D01*
G01*
X79850000Y-54906250D01*
G75*
G02*
X80100000Y-55156250I0J-250000D01*
G01*
X80100000Y-55656250D01*
G75*
G02*
X79850000Y-55906250I-250000J0D01*
G01*
G37*
G36*
G01*
X79850000Y-57806250D02*
X78900000Y-57806250D01*
G75*
G02*
X78650000Y-57556250I0J250000D01*
G01*
X78650000Y-57056250D01*
G75*
G02*
X78900000Y-56806250I250000J0D01*
G01*
X79850000Y-56806250D01*
G75*
G02*
X80100000Y-57056250I0J-250000D01*
G01*
X80100000Y-57556250D01*
G75*
G02*
X79850000Y-57806250I-250000J0D01*
G01*
G37*
G36*
G01*
X87787500Y-55906250D02*
X86837500Y-55906250D01*
G75*
G02*
X86587500Y-55656250I0J250000D01*
G01*
X86587500Y-55156250D01*
G75*
G02*
X86837500Y-54906250I250000J0D01*
G01*
X87787500Y-54906250D01*
G75*
G02*
X88037500Y-55156250I0J-250000D01*
G01*
X88037500Y-55656250D01*
G75*
G02*
X87787500Y-55906250I-250000J0D01*
G01*
G37*
G36*
G01*
X87787500Y-57806250D02*
X86837500Y-57806250D01*
G75*
G02*
X86587500Y-57556250I0J250000D01*
G01*
X86587500Y-57056250D01*
G75*
G02*
X86837500Y-56806250I250000J0D01*
G01*
X87787500Y-56806250D01*
G75*
G02*
X88037500Y-57056250I0J-250000D01*
G01*
X88037500Y-57556250D01*
G75*
G02*
X87787500Y-57806250I-250000J0D01*
G01*
G37*
M02*
