G04 #@! TF.GenerationSoftware,KiCad,Pcbnew,5.1.9+dfsg1-1*
G04 #@! TF.CreationDate,2021-12-29T06:26:28+01:00*
G04 #@! TF.ProjectId,okey65-pcb,6f6b6579-3635-42d7-9063-622e6b696361,rev?*
G04 #@! TF.SameCoordinates,Original*
G04 #@! TF.FileFunction,Legend,Bot*
G04 #@! TF.FilePolarity,Positive*
%FSLAX46Y46*%
G04 Gerber Fmt 4.6, Leading zero omitted, Abs format (unit mm)*
G04 Created by KiCad (PCBNEW 5.1.9+dfsg1-1) date 2021-12-29 06:26:28*
%MOMM*%
%LPD*%
G01*
G04 APERTURE LIST*
%ADD10C,0.300000*%
%ADD11C,0.500000*%
%ADD12C,0.120000*%
%ADD13C,0.150000*%
%ADD14C,2.250000*%
%ADD15C,3.987800*%
%ADD16C,1.750000*%
%ADD17R,0.700000X1.000000*%
%ADD18R,0.700000X0.600000*%
%ADD19R,1.400000X1.200000*%
%ADD20R,0.550000X1.500000*%
%ADD21R,1.500000X0.550000*%
%ADD22R,1.800000X1.100000*%
%ADD23R,0.600000X1.160000*%
%ADD24C,0.600000*%
%ADD25R,0.300000X1.160000*%
%ADD26O,0.900000X1.700000*%
%ADD27O,0.900000X2.000000*%
%ADD28O,1.800000X2.400000*%
%ADD29R,1.200000X0.900000*%
%ADD30R,0.900000X1.200000*%
G04 APERTURE END LIST*
D10*
X215470761Y-110124761D02*
X215470761Y-108791428D01*
X215470761Y-109172380D02*
X215375523Y-108981904D01*
X215280285Y-108886666D01*
X215089809Y-108791428D01*
X214899333Y-108791428D01*
X213470761Y-110029523D02*
X213661238Y-110124761D01*
X214042190Y-110124761D01*
X214232666Y-110029523D01*
X214327904Y-109839047D01*
X214327904Y-109077142D01*
X214232666Y-108886666D01*
X214042190Y-108791428D01*
X213661238Y-108791428D01*
X213470761Y-108886666D01*
X213375523Y-109077142D01*
X213375523Y-109267619D01*
X214327904Y-109458095D01*
X212708857Y-108791428D02*
X212232666Y-110124761D01*
X211756476Y-108791428D01*
X208423142Y-110124761D02*
X209566000Y-110124761D01*
X208994571Y-110124761D02*
X208994571Y-108124761D01*
X209185047Y-108410476D01*
X209375523Y-108600952D01*
X209566000Y-108696190D01*
X207566000Y-109934285D02*
X207470761Y-110029523D01*
X207566000Y-110124761D01*
X207661238Y-110029523D01*
X207566000Y-109934285D01*
X207566000Y-110124761D01*
X206232666Y-108124761D02*
X206042190Y-108124761D01*
X205851714Y-108220000D01*
X205756476Y-108315238D01*
X205661238Y-108505714D01*
X205566000Y-108886666D01*
X205566000Y-109362857D01*
X205661238Y-109743809D01*
X205756476Y-109934285D01*
X205851714Y-110029523D01*
X206042190Y-110124761D01*
X206232666Y-110124761D01*
X206423142Y-110029523D01*
X206518380Y-109934285D01*
X206613619Y-109743809D01*
X206708857Y-109362857D01*
X206708857Y-108886666D01*
X206613619Y-108505714D01*
X206518380Y-108315238D01*
X206423142Y-108220000D01*
X206232666Y-108124761D01*
X98072428Y-109870761D02*
X98072428Y-107870761D01*
X97215285Y-109870761D02*
X97215285Y-108823142D01*
X97310523Y-108632666D01*
X97501000Y-108537428D01*
X97786714Y-108537428D01*
X97977190Y-108632666D01*
X98072428Y-108727904D01*
X96548619Y-108537428D02*
X95786714Y-108537428D01*
X96262904Y-107870761D02*
X96262904Y-109585047D01*
X96167666Y-109775523D01*
X95977190Y-109870761D01*
X95786714Y-109870761D01*
X95405761Y-108537428D02*
X94643857Y-108537428D01*
X95120047Y-107870761D02*
X95120047Y-109585047D01*
X95024809Y-109775523D01*
X94834333Y-109870761D01*
X94643857Y-109870761D01*
X93977190Y-108537428D02*
X93977190Y-110537428D01*
X93977190Y-108632666D02*
X93786714Y-108537428D01*
X93405761Y-108537428D01*
X93215285Y-108632666D01*
X93120047Y-108727904D01*
X93024809Y-108918380D01*
X93024809Y-109489809D01*
X93120047Y-109680285D01*
X93215285Y-109775523D01*
X93405761Y-109870761D01*
X93786714Y-109870761D01*
X93977190Y-109775523D01*
X92262904Y-109775523D02*
X92072428Y-109870761D01*
X91691476Y-109870761D01*
X91501000Y-109775523D01*
X91405761Y-109585047D01*
X91405761Y-109489809D01*
X91501000Y-109299333D01*
X91691476Y-109204095D01*
X91977190Y-109204095D01*
X92167666Y-109108857D01*
X92262904Y-108918380D01*
X92262904Y-108823142D01*
X92167666Y-108632666D01*
X91977190Y-108537428D01*
X91691476Y-108537428D01*
X91501000Y-108632666D01*
X90548619Y-109680285D02*
X90453380Y-109775523D01*
X90548619Y-109870761D01*
X90643857Y-109775523D01*
X90548619Y-109680285D01*
X90548619Y-109870761D01*
X90548619Y-108632666D02*
X90453380Y-108727904D01*
X90548619Y-108823142D01*
X90643857Y-108727904D01*
X90548619Y-108632666D01*
X90548619Y-108823142D01*
X88167666Y-107775523D02*
X89881952Y-110346952D01*
X86072428Y-107775523D02*
X87786714Y-110346952D01*
X84548619Y-108537428D02*
X84548619Y-110156476D01*
X84643857Y-110346952D01*
X84739095Y-110442190D01*
X84929571Y-110537428D01*
X85215285Y-110537428D01*
X85405761Y-110442190D01*
X84548619Y-109775523D02*
X84739095Y-109870761D01*
X85120047Y-109870761D01*
X85310523Y-109775523D01*
X85405761Y-109680285D01*
X85501000Y-109489809D01*
X85501000Y-108918380D01*
X85405761Y-108727904D01*
X85310523Y-108632666D01*
X85120047Y-108537428D01*
X84739095Y-108537428D01*
X84548619Y-108632666D01*
X83596238Y-109870761D02*
X83596238Y-108537428D01*
X83596238Y-107870761D02*
X83691476Y-107966000D01*
X83596238Y-108061238D01*
X83501000Y-107966000D01*
X83596238Y-107870761D01*
X83596238Y-108061238D01*
X82929571Y-108537428D02*
X82167666Y-108537428D01*
X82643857Y-107870761D02*
X82643857Y-109585047D01*
X82548619Y-109775523D01*
X82358142Y-109870761D01*
X82167666Y-109870761D01*
X81501000Y-109870761D02*
X81501000Y-107870761D01*
X80643857Y-109870761D02*
X80643857Y-108823142D01*
X80739095Y-108632666D01*
X80929571Y-108537428D01*
X81215285Y-108537428D01*
X81405761Y-108632666D01*
X81501000Y-108727904D01*
X78834333Y-108537428D02*
X78834333Y-109870761D01*
X79691476Y-108537428D02*
X79691476Y-109585047D01*
X79596238Y-109775523D01*
X79405761Y-109870761D01*
X79120047Y-109870761D01*
X78929571Y-109775523D01*
X78834333Y-109680285D01*
X77881952Y-109870761D02*
X77881952Y-107870761D01*
X77881952Y-108632666D02*
X77691476Y-108537428D01*
X77310523Y-108537428D01*
X77120047Y-108632666D01*
X77024809Y-108727904D01*
X76929571Y-108918380D01*
X76929571Y-109489809D01*
X77024809Y-109680285D01*
X77120047Y-109775523D01*
X77310523Y-109870761D01*
X77691476Y-109870761D01*
X77881952Y-109775523D01*
X76072428Y-109680285D02*
X75977190Y-109775523D01*
X76072428Y-109870761D01*
X76167666Y-109775523D01*
X76072428Y-109680285D01*
X76072428Y-109870761D01*
X74262904Y-109775523D02*
X74453380Y-109870761D01*
X74834333Y-109870761D01*
X75024809Y-109775523D01*
X75120047Y-109680285D01*
X75215285Y-109489809D01*
X75215285Y-108918380D01*
X75120047Y-108727904D01*
X75024809Y-108632666D01*
X74834333Y-108537428D01*
X74453380Y-108537428D01*
X74262904Y-108632666D01*
X73120047Y-109870761D02*
X73310523Y-109775523D01*
X73405761Y-109680285D01*
X73501000Y-109489809D01*
X73501000Y-108918380D01*
X73405761Y-108727904D01*
X73310523Y-108632666D01*
X73120047Y-108537428D01*
X72834333Y-108537428D01*
X72643857Y-108632666D01*
X72548619Y-108727904D01*
X72453380Y-108918380D01*
X72453380Y-109489809D01*
X72548619Y-109680285D01*
X72643857Y-109775523D01*
X72834333Y-109870761D01*
X73120047Y-109870761D01*
X71596238Y-109870761D02*
X71596238Y-108537428D01*
X71596238Y-108727904D02*
X71501000Y-108632666D01*
X71310523Y-108537428D01*
X71024809Y-108537428D01*
X70834333Y-108632666D01*
X70739095Y-108823142D01*
X70739095Y-109870761D01*
X70739095Y-108823142D02*
X70643857Y-108632666D01*
X70453380Y-108537428D01*
X70167666Y-108537428D01*
X69977190Y-108632666D01*
X69881952Y-108823142D01*
X69881952Y-109870761D01*
X67501000Y-107775523D02*
X69215285Y-110346952D01*
X66834333Y-109870761D02*
X66834333Y-107870761D01*
X66643857Y-109108857D02*
X66072428Y-109870761D01*
X66072428Y-108537428D02*
X66834333Y-109299333D01*
X65215285Y-109870761D02*
X65215285Y-108537428D01*
X65215285Y-107870761D02*
X65310523Y-107966000D01*
X65215285Y-108061238D01*
X65120047Y-107966000D01*
X65215285Y-107870761D01*
X65215285Y-108061238D01*
X64262904Y-109870761D02*
X64262904Y-107870761D01*
X64072428Y-109108857D02*
X63501000Y-109870761D01*
X63501000Y-108537428D02*
X64262904Y-109299333D01*
X62739095Y-109775523D02*
X62548619Y-109870761D01*
X62167666Y-109870761D01*
X61977190Y-109775523D01*
X61881952Y-109585047D01*
X61881952Y-109489809D01*
X61977190Y-109299333D01*
X62167666Y-109204095D01*
X62453380Y-109204095D01*
X62643857Y-109108857D01*
X62739095Y-108918380D01*
X62739095Y-108823142D01*
X62643857Y-108632666D01*
X62453380Y-108537428D01*
X62167666Y-108537428D01*
X61977190Y-108632666D01*
X60167666Y-107870761D02*
X60548619Y-107870761D01*
X60739095Y-107966000D01*
X60834333Y-108061238D01*
X61024809Y-108346952D01*
X61120047Y-108727904D01*
X61120047Y-109489809D01*
X61024809Y-109680285D01*
X60929571Y-109775523D01*
X60739095Y-109870761D01*
X60358142Y-109870761D01*
X60167666Y-109775523D01*
X60072428Y-109680285D01*
X59977190Y-109489809D01*
X59977190Y-109013619D01*
X60072428Y-108823142D01*
X60167666Y-108727904D01*
X60358142Y-108632666D01*
X60739095Y-108632666D01*
X60929571Y-108727904D01*
X61024809Y-108823142D01*
X61120047Y-109013619D01*
X58262904Y-108537428D02*
X58262904Y-109870761D01*
X58739095Y-107775523D02*
X59215285Y-109204095D01*
X57977190Y-109204095D01*
X55786714Y-107775523D02*
X57501000Y-110346952D01*
X54739095Y-107870761D02*
X54358142Y-107870761D01*
X54167666Y-107966000D01*
X53977190Y-108156476D01*
X53881952Y-108537428D01*
X53881952Y-109204095D01*
X53977190Y-109585047D01*
X54167666Y-109775523D01*
X54358142Y-109870761D01*
X54739095Y-109870761D01*
X54929571Y-109775523D01*
X55120047Y-109585047D01*
X55215285Y-109204095D01*
X55215285Y-108537428D01*
X55120047Y-108156476D01*
X54929571Y-107966000D01*
X54739095Y-107870761D01*
X53024809Y-109870761D02*
X53024809Y-107870761D01*
X51881952Y-109870761D02*
X52739095Y-108727904D01*
X51881952Y-107870761D02*
X53024809Y-109013619D01*
X50262904Y-109775523D02*
X50453380Y-109870761D01*
X50834333Y-109870761D01*
X51024809Y-109775523D01*
X51120047Y-109585047D01*
X51120047Y-108823142D01*
X51024809Y-108632666D01*
X50834333Y-108537428D01*
X50453380Y-108537428D01*
X50262904Y-108632666D01*
X50167666Y-108823142D01*
X50167666Y-109013619D01*
X51120047Y-109204095D01*
X49501000Y-108537428D02*
X49024809Y-109870761D01*
X48548619Y-108537428D02*
X49024809Y-109870761D01*
X49215285Y-110346952D01*
X49310523Y-110442190D01*
X49501000Y-110537428D01*
X46929571Y-107870761D02*
X47310523Y-107870761D01*
X47501000Y-107966000D01*
X47596238Y-108061238D01*
X47786714Y-108346952D01*
X47881952Y-108727904D01*
X47881952Y-109489809D01*
X47786714Y-109680285D01*
X47691476Y-109775523D01*
X47501000Y-109870761D01*
X47120047Y-109870761D01*
X46929571Y-109775523D01*
X46834333Y-109680285D01*
X46739095Y-109489809D01*
X46739095Y-109013619D01*
X46834333Y-108823142D01*
X46929571Y-108727904D01*
X47120047Y-108632666D01*
X47501000Y-108632666D01*
X47691476Y-108727904D01*
X47786714Y-108823142D01*
X47881952Y-109013619D01*
X44929571Y-107870761D02*
X45881952Y-107870761D01*
X45977190Y-108823142D01*
X45881952Y-108727904D01*
X45691476Y-108632666D01*
X45215285Y-108632666D01*
X45024809Y-108727904D01*
X44929571Y-108823142D01*
X44834333Y-109013619D01*
X44834333Y-109489809D01*
X44929571Y-109680285D01*
X45024809Y-109775523D01*
X45215285Y-109870761D01*
X45691476Y-109870761D01*
X45881952Y-109775523D01*
X45977190Y-109680285D01*
X154464208Y-110315238D02*
X154642779Y-110220000D01*
X154809446Y-110029523D01*
X155059446Y-109743809D01*
X155238017Y-109648571D01*
X155428494Y-109648571D01*
X155392779Y-110124761D02*
X155571351Y-110029523D01*
X155738017Y-109839047D01*
X155785636Y-109458095D01*
X155702303Y-108791428D01*
X155559446Y-108410476D01*
X155345160Y-108220000D01*
X155142779Y-108124761D01*
X154761827Y-108124761D01*
X154583255Y-108220000D01*
X154416589Y-108410476D01*
X154368970Y-108791428D01*
X154452303Y-109458095D01*
X154595160Y-109839047D01*
X154809446Y-110029523D01*
X155011827Y-110124761D01*
X155392779Y-110124761D01*
X153678494Y-110124761D02*
X153428494Y-108124761D01*
X152940398Y-109553333D01*
X152095160Y-108124761D01*
X152345160Y-110124761D01*
X151392779Y-110124761D02*
X151142779Y-108124761D01*
X150249922Y-110124761D02*
X150964208Y-108981904D01*
X149999922Y-108124761D02*
X151285636Y-109267619D01*
X147988017Y-108791428D02*
X147226113Y-108791428D01*
X147868970Y-110124761D02*
X147654684Y-108410476D01*
X147535636Y-108220000D01*
X147333255Y-108124761D01*
X147142779Y-108124761D01*
X146726113Y-110124761D02*
X146559446Y-108791428D01*
X146476113Y-108124761D02*
X146583255Y-108220000D01*
X146499922Y-108315238D01*
X146392779Y-108220000D01*
X146476113Y-108124761D01*
X146499922Y-108315238D01*
X145773732Y-110124761D02*
X145607065Y-108791428D01*
X145654684Y-109172380D02*
X145535636Y-108981904D01*
X145428494Y-108886666D01*
X145226113Y-108791428D01*
X145035636Y-108791428D01*
X144535636Y-110124761D02*
X144368970Y-108791428D01*
X144392779Y-108981904D02*
X144285636Y-108886666D01*
X144083255Y-108791428D01*
X143797541Y-108791428D01*
X143618970Y-108886666D01*
X143547541Y-109077142D01*
X143678494Y-110124761D01*
X143547541Y-109077142D02*
X143428494Y-108886666D01*
X143226113Y-108791428D01*
X142940398Y-108791428D01*
X142761827Y-108886666D01*
X142690398Y-109077142D01*
X142821351Y-110124761D01*
X141892779Y-108791428D02*
X141678494Y-110124761D01*
X141178494Y-109172380D01*
X140916589Y-110124761D01*
X140368970Y-108791428D01*
X138916589Y-110124761D02*
X138785636Y-109077142D01*
X138857065Y-108886666D01*
X139035636Y-108791428D01*
X139416589Y-108791428D01*
X139618970Y-108886666D01*
X138904684Y-110029523D02*
X139107065Y-110124761D01*
X139583255Y-110124761D01*
X139761827Y-110029523D01*
X139833255Y-109839047D01*
X139809446Y-109648571D01*
X139690398Y-109458095D01*
X139488017Y-109362857D01*
X139011827Y-109362857D01*
X138809446Y-109267619D01*
X137964208Y-110124761D02*
X137797541Y-108791428D01*
X137845160Y-109172380D02*
X137726113Y-108981904D01*
X137618970Y-108886666D01*
X137416589Y-108791428D01*
X137226113Y-108791428D01*
X135952303Y-110029523D02*
X136154684Y-110124761D01*
X136535636Y-110124761D01*
X136714208Y-110029523D01*
X136785636Y-109839047D01*
X136690398Y-109077142D01*
X136571351Y-108886666D01*
X136368970Y-108791428D01*
X135988017Y-108791428D01*
X135809446Y-108886666D01*
X135738017Y-109077142D01*
X135761827Y-109267619D01*
X136738017Y-109458095D01*
D11*
X238084428Y-107196142D02*
X237513000Y-107196142D01*
X237227285Y-107339000D01*
X236941571Y-107624714D01*
X236798714Y-108196142D01*
X236798714Y-109196142D01*
X236941571Y-109767571D01*
X237227285Y-110053285D01*
X237513000Y-110196142D01*
X238084428Y-110196142D01*
X238370142Y-110053285D01*
X238655857Y-109767571D01*
X238798714Y-109196142D01*
X238798714Y-108196142D01*
X238655857Y-107624714D01*
X238370142Y-107339000D01*
X238084428Y-107196142D01*
X235513000Y-110196142D02*
X235513000Y-107196142D01*
X233798714Y-110196142D02*
X235084428Y-108481857D01*
X233798714Y-107196142D02*
X235513000Y-108910428D01*
X231370142Y-110053285D02*
X231655857Y-110196142D01*
X232227285Y-110196142D01*
X232513000Y-110053285D01*
X232655857Y-109767571D01*
X232655857Y-108624714D01*
X232513000Y-108339000D01*
X232227285Y-108196142D01*
X231655857Y-108196142D01*
X231370142Y-108339000D01*
X231227285Y-108624714D01*
X231227285Y-108910428D01*
X232655857Y-109196142D01*
X230227285Y-108196142D02*
X229513000Y-110196142D01*
X228798714Y-108196142D02*
X229513000Y-110196142D01*
X229798714Y-110910428D01*
X229941571Y-111053285D01*
X230227285Y-111196142D01*
X226370142Y-107196142D02*
X226941571Y-107196142D01*
X227227285Y-107339000D01*
X227370142Y-107481857D01*
X227655857Y-107910428D01*
X227798714Y-108481857D01*
X227798714Y-109624714D01*
X227655857Y-109910428D01*
X227513000Y-110053285D01*
X227227285Y-110196142D01*
X226655857Y-110196142D01*
X226370142Y-110053285D01*
X226227285Y-109910428D01*
X226084428Y-109624714D01*
X226084428Y-108910428D01*
X226227285Y-108624714D01*
X226370142Y-108481857D01*
X226655857Y-108339000D01*
X227227285Y-108339000D01*
X227513000Y-108481857D01*
X227655857Y-108624714D01*
X227798714Y-108910428D01*
X223370142Y-107196142D02*
X224798714Y-107196142D01*
X224941571Y-108624714D01*
X224798714Y-108481857D01*
X224513000Y-108339000D01*
X223798714Y-108339000D01*
X223513000Y-108481857D01*
X223370142Y-108624714D01*
X223227285Y-108910428D01*
X223227285Y-109624714D01*
X223370142Y-109910428D01*
X223513000Y-110053285D01*
X223798714Y-110196142D01*
X224513000Y-110196142D01*
X224798714Y-110053285D01*
X224941571Y-109910428D01*
D12*
X70431242Y-29062000D02*
X68760758Y-29062000D01*
X70431242Y-30882000D02*
X68760758Y-30882000D01*
X70125000Y-74371252D02*
X70125000Y-72948748D01*
X68305000Y-74371252D02*
X68305000Y-72948748D01*
X72172500Y-70985748D02*
X72172500Y-71508252D01*
X70702500Y-70985748D02*
X70702500Y-71508252D01*
D13*
X60754500Y-38174000D02*
X60754500Y-41074000D01*
X60754500Y-38174000D02*
X62054500Y-38174000D01*
X62054500Y-38174000D02*
X62054500Y-41074000D01*
X62054500Y-41074000D02*
X60754500Y-41074000D01*
D12*
X59647500Y-54764564D02*
X59647500Y-53560436D01*
X57827500Y-54764564D02*
X57827500Y-53560436D01*
X84581750Y-55754000D02*
X84581750Y-59054000D01*
X84581750Y-59054000D02*
X80581750Y-59054000D01*
D13*
X75787500Y-76612500D02*
X75787500Y-76037500D01*
X86137500Y-76612500D02*
X86137500Y-75937500D01*
X86137500Y-66262500D02*
X86137500Y-66937500D01*
X75787500Y-66262500D02*
X75787500Y-66937500D01*
X75787500Y-76612500D02*
X76462500Y-76612500D01*
X75787500Y-66262500D02*
X76462500Y-66262500D01*
X86137500Y-66262500D02*
X85462500Y-66262500D01*
X86137500Y-76612500D02*
X85462500Y-76612500D01*
X75787500Y-76037500D02*
X74512500Y-76037500D01*
X68043750Y-56043750D02*
X73243750Y-56043750D01*
X73243750Y-56043750D02*
X73243750Y-50843750D01*
X73243750Y-50843750D02*
X68043750Y-50843750D01*
X68043750Y-50843750D02*
X68043750Y-56043750D01*
X71643750Y-53443750D02*
G75*
G03*
X71643750Y-53443750I-1000000J0D01*
G01*
D12*
X153760436Y-75347500D02*
X154214564Y-75347500D01*
X153760436Y-73877500D02*
X154214564Y-73877500D01*
X67527500Y-34579186D02*
X67527500Y-35033314D01*
X68997500Y-34579186D02*
X68997500Y-35033314D01*
X54827500Y-34579186D02*
X54827500Y-35033314D01*
X56297500Y-34579186D02*
X56297500Y-35033314D01*
X39460436Y-94397500D02*
X39914564Y-94397500D01*
X39460436Y-92927500D02*
X39914564Y-92927500D01*
X86291686Y-82491250D02*
X86745814Y-82491250D01*
X86291686Y-81021250D02*
X86745814Y-81021250D01*
X61187000Y-45439064D02*
X61187000Y-44984936D01*
X59717000Y-45439064D02*
X59717000Y-44984936D01*
X63092000Y-45439064D02*
X63092000Y-44984936D01*
X61622000Y-45439064D02*
X61622000Y-44984936D01*
X67695814Y-57208750D02*
X67241686Y-57208750D01*
X67695814Y-58678750D02*
X67241686Y-58678750D01*
X66382500Y-25386000D02*
X57442500Y-25386000D01*
X66382500Y-30896000D02*
X66382500Y-29096000D01*
X66382500Y-25386000D02*
X66382500Y-26846000D01*
X57442500Y-25386000D02*
X57442500Y-26846000D01*
X57442500Y-30896000D02*
X57442500Y-29096000D01*
X149237500Y-76072500D02*
X145352500Y-76072500D01*
X145352500Y-76072500D02*
X145352500Y-73152500D01*
X145352500Y-73152500D02*
X149237500Y-73152500D01*
X34937500Y-95122500D02*
X31052500Y-95122500D01*
X31052500Y-95122500D02*
X31052500Y-92202500D01*
X31052500Y-92202500D02*
X34937500Y-92202500D01*
X253000000Y-115225000D02*
X255000000Y-115225000D01*
X255000000Y-115225000D02*
X255000000Y-119125000D01*
X253000000Y-115225000D02*
X253000000Y-119125000D01*
X233950000Y-115225000D02*
X235950000Y-115225000D01*
X235950000Y-115225000D02*
X235950000Y-119125000D01*
X233950000Y-115225000D02*
X233950000Y-119125000D01*
X214900000Y-115225000D02*
X216900000Y-115225000D01*
X216900000Y-115225000D02*
X216900000Y-119125000D01*
X214900000Y-115225000D02*
X214900000Y-119125000D01*
X195850000Y-115225000D02*
X197850000Y-115225000D01*
X197850000Y-115225000D02*
X197850000Y-119125000D01*
X195850000Y-115225000D02*
X195850000Y-119125000D01*
X176800000Y-115225000D02*
X178800000Y-115225000D01*
X178800000Y-115225000D02*
X178800000Y-119125000D01*
X176800000Y-115225000D02*
X176800000Y-119125000D01*
X157750000Y-115225000D02*
X159750000Y-115225000D01*
X159750000Y-115225000D02*
X159750000Y-119125000D01*
X157750000Y-115225000D02*
X157750000Y-119125000D01*
X138700000Y-115225000D02*
X140700000Y-115225000D01*
X140700000Y-115225000D02*
X140700000Y-119125000D01*
X138700000Y-115225000D02*
X138700000Y-119125000D01*
X119650000Y-115225000D02*
X121650000Y-115225000D01*
X121650000Y-115225000D02*
X121650000Y-119125000D01*
X119650000Y-115225000D02*
X119650000Y-119125000D01*
X100600000Y-115225000D02*
X102600000Y-115225000D01*
X102600000Y-115225000D02*
X102600000Y-119125000D01*
X100600000Y-115225000D02*
X100600000Y-119125000D01*
X81550000Y-115225000D02*
X83550000Y-115225000D01*
X83550000Y-115225000D02*
X83550000Y-119125000D01*
X81550000Y-115225000D02*
X81550000Y-119125000D01*
X62500000Y-115225000D02*
X64500000Y-115225000D01*
X64500000Y-115225000D02*
X64500000Y-119125000D01*
X62500000Y-115225000D02*
X62500000Y-119125000D01*
X43450000Y-115225000D02*
X45450000Y-115225000D01*
X45450000Y-115225000D02*
X45450000Y-119125000D01*
X43450000Y-115225000D02*
X43450000Y-119125000D01*
X24400000Y-115225000D02*
X26400000Y-115225000D01*
X26400000Y-115225000D02*
X26400000Y-119125000D01*
X24400000Y-115225000D02*
X24400000Y-119125000D01*
X253000000Y-96175000D02*
X255000000Y-96175000D01*
X255000000Y-96175000D02*
X255000000Y-100075000D01*
X253000000Y-96175000D02*
X253000000Y-100075000D01*
X233950000Y-96175000D02*
X235950000Y-96175000D01*
X235950000Y-96175000D02*
X235950000Y-100075000D01*
X233950000Y-96175000D02*
X233950000Y-100075000D01*
X214900000Y-96175000D02*
X216900000Y-96175000D01*
X216900000Y-96175000D02*
X216900000Y-100075000D01*
X214900000Y-96175000D02*
X214900000Y-100075000D01*
X195850000Y-96175000D02*
X197850000Y-96175000D01*
X197850000Y-96175000D02*
X197850000Y-100075000D01*
X195850000Y-96175000D02*
X195850000Y-100075000D01*
X176800000Y-96175000D02*
X178800000Y-96175000D01*
X178800000Y-96175000D02*
X178800000Y-100075000D01*
X176800000Y-96175000D02*
X176800000Y-100075000D01*
X157750000Y-96175000D02*
X159750000Y-96175000D01*
X159750000Y-96175000D02*
X159750000Y-100075000D01*
X157750000Y-96175000D02*
X157750000Y-100075000D01*
X138700000Y-96175000D02*
X140700000Y-96175000D01*
X140700000Y-96175000D02*
X140700000Y-100075000D01*
X138700000Y-96175000D02*
X138700000Y-100075000D01*
X119650000Y-96175000D02*
X121650000Y-96175000D01*
X121650000Y-96175000D02*
X121650000Y-100075000D01*
X119650000Y-96175000D02*
X119650000Y-100075000D01*
X100600000Y-96175000D02*
X102600000Y-96175000D01*
X102600000Y-96175000D02*
X102600000Y-100075000D01*
X100600000Y-96175000D02*
X100600000Y-100075000D01*
X81550000Y-96175000D02*
X83550000Y-96175000D01*
X83550000Y-96175000D02*
X83550000Y-100075000D01*
X81550000Y-96175000D02*
X81550000Y-100075000D01*
X62500000Y-96175000D02*
X64500000Y-96175000D01*
X64500000Y-96175000D02*
X64500000Y-100075000D01*
X62500000Y-96175000D02*
X62500000Y-100075000D01*
X43450000Y-96175000D02*
X45450000Y-96175000D01*
X45450000Y-96175000D02*
X45450000Y-100075000D01*
X43450000Y-96175000D02*
X43450000Y-100075000D01*
X24400000Y-96175000D02*
X26400000Y-96175000D01*
X26400000Y-96175000D02*
X26400000Y-100075000D01*
X24400000Y-96175000D02*
X24400000Y-100075000D01*
X253000000Y-77125000D02*
X255000000Y-77125000D01*
X255000000Y-77125000D02*
X255000000Y-81025000D01*
X253000000Y-77125000D02*
X253000000Y-81025000D01*
X233950000Y-77125000D02*
X235950000Y-77125000D01*
X235950000Y-77125000D02*
X235950000Y-81025000D01*
X233950000Y-77125000D02*
X233950000Y-81025000D01*
X214900000Y-77125000D02*
X216900000Y-77125000D01*
X216900000Y-77125000D02*
X216900000Y-81025000D01*
X214900000Y-77125000D02*
X214900000Y-81025000D01*
X195850000Y-77125000D02*
X197850000Y-77125000D01*
X197850000Y-77125000D02*
X197850000Y-81025000D01*
X195850000Y-77125000D02*
X195850000Y-81025000D01*
X176800000Y-77125000D02*
X178800000Y-77125000D01*
X178800000Y-77125000D02*
X178800000Y-81025000D01*
X176800000Y-77125000D02*
X176800000Y-81025000D01*
X157750000Y-77125000D02*
X159750000Y-77125000D01*
X159750000Y-77125000D02*
X159750000Y-81025000D01*
X157750000Y-77125000D02*
X157750000Y-81025000D01*
X138700000Y-77125000D02*
X140700000Y-77125000D01*
X140700000Y-77125000D02*
X140700000Y-81025000D01*
X138700000Y-77125000D02*
X138700000Y-81025000D01*
X119650000Y-77125000D02*
X121650000Y-77125000D01*
X121650000Y-77125000D02*
X121650000Y-81025000D01*
X119650000Y-77125000D02*
X119650000Y-81025000D01*
X100600000Y-77125000D02*
X102600000Y-77125000D01*
X102600000Y-77125000D02*
X102600000Y-81025000D01*
X100600000Y-77125000D02*
X100600000Y-81025000D01*
X97425000Y-77125000D02*
X99425000Y-77125000D01*
X99425000Y-77125000D02*
X99425000Y-81025000D01*
X97425000Y-77125000D02*
X97425000Y-81025000D01*
X62500000Y-77125000D02*
X64500000Y-77125000D01*
X64500000Y-77125000D02*
X64500000Y-81025000D01*
X62500000Y-77125000D02*
X62500000Y-81025000D01*
X43450000Y-77125000D02*
X45450000Y-77125000D01*
X45450000Y-77125000D02*
X45450000Y-81025000D01*
X43450000Y-77125000D02*
X43450000Y-81025000D01*
X24400000Y-77125000D02*
X26400000Y-77125000D01*
X26400000Y-77125000D02*
X26400000Y-81025000D01*
X24400000Y-77125000D02*
X24400000Y-81025000D01*
X253000000Y-58075000D02*
X255000000Y-58075000D01*
X255000000Y-58075000D02*
X255000000Y-61975000D01*
X253000000Y-58075000D02*
X253000000Y-61975000D01*
X233950000Y-58075000D02*
X235950000Y-58075000D01*
X235950000Y-58075000D02*
X235950000Y-61975000D01*
X233950000Y-58075000D02*
X233950000Y-61975000D01*
X214900000Y-58075000D02*
X216900000Y-58075000D01*
X216900000Y-58075000D02*
X216900000Y-61975000D01*
X214900000Y-58075000D02*
X214900000Y-61975000D01*
X195850000Y-58075000D02*
X197850000Y-58075000D01*
X197850000Y-58075000D02*
X197850000Y-61975000D01*
X195850000Y-58075000D02*
X195850000Y-61975000D01*
X176800000Y-58075000D02*
X178800000Y-58075000D01*
X178800000Y-58075000D02*
X178800000Y-61975000D01*
X176800000Y-58075000D02*
X176800000Y-61975000D01*
X157750000Y-58075000D02*
X159750000Y-58075000D01*
X159750000Y-58075000D02*
X159750000Y-61975000D01*
X157750000Y-58075000D02*
X157750000Y-61975000D01*
X138700000Y-58075000D02*
X140700000Y-58075000D01*
X140700000Y-58075000D02*
X140700000Y-61975000D01*
X138700000Y-58075000D02*
X138700000Y-61975000D01*
X119650000Y-58075000D02*
X121650000Y-58075000D01*
X121650000Y-58075000D02*
X121650000Y-61975000D01*
X119650000Y-58075000D02*
X119650000Y-61975000D01*
X100600000Y-58075000D02*
X102600000Y-58075000D01*
X102600000Y-58075000D02*
X102600000Y-61975000D01*
X100600000Y-58075000D02*
X100600000Y-61975000D01*
X97425000Y-58075000D02*
X99425000Y-58075000D01*
X99425000Y-58075000D02*
X99425000Y-61975000D01*
X97425000Y-58075000D02*
X97425000Y-61975000D01*
X62837500Y-64500000D02*
X62837500Y-62500000D01*
X62837500Y-62500000D02*
X66737500Y-62500000D01*
X62837500Y-64500000D02*
X66737500Y-64500000D01*
X43450000Y-58075000D02*
X45450000Y-58075000D01*
X45450000Y-58075000D02*
X45450000Y-61975000D01*
X43450000Y-58075000D02*
X43450000Y-61975000D01*
X24400000Y-58075000D02*
X26400000Y-58075000D01*
X26400000Y-58075000D02*
X26400000Y-61975000D01*
X24400000Y-58075000D02*
X24400000Y-61975000D01*
X253000000Y-39025000D02*
X255000000Y-39025000D01*
X255000000Y-39025000D02*
X255000000Y-42925000D01*
X253000000Y-39025000D02*
X253000000Y-42925000D01*
X233950000Y-39025000D02*
X235950000Y-39025000D01*
X235950000Y-39025000D02*
X235950000Y-42925000D01*
X233950000Y-39025000D02*
X233950000Y-42925000D01*
X214900000Y-39025000D02*
X216900000Y-39025000D01*
X216900000Y-39025000D02*
X216900000Y-42925000D01*
X214900000Y-39025000D02*
X214900000Y-42925000D01*
X195850000Y-39025000D02*
X197850000Y-39025000D01*
X197850000Y-39025000D02*
X197850000Y-42925000D01*
X195850000Y-39025000D02*
X195850000Y-42925000D01*
X176800000Y-39025000D02*
X178800000Y-39025000D01*
X178800000Y-39025000D02*
X178800000Y-42925000D01*
X176800000Y-39025000D02*
X176800000Y-42925000D01*
X157750000Y-39025000D02*
X159750000Y-39025000D01*
X159750000Y-39025000D02*
X159750000Y-42925000D01*
X157750000Y-39025000D02*
X157750000Y-42925000D01*
X138700000Y-39025000D02*
X140700000Y-39025000D01*
X140700000Y-39025000D02*
X140700000Y-42925000D01*
X138700000Y-39025000D02*
X138700000Y-42925000D01*
X119650000Y-39025000D02*
X121650000Y-39025000D01*
X121650000Y-39025000D02*
X121650000Y-42925000D01*
X119650000Y-39025000D02*
X119650000Y-42925000D01*
X100600000Y-39025000D02*
X102600000Y-39025000D01*
X102600000Y-39025000D02*
X102600000Y-42925000D01*
X100600000Y-39025000D02*
X100600000Y-42925000D01*
X81550000Y-39025000D02*
X83550000Y-39025000D01*
X83550000Y-39025000D02*
X83550000Y-42925000D01*
X81550000Y-39025000D02*
X81550000Y-42925000D01*
X78375000Y-39025000D02*
X80375000Y-39025000D01*
X80375000Y-39025000D02*
X80375000Y-42925000D01*
X78375000Y-39025000D02*
X78375000Y-42925000D01*
X43450000Y-39025000D02*
X45450000Y-39025000D01*
X45450000Y-39025000D02*
X45450000Y-42925000D01*
X43450000Y-39025000D02*
X43450000Y-42925000D01*
X24400000Y-39025000D02*
X26400000Y-39025000D01*
X26400000Y-39025000D02*
X26400000Y-42925000D01*
X24400000Y-39025000D02*
X24400000Y-42925000D01*
X76732498Y-84196250D02*
X77255002Y-84196250D01*
X76732498Y-85666250D02*
X77255002Y-85666250D01*
X89308000Y-67637252D02*
X89308000Y-67114748D01*
X90778000Y-67637252D02*
X90778000Y-67114748D01*
X77526248Y-57208750D02*
X78048752Y-57208750D01*
X77526248Y-58678750D02*
X78048752Y-58678750D01*
X82173750Y-54236252D02*
X82173750Y-53713748D01*
X80703750Y-54236252D02*
X80703750Y-53713748D01*
X84459750Y-54236252D02*
X84459750Y-53713748D01*
X82989750Y-54236252D02*
X82989750Y-53713748D01*
D13*
X70429333Y-31678571D02*
X70762666Y-31678571D01*
X70762666Y-32202380D02*
X70762666Y-31202380D01*
X70286476Y-31202380D01*
X69572190Y-31678571D02*
X69429333Y-31726190D01*
X69381714Y-31773809D01*
X69334095Y-31869047D01*
X69334095Y-32011904D01*
X69381714Y-32107142D01*
X69429333Y-32154761D01*
X69524571Y-32202380D01*
X69905523Y-32202380D01*
X69905523Y-31202380D01*
X69572190Y-31202380D01*
X69476952Y-31250000D01*
X69429333Y-31297619D01*
X69381714Y-31392857D01*
X69381714Y-31488095D01*
X69429333Y-31583333D01*
X69476952Y-31630952D01*
X69572190Y-31678571D01*
X69905523Y-31678571D01*
X68381714Y-32202380D02*
X68953142Y-32202380D01*
X68667428Y-32202380D02*
X68667428Y-31202380D01*
X68762666Y-31345238D01*
X68857904Y-31440476D01*
X68953142Y-31488095D01*
X67921142Y-73493333D02*
X67968761Y-73445714D01*
X68016380Y-73302857D01*
X68016380Y-73207619D01*
X67968761Y-73064761D01*
X67873523Y-72969523D01*
X67778285Y-72921904D01*
X67587809Y-72874285D01*
X67444952Y-72874285D01*
X67254476Y-72921904D01*
X67159238Y-72969523D01*
X67064000Y-73064761D01*
X67016380Y-73207619D01*
X67016380Y-73302857D01*
X67064000Y-73445714D01*
X67111619Y-73493333D01*
X67016380Y-73826666D02*
X67016380Y-74493333D01*
X68016380Y-74064761D01*
X70207142Y-70191333D02*
X70254761Y-70143714D01*
X70302380Y-70000857D01*
X70302380Y-69905619D01*
X70254761Y-69762761D01*
X70159523Y-69667523D01*
X70064285Y-69619904D01*
X69873809Y-69572285D01*
X69730952Y-69572285D01*
X69540476Y-69619904D01*
X69445238Y-69667523D01*
X69350000Y-69762761D01*
X69302380Y-69905619D01*
X69302380Y-70000857D01*
X69350000Y-70143714D01*
X69397619Y-70191333D01*
X69302380Y-70524666D02*
X69302380Y-71143714D01*
X69683333Y-70810380D01*
X69683333Y-70953238D01*
X69730952Y-71048476D01*
X69778571Y-71096095D01*
X69873809Y-71143714D01*
X70111904Y-71143714D01*
X70207142Y-71096095D01*
X70254761Y-71048476D01*
X70302380Y-70953238D01*
X70302380Y-70667523D01*
X70254761Y-70572285D01*
X70207142Y-70524666D01*
X64206380Y-38409714D02*
X63206380Y-38409714D01*
X63206380Y-38647809D01*
X63254000Y-38790666D01*
X63349238Y-38885904D01*
X63444476Y-38933523D01*
X63634952Y-38981142D01*
X63777809Y-38981142D01*
X63968285Y-38933523D01*
X64063523Y-38885904D01*
X64158761Y-38790666D01*
X64206380Y-38647809D01*
X64206380Y-38409714D01*
X63206380Y-39838285D02*
X63206380Y-39647809D01*
X63254000Y-39552571D01*
X63301619Y-39504952D01*
X63444476Y-39409714D01*
X63634952Y-39362095D01*
X64015904Y-39362095D01*
X64111142Y-39409714D01*
X64158761Y-39457333D01*
X64206380Y-39552571D01*
X64206380Y-39743047D01*
X64158761Y-39838285D01*
X64111142Y-39885904D01*
X64015904Y-39933523D01*
X63777809Y-39933523D01*
X63682571Y-39885904D01*
X63634952Y-39838285D01*
X63587333Y-39743047D01*
X63587333Y-39552571D01*
X63634952Y-39457333D01*
X63682571Y-39409714D01*
X63777809Y-39362095D01*
X63634952Y-40504952D02*
X63587333Y-40409714D01*
X63539714Y-40362095D01*
X63444476Y-40314476D01*
X63396857Y-40314476D01*
X63301619Y-40362095D01*
X63254000Y-40409714D01*
X63206380Y-40504952D01*
X63206380Y-40695428D01*
X63254000Y-40790666D01*
X63301619Y-40838285D01*
X63396857Y-40885904D01*
X63444476Y-40885904D01*
X63539714Y-40838285D01*
X63587333Y-40790666D01*
X63634952Y-40695428D01*
X63634952Y-40504952D01*
X63682571Y-40409714D01*
X63730190Y-40362095D01*
X63825428Y-40314476D01*
X64015904Y-40314476D01*
X64111142Y-40362095D01*
X64158761Y-40409714D01*
X64206380Y-40504952D01*
X64206380Y-40695428D01*
X64158761Y-40790666D01*
X64111142Y-40838285D01*
X64015904Y-40885904D01*
X63825428Y-40885904D01*
X63730190Y-40838285D01*
X63682571Y-40790666D01*
X63634952Y-40695428D01*
X56951571Y-53641666D02*
X56951571Y-53308333D01*
X57475380Y-53308333D02*
X56475380Y-53308333D01*
X56475380Y-53784523D01*
X57475380Y-54689285D02*
X57475380Y-54117857D01*
X57475380Y-54403571D02*
X56475380Y-54403571D01*
X56618238Y-54308333D01*
X56713476Y-54213095D01*
X56761095Y-54117857D01*
X85947190Y-57380190D02*
X85947190Y-57856380D01*
X86280523Y-56856380D02*
X85947190Y-57380190D01*
X85613857Y-56856380D01*
X84756714Y-57856380D02*
X85328142Y-57856380D01*
X85042428Y-57856380D02*
X85042428Y-56856380D01*
X85137666Y-56999238D01*
X85232904Y-57094476D01*
X85328142Y-57142095D01*
X81724404Y-69302380D02*
X81724404Y-70111904D01*
X81676785Y-70207142D01*
X81629166Y-70254761D01*
X81533928Y-70302380D01*
X81343452Y-70302380D01*
X81248214Y-70254761D01*
X81200595Y-70207142D01*
X81152976Y-70111904D01*
X81152976Y-69302380D01*
X80152976Y-70302380D02*
X80724404Y-70302380D01*
X80438690Y-70302380D02*
X80438690Y-69302380D01*
X80533928Y-69445238D01*
X80629166Y-69540476D01*
X80724404Y-69588095D01*
X71977083Y-52093761D02*
X71834226Y-52141380D01*
X71596130Y-52141380D01*
X71500892Y-52093761D01*
X71453273Y-52046142D01*
X71405654Y-51950904D01*
X71405654Y-51855666D01*
X71453273Y-51760428D01*
X71500892Y-51712809D01*
X71596130Y-51665190D01*
X71786607Y-51617571D01*
X71881845Y-51569952D01*
X71929464Y-51522333D01*
X71977083Y-51427095D01*
X71977083Y-51331857D01*
X71929464Y-51236619D01*
X71881845Y-51189000D01*
X71786607Y-51141380D01*
X71548511Y-51141380D01*
X71405654Y-51189000D01*
X71072321Y-51141380D02*
X70834226Y-52141380D01*
X70643750Y-51427095D01*
X70453273Y-52141380D01*
X70215178Y-51141380D01*
X69310416Y-52141380D02*
X69881845Y-52141380D01*
X69596130Y-52141380D02*
X69596130Y-51141380D01*
X69691369Y-51284238D01*
X69786607Y-51379476D01*
X69881845Y-51427095D01*
X154154166Y-76714880D02*
X154487500Y-76238690D01*
X154725595Y-76714880D02*
X154725595Y-75714880D01*
X154344642Y-75714880D01*
X154249404Y-75762500D01*
X154201785Y-75810119D01*
X154154166Y-75905357D01*
X154154166Y-76048214D01*
X154201785Y-76143452D01*
X154249404Y-76191071D01*
X154344642Y-76238690D01*
X154725595Y-76238690D01*
X153582738Y-76143452D02*
X153677976Y-76095833D01*
X153725595Y-76048214D01*
X153773214Y-75952976D01*
X153773214Y-75905357D01*
X153725595Y-75810119D01*
X153677976Y-75762500D01*
X153582738Y-75714880D01*
X153392261Y-75714880D01*
X153297023Y-75762500D01*
X153249404Y-75810119D01*
X153201785Y-75905357D01*
X153201785Y-75952976D01*
X153249404Y-76048214D01*
X153297023Y-76095833D01*
X153392261Y-76143452D01*
X153582738Y-76143452D01*
X153677976Y-76191071D01*
X153725595Y-76238690D01*
X153773214Y-76333928D01*
X153773214Y-76524404D01*
X153725595Y-76619642D01*
X153677976Y-76667261D01*
X153582738Y-76714880D01*
X153392261Y-76714880D01*
X153297023Y-76667261D01*
X153249404Y-76619642D01*
X153201785Y-76524404D01*
X153201785Y-76333928D01*
X153249404Y-76238690D01*
X153297023Y-76191071D01*
X153392261Y-76143452D01*
X67254380Y-34123333D02*
X66778190Y-33790000D01*
X67254380Y-33551904D02*
X66254380Y-33551904D01*
X66254380Y-33932857D01*
X66302000Y-34028095D01*
X66349619Y-34075714D01*
X66444857Y-34123333D01*
X66587714Y-34123333D01*
X66682952Y-34075714D01*
X66730571Y-34028095D01*
X66778190Y-33932857D01*
X66778190Y-33551904D01*
X66254380Y-34456666D02*
X66254380Y-35123333D01*
X67254380Y-34694761D01*
X57602380Y-34123333D02*
X57126190Y-33790000D01*
X57602380Y-33551904D02*
X56602380Y-33551904D01*
X56602380Y-33932857D01*
X56650000Y-34028095D01*
X56697619Y-34075714D01*
X56792857Y-34123333D01*
X56935714Y-34123333D01*
X57030952Y-34075714D01*
X57078571Y-34028095D01*
X57126190Y-33932857D01*
X57126190Y-33551904D01*
X56602380Y-34980476D02*
X56602380Y-34790000D01*
X56650000Y-34694761D01*
X56697619Y-34647142D01*
X56840476Y-34551904D01*
X57030952Y-34504285D01*
X57411904Y-34504285D01*
X57507142Y-34551904D01*
X57554761Y-34599523D01*
X57602380Y-34694761D01*
X57602380Y-34885238D01*
X57554761Y-34980476D01*
X57507142Y-35028095D01*
X57411904Y-35075714D01*
X57173809Y-35075714D01*
X57078571Y-35028095D01*
X57030952Y-34980476D01*
X56983333Y-34885238D01*
X56983333Y-34694761D01*
X57030952Y-34599523D01*
X57078571Y-34551904D01*
X57173809Y-34504285D01*
X39854166Y-95764880D02*
X40187500Y-95288690D01*
X40425595Y-95764880D02*
X40425595Y-94764880D01*
X40044642Y-94764880D01*
X39949404Y-94812500D01*
X39901785Y-94860119D01*
X39854166Y-94955357D01*
X39854166Y-95098214D01*
X39901785Y-95193452D01*
X39949404Y-95241071D01*
X40044642Y-95288690D01*
X40425595Y-95288690D01*
X38949404Y-94764880D02*
X39425595Y-94764880D01*
X39473214Y-95241071D01*
X39425595Y-95193452D01*
X39330357Y-95145833D01*
X39092261Y-95145833D01*
X38997023Y-95193452D01*
X38949404Y-95241071D01*
X38901785Y-95336309D01*
X38901785Y-95574404D01*
X38949404Y-95669642D01*
X38997023Y-95717261D01*
X39092261Y-95764880D01*
X39330357Y-95764880D01*
X39425595Y-95717261D01*
X39473214Y-95669642D01*
X86145666Y-83764380D02*
X86479000Y-83288190D01*
X86717095Y-83764380D02*
X86717095Y-82764380D01*
X86336142Y-82764380D01*
X86240904Y-82812000D01*
X86193285Y-82859619D01*
X86145666Y-82954857D01*
X86145666Y-83097714D01*
X86193285Y-83192952D01*
X86240904Y-83240571D01*
X86336142Y-83288190D01*
X86717095Y-83288190D01*
X85288523Y-83097714D02*
X85288523Y-83764380D01*
X85526619Y-82716761D02*
X85764714Y-83431047D01*
X85145666Y-83431047D01*
X59380380Y-45045333D02*
X58904190Y-44712000D01*
X59380380Y-44473904D02*
X58380380Y-44473904D01*
X58380380Y-44854857D01*
X58428000Y-44950095D01*
X58475619Y-44997714D01*
X58570857Y-45045333D01*
X58713714Y-45045333D01*
X58808952Y-44997714D01*
X58856571Y-44950095D01*
X58904190Y-44854857D01*
X58904190Y-44473904D01*
X58380380Y-45378666D02*
X58380380Y-45997714D01*
X58761333Y-45664380D01*
X58761333Y-45807238D01*
X58808952Y-45902476D01*
X58856571Y-45950095D01*
X58951809Y-45997714D01*
X59189904Y-45997714D01*
X59285142Y-45950095D01*
X59332761Y-45902476D01*
X59380380Y-45807238D01*
X59380380Y-45521523D01*
X59332761Y-45426285D01*
X59285142Y-45378666D01*
X64460380Y-45045333D02*
X63984190Y-44712000D01*
X64460380Y-44473904D02*
X63460380Y-44473904D01*
X63460380Y-44854857D01*
X63508000Y-44950095D01*
X63555619Y-44997714D01*
X63650857Y-45045333D01*
X63793714Y-45045333D01*
X63888952Y-44997714D01*
X63936571Y-44950095D01*
X63984190Y-44854857D01*
X63984190Y-44473904D01*
X63555619Y-45426285D02*
X63508000Y-45473904D01*
X63460380Y-45569142D01*
X63460380Y-45807238D01*
X63508000Y-45902476D01*
X63555619Y-45950095D01*
X63650857Y-45997714D01*
X63746095Y-45997714D01*
X63888952Y-45950095D01*
X64460380Y-45378666D01*
X64460380Y-45997714D01*
X68492666Y-60015380D02*
X68826000Y-59539190D01*
X69064095Y-60015380D02*
X69064095Y-59015380D01*
X68683142Y-59015380D01*
X68587904Y-59063000D01*
X68540285Y-59110619D01*
X68492666Y-59205857D01*
X68492666Y-59348714D01*
X68540285Y-59443952D01*
X68587904Y-59491571D01*
X68683142Y-59539190D01*
X69064095Y-59539190D01*
X67540285Y-60015380D02*
X68111714Y-60015380D01*
X67826000Y-60015380D02*
X67826000Y-59015380D01*
X67921238Y-59158238D01*
X68016476Y-59253476D01*
X68111714Y-59301095D01*
X62245833Y-27646380D02*
X62245833Y-28360666D01*
X62293452Y-28503523D01*
X62388690Y-28598761D01*
X62531547Y-28646380D01*
X62626785Y-28646380D01*
X61245833Y-28646380D02*
X61817261Y-28646380D01*
X61531547Y-28646380D02*
X61531547Y-27646380D01*
X61626785Y-27789238D01*
X61722023Y-27884476D01*
X61817261Y-27932095D01*
X148851785Y-77209880D02*
X148851785Y-76209880D01*
X148613690Y-76209880D01*
X148470833Y-76257500D01*
X148375595Y-76352738D01*
X148327976Y-76447976D01*
X148280357Y-76638452D01*
X148280357Y-76781309D01*
X148327976Y-76971785D01*
X148375595Y-77067023D01*
X148470833Y-77162261D01*
X148613690Y-77209880D01*
X148851785Y-77209880D01*
X147423214Y-76209880D02*
X147613690Y-76209880D01*
X147708928Y-76257500D01*
X147756547Y-76305119D01*
X147851785Y-76447976D01*
X147899404Y-76638452D01*
X147899404Y-77019404D01*
X147851785Y-77114642D01*
X147804166Y-77162261D01*
X147708928Y-77209880D01*
X147518452Y-77209880D01*
X147423214Y-77162261D01*
X147375595Y-77114642D01*
X147327976Y-77019404D01*
X147327976Y-76781309D01*
X147375595Y-76686071D01*
X147423214Y-76638452D01*
X147518452Y-76590833D01*
X147708928Y-76590833D01*
X147804166Y-76638452D01*
X147851785Y-76686071D01*
X147899404Y-76781309D01*
X146994642Y-76209880D02*
X146327976Y-76209880D01*
X146756547Y-77209880D01*
X34551785Y-96259880D02*
X34551785Y-95259880D01*
X34313690Y-95259880D01*
X34170833Y-95307500D01*
X34075595Y-95402738D01*
X34027976Y-95497976D01*
X33980357Y-95688452D01*
X33980357Y-95831309D01*
X34027976Y-96021785D01*
X34075595Y-96117023D01*
X34170833Y-96212261D01*
X34313690Y-96259880D01*
X34551785Y-96259880D01*
X33123214Y-95259880D02*
X33313690Y-95259880D01*
X33408928Y-95307500D01*
X33456547Y-95355119D01*
X33551785Y-95497976D01*
X33599404Y-95688452D01*
X33599404Y-96069404D01*
X33551785Y-96164642D01*
X33504166Y-96212261D01*
X33408928Y-96259880D01*
X33218452Y-96259880D01*
X33123214Y-96212261D01*
X33075595Y-96164642D01*
X33027976Y-96069404D01*
X33027976Y-95831309D01*
X33075595Y-95736071D01*
X33123214Y-95688452D01*
X33218452Y-95640833D01*
X33408928Y-95640833D01*
X33504166Y-95688452D01*
X33551785Y-95736071D01*
X33599404Y-95831309D01*
X32170833Y-95259880D02*
X32361309Y-95259880D01*
X32456547Y-95307500D01*
X32504166Y-95355119D01*
X32599404Y-95497976D01*
X32647023Y-95688452D01*
X32647023Y-96069404D01*
X32599404Y-96164642D01*
X32551785Y-96212261D01*
X32456547Y-96259880D01*
X32266071Y-96259880D01*
X32170833Y-96212261D01*
X32123214Y-96164642D01*
X32075595Y-96069404D01*
X32075595Y-95831309D01*
X32123214Y-95736071D01*
X32170833Y-95688452D01*
X32266071Y-95640833D01*
X32456547Y-95640833D01*
X32551785Y-95688452D01*
X32599404Y-95736071D01*
X32647023Y-95831309D01*
X252452380Y-116260714D02*
X251452380Y-116260714D01*
X251452380Y-116498809D01*
X251500000Y-116641666D01*
X251595238Y-116736904D01*
X251690476Y-116784523D01*
X251880952Y-116832142D01*
X252023809Y-116832142D01*
X252214285Y-116784523D01*
X252309523Y-116736904D01*
X252404761Y-116641666D01*
X252452380Y-116498809D01*
X252452380Y-116260714D01*
X251452380Y-117689285D02*
X251452380Y-117498809D01*
X251500000Y-117403571D01*
X251547619Y-117355952D01*
X251690476Y-117260714D01*
X251880952Y-117213095D01*
X252261904Y-117213095D01*
X252357142Y-117260714D01*
X252404761Y-117308333D01*
X252452380Y-117403571D01*
X252452380Y-117594047D01*
X252404761Y-117689285D01*
X252357142Y-117736904D01*
X252261904Y-117784523D01*
X252023809Y-117784523D01*
X251928571Y-117736904D01*
X251880952Y-117689285D01*
X251833333Y-117594047D01*
X251833333Y-117403571D01*
X251880952Y-117308333D01*
X251928571Y-117260714D01*
X252023809Y-117213095D01*
X251452380Y-118689285D02*
X251452380Y-118213095D01*
X251928571Y-118165476D01*
X251880952Y-118213095D01*
X251833333Y-118308333D01*
X251833333Y-118546428D01*
X251880952Y-118641666D01*
X251928571Y-118689285D01*
X252023809Y-118736904D01*
X252261904Y-118736904D01*
X252357142Y-118689285D01*
X252404761Y-118641666D01*
X252452380Y-118546428D01*
X252452380Y-118308333D01*
X252404761Y-118213095D01*
X252357142Y-118165476D01*
X233402380Y-116260714D02*
X232402380Y-116260714D01*
X232402380Y-116498809D01*
X232450000Y-116641666D01*
X232545238Y-116736904D01*
X232640476Y-116784523D01*
X232830952Y-116832142D01*
X232973809Y-116832142D01*
X233164285Y-116784523D01*
X233259523Y-116736904D01*
X233354761Y-116641666D01*
X233402380Y-116498809D01*
X233402380Y-116260714D01*
X232402380Y-117689285D02*
X232402380Y-117498809D01*
X232450000Y-117403571D01*
X232497619Y-117355952D01*
X232640476Y-117260714D01*
X232830952Y-117213095D01*
X233211904Y-117213095D01*
X233307142Y-117260714D01*
X233354761Y-117308333D01*
X233402380Y-117403571D01*
X233402380Y-117594047D01*
X233354761Y-117689285D01*
X233307142Y-117736904D01*
X233211904Y-117784523D01*
X232973809Y-117784523D01*
X232878571Y-117736904D01*
X232830952Y-117689285D01*
X232783333Y-117594047D01*
X232783333Y-117403571D01*
X232830952Y-117308333D01*
X232878571Y-117260714D01*
X232973809Y-117213095D01*
X232735714Y-118641666D02*
X233402380Y-118641666D01*
X232354761Y-118403571D02*
X233069047Y-118165476D01*
X233069047Y-118784523D01*
X214352380Y-116260714D02*
X213352380Y-116260714D01*
X213352380Y-116498809D01*
X213400000Y-116641666D01*
X213495238Y-116736904D01*
X213590476Y-116784523D01*
X213780952Y-116832142D01*
X213923809Y-116832142D01*
X214114285Y-116784523D01*
X214209523Y-116736904D01*
X214304761Y-116641666D01*
X214352380Y-116498809D01*
X214352380Y-116260714D01*
X213352380Y-117689285D02*
X213352380Y-117498809D01*
X213400000Y-117403571D01*
X213447619Y-117355952D01*
X213590476Y-117260714D01*
X213780952Y-117213095D01*
X214161904Y-117213095D01*
X214257142Y-117260714D01*
X214304761Y-117308333D01*
X214352380Y-117403571D01*
X214352380Y-117594047D01*
X214304761Y-117689285D01*
X214257142Y-117736904D01*
X214161904Y-117784523D01*
X213923809Y-117784523D01*
X213828571Y-117736904D01*
X213780952Y-117689285D01*
X213733333Y-117594047D01*
X213733333Y-117403571D01*
X213780952Y-117308333D01*
X213828571Y-117260714D01*
X213923809Y-117213095D01*
X213352380Y-118117857D02*
X213352380Y-118736904D01*
X213733333Y-118403571D01*
X213733333Y-118546428D01*
X213780952Y-118641666D01*
X213828571Y-118689285D01*
X213923809Y-118736904D01*
X214161904Y-118736904D01*
X214257142Y-118689285D01*
X214304761Y-118641666D01*
X214352380Y-118546428D01*
X214352380Y-118260714D01*
X214304761Y-118165476D01*
X214257142Y-118117857D01*
X195302380Y-116260714D02*
X194302380Y-116260714D01*
X194302380Y-116498809D01*
X194350000Y-116641666D01*
X194445238Y-116736904D01*
X194540476Y-116784523D01*
X194730952Y-116832142D01*
X194873809Y-116832142D01*
X195064285Y-116784523D01*
X195159523Y-116736904D01*
X195254761Y-116641666D01*
X195302380Y-116498809D01*
X195302380Y-116260714D01*
X194302380Y-117689285D02*
X194302380Y-117498809D01*
X194350000Y-117403571D01*
X194397619Y-117355952D01*
X194540476Y-117260714D01*
X194730952Y-117213095D01*
X195111904Y-117213095D01*
X195207142Y-117260714D01*
X195254761Y-117308333D01*
X195302380Y-117403571D01*
X195302380Y-117594047D01*
X195254761Y-117689285D01*
X195207142Y-117736904D01*
X195111904Y-117784523D01*
X194873809Y-117784523D01*
X194778571Y-117736904D01*
X194730952Y-117689285D01*
X194683333Y-117594047D01*
X194683333Y-117403571D01*
X194730952Y-117308333D01*
X194778571Y-117260714D01*
X194873809Y-117213095D01*
X194397619Y-118165476D02*
X194350000Y-118213095D01*
X194302380Y-118308333D01*
X194302380Y-118546428D01*
X194350000Y-118641666D01*
X194397619Y-118689285D01*
X194492857Y-118736904D01*
X194588095Y-118736904D01*
X194730952Y-118689285D01*
X195302380Y-118117857D01*
X195302380Y-118736904D01*
X176252380Y-116260714D02*
X175252380Y-116260714D01*
X175252380Y-116498809D01*
X175300000Y-116641666D01*
X175395238Y-116736904D01*
X175490476Y-116784523D01*
X175680952Y-116832142D01*
X175823809Y-116832142D01*
X176014285Y-116784523D01*
X176109523Y-116736904D01*
X176204761Y-116641666D01*
X176252380Y-116498809D01*
X176252380Y-116260714D01*
X175252380Y-117689285D02*
X175252380Y-117498809D01*
X175300000Y-117403571D01*
X175347619Y-117355952D01*
X175490476Y-117260714D01*
X175680952Y-117213095D01*
X176061904Y-117213095D01*
X176157142Y-117260714D01*
X176204761Y-117308333D01*
X176252380Y-117403571D01*
X176252380Y-117594047D01*
X176204761Y-117689285D01*
X176157142Y-117736904D01*
X176061904Y-117784523D01*
X175823809Y-117784523D01*
X175728571Y-117736904D01*
X175680952Y-117689285D01*
X175633333Y-117594047D01*
X175633333Y-117403571D01*
X175680952Y-117308333D01*
X175728571Y-117260714D01*
X175823809Y-117213095D01*
X176252380Y-118736904D02*
X176252380Y-118165476D01*
X176252380Y-118451190D02*
X175252380Y-118451190D01*
X175395238Y-118355952D01*
X175490476Y-118260714D01*
X175538095Y-118165476D01*
X157202380Y-116260714D02*
X156202380Y-116260714D01*
X156202380Y-116498809D01*
X156250000Y-116641666D01*
X156345238Y-116736904D01*
X156440476Y-116784523D01*
X156630952Y-116832142D01*
X156773809Y-116832142D01*
X156964285Y-116784523D01*
X157059523Y-116736904D01*
X157154761Y-116641666D01*
X157202380Y-116498809D01*
X157202380Y-116260714D01*
X156202380Y-117689285D02*
X156202380Y-117498809D01*
X156250000Y-117403571D01*
X156297619Y-117355952D01*
X156440476Y-117260714D01*
X156630952Y-117213095D01*
X157011904Y-117213095D01*
X157107142Y-117260714D01*
X157154761Y-117308333D01*
X157202380Y-117403571D01*
X157202380Y-117594047D01*
X157154761Y-117689285D01*
X157107142Y-117736904D01*
X157011904Y-117784523D01*
X156773809Y-117784523D01*
X156678571Y-117736904D01*
X156630952Y-117689285D01*
X156583333Y-117594047D01*
X156583333Y-117403571D01*
X156630952Y-117308333D01*
X156678571Y-117260714D01*
X156773809Y-117213095D01*
X156202380Y-118403571D02*
X156202380Y-118498809D01*
X156250000Y-118594047D01*
X156297619Y-118641666D01*
X156392857Y-118689285D01*
X156583333Y-118736904D01*
X156821428Y-118736904D01*
X157011904Y-118689285D01*
X157107142Y-118641666D01*
X157154761Y-118594047D01*
X157202380Y-118498809D01*
X157202380Y-118403571D01*
X157154761Y-118308333D01*
X157107142Y-118260714D01*
X157011904Y-118213095D01*
X156821428Y-118165476D01*
X156583333Y-118165476D01*
X156392857Y-118213095D01*
X156297619Y-118260714D01*
X156250000Y-118308333D01*
X156202380Y-118403571D01*
X138152380Y-116260714D02*
X137152380Y-116260714D01*
X137152380Y-116498809D01*
X137200000Y-116641666D01*
X137295238Y-116736904D01*
X137390476Y-116784523D01*
X137580952Y-116832142D01*
X137723809Y-116832142D01*
X137914285Y-116784523D01*
X138009523Y-116736904D01*
X138104761Y-116641666D01*
X138152380Y-116498809D01*
X138152380Y-116260714D01*
X137152380Y-117736904D02*
X137152380Y-117260714D01*
X137628571Y-117213095D01*
X137580952Y-117260714D01*
X137533333Y-117355952D01*
X137533333Y-117594047D01*
X137580952Y-117689285D01*
X137628571Y-117736904D01*
X137723809Y-117784523D01*
X137961904Y-117784523D01*
X138057142Y-117736904D01*
X138104761Y-117689285D01*
X138152380Y-117594047D01*
X138152380Y-117355952D01*
X138104761Y-117260714D01*
X138057142Y-117213095D01*
X138152380Y-118260714D02*
X138152380Y-118451190D01*
X138104761Y-118546428D01*
X138057142Y-118594047D01*
X137914285Y-118689285D01*
X137723809Y-118736904D01*
X137342857Y-118736904D01*
X137247619Y-118689285D01*
X137200000Y-118641666D01*
X137152380Y-118546428D01*
X137152380Y-118355952D01*
X137200000Y-118260714D01*
X137247619Y-118213095D01*
X137342857Y-118165476D01*
X137580952Y-118165476D01*
X137676190Y-118213095D01*
X137723809Y-118260714D01*
X137771428Y-118355952D01*
X137771428Y-118546428D01*
X137723809Y-118641666D01*
X137676190Y-118689285D01*
X137580952Y-118736904D01*
X119102380Y-116260714D02*
X118102380Y-116260714D01*
X118102380Y-116498809D01*
X118150000Y-116641666D01*
X118245238Y-116736904D01*
X118340476Y-116784523D01*
X118530952Y-116832142D01*
X118673809Y-116832142D01*
X118864285Y-116784523D01*
X118959523Y-116736904D01*
X119054761Y-116641666D01*
X119102380Y-116498809D01*
X119102380Y-116260714D01*
X118102380Y-117736904D02*
X118102380Y-117260714D01*
X118578571Y-117213095D01*
X118530952Y-117260714D01*
X118483333Y-117355952D01*
X118483333Y-117594047D01*
X118530952Y-117689285D01*
X118578571Y-117736904D01*
X118673809Y-117784523D01*
X118911904Y-117784523D01*
X119007142Y-117736904D01*
X119054761Y-117689285D01*
X119102380Y-117594047D01*
X119102380Y-117355952D01*
X119054761Y-117260714D01*
X119007142Y-117213095D01*
X118530952Y-118355952D02*
X118483333Y-118260714D01*
X118435714Y-118213095D01*
X118340476Y-118165476D01*
X118292857Y-118165476D01*
X118197619Y-118213095D01*
X118150000Y-118260714D01*
X118102380Y-118355952D01*
X118102380Y-118546428D01*
X118150000Y-118641666D01*
X118197619Y-118689285D01*
X118292857Y-118736904D01*
X118340476Y-118736904D01*
X118435714Y-118689285D01*
X118483333Y-118641666D01*
X118530952Y-118546428D01*
X118530952Y-118355952D01*
X118578571Y-118260714D01*
X118626190Y-118213095D01*
X118721428Y-118165476D01*
X118911904Y-118165476D01*
X119007142Y-118213095D01*
X119054761Y-118260714D01*
X119102380Y-118355952D01*
X119102380Y-118546428D01*
X119054761Y-118641666D01*
X119007142Y-118689285D01*
X118911904Y-118736904D01*
X118721428Y-118736904D01*
X118626190Y-118689285D01*
X118578571Y-118641666D01*
X118530952Y-118546428D01*
X100052380Y-116260714D02*
X99052380Y-116260714D01*
X99052380Y-116498809D01*
X99100000Y-116641666D01*
X99195238Y-116736904D01*
X99290476Y-116784523D01*
X99480952Y-116832142D01*
X99623809Y-116832142D01*
X99814285Y-116784523D01*
X99909523Y-116736904D01*
X100004761Y-116641666D01*
X100052380Y-116498809D01*
X100052380Y-116260714D01*
X99052380Y-117736904D02*
X99052380Y-117260714D01*
X99528571Y-117213095D01*
X99480952Y-117260714D01*
X99433333Y-117355952D01*
X99433333Y-117594047D01*
X99480952Y-117689285D01*
X99528571Y-117736904D01*
X99623809Y-117784523D01*
X99861904Y-117784523D01*
X99957142Y-117736904D01*
X100004761Y-117689285D01*
X100052380Y-117594047D01*
X100052380Y-117355952D01*
X100004761Y-117260714D01*
X99957142Y-117213095D01*
X99052380Y-118117857D02*
X99052380Y-118784523D01*
X100052380Y-118355952D01*
X81002380Y-116260714D02*
X80002380Y-116260714D01*
X80002380Y-116498809D01*
X80050000Y-116641666D01*
X80145238Y-116736904D01*
X80240476Y-116784523D01*
X80430952Y-116832142D01*
X80573809Y-116832142D01*
X80764285Y-116784523D01*
X80859523Y-116736904D01*
X80954761Y-116641666D01*
X81002380Y-116498809D01*
X81002380Y-116260714D01*
X80002380Y-117736904D02*
X80002380Y-117260714D01*
X80478571Y-117213095D01*
X80430952Y-117260714D01*
X80383333Y-117355952D01*
X80383333Y-117594047D01*
X80430952Y-117689285D01*
X80478571Y-117736904D01*
X80573809Y-117784523D01*
X80811904Y-117784523D01*
X80907142Y-117736904D01*
X80954761Y-117689285D01*
X81002380Y-117594047D01*
X81002380Y-117355952D01*
X80954761Y-117260714D01*
X80907142Y-117213095D01*
X80002380Y-118641666D02*
X80002380Y-118451190D01*
X80050000Y-118355952D01*
X80097619Y-118308333D01*
X80240476Y-118213095D01*
X80430952Y-118165476D01*
X80811904Y-118165476D01*
X80907142Y-118213095D01*
X80954761Y-118260714D01*
X81002380Y-118355952D01*
X81002380Y-118546428D01*
X80954761Y-118641666D01*
X80907142Y-118689285D01*
X80811904Y-118736904D01*
X80573809Y-118736904D01*
X80478571Y-118689285D01*
X80430952Y-118641666D01*
X80383333Y-118546428D01*
X80383333Y-118355952D01*
X80430952Y-118260714D01*
X80478571Y-118213095D01*
X80573809Y-118165476D01*
X61952380Y-116260714D02*
X60952380Y-116260714D01*
X60952380Y-116498809D01*
X61000000Y-116641666D01*
X61095238Y-116736904D01*
X61190476Y-116784523D01*
X61380952Y-116832142D01*
X61523809Y-116832142D01*
X61714285Y-116784523D01*
X61809523Y-116736904D01*
X61904761Y-116641666D01*
X61952380Y-116498809D01*
X61952380Y-116260714D01*
X60952380Y-117736904D02*
X60952380Y-117260714D01*
X61428571Y-117213095D01*
X61380952Y-117260714D01*
X61333333Y-117355952D01*
X61333333Y-117594047D01*
X61380952Y-117689285D01*
X61428571Y-117736904D01*
X61523809Y-117784523D01*
X61761904Y-117784523D01*
X61857142Y-117736904D01*
X61904761Y-117689285D01*
X61952380Y-117594047D01*
X61952380Y-117355952D01*
X61904761Y-117260714D01*
X61857142Y-117213095D01*
X60952380Y-118689285D02*
X60952380Y-118213095D01*
X61428571Y-118165476D01*
X61380952Y-118213095D01*
X61333333Y-118308333D01*
X61333333Y-118546428D01*
X61380952Y-118641666D01*
X61428571Y-118689285D01*
X61523809Y-118736904D01*
X61761904Y-118736904D01*
X61857142Y-118689285D01*
X61904761Y-118641666D01*
X61952380Y-118546428D01*
X61952380Y-118308333D01*
X61904761Y-118213095D01*
X61857142Y-118165476D01*
X42902380Y-116260714D02*
X41902380Y-116260714D01*
X41902380Y-116498809D01*
X41950000Y-116641666D01*
X42045238Y-116736904D01*
X42140476Y-116784523D01*
X42330952Y-116832142D01*
X42473809Y-116832142D01*
X42664285Y-116784523D01*
X42759523Y-116736904D01*
X42854761Y-116641666D01*
X42902380Y-116498809D01*
X42902380Y-116260714D01*
X41902380Y-117736904D02*
X41902380Y-117260714D01*
X42378571Y-117213095D01*
X42330952Y-117260714D01*
X42283333Y-117355952D01*
X42283333Y-117594047D01*
X42330952Y-117689285D01*
X42378571Y-117736904D01*
X42473809Y-117784523D01*
X42711904Y-117784523D01*
X42807142Y-117736904D01*
X42854761Y-117689285D01*
X42902380Y-117594047D01*
X42902380Y-117355952D01*
X42854761Y-117260714D01*
X42807142Y-117213095D01*
X42235714Y-118641666D02*
X42902380Y-118641666D01*
X41854761Y-118403571D02*
X42569047Y-118165476D01*
X42569047Y-118784523D01*
X23852380Y-116260714D02*
X22852380Y-116260714D01*
X22852380Y-116498809D01*
X22900000Y-116641666D01*
X22995238Y-116736904D01*
X23090476Y-116784523D01*
X23280952Y-116832142D01*
X23423809Y-116832142D01*
X23614285Y-116784523D01*
X23709523Y-116736904D01*
X23804761Y-116641666D01*
X23852380Y-116498809D01*
X23852380Y-116260714D01*
X22852380Y-117736904D02*
X22852380Y-117260714D01*
X23328571Y-117213095D01*
X23280952Y-117260714D01*
X23233333Y-117355952D01*
X23233333Y-117594047D01*
X23280952Y-117689285D01*
X23328571Y-117736904D01*
X23423809Y-117784523D01*
X23661904Y-117784523D01*
X23757142Y-117736904D01*
X23804761Y-117689285D01*
X23852380Y-117594047D01*
X23852380Y-117355952D01*
X23804761Y-117260714D01*
X23757142Y-117213095D01*
X22852380Y-118117857D02*
X22852380Y-118736904D01*
X23233333Y-118403571D01*
X23233333Y-118546428D01*
X23280952Y-118641666D01*
X23328571Y-118689285D01*
X23423809Y-118736904D01*
X23661904Y-118736904D01*
X23757142Y-118689285D01*
X23804761Y-118641666D01*
X23852380Y-118546428D01*
X23852380Y-118260714D01*
X23804761Y-118165476D01*
X23757142Y-118117857D01*
X252452380Y-97210714D02*
X251452380Y-97210714D01*
X251452380Y-97448809D01*
X251500000Y-97591666D01*
X251595238Y-97686904D01*
X251690476Y-97734523D01*
X251880952Y-97782142D01*
X252023809Y-97782142D01*
X252214285Y-97734523D01*
X252309523Y-97686904D01*
X252404761Y-97591666D01*
X252452380Y-97448809D01*
X252452380Y-97210714D01*
X251452380Y-98686904D02*
X251452380Y-98210714D01*
X251928571Y-98163095D01*
X251880952Y-98210714D01*
X251833333Y-98305952D01*
X251833333Y-98544047D01*
X251880952Y-98639285D01*
X251928571Y-98686904D01*
X252023809Y-98734523D01*
X252261904Y-98734523D01*
X252357142Y-98686904D01*
X252404761Y-98639285D01*
X252452380Y-98544047D01*
X252452380Y-98305952D01*
X252404761Y-98210714D01*
X252357142Y-98163095D01*
X251547619Y-99115476D02*
X251500000Y-99163095D01*
X251452380Y-99258333D01*
X251452380Y-99496428D01*
X251500000Y-99591666D01*
X251547619Y-99639285D01*
X251642857Y-99686904D01*
X251738095Y-99686904D01*
X251880952Y-99639285D01*
X252452380Y-99067857D01*
X252452380Y-99686904D01*
X233402380Y-97210714D02*
X232402380Y-97210714D01*
X232402380Y-97448809D01*
X232450000Y-97591666D01*
X232545238Y-97686904D01*
X232640476Y-97734523D01*
X232830952Y-97782142D01*
X232973809Y-97782142D01*
X233164285Y-97734523D01*
X233259523Y-97686904D01*
X233354761Y-97591666D01*
X233402380Y-97448809D01*
X233402380Y-97210714D01*
X232402380Y-98686904D02*
X232402380Y-98210714D01*
X232878571Y-98163095D01*
X232830952Y-98210714D01*
X232783333Y-98305952D01*
X232783333Y-98544047D01*
X232830952Y-98639285D01*
X232878571Y-98686904D01*
X232973809Y-98734523D01*
X233211904Y-98734523D01*
X233307142Y-98686904D01*
X233354761Y-98639285D01*
X233402380Y-98544047D01*
X233402380Y-98305952D01*
X233354761Y-98210714D01*
X233307142Y-98163095D01*
X233402380Y-99686904D02*
X233402380Y-99115476D01*
X233402380Y-99401190D02*
X232402380Y-99401190D01*
X232545238Y-99305952D01*
X232640476Y-99210714D01*
X232688095Y-99115476D01*
X214352380Y-97210714D02*
X213352380Y-97210714D01*
X213352380Y-97448809D01*
X213400000Y-97591666D01*
X213495238Y-97686904D01*
X213590476Y-97734523D01*
X213780952Y-97782142D01*
X213923809Y-97782142D01*
X214114285Y-97734523D01*
X214209523Y-97686904D01*
X214304761Y-97591666D01*
X214352380Y-97448809D01*
X214352380Y-97210714D01*
X213352380Y-98686904D02*
X213352380Y-98210714D01*
X213828571Y-98163095D01*
X213780952Y-98210714D01*
X213733333Y-98305952D01*
X213733333Y-98544047D01*
X213780952Y-98639285D01*
X213828571Y-98686904D01*
X213923809Y-98734523D01*
X214161904Y-98734523D01*
X214257142Y-98686904D01*
X214304761Y-98639285D01*
X214352380Y-98544047D01*
X214352380Y-98305952D01*
X214304761Y-98210714D01*
X214257142Y-98163095D01*
X213352380Y-99353571D02*
X213352380Y-99448809D01*
X213400000Y-99544047D01*
X213447619Y-99591666D01*
X213542857Y-99639285D01*
X213733333Y-99686904D01*
X213971428Y-99686904D01*
X214161904Y-99639285D01*
X214257142Y-99591666D01*
X214304761Y-99544047D01*
X214352380Y-99448809D01*
X214352380Y-99353571D01*
X214304761Y-99258333D01*
X214257142Y-99210714D01*
X214161904Y-99163095D01*
X213971428Y-99115476D01*
X213733333Y-99115476D01*
X213542857Y-99163095D01*
X213447619Y-99210714D01*
X213400000Y-99258333D01*
X213352380Y-99353571D01*
X195302380Y-97210714D02*
X194302380Y-97210714D01*
X194302380Y-97448809D01*
X194350000Y-97591666D01*
X194445238Y-97686904D01*
X194540476Y-97734523D01*
X194730952Y-97782142D01*
X194873809Y-97782142D01*
X195064285Y-97734523D01*
X195159523Y-97686904D01*
X195254761Y-97591666D01*
X195302380Y-97448809D01*
X195302380Y-97210714D01*
X194635714Y-98639285D02*
X195302380Y-98639285D01*
X194254761Y-98401190D02*
X194969047Y-98163095D01*
X194969047Y-98782142D01*
X195302380Y-99210714D02*
X195302380Y-99401190D01*
X195254761Y-99496428D01*
X195207142Y-99544047D01*
X195064285Y-99639285D01*
X194873809Y-99686904D01*
X194492857Y-99686904D01*
X194397619Y-99639285D01*
X194350000Y-99591666D01*
X194302380Y-99496428D01*
X194302380Y-99305952D01*
X194350000Y-99210714D01*
X194397619Y-99163095D01*
X194492857Y-99115476D01*
X194730952Y-99115476D01*
X194826190Y-99163095D01*
X194873809Y-99210714D01*
X194921428Y-99305952D01*
X194921428Y-99496428D01*
X194873809Y-99591666D01*
X194826190Y-99639285D01*
X194730952Y-99686904D01*
X176252380Y-97210714D02*
X175252380Y-97210714D01*
X175252380Y-97448809D01*
X175300000Y-97591666D01*
X175395238Y-97686904D01*
X175490476Y-97734523D01*
X175680952Y-97782142D01*
X175823809Y-97782142D01*
X176014285Y-97734523D01*
X176109523Y-97686904D01*
X176204761Y-97591666D01*
X176252380Y-97448809D01*
X176252380Y-97210714D01*
X175585714Y-98639285D02*
X176252380Y-98639285D01*
X175204761Y-98401190D02*
X175919047Y-98163095D01*
X175919047Y-98782142D01*
X175680952Y-99305952D02*
X175633333Y-99210714D01*
X175585714Y-99163095D01*
X175490476Y-99115476D01*
X175442857Y-99115476D01*
X175347619Y-99163095D01*
X175300000Y-99210714D01*
X175252380Y-99305952D01*
X175252380Y-99496428D01*
X175300000Y-99591666D01*
X175347619Y-99639285D01*
X175442857Y-99686904D01*
X175490476Y-99686904D01*
X175585714Y-99639285D01*
X175633333Y-99591666D01*
X175680952Y-99496428D01*
X175680952Y-99305952D01*
X175728571Y-99210714D01*
X175776190Y-99163095D01*
X175871428Y-99115476D01*
X176061904Y-99115476D01*
X176157142Y-99163095D01*
X176204761Y-99210714D01*
X176252380Y-99305952D01*
X176252380Y-99496428D01*
X176204761Y-99591666D01*
X176157142Y-99639285D01*
X176061904Y-99686904D01*
X175871428Y-99686904D01*
X175776190Y-99639285D01*
X175728571Y-99591666D01*
X175680952Y-99496428D01*
X157202380Y-97210714D02*
X156202380Y-97210714D01*
X156202380Y-97448809D01*
X156250000Y-97591666D01*
X156345238Y-97686904D01*
X156440476Y-97734523D01*
X156630952Y-97782142D01*
X156773809Y-97782142D01*
X156964285Y-97734523D01*
X157059523Y-97686904D01*
X157154761Y-97591666D01*
X157202380Y-97448809D01*
X157202380Y-97210714D01*
X156535714Y-98639285D02*
X157202380Y-98639285D01*
X156154761Y-98401190D02*
X156869047Y-98163095D01*
X156869047Y-98782142D01*
X156202380Y-99067857D02*
X156202380Y-99734523D01*
X157202380Y-99305952D01*
X138152380Y-97210714D02*
X137152380Y-97210714D01*
X137152380Y-97448809D01*
X137200000Y-97591666D01*
X137295238Y-97686904D01*
X137390476Y-97734523D01*
X137580952Y-97782142D01*
X137723809Y-97782142D01*
X137914285Y-97734523D01*
X138009523Y-97686904D01*
X138104761Y-97591666D01*
X138152380Y-97448809D01*
X138152380Y-97210714D01*
X137485714Y-98639285D02*
X138152380Y-98639285D01*
X137104761Y-98401190D02*
X137819047Y-98163095D01*
X137819047Y-98782142D01*
X137152380Y-99591666D02*
X137152380Y-99401190D01*
X137200000Y-99305952D01*
X137247619Y-99258333D01*
X137390476Y-99163095D01*
X137580952Y-99115476D01*
X137961904Y-99115476D01*
X138057142Y-99163095D01*
X138104761Y-99210714D01*
X138152380Y-99305952D01*
X138152380Y-99496428D01*
X138104761Y-99591666D01*
X138057142Y-99639285D01*
X137961904Y-99686904D01*
X137723809Y-99686904D01*
X137628571Y-99639285D01*
X137580952Y-99591666D01*
X137533333Y-99496428D01*
X137533333Y-99305952D01*
X137580952Y-99210714D01*
X137628571Y-99163095D01*
X137723809Y-99115476D01*
X119102380Y-97210714D02*
X118102380Y-97210714D01*
X118102380Y-97448809D01*
X118150000Y-97591666D01*
X118245238Y-97686904D01*
X118340476Y-97734523D01*
X118530952Y-97782142D01*
X118673809Y-97782142D01*
X118864285Y-97734523D01*
X118959523Y-97686904D01*
X119054761Y-97591666D01*
X119102380Y-97448809D01*
X119102380Y-97210714D01*
X118435714Y-98639285D02*
X119102380Y-98639285D01*
X118054761Y-98401190D02*
X118769047Y-98163095D01*
X118769047Y-98782142D01*
X118102380Y-99639285D02*
X118102380Y-99163095D01*
X118578571Y-99115476D01*
X118530952Y-99163095D01*
X118483333Y-99258333D01*
X118483333Y-99496428D01*
X118530952Y-99591666D01*
X118578571Y-99639285D01*
X118673809Y-99686904D01*
X118911904Y-99686904D01*
X119007142Y-99639285D01*
X119054761Y-99591666D01*
X119102380Y-99496428D01*
X119102380Y-99258333D01*
X119054761Y-99163095D01*
X119007142Y-99115476D01*
X100052380Y-97210714D02*
X99052380Y-97210714D01*
X99052380Y-97448809D01*
X99100000Y-97591666D01*
X99195238Y-97686904D01*
X99290476Y-97734523D01*
X99480952Y-97782142D01*
X99623809Y-97782142D01*
X99814285Y-97734523D01*
X99909523Y-97686904D01*
X100004761Y-97591666D01*
X100052380Y-97448809D01*
X100052380Y-97210714D01*
X99385714Y-98639285D02*
X100052380Y-98639285D01*
X99004761Y-98401190D02*
X99719047Y-98163095D01*
X99719047Y-98782142D01*
X99385714Y-99591666D02*
X100052380Y-99591666D01*
X99004761Y-99353571D02*
X99719047Y-99115476D01*
X99719047Y-99734523D01*
X81002380Y-97210714D02*
X80002380Y-97210714D01*
X80002380Y-97448809D01*
X80050000Y-97591666D01*
X80145238Y-97686904D01*
X80240476Y-97734523D01*
X80430952Y-97782142D01*
X80573809Y-97782142D01*
X80764285Y-97734523D01*
X80859523Y-97686904D01*
X80954761Y-97591666D01*
X81002380Y-97448809D01*
X81002380Y-97210714D01*
X80335714Y-98639285D02*
X81002380Y-98639285D01*
X79954761Y-98401190D02*
X80669047Y-98163095D01*
X80669047Y-98782142D01*
X80002380Y-99067857D02*
X80002380Y-99686904D01*
X80383333Y-99353571D01*
X80383333Y-99496428D01*
X80430952Y-99591666D01*
X80478571Y-99639285D01*
X80573809Y-99686904D01*
X80811904Y-99686904D01*
X80907142Y-99639285D01*
X80954761Y-99591666D01*
X81002380Y-99496428D01*
X81002380Y-99210714D01*
X80954761Y-99115476D01*
X80907142Y-99067857D01*
X61952380Y-97210714D02*
X60952380Y-97210714D01*
X60952380Y-97448809D01*
X61000000Y-97591666D01*
X61095238Y-97686904D01*
X61190476Y-97734523D01*
X61380952Y-97782142D01*
X61523809Y-97782142D01*
X61714285Y-97734523D01*
X61809523Y-97686904D01*
X61904761Y-97591666D01*
X61952380Y-97448809D01*
X61952380Y-97210714D01*
X61285714Y-98639285D02*
X61952380Y-98639285D01*
X60904761Y-98401190D02*
X61619047Y-98163095D01*
X61619047Y-98782142D01*
X61047619Y-99115476D02*
X61000000Y-99163095D01*
X60952380Y-99258333D01*
X60952380Y-99496428D01*
X61000000Y-99591666D01*
X61047619Y-99639285D01*
X61142857Y-99686904D01*
X61238095Y-99686904D01*
X61380952Y-99639285D01*
X61952380Y-99067857D01*
X61952380Y-99686904D01*
X42902380Y-97210714D02*
X41902380Y-97210714D01*
X41902380Y-97448809D01*
X41950000Y-97591666D01*
X42045238Y-97686904D01*
X42140476Y-97734523D01*
X42330952Y-97782142D01*
X42473809Y-97782142D01*
X42664285Y-97734523D01*
X42759523Y-97686904D01*
X42854761Y-97591666D01*
X42902380Y-97448809D01*
X42902380Y-97210714D01*
X42235714Y-98639285D02*
X42902380Y-98639285D01*
X41854761Y-98401190D02*
X42569047Y-98163095D01*
X42569047Y-98782142D01*
X42902380Y-99686904D02*
X42902380Y-99115476D01*
X42902380Y-99401190D02*
X41902380Y-99401190D01*
X42045238Y-99305952D01*
X42140476Y-99210714D01*
X42188095Y-99115476D01*
X23852380Y-97210714D02*
X22852380Y-97210714D01*
X22852380Y-97448809D01*
X22900000Y-97591666D01*
X22995238Y-97686904D01*
X23090476Y-97734523D01*
X23280952Y-97782142D01*
X23423809Y-97782142D01*
X23614285Y-97734523D01*
X23709523Y-97686904D01*
X23804761Y-97591666D01*
X23852380Y-97448809D01*
X23852380Y-97210714D01*
X23185714Y-98639285D02*
X23852380Y-98639285D01*
X22804761Y-98401190D02*
X23519047Y-98163095D01*
X23519047Y-98782142D01*
X22852380Y-99353571D02*
X22852380Y-99448809D01*
X22900000Y-99544047D01*
X22947619Y-99591666D01*
X23042857Y-99639285D01*
X23233333Y-99686904D01*
X23471428Y-99686904D01*
X23661904Y-99639285D01*
X23757142Y-99591666D01*
X23804761Y-99544047D01*
X23852380Y-99448809D01*
X23852380Y-99353571D01*
X23804761Y-99258333D01*
X23757142Y-99210714D01*
X23661904Y-99163095D01*
X23471428Y-99115476D01*
X23233333Y-99115476D01*
X23042857Y-99163095D01*
X22947619Y-99210714D01*
X22900000Y-99258333D01*
X22852380Y-99353571D01*
X252452380Y-78160714D02*
X251452380Y-78160714D01*
X251452380Y-78398809D01*
X251500000Y-78541666D01*
X251595238Y-78636904D01*
X251690476Y-78684523D01*
X251880952Y-78732142D01*
X252023809Y-78732142D01*
X252214285Y-78684523D01*
X252309523Y-78636904D01*
X252404761Y-78541666D01*
X252452380Y-78398809D01*
X252452380Y-78160714D01*
X251452380Y-79065476D02*
X251452380Y-79684523D01*
X251833333Y-79351190D01*
X251833333Y-79494047D01*
X251880952Y-79589285D01*
X251928571Y-79636904D01*
X252023809Y-79684523D01*
X252261904Y-79684523D01*
X252357142Y-79636904D01*
X252404761Y-79589285D01*
X252452380Y-79494047D01*
X252452380Y-79208333D01*
X252404761Y-79113095D01*
X252357142Y-79065476D01*
X252452380Y-80160714D02*
X252452380Y-80351190D01*
X252404761Y-80446428D01*
X252357142Y-80494047D01*
X252214285Y-80589285D01*
X252023809Y-80636904D01*
X251642857Y-80636904D01*
X251547619Y-80589285D01*
X251500000Y-80541666D01*
X251452380Y-80446428D01*
X251452380Y-80255952D01*
X251500000Y-80160714D01*
X251547619Y-80113095D01*
X251642857Y-80065476D01*
X251880952Y-80065476D01*
X251976190Y-80113095D01*
X252023809Y-80160714D01*
X252071428Y-80255952D01*
X252071428Y-80446428D01*
X252023809Y-80541666D01*
X251976190Y-80589285D01*
X251880952Y-80636904D01*
X233402380Y-78160714D02*
X232402380Y-78160714D01*
X232402380Y-78398809D01*
X232450000Y-78541666D01*
X232545238Y-78636904D01*
X232640476Y-78684523D01*
X232830952Y-78732142D01*
X232973809Y-78732142D01*
X233164285Y-78684523D01*
X233259523Y-78636904D01*
X233354761Y-78541666D01*
X233402380Y-78398809D01*
X233402380Y-78160714D01*
X232402380Y-79065476D02*
X232402380Y-79684523D01*
X232783333Y-79351190D01*
X232783333Y-79494047D01*
X232830952Y-79589285D01*
X232878571Y-79636904D01*
X232973809Y-79684523D01*
X233211904Y-79684523D01*
X233307142Y-79636904D01*
X233354761Y-79589285D01*
X233402380Y-79494047D01*
X233402380Y-79208333D01*
X233354761Y-79113095D01*
X233307142Y-79065476D01*
X232830952Y-80255952D02*
X232783333Y-80160714D01*
X232735714Y-80113095D01*
X232640476Y-80065476D01*
X232592857Y-80065476D01*
X232497619Y-80113095D01*
X232450000Y-80160714D01*
X232402380Y-80255952D01*
X232402380Y-80446428D01*
X232450000Y-80541666D01*
X232497619Y-80589285D01*
X232592857Y-80636904D01*
X232640476Y-80636904D01*
X232735714Y-80589285D01*
X232783333Y-80541666D01*
X232830952Y-80446428D01*
X232830952Y-80255952D01*
X232878571Y-80160714D01*
X232926190Y-80113095D01*
X233021428Y-80065476D01*
X233211904Y-80065476D01*
X233307142Y-80113095D01*
X233354761Y-80160714D01*
X233402380Y-80255952D01*
X233402380Y-80446428D01*
X233354761Y-80541666D01*
X233307142Y-80589285D01*
X233211904Y-80636904D01*
X233021428Y-80636904D01*
X232926190Y-80589285D01*
X232878571Y-80541666D01*
X232830952Y-80446428D01*
X214352380Y-78160714D02*
X213352380Y-78160714D01*
X213352380Y-78398809D01*
X213400000Y-78541666D01*
X213495238Y-78636904D01*
X213590476Y-78684523D01*
X213780952Y-78732142D01*
X213923809Y-78732142D01*
X214114285Y-78684523D01*
X214209523Y-78636904D01*
X214304761Y-78541666D01*
X214352380Y-78398809D01*
X214352380Y-78160714D01*
X213352380Y-79065476D02*
X213352380Y-79684523D01*
X213733333Y-79351190D01*
X213733333Y-79494047D01*
X213780952Y-79589285D01*
X213828571Y-79636904D01*
X213923809Y-79684523D01*
X214161904Y-79684523D01*
X214257142Y-79636904D01*
X214304761Y-79589285D01*
X214352380Y-79494047D01*
X214352380Y-79208333D01*
X214304761Y-79113095D01*
X214257142Y-79065476D01*
X213352380Y-80017857D02*
X213352380Y-80684523D01*
X214352380Y-80255952D01*
X195302380Y-78160714D02*
X194302380Y-78160714D01*
X194302380Y-78398809D01*
X194350000Y-78541666D01*
X194445238Y-78636904D01*
X194540476Y-78684523D01*
X194730952Y-78732142D01*
X194873809Y-78732142D01*
X195064285Y-78684523D01*
X195159523Y-78636904D01*
X195254761Y-78541666D01*
X195302380Y-78398809D01*
X195302380Y-78160714D01*
X194302380Y-79065476D02*
X194302380Y-79684523D01*
X194683333Y-79351190D01*
X194683333Y-79494047D01*
X194730952Y-79589285D01*
X194778571Y-79636904D01*
X194873809Y-79684523D01*
X195111904Y-79684523D01*
X195207142Y-79636904D01*
X195254761Y-79589285D01*
X195302380Y-79494047D01*
X195302380Y-79208333D01*
X195254761Y-79113095D01*
X195207142Y-79065476D01*
X194302380Y-80541666D02*
X194302380Y-80351190D01*
X194350000Y-80255952D01*
X194397619Y-80208333D01*
X194540476Y-80113095D01*
X194730952Y-80065476D01*
X195111904Y-80065476D01*
X195207142Y-80113095D01*
X195254761Y-80160714D01*
X195302380Y-80255952D01*
X195302380Y-80446428D01*
X195254761Y-80541666D01*
X195207142Y-80589285D01*
X195111904Y-80636904D01*
X194873809Y-80636904D01*
X194778571Y-80589285D01*
X194730952Y-80541666D01*
X194683333Y-80446428D01*
X194683333Y-80255952D01*
X194730952Y-80160714D01*
X194778571Y-80113095D01*
X194873809Y-80065476D01*
X176252380Y-78160714D02*
X175252380Y-78160714D01*
X175252380Y-78398809D01*
X175300000Y-78541666D01*
X175395238Y-78636904D01*
X175490476Y-78684523D01*
X175680952Y-78732142D01*
X175823809Y-78732142D01*
X176014285Y-78684523D01*
X176109523Y-78636904D01*
X176204761Y-78541666D01*
X176252380Y-78398809D01*
X176252380Y-78160714D01*
X175252380Y-79065476D02*
X175252380Y-79684523D01*
X175633333Y-79351190D01*
X175633333Y-79494047D01*
X175680952Y-79589285D01*
X175728571Y-79636904D01*
X175823809Y-79684523D01*
X176061904Y-79684523D01*
X176157142Y-79636904D01*
X176204761Y-79589285D01*
X176252380Y-79494047D01*
X176252380Y-79208333D01*
X176204761Y-79113095D01*
X176157142Y-79065476D01*
X175252380Y-80589285D02*
X175252380Y-80113095D01*
X175728571Y-80065476D01*
X175680952Y-80113095D01*
X175633333Y-80208333D01*
X175633333Y-80446428D01*
X175680952Y-80541666D01*
X175728571Y-80589285D01*
X175823809Y-80636904D01*
X176061904Y-80636904D01*
X176157142Y-80589285D01*
X176204761Y-80541666D01*
X176252380Y-80446428D01*
X176252380Y-80208333D01*
X176204761Y-80113095D01*
X176157142Y-80065476D01*
X157202380Y-78160714D02*
X156202380Y-78160714D01*
X156202380Y-78398809D01*
X156250000Y-78541666D01*
X156345238Y-78636904D01*
X156440476Y-78684523D01*
X156630952Y-78732142D01*
X156773809Y-78732142D01*
X156964285Y-78684523D01*
X157059523Y-78636904D01*
X157154761Y-78541666D01*
X157202380Y-78398809D01*
X157202380Y-78160714D01*
X156202380Y-79065476D02*
X156202380Y-79684523D01*
X156583333Y-79351190D01*
X156583333Y-79494047D01*
X156630952Y-79589285D01*
X156678571Y-79636904D01*
X156773809Y-79684523D01*
X157011904Y-79684523D01*
X157107142Y-79636904D01*
X157154761Y-79589285D01*
X157202380Y-79494047D01*
X157202380Y-79208333D01*
X157154761Y-79113095D01*
X157107142Y-79065476D01*
X156535714Y-80541666D02*
X157202380Y-80541666D01*
X156154761Y-80303571D02*
X156869047Y-80065476D01*
X156869047Y-80684523D01*
X138152380Y-78160714D02*
X137152380Y-78160714D01*
X137152380Y-78398809D01*
X137200000Y-78541666D01*
X137295238Y-78636904D01*
X137390476Y-78684523D01*
X137580952Y-78732142D01*
X137723809Y-78732142D01*
X137914285Y-78684523D01*
X138009523Y-78636904D01*
X138104761Y-78541666D01*
X138152380Y-78398809D01*
X138152380Y-78160714D01*
X137152380Y-79065476D02*
X137152380Y-79684523D01*
X137533333Y-79351190D01*
X137533333Y-79494047D01*
X137580952Y-79589285D01*
X137628571Y-79636904D01*
X137723809Y-79684523D01*
X137961904Y-79684523D01*
X138057142Y-79636904D01*
X138104761Y-79589285D01*
X138152380Y-79494047D01*
X138152380Y-79208333D01*
X138104761Y-79113095D01*
X138057142Y-79065476D01*
X137152380Y-80017857D02*
X137152380Y-80636904D01*
X137533333Y-80303571D01*
X137533333Y-80446428D01*
X137580952Y-80541666D01*
X137628571Y-80589285D01*
X137723809Y-80636904D01*
X137961904Y-80636904D01*
X138057142Y-80589285D01*
X138104761Y-80541666D01*
X138152380Y-80446428D01*
X138152380Y-80160714D01*
X138104761Y-80065476D01*
X138057142Y-80017857D01*
X119102380Y-78160714D02*
X118102380Y-78160714D01*
X118102380Y-78398809D01*
X118150000Y-78541666D01*
X118245238Y-78636904D01*
X118340476Y-78684523D01*
X118530952Y-78732142D01*
X118673809Y-78732142D01*
X118864285Y-78684523D01*
X118959523Y-78636904D01*
X119054761Y-78541666D01*
X119102380Y-78398809D01*
X119102380Y-78160714D01*
X118102380Y-79065476D02*
X118102380Y-79684523D01*
X118483333Y-79351190D01*
X118483333Y-79494047D01*
X118530952Y-79589285D01*
X118578571Y-79636904D01*
X118673809Y-79684523D01*
X118911904Y-79684523D01*
X119007142Y-79636904D01*
X119054761Y-79589285D01*
X119102380Y-79494047D01*
X119102380Y-79208333D01*
X119054761Y-79113095D01*
X119007142Y-79065476D01*
X118197619Y-80065476D02*
X118150000Y-80113095D01*
X118102380Y-80208333D01*
X118102380Y-80446428D01*
X118150000Y-80541666D01*
X118197619Y-80589285D01*
X118292857Y-80636904D01*
X118388095Y-80636904D01*
X118530952Y-80589285D01*
X119102380Y-80017857D01*
X119102380Y-80636904D01*
X102052380Y-81970714D02*
X101052380Y-81970714D01*
X101052380Y-82208809D01*
X101100000Y-82351666D01*
X101195238Y-82446904D01*
X101290476Y-82494523D01*
X101480952Y-82542142D01*
X101623809Y-82542142D01*
X101814285Y-82494523D01*
X101909523Y-82446904D01*
X102004761Y-82351666D01*
X102052380Y-82208809D01*
X102052380Y-81970714D01*
X101052380Y-82875476D02*
X101052380Y-83494523D01*
X101433333Y-83161190D01*
X101433333Y-83304047D01*
X101480952Y-83399285D01*
X101528571Y-83446904D01*
X101623809Y-83494523D01*
X101861904Y-83494523D01*
X101957142Y-83446904D01*
X102004761Y-83399285D01*
X102052380Y-83304047D01*
X102052380Y-83018333D01*
X102004761Y-82923095D01*
X101957142Y-82875476D01*
X102052380Y-84446904D02*
X102052380Y-83875476D01*
X102052380Y-84161190D02*
X101052380Y-84161190D01*
X101195238Y-84065952D01*
X101290476Y-83970714D01*
X101338095Y-83875476D01*
X99004380Y-81970714D02*
X98004380Y-81970714D01*
X98004380Y-82208809D01*
X98052000Y-82351666D01*
X98147238Y-82446904D01*
X98242476Y-82494523D01*
X98432952Y-82542142D01*
X98575809Y-82542142D01*
X98766285Y-82494523D01*
X98861523Y-82446904D01*
X98956761Y-82351666D01*
X99004380Y-82208809D01*
X99004380Y-81970714D01*
X98004380Y-82875476D02*
X98004380Y-83494523D01*
X98385333Y-83161190D01*
X98385333Y-83304047D01*
X98432952Y-83399285D01*
X98480571Y-83446904D01*
X98575809Y-83494523D01*
X98813904Y-83494523D01*
X98909142Y-83446904D01*
X98956761Y-83399285D01*
X99004380Y-83304047D01*
X99004380Y-83018333D01*
X98956761Y-82923095D01*
X98909142Y-82875476D01*
X98004380Y-84113571D02*
X98004380Y-84208809D01*
X98052000Y-84304047D01*
X98099619Y-84351666D01*
X98194857Y-84399285D01*
X98385333Y-84446904D01*
X98623428Y-84446904D01*
X98813904Y-84399285D01*
X98909142Y-84351666D01*
X98956761Y-84304047D01*
X99004380Y-84208809D01*
X99004380Y-84113571D01*
X98956761Y-84018333D01*
X98909142Y-83970714D01*
X98813904Y-83923095D01*
X98623428Y-83875476D01*
X98385333Y-83875476D01*
X98194857Y-83923095D01*
X98099619Y-83970714D01*
X98052000Y-84018333D01*
X98004380Y-84113571D01*
X61952380Y-78160714D02*
X60952380Y-78160714D01*
X60952380Y-78398809D01*
X61000000Y-78541666D01*
X61095238Y-78636904D01*
X61190476Y-78684523D01*
X61380952Y-78732142D01*
X61523809Y-78732142D01*
X61714285Y-78684523D01*
X61809523Y-78636904D01*
X61904761Y-78541666D01*
X61952380Y-78398809D01*
X61952380Y-78160714D01*
X61047619Y-79113095D02*
X61000000Y-79160714D01*
X60952380Y-79255952D01*
X60952380Y-79494047D01*
X61000000Y-79589285D01*
X61047619Y-79636904D01*
X61142857Y-79684523D01*
X61238095Y-79684523D01*
X61380952Y-79636904D01*
X61952380Y-79065476D01*
X61952380Y-79684523D01*
X61952380Y-80160714D02*
X61952380Y-80351190D01*
X61904761Y-80446428D01*
X61857142Y-80494047D01*
X61714285Y-80589285D01*
X61523809Y-80636904D01*
X61142857Y-80636904D01*
X61047619Y-80589285D01*
X61000000Y-80541666D01*
X60952380Y-80446428D01*
X60952380Y-80255952D01*
X61000000Y-80160714D01*
X61047619Y-80113095D01*
X61142857Y-80065476D01*
X61380952Y-80065476D01*
X61476190Y-80113095D01*
X61523809Y-80160714D01*
X61571428Y-80255952D01*
X61571428Y-80446428D01*
X61523809Y-80541666D01*
X61476190Y-80589285D01*
X61380952Y-80636904D01*
X42902380Y-78160714D02*
X41902380Y-78160714D01*
X41902380Y-78398809D01*
X41950000Y-78541666D01*
X42045238Y-78636904D01*
X42140476Y-78684523D01*
X42330952Y-78732142D01*
X42473809Y-78732142D01*
X42664285Y-78684523D01*
X42759523Y-78636904D01*
X42854761Y-78541666D01*
X42902380Y-78398809D01*
X42902380Y-78160714D01*
X41997619Y-79113095D02*
X41950000Y-79160714D01*
X41902380Y-79255952D01*
X41902380Y-79494047D01*
X41950000Y-79589285D01*
X41997619Y-79636904D01*
X42092857Y-79684523D01*
X42188095Y-79684523D01*
X42330952Y-79636904D01*
X42902380Y-79065476D01*
X42902380Y-79684523D01*
X42330952Y-80255952D02*
X42283333Y-80160714D01*
X42235714Y-80113095D01*
X42140476Y-80065476D01*
X42092857Y-80065476D01*
X41997619Y-80113095D01*
X41950000Y-80160714D01*
X41902380Y-80255952D01*
X41902380Y-80446428D01*
X41950000Y-80541666D01*
X41997619Y-80589285D01*
X42092857Y-80636904D01*
X42140476Y-80636904D01*
X42235714Y-80589285D01*
X42283333Y-80541666D01*
X42330952Y-80446428D01*
X42330952Y-80255952D01*
X42378571Y-80160714D01*
X42426190Y-80113095D01*
X42521428Y-80065476D01*
X42711904Y-80065476D01*
X42807142Y-80113095D01*
X42854761Y-80160714D01*
X42902380Y-80255952D01*
X42902380Y-80446428D01*
X42854761Y-80541666D01*
X42807142Y-80589285D01*
X42711904Y-80636904D01*
X42521428Y-80636904D01*
X42426190Y-80589285D01*
X42378571Y-80541666D01*
X42330952Y-80446428D01*
X23852380Y-78160714D02*
X22852380Y-78160714D01*
X22852380Y-78398809D01*
X22900000Y-78541666D01*
X22995238Y-78636904D01*
X23090476Y-78684523D01*
X23280952Y-78732142D01*
X23423809Y-78732142D01*
X23614285Y-78684523D01*
X23709523Y-78636904D01*
X23804761Y-78541666D01*
X23852380Y-78398809D01*
X23852380Y-78160714D01*
X22947619Y-79113095D02*
X22900000Y-79160714D01*
X22852380Y-79255952D01*
X22852380Y-79494047D01*
X22900000Y-79589285D01*
X22947619Y-79636904D01*
X23042857Y-79684523D01*
X23138095Y-79684523D01*
X23280952Y-79636904D01*
X23852380Y-79065476D01*
X23852380Y-79684523D01*
X22852380Y-80017857D02*
X22852380Y-80684523D01*
X23852380Y-80255952D01*
X252452380Y-59110714D02*
X251452380Y-59110714D01*
X251452380Y-59348809D01*
X251500000Y-59491666D01*
X251595238Y-59586904D01*
X251690476Y-59634523D01*
X251880952Y-59682142D01*
X252023809Y-59682142D01*
X252214285Y-59634523D01*
X252309523Y-59586904D01*
X252404761Y-59491666D01*
X252452380Y-59348809D01*
X252452380Y-59110714D01*
X251547619Y-60063095D02*
X251500000Y-60110714D01*
X251452380Y-60205952D01*
X251452380Y-60444047D01*
X251500000Y-60539285D01*
X251547619Y-60586904D01*
X251642857Y-60634523D01*
X251738095Y-60634523D01*
X251880952Y-60586904D01*
X252452380Y-60015476D01*
X252452380Y-60634523D01*
X251452380Y-61491666D02*
X251452380Y-61301190D01*
X251500000Y-61205952D01*
X251547619Y-61158333D01*
X251690476Y-61063095D01*
X251880952Y-61015476D01*
X252261904Y-61015476D01*
X252357142Y-61063095D01*
X252404761Y-61110714D01*
X252452380Y-61205952D01*
X252452380Y-61396428D01*
X252404761Y-61491666D01*
X252357142Y-61539285D01*
X252261904Y-61586904D01*
X252023809Y-61586904D01*
X251928571Y-61539285D01*
X251880952Y-61491666D01*
X251833333Y-61396428D01*
X251833333Y-61205952D01*
X251880952Y-61110714D01*
X251928571Y-61063095D01*
X252023809Y-61015476D01*
X233402380Y-59110714D02*
X232402380Y-59110714D01*
X232402380Y-59348809D01*
X232450000Y-59491666D01*
X232545238Y-59586904D01*
X232640476Y-59634523D01*
X232830952Y-59682142D01*
X232973809Y-59682142D01*
X233164285Y-59634523D01*
X233259523Y-59586904D01*
X233354761Y-59491666D01*
X233402380Y-59348809D01*
X233402380Y-59110714D01*
X232497619Y-60063095D02*
X232450000Y-60110714D01*
X232402380Y-60205952D01*
X232402380Y-60444047D01*
X232450000Y-60539285D01*
X232497619Y-60586904D01*
X232592857Y-60634523D01*
X232688095Y-60634523D01*
X232830952Y-60586904D01*
X233402380Y-60015476D01*
X233402380Y-60634523D01*
X232402380Y-61539285D02*
X232402380Y-61063095D01*
X232878571Y-61015476D01*
X232830952Y-61063095D01*
X232783333Y-61158333D01*
X232783333Y-61396428D01*
X232830952Y-61491666D01*
X232878571Y-61539285D01*
X232973809Y-61586904D01*
X233211904Y-61586904D01*
X233307142Y-61539285D01*
X233354761Y-61491666D01*
X233402380Y-61396428D01*
X233402380Y-61158333D01*
X233354761Y-61063095D01*
X233307142Y-61015476D01*
X214352380Y-59110714D02*
X213352380Y-59110714D01*
X213352380Y-59348809D01*
X213400000Y-59491666D01*
X213495238Y-59586904D01*
X213590476Y-59634523D01*
X213780952Y-59682142D01*
X213923809Y-59682142D01*
X214114285Y-59634523D01*
X214209523Y-59586904D01*
X214304761Y-59491666D01*
X214352380Y-59348809D01*
X214352380Y-59110714D01*
X213447619Y-60063095D02*
X213400000Y-60110714D01*
X213352380Y-60205952D01*
X213352380Y-60444047D01*
X213400000Y-60539285D01*
X213447619Y-60586904D01*
X213542857Y-60634523D01*
X213638095Y-60634523D01*
X213780952Y-60586904D01*
X214352380Y-60015476D01*
X214352380Y-60634523D01*
X213685714Y-61491666D02*
X214352380Y-61491666D01*
X213304761Y-61253571D02*
X214019047Y-61015476D01*
X214019047Y-61634523D01*
X195302380Y-59110714D02*
X194302380Y-59110714D01*
X194302380Y-59348809D01*
X194350000Y-59491666D01*
X194445238Y-59586904D01*
X194540476Y-59634523D01*
X194730952Y-59682142D01*
X194873809Y-59682142D01*
X195064285Y-59634523D01*
X195159523Y-59586904D01*
X195254761Y-59491666D01*
X195302380Y-59348809D01*
X195302380Y-59110714D01*
X194397619Y-60063095D02*
X194350000Y-60110714D01*
X194302380Y-60205952D01*
X194302380Y-60444047D01*
X194350000Y-60539285D01*
X194397619Y-60586904D01*
X194492857Y-60634523D01*
X194588095Y-60634523D01*
X194730952Y-60586904D01*
X195302380Y-60015476D01*
X195302380Y-60634523D01*
X194302380Y-60967857D02*
X194302380Y-61586904D01*
X194683333Y-61253571D01*
X194683333Y-61396428D01*
X194730952Y-61491666D01*
X194778571Y-61539285D01*
X194873809Y-61586904D01*
X195111904Y-61586904D01*
X195207142Y-61539285D01*
X195254761Y-61491666D01*
X195302380Y-61396428D01*
X195302380Y-61110714D01*
X195254761Y-61015476D01*
X195207142Y-60967857D01*
X176252380Y-59110714D02*
X175252380Y-59110714D01*
X175252380Y-59348809D01*
X175300000Y-59491666D01*
X175395238Y-59586904D01*
X175490476Y-59634523D01*
X175680952Y-59682142D01*
X175823809Y-59682142D01*
X176014285Y-59634523D01*
X176109523Y-59586904D01*
X176204761Y-59491666D01*
X176252380Y-59348809D01*
X176252380Y-59110714D01*
X175347619Y-60063095D02*
X175300000Y-60110714D01*
X175252380Y-60205952D01*
X175252380Y-60444047D01*
X175300000Y-60539285D01*
X175347619Y-60586904D01*
X175442857Y-60634523D01*
X175538095Y-60634523D01*
X175680952Y-60586904D01*
X176252380Y-60015476D01*
X176252380Y-60634523D01*
X175347619Y-61015476D02*
X175300000Y-61063095D01*
X175252380Y-61158333D01*
X175252380Y-61396428D01*
X175300000Y-61491666D01*
X175347619Y-61539285D01*
X175442857Y-61586904D01*
X175538095Y-61586904D01*
X175680952Y-61539285D01*
X176252380Y-60967857D01*
X176252380Y-61586904D01*
X157202380Y-59110714D02*
X156202380Y-59110714D01*
X156202380Y-59348809D01*
X156250000Y-59491666D01*
X156345238Y-59586904D01*
X156440476Y-59634523D01*
X156630952Y-59682142D01*
X156773809Y-59682142D01*
X156964285Y-59634523D01*
X157059523Y-59586904D01*
X157154761Y-59491666D01*
X157202380Y-59348809D01*
X157202380Y-59110714D01*
X156297619Y-60063095D02*
X156250000Y-60110714D01*
X156202380Y-60205952D01*
X156202380Y-60444047D01*
X156250000Y-60539285D01*
X156297619Y-60586904D01*
X156392857Y-60634523D01*
X156488095Y-60634523D01*
X156630952Y-60586904D01*
X157202380Y-60015476D01*
X157202380Y-60634523D01*
X157202380Y-61586904D02*
X157202380Y-61015476D01*
X157202380Y-61301190D02*
X156202380Y-61301190D01*
X156345238Y-61205952D01*
X156440476Y-61110714D01*
X156488095Y-61015476D01*
X138152380Y-59110714D02*
X137152380Y-59110714D01*
X137152380Y-59348809D01*
X137200000Y-59491666D01*
X137295238Y-59586904D01*
X137390476Y-59634523D01*
X137580952Y-59682142D01*
X137723809Y-59682142D01*
X137914285Y-59634523D01*
X138009523Y-59586904D01*
X138104761Y-59491666D01*
X138152380Y-59348809D01*
X138152380Y-59110714D01*
X137247619Y-60063095D02*
X137200000Y-60110714D01*
X137152380Y-60205952D01*
X137152380Y-60444047D01*
X137200000Y-60539285D01*
X137247619Y-60586904D01*
X137342857Y-60634523D01*
X137438095Y-60634523D01*
X137580952Y-60586904D01*
X138152380Y-60015476D01*
X138152380Y-60634523D01*
X137152380Y-61253571D02*
X137152380Y-61348809D01*
X137200000Y-61444047D01*
X137247619Y-61491666D01*
X137342857Y-61539285D01*
X137533333Y-61586904D01*
X137771428Y-61586904D01*
X137961904Y-61539285D01*
X138057142Y-61491666D01*
X138104761Y-61444047D01*
X138152380Y-61348809D01*
X138152380Y-61253571D01*
X138104761Y-61158333D01*
X138057142Y-61110714D01*
X137961904Y-61063095D01*
X137771428Y-61015476D01*
X137533333Y-61015476D01*
X137342857Y-61063095D01*
X137247619Y-61110714D01*
X137200000Y-61158333D01*
X137152380Y-61253571D01*
X119102380Y-59110714D02*
X118102380Y-59110714D01*
X118102380Y-59348809D01*
X118150000Y-59491666D01*
X118245238Y-59586904D01*
X118340476Y-59634523D01*
X118530952Y-59682142D01*
X118673809Y-59682142D01*
X118864285Y-59634523D01*
X118959523Y-59586904D01*
X119054761Y-59491666D01*
X119102380Y-59348809D01*
X119102380Y-59110714D01*
X119102380Y-60634523D02*
X119102380Y-60063095D01*
X119102380Y-60348809D02*
X118102380Y-60348809D01*
X118245238Y-60253571D01*
X118340476Y-60158333D01*
X118388095Y-60063095D01*
X119102380Y-61110714D02*
X119102380Y-61301190D01*
X119054761Y-61396428D01*
X119007142Y-61444047D01*
X118864285Y-61539285D01*
X118673809Y-61586904D01*
X118292857Y-61586904D01*
X118197619Y-61539285D01*
X118150000Y-61491666D01*
X118102380Y-61396428D01*
X118102380Y-61205952D01*
X118150000Y-61110714D01*
X118197619Y-61063095D01*
X118292857Y-61015476D01*
X118530952Y-61015476D01*
X118626190Y-61063095D01*
X118673809Y-61110714D01*
X118721428Y-61205952D01*
X118721428Y-61396428D01*
X118673809Y-61491666D01*
X118626190Y-61539285D01*
X118530952Y-61586904D01*
X103957380Y-56697714D02*
X102957380Y-56697714D01*
X102957380Y-56935809D01*
X103005000Y-57078666D01*
X103100238Y-57173904D01*
X103195476Y-57221523D01*
X103385952Y-57269142D01*
X103528809Y-57269142D01*
X103719285Y-57221523D01*
X103814523Y-57173904D01*
X103909761Y-57078666D01*
X103957380Y-56935809D01*
X103957380Y-56697714D01*
X103957380Y-58221523D02*
X103957380Y-57650095D01*
X103957380Y-57935809D02*
X102957380Y-57935809D01*
X103100238Y-57840571D01*
X103195476Y-57745333D01*
X103243095Y-57650095D01*
X103385952Y-58792952D02*
X103338333Y-58697714D01*
X103290714Y-58650095D01*
X103195476Y-58602476D01*
X103147857Y-58602476D01*
X103052619Y-58650095D01*
X103005000Y-58697714D01*
X102957380Y-58792952D01*
X102957380Y-58983428D01*
X103005000Y-59078666D01*
X103052619Y-59126285D01*
X103147857Y-59173904D01*
X103195476Y-59173904D01*
X103290714Y-59126285D01*
X103338333Y-59078666D01*
X103385952Y-58983428D01*
X103385952Y-58792952D01*
X103433571Y-58697714D01*
X103481190Y-58650095D01*
X103576428Y-58602476D01*
X103766904Y-58602476D01*
X103862142Y-58650095D01*
X103909761Y-58697714D01*
X103957380Y-58792952D01*
X103957380Y-58983428D01*
X103909761Y-59078666D01*
X103862142Y-59126285D01*
X103766904Y-59173904D01*
X103576428Y-59173904D01*
X103481190Y-59126285D01*
X103433571Y-59078666D01*
X103385952Y-58983428D01*
X97099380Y-56697714D02*
X96099380Y-56697714D01*
X96099380Y-56935809D01*
X96147000Y-57078666D01*
X96242238Y-57173904D01*
X96337476Y-57221523D01*
X96527952Y-57269142D01*
X96670809Y-57269142D01*
X96861285Y-57221523D01*
X96956523Y-57173904D01*
X97051761Y-57078666D01*
X97099380Y-56935809D01*
X97099380Y-56697714D01*
X97099380Y-58221523D02*
X97099380Y-57650095D01*
X97099380Y-57935809D02*
X96099380Y-57935809D01*
X96242238Y-57840571D01*
X96337476Y-57745333D01*
X96385095Y-57650095D01*
X96099380Y-58554857D02*
X96099380Y-59221523D01*
X97099380Y-58792952D01*
X65730285Y-62301380D02*
X65730285Y-61301380D01*
X65492190Y-61301380D01*
X65349333Y-61349000D01*
X65254095Y-61444238D01*
X65206476Y-61539476D01*
X65158857Y-61729952D01*
X65158857Y-61872809D01*
X65206476Y-62063285D01*
X65254095Y-62158523D01*
X65349333Y-62253761D01*
X65492190Y-62301380D01*
X65730285Y-62301380D01*
X64206476Y-62301380D02*
X64777904Y-62301380D01*
X64492190Y-62301380D02*
X64492190Y-61301380D01*
X64587428Y-61444238D01*
X64682666Y-61539476D01*
X64777904Y-61587095D01*
X63349333Y-61301380D02*
X63539809Y-61301380D01*
X63635047Y-61349000D01*
X63682666Y-61396619D01*
X63777904Y-61539476D01*
X63825523Y-61729952D01*
X63825523Y-62110904D01*
X63777904Y-62206142D01*
X63730285Y-62253761D01*
X63635047Y-62301380D01*
X63444571Y-62301380D01*
X63349333Y-62253761D01*
X63301714Y-62206142D01*
X63254095Y-62110904D01*
X63254095Y-61872809D01*
X63301714Y-61777571D01*
X63349333Y-61729952D01*
X63444571Y-61682333D01*
X63635047Y-61682333D01*
X63730285Y-61729952D01*
X63777904Y-61777571D01*
X63825523Y-61872809D01*
X42902380Y-59110714D02*
X41902380Y-59110714D01*
X41902380Y-59348809D01*
X41950000Y-59491666D01*
X42045238Y-59586904D01*
X42140476Y-59634523D01*
X42330952Y-59682142D01*
X42473809Y-59682142D01*
X42664285Y-59634523D01*
X42759523Y-59586904D01*
X42854761Y-59491666D01*
X42902380Y-59348809D01*
X42902380Y-59110714D01*
X42902380Y-60634523D02*
X42902380Y-60063095D01*
X42902380Y-60348809D02*
X41902380Y-60348809D01*
X42045238Y-60253571D01*
X42140476Y-60158333D01*
X42188095Y-60063095D01*
X41902380Y-61539285D02*
X41902380Y-61063095D01*
X42378571Y-61015476D01*
X42330952Y-61063095D01*
X42283333Y-61158333D01*
X42283333Y-61396428D01*
X42330952Y-61491666D01*
X42378571Y-61539285D01*
X42473809Y-61586904D01*
X42711904Y-61586904D01*
X42807142Y-61539285D01*
X42854761Y-61491666D01*
X42902380Y-61396428D01*
X42902380Y-61158333D01*
X42854761Y-61063095D01*
X42807142Y-61015476D01*
X23852380Y-59110714D02*
X22852380Y-59110714D01*
X22852380Y-59348809D01*
X22900000Y-59491666D01*
X22995238Y-59586904D01*
X23090476Y-59634523D01*
X23280952Y-59682142D01*
X23423809Y-59682142D01*
X23614285Y-59634523D01*
X23709523Y-59586904D01*
X23804761Y-59491666D01*
X23852380Y-59348809D01*
X23852380Y-59110714D01*
X23852380Y-60634523D02*
X23852380Y-60063095D01*
X23852380Y-60348809D02*
X22852380Y-60348809D01*
X22995238Y-60253571D01*
X23090476Y-60158333D01*
X23138095Y-60063095D01*
X23185714Y-61491666D02*
X23852380Y-61491666D01*
X22804761Y-61253571D02*
X23519047Y-61015476D01*
X23519047Y-61634523D01*
X252452380Y-40060714D02*
X251452380Y-40060714D01*
X251452380Y-40298809D01*
X251500000Y-40441666D01*
X251595238Y-40536904D01*
X251690476Y-40584523D01*
X251880952Y-40632142D01*
X252023809Y-40632142D01*
X252214285Y-40584523D01*
X252309523Y-40536904D01*
X252404761Y-40441666D01*
X252452380Y-40298809D01*
X252452380Y-40060714D01*
X252452380Y-41584523D02*
X252452380Y-41013095D01*
X252452380Y-41298809D02*
X251452380Y-41298809D01*
X251595238Y-41203571D01*
X251690476Y-41108333D01*
X251738095Y-41013095D01*
X251452380Y-41917857D02*
X251452380Y-42536904D01*
X251833333Y-42203571D01*
X251833333Y-42346428D01*
X251880952Y-42441666D01*
X251928571Y-42489285D01*
X252023809Y-42536904D01*
X252261904Y-42536904D01*
X252357142Y-42489285D01*
X252404761Y-42441666D01*
X252452380Y-42346428D01*
X252452380Y-42060714D01*
X252404761Y-41965476D01*
X252357142Y-41917857D01*
X233402380Y-40060714D02*
X232402380Y-40060714D01*
X232402380Y-40298809D01*
X232450000Y-40441666D01*
X232545238Y-40536904D01*
X232640476Y-40584523D01*
X232830952Y-40632142D01*
X232973809Y-40632142D01*
X233164285Y-40584523D01*
X233259523Y-40536904D01*
X233354761Y-40441666D01*
X233402380Y-40298809D01*
X233402380Y-40060714D01*
X233402380Y-41584523D02*
X233402380Y-41013095D01*
X233402380Y-41298809D02*
X232402380Y-41298809D01*
X232545238Y-41203571D01*
X232640476Y-41108333D01*
X232688095Y-41013095D01*
X232497619Y-41965476D02*
X232450000Y-42013095D01*
X232402380Y-42108333D01*
X232402380Y-42346428D01*
X232450000Y-42441666D01*
X232497619Y-42489285D01*
X232592857Y-42536904D01*
X232688095Y-42536904D01*
X232830952Y-42489285D01*
X233402380Y-41917857D01*
X233402380Y-42536904D01*
X214352380Y-40060714D02*
X213352380Y-40060714D01*
X213352380Y-40298809D01*
X213400000Y-40441666D01*
X213495238Y-40536904D01*
X213590476Y-40584523D01*
X213780952Y-40632142D01*
X213923809Y-40632142D01*
X214114285Y-40584523D01*
X214209523Y-40536904D01*
X214304761Y-40441666D01*
X214352380Y-40298809D01*
X214352380Y-40060714D01*
X214352380Y-41584523D02*
X214352380Y-41013095D01*
X214352380Y-41298809D02*
X213352380Y-41298809D01*
X213495238Y-41203571D01*
X213590476Y-41108333D01*
X213638095Y-41013095D01*
X214352380Y-42536904D02*
X214352380Y-41965476D01*
X214352380Y-42251190D02*
X213352380Y-42251190D01*
X213495238Y-42155952D01*
X213590476Y-42060714D01*
X213638095Y-41965476D01*
X195302380Y-40060714D02*
X194302380Y-40060714D01*
X194302380Y-40298809D01*
X194350000Y-40441666D01*
X194445238Y-40536904D01*
X194540476Y-40584523D01*
X194730952Y-40632142D01*
X194873809Y-40632142D01*
X195064285Y-40584523D01*
X195159523Y-40536904D01*
X195254761Y-40441666D01*
X195302380Y-40298809D01*
X195302380Y-40060714D01*
X195302380Y-41584523D02*
X195302380Y-41013095D01*
X195302380Y-41298809D02*
X194302380Y-41298809D01*
X194445238Y-41203571D01*
X194540476Y-41108333D01*
X194588095Y-41013095D01*
X194302380Y-42203571D02*
X194302380Y-42298809D01*
X194350000Y-42394047D01*
X194397619Y-42441666D01*
X194492857Y-42489285D01*
X194683333Y-42536904D01*
X194921428Y-42536904D01*
X195111904Y-42489285D01*
X195207142Y-42441666D01*
X195254761Y-42394047D01*
X195302380Y-42298809D01*
X195302380Y-42203571D01*
X195254761Y-42108333D01*
X195207142Y-42060714D01*
X195111904Y-42013095D01*
X194921428Y-41965476D01*
X194683333Y-41965476D01*
X194492857Y-42013095D01*
X194397619Y-42060714D01*
X194350000Y-42108333D01*
X194302380Y-42203571D01*
X176252380Y-40536904D02*
X175252380Y-40536904D01*
X175252380Y-40775000D01*
X175300000Y-40917857D01*
X175395238Y-41013095D01*
X175490476Y-41060714D01*
X175680952Y-41108333D01*
X175823809Y-41108333D01*
X176014285Y-41060714D01*
X176109523Y-41013095D01*
X176204761Y-40917857D01*
X176252380Y-40775000D01*
X176252380Y-40536904D01*
X176252380Y-41584523D02*
X176252380Y-41775000D01*
X176204761Y-41870238D01*
X176157142Y-41917857D01*
X176014285Y-42013095D01*
X175823809Y-42060714D01*
X175442857Y-42060714D01*
X175347619Y-42013095D01*
X175300000Y-41965476D01*
X175252380Y-41870238D01*
X175252380Y-41679761D01*
X175300000Y-41584523D01*
X175347619Y-41536904D01*
X175442857Y-41489285D01*
X175680952Y-41489285D01*
X175776190Y-41536904D01*
X175823809Y-41584523D01*
X175871428Y-41679761D01*
X175871428Y-41870238D01*
X175823809Y-41965476D01*
X175776190Y-42013095D01*
X175680952Y-42060714D01*
X157202380Y-40536904D02*
X156202380Y-40536904D01*
X156202380Y-40775000D01*
X156250000Y-40917857D01*
X156345238Y-41013095D01*
X156440476Y-41060714D01*
X156630952Y-41108333D01*
X156773809Y-41108333D01*
X156964285Y-41060714D01*
X157059523Y-41013095D01*
X157154761Y-40917857D01*
X157202380Y-40775000D01*
X157202380Y-40536904D01*
X156630952Y-41679761D02*
X156583333Y-41584523D01*
X156535714Y-41536904D01*
X156440476Y-41489285D01*
X156392857Y-41489285D01*
X156297619Y-41536904D01*
X156250000Y-41584523D01*
X156202380Y-41679761D01*
X156202380Y-41870238D01*
X156250000Y-41965476D01*
X156297619Y-42013095D01*
X156392857Y-42060714D01*
X156440476Y-42060714D01*
X156535714Y-42013095D01*
X156583333Y-41965476D01*
X156630952Y-41870238D01*
X156630952Y-41679761D01*
X156678571Y-41584523D01*
X156726190Y-41536904D01*
X156821428Y-41489285D01*
X157011904Y-41489285D01*
X157107142Y-41536904D01*
X157154761Y-41584523D01*
X157202380Y-41679761D01*
X157202380Y-41870238D01*
X157154761Y-41965476D01*
X157107142Y-42013095D01*
X157011904Y-42060714D01*
X156821428Y-42060714D01*
X156726190Y-42013095D01*
X156678571Y-41965476D01*
X156630952Y-41870238D01*
X138152380Y-40536904D02*
X137152380Y-40536904D01*
X137152380Y-40775000D01*
X137200000Y-40917857D01*
X137295238Y-41013095D01*
X137390476Y-41060714D01*
X137580952Y-41108333D01*
X137723809Y-41108333D01*
X137914285Y-41060714D01*
X138009523Y-41013095D01*
X138104761Y-40917857D01*
X138152380Y-40775000D01*
X138152380Y-40536904D01*
X137152380Y-41441666D02*
X137152380Y-42108333D01*
X138152380Y-41679761D01*
X119102380Y-40536904D02*
X118102380Y-40536904D01*
X118102380Y-40775000D01*
X118150000Y-40917857D01*
X118245238Y-41013095D01*
X118340476Y-41060714D01*
X118530952Y-41108333D01*
X118673809Y-41108333D01*
X118864285Y-41060714D01*
X118959523Y-41013095D01*
X119054761Y-40917857D01*
X119102380Y-40775000D01*
X119102380Y-40536904D01*
X118102380Y-41965476D02*
X118102380Y-41775000D01*
X118150000Y-41679761D01*
X118197619Y-41632142D01*
X118340476Y-41536904D01*
X118530952Y-41489285D01*
X118911904Y-41489285D01*
X119007142Y-41536904D01*
X119054761Y-41584523D01*
X119102380Y-41679761D01*
X119102380Y-41870238D01*
X119054761Y-41965476D01*
X119007142Y-42013095D01*
X118911904Y-42060714D01*
X118673809Y-42060714D01*
X118578571Y-42013095D01*
X118530952Y-41965476D01*
X118483333Y-41870238D01*
X118483333Y-41679761D01*
X118530952Y-41584523D01*
X118578571Y-41536904D01*
X118673809Y-41489285D01*
X100052380Y-40536904D02*
X99052380Y-40536904D01*
X99052380Y-40775000D01*
X99100000Y-40917857D01*
X99195238Y-41013095D01*
X99290476Y-41060714D01*
X99480952Y-41108333D01*
X99623809Y-41108333D01*
X99814285Y-41060714D01*
X99909523Y-41013095D01*
X100004761Y-40917857D01*
X100052380Y-40775000D01*
X100052380Y-40536904D01*
X99052380Y-42013095D02*
X99052380Y-41536904D01*
X99528571Y-41489285D01*
X99480952Y-41536904D01*
X99433333Y-41632142D01*
X99433333Y-41870238D01*
X99480952Y-41965476D01*
X99528571Y-42013095D01*
X99623809Y-42060714D01*
X99861904Y-42060714D01*
X99957142Y-42013095D01*
X100004761Y-41965476D01*
X100052380Y-41870238D01*
X100052380Y-41632142D01*
X100004761Y-41536904D01*
X99957142Y-41489285D01*
X85034380Y-38250904D02*
X84034380Y-38250904D01*
X84034380Y-38489000D01*
X84082000Y-38631857D01*
X84177238Y-38727095D01*
X84272476Y-38774714D01*
X84462952Y-38822333D01*
X84605809Y-38822333D01*
X84796285Y-38774714D01*
X84891523Y-38727095D01*
X84986761Y-38631857D01*
X85034380Y-38489000D01*
X85034380Y-38250904D01*
X84367714Y-39679476D02*
X85034380Y-39679476D01*
X83986761Y-39441380D02*
X84701047Y-39203285D01*
X84701047Y-39822333D01*
X78049380Y-38250904D02*
X77049380Y-38250904D01*
X77049380Y-38489000D01*
X77097000Y-38631857D01*
X77192238Y-38727095D01*
X77287476Y-38774714D01*
X77477952Y-38822333D01*
X77620809Y-38822333D01*
X77811285Y-38774714D01*
X77906523Y-38727095D01*
X78001761Y-38631857D01*
X78049380Y-38489000D01*
X78049380Y-38250904D01*
X77049380Y-39155666D02*
X77049380Y-39774714D01*
X77430333Y-39441380D01*
X77430333Y-39584238D01*
X77477952Y-39679476D01*
X77525571Y-39727095D01*
X77620809Y-39774714D01*
X77858904Y-39774714D01*
X77954142Y-39727095D01*
X78001761Y-39679476D01*
X78049380Y-39584238D01*
X78049380Y-39298523D01*
X78001761Y-39203285D01*
X77954142Y-39155666D01*
X42902380Y-40536904D02*
X41902380Y-40536904D01*
X41902380Y-40775000D01*
X41950000Y-40917857D01*
X42045238Y-41013095D01*
X42140476Y-41060714D01*
X42330952Y-41108333D01*
X42473809Y-41108333D01*
X42664285Y-41060714D01*
X42759523Y-41013095D01*
X42854761Y-40917857D01*
X42902380Y-40775000D01*
X42902380Y-40536904D01*
X41997619Y-41489285D02*
X41950000Y-41536904D01*
X41902380Y-41632142D01*
X41902380Y-41870238D01*
X41950000Y-41965476D01*
X41997619Y-42013095D01*
X42092857Y-42060714D01*
X42188095Y-42060714D01*
X42330952Y-42013095D01*
X42902380Y-41441666D01*
X42902380Y-42060714D01*
X23852380Y-40536904D02*
X22852380Y-40536904D01*
X22852380Y-40775000D01*
X22900000Y-40917857D01*
X22995238Y-41013095D01*
X23090476Y-41060714D01*
X23280952Y-41108333D01*
X23423809Y-41108333D01*
X23614285Y-41060714D01*
X23709523Y-41013095D01*
X23804761Y-40917857D01*
X23852380Y-40775000D01*
X23852380Y-40536904D01*
X23852380Y-42060714D02*
X23852380Y-41489285D01*
X23852380Y-41775000D02*
X22852380Y-41775000D01*
X22995238Y-41679761D01*
X23090476Y-41584523D01*
X23138095Y-41489285D01*
X77160416Y-86968392D02*
X77208035Y-87016011D01*
X77350892Y-87063630D01*
X77446130Y-87063630D01*
X77588988Y-87016011D01*
X77684226Y-86920773D01*
X77731845Y-86825535D01*
X77779464Y-86635059D01*
X77779464Y-86492202D01*
X77731845Y-86301726D01*
X77684226Y-86206488D01*
X77588988Y-86111250D01*
X77446130Y-86063630D01*
X77350892Y-86063630D01*
X77208035Y-86111250D01*
X77160416Y-86158869D01*
X76303273Y-86063630D02*
X76493750Y-86063630D01*
X76588988Y-86111250D01*
X76636607Y-86158869D01*
X76731845Y-86301726D01*
X76779464Y-86492202D01*
X76779464Y-86873154D01*
X76731845Y-86968392D01*
X76684226Y-87016011D01*
X76588988Y-87063630D01*
X76398511Y-87063630D01*
X76303273Y-87016011D01*
X76255654Y-86968392D01*
X76208035Y-86873154D01*
X76208035Y-86635059D01*
X76255654Y-86539821D01*
X76303273Y-86492202D01*
X76398511Y-86444583D01*
X76588988Y-86444583D01*
X76684226Y-86492202D01*
X76731845Y-86539821D01*
X76779464Y-86635059D01*
X92114642Y-66698833D02*
X92162261Y-66651214D01*
X92209880Y-66508357D01*
X92209880Y-66413119D01*
X92162261Y-66270261D01*
X92067023Y-66175023D01*
X91971785Y-66127404D01*
X91781309Y-66079785D01*
X91638452Y-66079785D01*
X91447976Y-66127404D01*
X91352738Y-66175023D01*
X91257500Y-66270261D01*
X91209880Y-66413119D01*
X91209880Y-66508357D01*
X91257500Y-66651214D01*
X91305119Y-66698833D01*
X91209880Y-67603595D02*
X91209880Y-67127404D01*
X91686071Y-67079785D01*
X91638452Y-67127404D01*
X91590833Y-67222642D01*
X91590833Y-67460738D01*
X91638452Y-67555976D01*
X91686071Y-67603595D01*
X91781309Y-67651214D01*
X92019404Y-67651214D01*
X92114642Y-67603595D01*
X92162261Y-67555976D01*
X92209880Y-67460738D01*
X92209880Y-67222642D01*
X92162261Y-67127404D01*
X92114642Y-67079785D01*
X77763666Y-56745142D02*
X77811285Y-56792761D01*
X77954142Y-56840380D01*
X78049380Y-56840380D01*
X78192238Y-56792761D01*
X78287476Y-56697523D01*
X78335095Y-56602285D01*
X78382714Y-56411809D01*
X78382714Y-56268952D01*
X78335095Y-56078476D01*
X78287476Y-55983238D01*
X78192238Y-55888000D01*
X78049380Y-55840380D01*
X77954142Y-55840380D01*
X77811285Y-55888000D01*
X77763666Y-55935619D01*
X76906523Y-56173714D02*
X76906523Y-56840380D01*
X77144619Y-55792761D02*
X77382714Y-56507047D01*
X76763666Y-56507047D01*
X80240142Y-53808333D02*
X80287761Y-53760714D01*
X80335380Y-53617857D01*
X80335380Y-53522619D01*
X80287761Y-53379761D01*
X80192523Y-53284523D01*
X80097285Y-53236904D01*
X79906809Y-53189285D01*
X79763952Y-53189285D01*
X79573476Y-53236904D01*
X79478238Y-53284523D01*
X79383000Y-53379761D01*
X79335380Y-53522619D01*
X79335380Y-53617857D01*
X79383000Y-53760714D01*
X79430619Y-53808333D01*
X79430619Y-54189285D02*
X79383000Y-54236904D01*
X79335380Y-54332142D01*
X79335380Y-54570238D01*
X79383000Y-54665476D01*
X79430619Y-54713095D01*
X79525857Y-54760714D01*
X79621095Y-54760714D01*
X79763952Y-54713095D01*
X80335380Y-54141666D01*
X80335380Y-54760714D01*
X85761892Y-53808333D02*
X85809511Y-53760714D01*
X85857130Y-53617857D01*
X85857130Y-53522619D01*
X85809511Y-53379761D01*
X85714273Y-53284523D01*
X85619035Y-53236904D01*
X85428559Y-53189285D01*
X85285702Y-53189285D01*
X85095226Y-53236904D01*
X84999988Y-53284523D01*
X84904750Y-53379761D01*
X84857130Y-53522619D01*
X84857130Y-53617857D01*
X84904750Y-53760714D01*
X84952369Y-53808333D01*
X85857130Y-54760714D02*
X85857130Y-54189285D01*
X85857130Y-54475000D02*
X84857130Y-54475000D01*
X84999988Y-54379761D01*
X85095226Y-54284523D01*
X85142845Y-54189285D01*
%LPC*%
G36*
G01*
X68546000Y-29271999D02*
X68546000Y-30672001D01*
G75*
G02*
X68296001Y-30922000I-249999J0D01*
G01*
X67745999Y-30922000D01*
G75*
G02*
X67496000Y-30672001I0J249999D01*
G01*
X67496000Y-29271999D01*
G75*
G02*
X67745999Y-29022000I249999J0D01*
G01*
X68296001Y-29022000D01*
G75*
G02*
X68546000Y-29271999I0J-249999D01*
G01*
G37*
G36*
G01*
X71696000Y-29271999D02*
X71696000Y-30672001D01*
G75*
G02*
X71446001Y-30922000I-249999J0D01*
G01*
X70895999Y-30922000D01*
G75*
G02*
X70646000Y-30672001I0J249999D01*
G01*
X70646000Y-29271999D01*
G75*
G02*
X70895999Y-29022000I249999J0D01*
G01*
X71446001Y-29022000D01*
G75*
G02*
X71696000Y-29271999I0J-249999D01*
G01*
G37*
D14*
X30797500Y-103505000D03*
D15*
X33337500Y-98425000D03*
D14*
X37147500Y-100965000D03*
D16*
X38417500Y-98425000D03*
X28257500Y-98425000D03*
D14*
X68897500Y-46355000D03*
D15*
X71437500Y-41275000D03*
D14*
X75247500Y-43815000D03*
D16*
X76517500Y-41275000D03*
X66357500Y-41275000D03*
D14*
X68897500Y-84455000D03*
D15*
X71437500Y-79375000D03*
D14*
X75247500Y-81915000D03*
D16*
X76517500Y-79375000D03*
X66357500Y-79375000D03*
G36*
G01*
X69865001Y-72760000D02*
X68564999Y-72760000D01*
G75*
G02*
X68315000Y-72510001I0J249999D01*
G01*
X68315000Y-71859999D01*
G75*
G02*
X68564999Y-71610000I249999J0D01*
G01*
X69865001Y-71610000D01*
G75*
G02*
X70115000Y-71859999I0J-249999D01*
G01*
X70115000Y-72510001D01*
G75*
G02*
X69865001Y-72760000I-249999J0D01*
G01*
G37*
G36*
G01*
X69865001Y-75710000D02*
X68564999Y-75710000D01*
G75*
G02*
X68315000Y-75460001I0J249999D01*
G01*
X68315000Y-74809999D01*
G75*
G02*
X68564999Y-74560000I249999J0D01*
G01*
X69865001Y-74560000D01*
G75*
G02*
X70115000Y-74809999I0J-249999D01*
G01*
X70115000Y-75460001D01*
G75*
G02*
X69865001Y-75710000I-249999J0D01*
G01*
G37*
G36*
G01*
X70962500Y-69797000D02*
X71912500Y-69797000D01*
G75*
G02*
X72162500Y-70047000I0J-250000D01*
G01*
X72162500Y-70547000D01*
G75*
G02*
X71912500Y-70797000I-250000J0D01*
G01*
X70962500Y-70797000D01*
G75*
G02*
X70712500Y-70547000I0J250000D01*
G01*
X70712500Y-70047000D01*
G75*
G02*
X70962500Y-69797000I250000J0D01*
G01*
G37*
G36*
G01*
X70962500Y-71697000D02*
X71912500Y-71697000D01*
G75*
G02*
X72162500Y-71947000I0J-250000D01*
G01*
X72162500Y-72447000D01*
G75*
G02*
X71912500Y-72697000I-250000J0D01*
G01*
X70962500Y-72697000D01*
G75*
G02*
X70712500Y-72447000I0J250000D01*
G01*
X70712500Y-71947000D01*
G75*
G02*
X70962500Y-71697000I250000J0D01*
G01*
G37*
D14*
X87947500Y-84455000D03*
D15*
X90487500Y-79375000D03*
D14*
X94297500Y-81915000D03*
D16*
X95567500Y-79375000D03*
X85407500Y-79375000D03*
D14*
X87947500Y-65405000D03*
D15*
X90487500Y-60325000D03*
D14*
X94297500Y-62865000D03*
D16*
X95567500Y-60325000D03*
X85407500Y-60325000D03*
D17*
X62404500Y-38874000D03*
D18*
X60404500Y-38674000D03*
X62404500Y-40574000D03*
X60404500Y-40574000D03*
D14*
X164147500Y-84455000D03*
D15*
X166687500Y-79375000D03*
D14*
X170497500Y-81915000D03*
D16*
X171767500Y-79375000D03*
X161607500Y-79375000D03*
D14*
X68897500Y-65405000D03*
D15*
X71437500Y-60325000D03*
D14*
X75247500Y-62865000D03*
D16*
X76517500Y-60325000D03*
X66357500Y-60325000D03*
G36*
G01*
X59362500Y-53387500D02*
X58112500Y-53387500D01*
G75*
G02*
X57862500Y-53137500I0J250000D01*
G01*
X57862500Y-52387500D01*
G75*
G02*
X58112500Y-52137500I250000J0D01*
G01*
X59362500Y-52137500D01*
G75*
G02*
X59612500Y-52387500I0J-250000D01*
G01*
X59612500Y-53137500D01*
G75*
G02*
X59362500Y-53387500I-250000J0D01*
G01*
G37*
G36*
G01*
X59362500Y-56187500D02*
X58112500Y-56187500D01*
G75*
G02*
X57862500Y-55937500I0J250000D01*
G01*
X57862500Y-55187500D01*
G75*
G02*
X58112500Y-54937500I250000J0D01*
G01*
X59362500Y-54937500D01*
G75*
G02*
X59612500Y-55187500I0J-250000D01*
G01*
X59612500Y-55937500D01*
G75*
G02*
X59362500Y-56187500I-250000J0D01*
G01*
G37*
D19*
X83681750Y-56554000D03*
X81481750Y-56554000D03*
X81481750Y-58254000D03*
X83681750Y-58254000D03*
D20*
X76962500Y-77137500D03*
X77762500Y-77137500D03*
X78562500Y-77137500D03*
X79362500Y-77137500D03*
X80162500Y-77137500D03*
X80962500Y-77137500D03*
X81762500Y-77137500D03*
X82562500Y-77137500D03*
X83362500Y-77137500D03*
X84162500Y-77137500D03*
X84962500Y-77137500D03*
D21*
X86662500Y-75437500D03*
X86662500Y-74637500D03*
X86662500Y-73837500D03*
X86662500Y-73037500D03*
X86662500Y-72237500D03*
X86662500Y-71437500D03*
X86662500Y-70637500D03*
X86662500Y-69837500D03*
X86662500Y-69037500D03*
X86662500Y-68237500D03*
X86662500Y-67437500D03*
D20*
X84962500Y-65737500D03*
X84162500Y-65737500D03*
X83362500Y-65737500D03*
X82562500Y-65737500D03*
X81762500Y-65737500D03*
X80962500Y-65737500D03*
X80162500Y-65737500D03*
X79362500Y-65737500D03*
X78562500Y-65737500D03*
X77762500Y-65737500D03*
X76962500Y-65737500D03*
D21*
X75262500Y-67437500D03*
X75262500Y-68237500D03*
X75262500Y-69037500D03*
X75262500Y-69837500D03*
X75262500Y-70637500D03*
X75262500Y-71437500D03*
X75262500Y-72237500D03*
X75262500Y-73037500D03*
X75262500Y-73837500D03*
X75262500Y-74637500D03*
X75262500Y-75437500D03*
D22*
X73743750Y-51593750D03*
X67543750Y-55293750D03*
X73743750Y-55293750D03*
X67543750Y-51593750D03*
G36*
G01*
X154387500Y-75062502D02*
X154387500Y-74162498D01*
G75*
G02*
X154637498Y-73912500I249998J0D01*
G01*
X155162502Y-73912500D01*
G75*
G02*
X155412500Y-74162498I0J-249998D01*
G01*
X155412500Y-75062502D01*
G75*
G02*
X155162502Y-75312500I-249998J0D01*
G01*
X154637498Y-75312500D01*
G75*
G02*
X154387500Y-75062502I0J249998D01*
G01*
G37*
G36*
G01*
X152562500Y-75062502D02*
X152562500Y-74162498D01*
G75*
G02*
X152812498Y-73912500I249998J0D01*
G01*
X153337502Y-73912500D01*
G75*
G02*
X153587500Y-74162498I0J-249998D01*
G01*
X153587500Y-75062502D01*
G75*
G02*
X153337502Y-75312500I-249998J0D01*
G01*
X152812498Y-75312500D01*
G75*
G02*
X152562500Y-75062502I0J249998D01*
G01*
G37*
G36*
G01*
X67812498Y-35206250D02*
X68712502Y-35206250D01*
G75*
G02*
X68962500Y-35456248I0J-249998D01*
G01*
X68962500Y-35981252D01*
G75*
G02*
X68712502Y-36231250I-249998J0D01*
G01*
X67812498Y-36231250D01*
G75*
G02*
X67562500Y-35981252I0J249998D01*
G01*
X67562500Y-35456248D01*
G75*
G02*
X67812498Y-35206250I249998J0D01*
G01*
G37*
G36*
G01*
X67812498Y-33381250D02*
X68712502Y-33381250D01*
G75*
G02*
X68962500Y-33631248I0J-249998D01*
G01*
X68962500Y-34156252D01*
G75*
G02*
X68712502Y-34406250I-249998J0D01*
G01*
X67812498Y-34406250D01*
G75*
G02*
X67562500Y-34156252I0J249998D01*
G01*
X67562500Y-33631248D01*
G75*
G02*
X67812498Y-33381250I249998J0D01*
G01*
G37*
G36*
G01*
X55112498Y-35206250D02*
X56012502Y-35206250D01*
G75*
G02*
X56262500Y-35456248I0J-249998D01*
G01*
X56262500Y-35981252D01*
G75*
G02*
X56012502Y-36231250I-249998J0D01*
G01*
X55112498Y-36231250D01*
G75*
G02*
X54862500Y-35981252I0J249998D01*
G01*
X54862500Y-35456248D01*
G75*
G02*
X55112498Y-35206250I249998J0D01*
G01*
G37*
G36*
G01*
X55112498Y-33381250D02*
X56012502Y-33381250D01*
G75*
G02*
X56262500Y-33631248I0J-249998D01*
G01*
X56262500Y-34156252D01*
G75*
G02*
X56012502Y-34406250I-249998J0D01*
G01*
X55112498Y-34406250D01*
G75*
G02*
X54862500Y-34156252I0J249998D01*
G01*
X54862500Y-33631248D01*
G75*
G02*
X55112498Y-33381250I249998J0D01*
G01*
G37*
G36*
G01*
X40087500Y-94112502D02*
X40087500Y-93212498D01*
G75*
G02*
X40337498Y-92962500I249998J0D01*
G01*
X40862502Y-92962500D01*
G75*
G02*
X41112500Y-93212498I0J-249998D01*
G01*
X41112500Y-94112502D01*
G75*
G02*
X40862502Y-94362500I-249998J0D01*
G01*
X40337498Y-94362500D01*
G75*
G02*
X40087500Y-94112502I0J249998D01*
G01*
G37*
G36*
G01*
X38262500Y-94112502D02*
X38262500Y-93212498D01*
G75*
G02*
X38512498Y-92962500I249998J0D01*
G01*
X39037502Y-92962500D01*
G75*
G02*
X39287500Y-93212498I0J-249998D01*
G01*
X39287500Y-94112502D01*
G75*
G02*
X39037502Y-94362500I-249998J0D01*
G01*
X38512498Y-94362500D01*
G75*
G02*
X38262500Y-94112502I0J249998D01*
G01*
G37*
G36*
G01*
X86918750Y-82206252D02*
X86918750Y-81306248D01*
G75*
G02*
X87168748Y-81056250I249998J0D01*
G01*
X87693752Y-81056250D01*
G75*
G02*
X87943750Y-81306248I0J-249998D01*
G01*
X87943750Y-82206252D01*
G75*
G02*
X87693752Y-82456250I-249998J0D01*
G01*
X87168748Y-82456250D01*
G75*
G02*
X86918750Y-82206252I0J249998D01*
G01*
G37*
G36*
G01*
X85093750Y-82206252D02*
X85093750Y-81306248D01*
G75*
G02*
X85343748Y-81056250I249998J0D01*
G01*
X85868752Y-81056250D01*
G75*
G02*
X86118750Y-81306248I0J-249998D01*
G01*
X86118750Y-82206252D01*
G75*
G02*
X85868752Y-82456250I-249998J0D01*
G01*
X85343748Y-82456250D01*
G75*
G02*
X85093750Y-82206252I0J249998D01*
G01*
G37*
G36*
G01*
X60902002Y-44812000D02*
X60001998Y-44812000D01*
G75*
G02*
X59752000Y-44562002I0J249998D01*
G01*
X59752000Y-44036998D01*
G75*
G02*
X60001998Y-43787000I249998J0D01*
G01*
X60902002Y-43787000D01*
G75*
G02*
X61152000Y-44036998I0J-249998D01*
G01*
X61152000Y-44562002D01*
G75*
G02*
X60902002Y-44812000I-249998J0D01*
G01*
G37*
G36*
G01*
X60902002Y-46637000D02*
X60001998Y-46637000D01*
G75*
G02*
X59752000Y-46387002I0J249998D01*
G01*
X59752000Y-45861998D01*
G75*
G02*
X60001998Y-45612000I249998J0D01*
G01*
X60902002Y-45612000D01*
G75*
G02*
X61152000Y-45861998I0J-249998D01*
G01*
X61152000Y-46387002D01*
G75*
G02*
X60902002Y-46637000I-249998J0D01*
G01*
G37*
G36*
G01*
X62807002Y-44812000D02*
X61906998Y-44812000D01*
G75*
G02*
X61657000Y-44562002I0J249998D01*
G01*
X61657000Y-44036998D01*
G75*
G02*
X61906998Y-43787000I249998J0D01*
G01*
X62807002Y-43787000D01*
G75*
G02*
X63057000Y-44036998I0J-249998D01*
G01*
X63057000Y-44562002D01*
G75*
G02*
X62807002Y-44812000I-249998J0D01*
G01*
G37*
G36*
G01*
X62807002Y-46637000D02*
X61906998Y-46637000D01*
G75*
G02*
X61657000Y-46387002I0J249998D01*
G01*
X61657000Y-45861998D01*
G75*
G02*
X61906998Y-45612000I249998J0D01*
G01*
X62807002Y-45612000D01*
G75*
G02*
X63057000Y-45861998I0J-249998D01*
G01*
X63057000Y-46387002D01*
G75*
G02*
X62807002Y-46637000I-249998J0D01*
G01*
G37*
G36*
G01*
X67068750Y-57493748D02*
X67068750Y-58393752D01*
G75*
G02*
X66818752Y-58643750I-249998J0D01*
G01*
X66293748Y-58643750D01*
G75*
G02*
X66043750Y-58393752I0J249998D01*
G01*
X66043750Y-57493748D01*
G75*
G02*
X66293748Y-57243750I249998J0D01*
G01*
X66818752Y-57243750D01*
G75*
G02*
X67068750Y-57493748I0J-249998D01*
G01*
G37*
G36*
G01*
X68893750Y-57493748D02*
X68893750Y-58393752D01*
G75*
G02*
X68643752Y-58643750I-249998J0D01*
G01*
X68118748Y-58643750D01*
G75*
G02*
X67868750Y-58393752I0J249998D01*
G01*
X67868750Y-57493748D01*
G75*
G02*
X68118748Y-57243750I249998J0D01*
G01*
X68643752Y-57243750D01*
G75*
G02*
X68893750Y-57493748I0J-249998D01*
G01*
G37*
D14*
X259397500Y-122555000D03*
D15*
X261937500Y-117475000D03*
D14*
X265747500Y-120015000D03*
D16*
X267017500Y-117475000D03*
X256857500Y-117475000D03*
D14*
X240347500Y-122555000D03*
D15*
X242887500Y-117475000D03*
D14*
X246697500Y-120015000D03*
D16*
X247967500Y-117475000D03*
X237807500Y-117475000D03*
D14*
X221297500Y-122555000D03*
D15*
X223837500Y-117475000D03*
D14*
X227647500Y-120015000D03*
D16*
X228917500Y-117475000D03*
X218757500Y-117475000D03*
D14*
X202247500Y-122555000D03*
D15*
X204787500Y-117475000D03*
D14*
X208597500Y-120015000D03*
D16*
X209867500Y-117475000D03*
X199707500Y-117475000D03*
D14*
X183197500Y-122555000D03*
D15*
X185737500Y-117475000D03*
D14*
X189547500Y-120015000D03*
D16*
X190817500Y-117475000D03*
X180657500Y-117475000D03*
D14*
X164147500Y-122555000D03*
D15*
X166687500Y-117475000D03*
D14*
X170497500Y-120015000D03*
D16*
X171767500Y-117475000D03*
X161607500Y-117475000D03*
D14*
X145097500Y-122555000D03*
D15*
X147637500Y-117475000D03*
D14*
X151447500Y-120015000D03*
D16*
X152717500Y-117475000D03*
X142557500Y-117475000D03*
D14*
X126047500Y-122555000D03*
D15*
X128587500Y-117475000D03*
D14*
X132397500Y-120015000D03*
D16*
X133667500Y-117475000D03*
X123507500Y-117475000D03*
D14*
X106997500Y-122555000D03*
D15*
X109537500Y-117475000D03*
D14*
X113347500Y-120015000D03*
D16*
X114617500Y-117475000D03*
X104457500Y-117475000D03*
D14*
X87947500Y-122555000D03*
D15*
X90487500Y-117475000D03*
D14*
X94297500Y-120015000D03*
D16*
X95567500Y-117475000D03*
X85407500Y-117475000D03*
D14*
X68897500Y-122555000D03*
D15*
X71437500Y-117475000D03*
D14*
X75247500Y-120015000D03*
D16*
X76517500Y-117475000D03*
X66357500Y-117475000D03*
D14*
X49847500Y-122555000D03*
D15*
X52387500Y-117475000D03*
D14*
X56197500Y-120015000D03*
D16*
X57467500Y-117475000D03*
X47307500Y-117475000D03*
D14*
X30797500Y-122555000D03*
D15*
X33337500Y-117475000D03*
D14*
X37147500Y-120015000D03*
D16*
X38417500Y-117475000D03*
X28257500Y-117475000D03*
D14*
X259397500Y-103505000D03*
D15*
X261937500Y-98425000D03*
D14*
X265747500Y-100965000D03*
D16*
X267017500Y-98425000D03*
X256857500Y-98425000D03*
D14*
X240347500Y-103505000D03*
D15*
X242887500Y-98425000D03*
D14*
X246697500Y-100965000D03*
D16*
X247967500Y-98425000D03*
X237807500Y-98425000D03*
D14*
X221297500Y-103505000D03*
D15*
X223837500Y-98425000D03*
D14*
X227647500Y-100965000D03*
D16*
X228917500Y-98425000D03*
X218757500Y-98425000D03*
D14*
X202247500Y-103505000D03*
D15*
X204787500Y-98425000D03*
D14*
X208597500Y-100965000D03*
D16*
X209867500Y-98425000D03*
X199707500Y-98425000D03*
D14*
X183197500Y-103505000D03*
D15*
X185737500Y-98425000D03*
D14*
X189547500Y-100965000D03*
D16*
X190817500Y-98425000D03*
X180657500Y-98425000D03*
D14*
X164147500Y-103505000D03*
D15*
X166687500Y-98425000D03*
D14*
X170497500Y-100965000D03*
D16*
X171767500Y-98425000D03*
X161607500Y-98425000D03*
D14*
X145097500Y-103505000D03*
D15*
X147637500Y-98425000D03*
D14*
X151447500Y-100965000D03*
D16*
X152717500Y-98425000D03*
X142557500Y-98425000D03*
D14*
X126047500Y-103505000D03*
D15*
X128587500Y-98425000D03*
D14*
X132397500Y-100965000D03*
D16*
X133667500Y-98425000D03*
X123507500Y-98425000D03*
D14*
X106997500Y-103505000D03*
D15*
X109537500Y-98425000D03*
D14*
X113347500Y-100965000D03*
D16*
X114617500Y-98425000D03*
X104457500Y-98425000D03*
D14*
X87947500Y-103505000D03*
D15*
X90487500Y-98425000D03*
D14*
X94297500Y-100965000D03*
D16*
X95567500Y-98425000D03*
X85407500Y-98425000D03*
D14*
X68897500Y-103505000D03*
D15*
X71437500Y-98425000D03*
D14*
X75247500Y-100965000D03*
D16*
X76517500Y-98425000D03*
X66357500Y-98425000D03*
D14*
X49847500Y-103505000D03*
D15*
X52387500Y-98425000D03*
D14*
X56197500Y-100965000D03*
D16*
X57467500Y-98425000D03*
X47307500Y-98425000D03*
D14*
X259397500Y-84455000D03*
D15*
X261937500Y-79375000D03*
D14*
X265747500Y-81915000D03*
D16*
X267017500Y-79375000D03*
X256857500Y-79375000D03*
D14*
X240347500Y-84455000D03*
D15*
X242887500Y-79375000D03*
D14*
X246697500Y-81915000D03*
D16*
X247967500Y-79375000D03*
X237807500Y-79375000D03*
D14*
X221297500Y-84455000D03*
D15*
X223837500Y-79375000D03*
D14*
X227647500Y-81915000D03*
D16*
X228917500Y-79375000D03*
X218757500Y-79375000D03*
D14*
X202247500Y-84455000D03*
D15*
X204787500Y-79375000D03*
D14*
X208597500Y-81915000D03*
D16*
X209867500Y-79375000D03*
X199707500Y-79375000D03*
D14*
X183197500Y-84455000D03*
D15*
X185737500Y-79375000D03*
D14*
X189547500Y-81915000D03*
D16*
X190817500Y-79375000D03*
X180657500Y-79375000D03*
D14*
X145097500Y-84455000D03*
D15*
X147637500Y-79375000D03*
D14*
X151447500Y-81915000D03*
D16*
X152717500Y-79375000D03*
X142557500Y-79375000D03*
D14*
X126047500Y-84455000D03*
D15*
X128587500Y-79375000D03*
D14*
X132397500Y-81915000D03*
D16*
X133667500Y-79375000D03*
X123507500Y-79375000D03*
D14*
X106997500Y-84455000D03*
D15*
X109537500Y-79375000D03*
D14*
X113347500Y-81915000D03*
D16*
X114617500Y-79375000D03*
X104457500Y-79375000D03*
D14*
X49847500Y-84455000D03*
D15*
X52387500Y-79375000D03*
D14*
X56197500Y-81915000D03*
D16*
X57467500Y-79375000D03*
X47307500Y-79375000D03*
D14*
X30797500Y-84455000D03*
D15*
X33337500Y-79375000D03*
D14*
X37147500Y-81915000D03*
D16*
X38417500Y-79375000D03*
X28257500Y-79375000D03*
D14*
X259397500Y-65405000D03*
D15*
X261937500Y-60325000D03*
D14*
X265747500Y-62865000D03*
D16*
X267017500Y-60325000D03*
X256857500Y-60325000D03*
D14*
X240347500Y-65405000D03*
D15*
X242887500Y-60325000D03*
D14*
X246697500Y-62865000D03*
D16*
X247967500Y-60325000D03*
X237807500Y-60325000D03*
D14*
X221297500Y-65405000D03*
D15*
X223837500Y-60325000D03*
D14*
X227647500Y-62865000D03*
D16*
X228917500Y-60325000D03*
X218757500Y-60325000D03*
D14*
X202247500Y-65405000D03*
D15*
X204787500Y-60325000D03*
D14*
X208597500Y-62865000D03*
D16*
X209867500Y-60325000D03*
X199707500Y-60325000D03*
D14*
X183197500Y-65405000D03*
D15*
X185737500Y-60325000D03*
D14*
X189547500Y-62865000D03*
D16*
X190817500Y-60325000D03*
X180657500Y-60325000D03*
D14*
X164147500Y-65405000D03*
D15*
X166687500Y-60325000D03*
D14*
X170497500Y-62865000D03*
D16*
X171767500Y-60325000D03*
X161607500Y-60325000D03*
D14*
X145097500Y-65405000D03*
D15*
X147637500Y-60325000D03*
D14*
X151447500Y-62865000D03*
D16*
X152717500Y-60325000D03*
X142557500Y-60325000D03*
D14*
X126047500Y-65405000D03*
D15*
X128587500Y-60325000D03*
D14*
X132397500Y-62865000D03*
D16*
X133667500Y-60325000D03*
X123507500Y-60325000D03*
D14*
X106997500Y-65405000D03*
D15*
X109537500Y-60325000D03*
D14*
X113347500Y-62865000D03*
D16*
X114617500Y-60325000D03*
X104457500Y-60325000D03*
D14*
X49847500Y-65405000D03*
D15*
X52387500Y-60325000D03*
D14*
X56197500Y-62865000D03*
D16*
X57467500Y-60325000D03*
X47307500Y-60325000D03*
D14*
X30797500Y-65405000D03*
D15*
X33337500Y-60325000D03*
D14*
X37147500Y-62865000D03*
D16*
X38417500Y-60325000D03*
X28257500Y-60325000D03*
D14*
X259397500Y-46355000D03*
D15*
X261937500Y-41275000D03*
D14*
X265747500Y-43815000D03*
D16*
X267017500Y-41275000D03*
X256857500Y-41275000D03*
D14*
X240347500Y-46355000D03*
D15*
X242887500Y-41275000D03*
D14*
X246697500Y-43815000D03*
D16*
X247967500Y-41275000D03*
X237807500Y-41275000D03*
D14*
X221297500Y-46355000D03*
D15*
X223837500Y-41275000D03*
D14*
X227647500Y-43815000D03*
D16*
X228917500Y-41275000D03*
X218757500Y-41275000D03*
D14*
X202247500Y-46355000D03*
D15*
X204787500Y-41275000D03*
D14*
X208597500Y-43815000D03*
D16*
X209867500Y-41275000D03*
X199707500Y-41275000D03*
D14*
X183197500Y-46355000D03*
D15*
X185737500Y-41275000D03*
D14*
X189547500Y-43815000D03*
D16*
X190817500Y-41275000D03*
X180657500Y-41275000D03*
D14*
X164147500Y-46355000D03*
D15*
X166687500Y-41275000D03*
D14*
X170497500Y-43815000D03*
D16*
X171767500Y-41275000D03*
X161607500Y-41275000D03*
D14*
X145097500Y-46355000D03*
D15*
X147637500Y-41275000D03*
D14*
X151447500Y-43815000D03*
D16*
X152717500Y-41275000D03*
X142557500Y-41275000D03*
D14*
X126047500Y-46355000D03*
D15*
X128587500Y-41275000D03*
D14*
X132397500Y-43815000D03*
D16*
X133667500Y-41275000D03*
X123507500Y-41275000D03*
D14*
X106997500Y-46355000D03*
D15*
X109537500Y-41275000D03*
D14*
X113347500Y-43815000D03*
D16*
X114617500Y-41275000D03*
X104457500Y-41275000D03*
D14*
X87947500Y-46355000D03*
D15*
X90487500Y-41275000D03*
D14*
X94297500Y-43815000D03*
D16*
X95567500Y-41275000D03*
X85407500Y-41275000D03*
D14*
X49847500Y-46355000D03*
D15*
X52387500Y-41275000D03*
D14*
X56197500Y-43815000D03*
D16*
X57467500Y-41275000D03*
X47307500Y-41275000D03*
D14*
X30797500Y-46355000D03*
D15*
X33337500Y-41275000D03*
D14*
X37147500Y-43815000D03*
D16*
X38417500Y-41275000D03*
X28257500Y-41275000D03*
D23*
X65112500Y-32736000D03*
X64312500Y-32736000D03*
X65112500Y-32736000D03*
X64312500Y-32736000D03*
X58712500Y-32736000D03*
X58712500Y-32736000D03*
X59512500Y-32736000D03*
X59512500Y-32736000D03*
D24*
X59022500Y-31676000D03*
X64802500Y-31676000D03*
D25*
X63662500Y-32736000D03*
X62662500Y-32736000D03*
X63162500Y-32736000D03*
X60662500Y-32736000D03*
X60162500Y-32736000D03*
X62162500Y-32736000D03*
X61662500Y-32736000D03*
X61162500Y-32736000D03*
D26*
X66232500Y-27986000D03*
X57592500Y-27986000D03*
D27*
X66232500Y-32156000D03*
X57592500Y-32156000D03*
D28*
X147637500Y-74612500D03*
G36*
G01*
X148712500Y-75297500D02*
X148712500Y-73927500D01*
G75*
G02*
X148902500Y-73737500I190000J0D01*
G01*
X149472500Y-73737500D01*
G75*
G02*
X149662500Y-73927500I0J-190000D01*
G01*
X149662500Y-75297500D01*
G75*
G02*
X149472500Y-75487500I-190000J0D01*
G01*
X148902500Y-75487500D01*
G75*
G02*
X148712500Y-75297500I0J190000D01*
G01*
G37*
G36*
G01*
X145612500Y-75297500D02*
X145612500Y-73927500D01*
G75*
G02*
X145802500Y-73737500I190000J0D01*
G01*
X146372500Y-73737500D01*
G75*
G02*
X146562500Y-73927500I0J-190000D01*
G01*
X146562500Y-75297500D01*
G75*
G02*
X146372500Y-75487500I-190000J0D01*
G01*
X145802500Y-75487500D01*
G75*
G02*
X145612500Y-75297500I0J190000D01*
G01*
G37*
X33337500Y-93662500D03*
G36*
G01*
X34412500Y-94347500D02*
X34412500Y-92977500D01*
G75*
G02*
X34602500Y-92787500I190000J0D01*
G01*
X35172500Y-92787500D01*
G75*
G02*
X35362500Y-92977500I0J-190000D01*
G01*
X35362500Y-94347500D01*
G75*
G02*
X35172500Y-94537500I-190000J0D01*
G01*
X34602500Y-94537500D01*
G75*
G02*
X34412500Y-94347500I0J190000D01*
G01*
G37*
G36*
G01*
X31312500Y-94347500D02*
X31312500Y-92977500D01*
G75*
G02*
X31502500Y-92787500I190000J0D01*
G01*
X32072500Y-92787500D01*
G75*
G02*
X32262500Y-92977500I0J-190000D01*
G01*
X32262500Y-94347500D01*
G75*
G02*
X32072500Y-94537500I-190000J0D01*
G01*
X31502500Y-94537500D01*
G75*
G02*
X31312500Y-94347500I0J190000D01*
G01*
G37*
D29*
X254000000Y-119125000D03*
X254000000Y-115825000D03*
X234950000Y-119125000D03*
X234950000Y-115825000D03*
X215900000Y-119125000D03*
X215900000Y-115825000D03*
X196850000Y-119125000D03*
X196850000Y-115825000D03*
X177800000Y-119125000D03*
X177800000Y-115825000D03*
X158750000Y-119125000D03*
X158750000Y-115825000D03*
X139700000Y-119125000D03*
X139700000Y-115825000D03*
X120650000Y-119125000D03*
X120650000Y-115825000D03*
X101600000Y-119125000D03*
X101600000Y-115825000D03*
X82550000Y-119125000D03*
X82550000Y-115825000D03*
X63500000Y-119125000D03*
X63500000Y-115825000D03*
X44450000Y-119125000D03*
X44450000Y-115825000D03*
X25400000Y-119125000D03*
X25400000Y-115825000D03*
X254000000Y-100075000D03*
X254000000Y-96775000D03*
X234950000Y-100075000D03*
X234950000Y-96775000D03*
X215900000Y-100075000D03*
X215900000Y-96775000D03*
X196850000Y-100075000D03*
X196850000Y-96775000D03*
X177800000Y-100075000D03*
X177800000Y-96775000D03*
X158750000Y-100075000D03*
X158750000Y-96775000D03*
X139700000Y-100075000D03*
X139700000Y-96775000D03*
X120650000Y-100075000D03*
X120650000Y-96775000D03*
X101600000Y-100075000D03*
X101600000Y-96775000D03*
X82550000Y-100075000D03*
X82550000Y-96775000D03*
X63500000Y-100075000D03*
X63500000Y-96775000D03*
X44450000Y-100075000D03*
X44450000Y-96775000D03*
X25400000Y-100075000D03*
X25400000Y-96775000D03*
X254000000Y-81025000D03*
X254000000Y-77725000D03*
X234950000Y-81025000D03*
X234950000Y-77725000D03*
X215900000Y-81025000D03*
X215900000Y-77725000D03*
X196850000Y-81025000D03*
X196850000Y-77725000D03*
X177800000Y-81025000D03*
X177800000Y-77725000D03*
X158750000Y-81025000D03*
X158750000Y-77725000D03*
X139700000Y-81025000D03*
X139700000Y-77725000D03*
X120650000Y-81025000D03*
X120650000Y-77725000D03*
X101600000Y-81025000D03*
X101600000Y-77725000D03*
X98425000Y-81025000D03*
X98425000Y-77725000D03*
X63500000Y-81025000D03*
X63500000Y-77725000D03*
X44450000Y-81025000D03*
X44450000Y-77725000D03*
X25400000Y-81025000D03*
X25400000Y-77725000D03*
X254000000Y-61975000D03*
X254000000Y-58675000D03*
X234950000Y-61975000D03*
X234950000Y-58675000D03*
X215900000Y-61975000D03*
X215900000Y-58675000D03*
X196850000Y-61975000D03*
X196850000Y-58675000D03*
X177800000Y-61975000D03*
X177800000Y-58675000D03*
X158750000Y-61975000D03*
X158750000Y-58675000D03*
X139700000Y-61975000D03*
X139700000Y-58675000D03*
X120650000Y-61975000D03*
X120650000Y-58675000D03*
X101600000Y-61975000D03*
X101600000Y-58675000D03*
X98425000Y-61975000D03*
X98425000Y-58675000D03*
D30*
X66737500Y-63500000D03*
X63437500Y-63500000D03*
D29*
X44450000Y-61975000D03*
X44450000Y-58675000D03*
X25400000Y-61975000D03*
X25400000Y-58675000D03*
X254000000Y-42925000D03*
X254000000Y-39625000D03*
X234950000Y-42925000D03*
X234950000Y-39625000D03*
X215900000Y-42925000D03*
X215900000Y-39625000D03*
X196850000Y-42925000D03*
X196850000Y-39625000D03*
X177800000Y-42925000D03*
X177800000Y-39625000D03*
X158750000Y-42925000D03*
X158750000Y-39625000D03*
X139700000Y-42925000D03*
X139700000Y-39625000D03*
X120650000Y-42925000D03*
X120650000Y-39625000D03*
X101600000Y-42925000D03*
X101600000Y-39625000D03*
X82550000Y-42925000D03*
X82550000Y-39625000D03*
X79375000Y-42925000D03*
X79375000Y-39625000D03*
X44450000Y-42925000D03*
X44450000Y-39625000D03*
X25400000Y-42925000D03*
X25400000Y-39625000D03*
G36*
G01*
X75543750Y-85406250D02*
X75543750Y-84456250D01*
G75*
G02*
X75793750Y-84206250I250000J0D01*
G01*
X76293750Y-84206250D01*
G75*
G02*
X76543750Y-84456250I0J-250000D01*
G01*
X76543750Y-85406250D01*
G75*
G02*
X76293750Y-85656250I-250000J0D01*
G01*
X75793750Y-85656250D01*
G75*
G02*
X75543750Y-85406250I0J250000D01*
G01*
G37*
G36*
G01*
X77443750Y-85406250D02*
X77443750Y-84456250D01*
G75*
G02*
X77693750Y-84206250I250000J0D01*
G01*
X78193750Y-84206250D01*
G75*
G02*
X78443750Y-84456250I0J-250000D01*
G01*
X78443750Y-85406250D01*
G75*
G02*
X78193750Y-85656250I-250000J0D01*
G01*
X77693750Y-85656250D01*
G75*
G02*
X77443750Y-85406250I0J250000D01*
G01*
G37*
G36*
G01*
X90518000Y-68826000D02*
X89568000Y-68826000D01*
G75*
G02*
X89318000Y-68576000I0J250000D01*
G01*
X89318000Y-68076000D01*
G75*
G02*
X89568000Y-67826000I250000J0D01*
G01*
X90518000Y-67826000D01*
G75*
G02*
X90768000Y-68076000I0J-250000D01*
G01*
X90768000Y-68576000D01*
G75*
G02*
X90518000Y-68826000I-250000J0D01*
G01*
G37*
G36*
G01*
X90518000Y-66926000D02*
X89568000Y-66926000D01*
G75*
G02*
X89318000Y-66676000I0J250000D01*
G01*
X89318000Y-66176000D01*
G75*
G02*
X89568000Y-65926000I250000J0D01*
G01*
X90518000Y-65926000D01*
G75*
G02*
X90768000Y-66176000I0J-250000D01*
G01*
X90768000Y-66676000D01*
G75*
G02*
X90518000Y-66926000I-250000J0D01*
G01*
G37*
G36*
G01*
X76337500Y-58418750D02*
X76337500Y-57468750D01*
G75*
G02*
X76587500Y-57218750I250000J0D01*
G01*
X77087500Y-57218750D01*
G75*
G02*
X77337500Y-57468750I0J-250000D01*
G01*
X77337500Y-58418750D01*
G75*
G02*
X77087500Y-58668750I-250000J0D01*
G01*
X76587500Y-58668750D01*
G75*
G02*
X76337500Y-58418750I0J250000D01*
G01*
G37*
G36*
G01*
X78237500Y-58418750D02*
X78237500Y-57468750D01*
G75*
G02*
X78487500Y-57218750I250000J0D01*
G01*
X78987500Y-57218750D01*
G75*
G02*
X79237500Y-57468750I0J-250000D01*
G01*
X79237500Y-58418750D01*
G75*
G02*
X78987500Y-58668750I-250000J0D01*
G01*
X78487500Y-58668750D01*
G75*
G02*
X78237500Y-58418750I0J250000D01*
G01*
G37*
G36*
G01*
X81913750Y-53525000D02*
X80963750Y-53525000D01*
G75*
G02*
X80713750Y-53275000I0J250000D01*
G01*
X80713750Y-52775000D01*
G75*
G02*
X80963750Y-52525000I250000J0D01*
G01*
X81913750Y-52525000D01*
G75*
G02*
X82163750Y-52775000I0J-250000D01*
G01*
X82163750Y-53275000D01*
G75*
G02*
X81913750Y-53525000I-250000J0D01*
G01*
G37*
G36*
G01*
X81913750Y-55425000D02*
X80963750Y-55425000D01*
G75*
G02*
X80713750Y-55175000I0J250000D01*
G01*
X80713750Y-54675000D01*
G75*
G02*
X80963750Y-54425000I250000J0D01*
G01*
X81913750Y-54425000D01*
G75*
G02*
X82163750Y-54675000I0J-250000D01*
G01*
X82163750Y-55175000D01*
G75*
G02*
X81913750Y-55425000I-250000J0D01*
G01*
G37*
G36*
G01*
X84199750Y-53525000D02*
X83249750Y-53525000D01*
G75*
G02*
X82999750Y-53275000I0J250000D01*
G01*
X82999750Y-52775000D01*
G75*
G02*
X83249750Y-52525000I250000J0D01*
G01*
X84199750Y-52525000D01*
G75*
G02*
X84449750Y-52775000I0J-250000D01*
G01*
X84449750Y-53275000D01*
G75*
G02*
X84199750Y-53525000I-250000J0D01*
G01*
G37*
G36*
G01*
X84199750Y-55425000D02*
X83249750Y-55425000D01*
G75*
G02*
X82999750Y-55175000I0J250000D01*
G01*
X82999750Y-54675000D01*
G75*
G02*
X83249750Y-54425000I250000J0D01*
G01*
X84199750Y-54425000D01*
G75*
G02*
X84449750Y-54675000I0J-250000D01*
G01*
X84449750Y-55175000D01*
G75*
G02*
X84199750Y-55425000I-250000J0D01*
G01*
G37*
M02*
