%FSLAX45Y45*%
G04 Gerber Fmt 4.5, Leading zero omitted, Abs format (unit mm)*
G04 Created by KiCad (PCBNEW 5.1.9+dfsg1-1) date 2021-12-29 06:26:32*
%MOMM*%
%LPD*%
G01*
G04 APERTURE LIST*
%TA.AperFunction,Profile*%
%ADD10C,0.200000*%
%TD*%
%ADD11C,0.200000*%
%ADD12C,0.300000*%
G04 APERTURE END LIST*
D10*
X18514479Y-13103060D02*
X11008906Y-13103060D01*
X19408906Y-2778060D02*
X26977035Y-2778060D01*
X27027035Y-12985903D02*
X27027035Y-13053060D01*
X27027035Y-12985903D02*
G75*
G02*
X27427035Y-12585903I400000J0D01*
G01*
X27494193Y-12585903D02*
X27427035Y-12585903D01*
X27544193Y-12535903D02*
G75*
G02*
X27494193Y-12585903I-50000J0D01*
G01*
X19359216Y-2822504D02*
G75*
G02*
X18564170Y-2822504I-397523J44444D01*
G01*
X5668482Y-2748771D02*
X5739193Y-2678060D01*
X10114479Y-2778060D02*
G75*
G02*
X10164170Y-2822504I0J-50000D01*
G01*
X27494193Y-3295217D02*
G75*
G02*
X27544193Y-3345217I0J-50000D01*
G01*
X11008906Y-2778060D02*
X18514479Y-2778060D01*
X6639193Y-2678060D02*
X6709903Y-2748771D01*
X19408906Y-13103060D02*
G75*
G02*
X19359216Y-13058615I0J50000D01*
G01*
X26977035Y-13103060D02*
X19408906Y-13103060D01*
X19359216Y-2822504D02*
G75*
G02*
X19408906Y-2778060I49690J-5556D01*
G01*
X2496350Y-2895217D02*
G75*
G02*
X2096350Y-3295217I-400000J0D01*
G01*
X2096350Y-12585903D02*
X2029193Y-12585903D01*
X27544193Y-3345217D02*
X27544193Y-12535903D01*
X10255343Y-28767900D02*
X10255343Y-28767900D01*
X19255343Y-28767900D02*
X19255343Y-28767900D01*
X10855343Y-28767900D02*
X10855343Y-28767900D01*
X10959216Y-2822504D02*
G75*
G02*
X10164170Y-2822504I-397523J44444D01*
G01*
X10164170Y-13058616D02*
G75*
G02*
X10114479Y-13103060I-49690J5556D01*
G01*
X27427035Y-3295217D02*
X27494193Y-3295217D01*
X1979193Y-12535903D02*
X1979193Y-3345217D01*
X2496350Y-13053060D02*
X2496350Y-12985903D01*
X10114479Y-13103060D02*
X2546350Y-13103060D01*
X18514479Y-2778060D02*
G75*
G02*
X18564170Y-2822504I0J-50000D01*
G01*
X11008906Y-13103060D02*
G75*
G02*
X10959216Y-13058615I0J50000D01*
G01*
X18564170Y-13058616D02*
G75*
G02*
X19359216Y-13058615I397523J-44444D01*
G01*
X27027035Y-13053060D02*
G75*
G02*
X26977035Y-13103060I-50000J0D01*
G01*
X2029193Y-12585903D02*
G75*
G02*
X1979193Y-12535903I0J50000D01*
G01*
X2096350Y-12585903D02*
G75*
G02*
X2496350Y-12985903I0J-400000D01*
G01*
X2496350Y-2895217D02*
X2496350Y-2828060D01*
X2496350Y-2828060D02*
G75*
G02*
X2546350Y-2778060I50000J0D01*
G01*
X2029193Y-3295217D02*
X2096350Y-3295217D01*
X1979193Y-3345217D02*
G75*
G02*
X2029193Y-3295217I50000J0D01*
G01*
X5739193Y-2678060D02*
X6639193Y-2678060D01*
X10164170Y-13058616D02*
G75*
G02*
X10959216Y-13058615I397523J-44444D01*
G01*
X5668482Y-2748771D02*
G75*
G02*
X5597771Y-2778060I-70711J70711D01*
G01*
X10959216Y-2822504D02*
G75*
G02*
X11008906Y-2778060I49690J-5556D01*
G01*
X18564170Y-13058616D02*
G75*
G02*
X18514479Y-13103060I-49690J5556D01*
G01*
X2546350Y-2778060D02*
X5597771Y-2778060D01*
X6780614Y-2778060D02*
G75*
G02*
X6709903Y-2748771I0J100000D01*
G01*
X26977035Y-2778060D02*
G75*
G02*
X27027035Y-2828060I0J-50000D01*
G01*
X27027035Y-2828060D02*
X27027035Y-2895217D01*
X6780614Y-2778060D02*
X10114479Y-2778060D01*
X27427035Y-3295217D02*
G75*
G02*
X27027035Y-2895217I0J400000D01*
G01*
X18655343Y-28767900D02*
X18655343Y-28767900D01*
X2546350Y-13103060D02*
G75*
G02*
X2496350Y-13053060I0J50000D01*
G01*
D11*
X5872250Y-3137600D02*
X5932250Y-3197600D01*
X5932250Y-3137600D02*
X5872250Y-3197600D01*
X6450250Y-3137600D02*
X6510250Y-3197600D01*
X6510250Y-3137600D02*
X6450250Y-3197600D01*
X2913250Y-4127500D02*
G75*
G03*
X2913250Y-4127500I-87500J0D01*
G01*
X2913250Y-6032500D02*
G75*
G03*
X2913250Y-6032500I-87500J0D01*
G01*
X2913250Y-7937500D02*
G75*
G03*
X2913250Y-7937500I-87500J0D01*
G01*
X2913250Y-9842500D02*
G75*
G03*
X2913250Y-9842500I-87500J0D01*
G01*
X2913250Y-11747500D02*
G75*
G03*
X2913250Y-11747500I-87500J0D01*
G01*
X3929250Y-4127500D02*
G75*
G03*
X3929250Y-4127500I-87500J0D01*
G01*
X3929250Y-6032500D02*
G75*
G03*
X3929250Y-6032500I-87500J0D01*
G01*
X3929250Y-7937500D02*
G75*
G03*
X3929250Y-7937500I-87500J0D01*
G01*
X3929250Y-9842500D02*
G75*
G03*
X3929250Y-9842500I-87500J0D01*
G01*
X3929250Y-11747500D02*
G75*
G03*
X3929250Y-11747500I-87500J0D01*
G01*
X4818250Y-4127500D02*
G75*
G03*
X4818250Y-4127500I-87500J0D01*
G01*
X4818250Y-6032500D02*
G75*
G03*
X4818250Y-6032500I-87500J0D01*
G01*
X4818250Y-7937500D02*
G75*
G03*
X4818250Y-7937500I-87500J0D01*
G01*
X4818250Y-9842500D02*
G75*
G03*
X4818250Y-9842500I-87500J0D01*
G01*
X4818250Y-11747500D02*
G75*
G03*
X4818250Y-11747500I-87500J0D01*
G01*
X5834250Y-4127500D02*
G75*
G03*
X5834250Y-4127500I-87500J0D01*
G01*
X5834250Y-6032500D02*
G75*
G03*
X5834250Y-6032500I-87500J0D01*
G01*
X5834250Y-7937500D02*
G75*
G03*
X5834250Y-7937500I-87500J0D01*
G01*
X5834250Y-9842500D02*
G75*
G03*
X5834250Y-9842500I-87500J0D01*
G01*
X5834250Y-11747500D02*
G75*
G03*
X5834250Y-11747500I-87500J0D01*
G01*
X6723250Y-4127500D02*
G75*
G03*
X6723250Y-4127500I-87500J0D01*
G01*
X6723250Y-6032500D02*
G75*
G03*
X6723250Y-6032500I-87500J0D01*
G01*
X6723250Y-7937500D02*
G75*
G03*
X6723250Y-7937500I-87500J0D01*
G01*
X6723250Y-9842500D02*
G75*
G03*
X6723250Y-9842500I-87500J0D01*
G01*
X6723250Y-11747500D02*
G75*
G03*
X6723250Y-11747500I-87500J0D01*
G01*
X7739250Y-4127500D02*
G75*
G03*
X7739250Y-4127500I-87500J0D01*
G01*
X7739250Y-6032500D02*
G75*
G03*
X7739250Y-6032500I-87500J0D01*
G01*
X7739250Y-7937500D02*
G75*
G03*
X7739250Y-7937500I-87500J0D01*
G01*
X7739250Y-9842500D02*
G75*
G03*
X7739250Y-9842500I-87500J0D01*
G01*
X7739250Y-11747500D02*
G75*
G03*
X7739250Y-11747500I-87500J0D01*
G01*
X8628250Y-4127500D02*
G75*
G03*
X8628250Y-4127500I-87500J0D01*
G01*
X8628250Y-6032500D02*
G75*
G03*
X8628250Y-6032500I-87500J0D01*
G01*
X8628250Y-7937500D02*
G75*
G03*
X8628250Y-7937500I-87500J0D01*
G01*
X8628250Y-9842500D02*
G75*
G03*
X8628250Y-9842500I-87500J0D01*
G01*
X8628250Y-11747500D02*
G75*
G03*
X8628250Y-11747500I-87500J0D01*
G01*
X9644250Y-4127500D02*
G75*
G03*
X9644250Y-4127500I-87500J0D01*
G01*
X9644250Y-6032500D02*
G75*
G03*
X9644250Y-6032500I-87500J0D01*
G01*
X9644250Y-7937500D02*
G75*
G03*
X9644250Y-7937500I-87500J0D01*
G01*
X9644250Y-9842500D02*
G75*
G03*
X9644250Y-9842500I-87500J0D01*
G01*
X9644250Y-11747500D02*
G75*
G03*
X9644250Y-11747500I-87500J0D01*
G01*
X10533250Y-4127500D02*
G75*
G03*
X10533250Y-4127500I-87500J0D01*
G01*
X10533250Y-6032500D02*
G75*
G03*
X10533250Y-6032500I-87500J0D01*
G01*
X10533250Y-7937500D02*
G75*
G03*
X10533250Y-7937500I-87500J0D01*
G01*
X10533250Y-9842500D02*
G75*
G03*
X10533250Y-9842500I-87500J0D01*
G01*
X10533250Y-11747500D02*
G75*
G03*
X10533250Y-11747500I-87500J0D01*
G01*
X11549250Y-4127500D02*
G75*
G03*
X11549250Y-4127500I-87500J0D01*
G01*
X11549250Y-6032500D02*
G75*
G03*
X11549250Y-6032500I-87500J0D01*
G01*
X11549250Y-7937500D02*
G75*
G03*
X11549250Y-7937500I-87500J0D01*
G01*
X11549250Y-9842500D02*
G75*
G03*
X11549250Y-9842500I-87500J0D01*
G01*
X11549250Y-11747500D02*
G75*
G03*
X11549250Y-11747500I-87500J0D01*
G01*
X12438250Y-4127500D02*
G75*
G03*
X12438250Y-4127500I-87500J0D01*
G01*
X12438250Y-6032500D02*
G75*
G03*
X12438250Y-6032500I-87500J0D01*
G01*
X12438250Y-7937500D02*
G75*
G03*
X12438250Y-7937500I-87500J0D01*
G01*
X12438250Y-9842500D02*
G75*
G03*
X12438250Y-9842500I-87500J0D01*
G01*
X12438250Y-11747500D02*
G75*
G03*
X12438250Y-11747500I-87500J0D01*
G01*
X13454250Y-4127500D02*
G75*
G03*
X13454250Y-4127500I-87500J0D01*
G01*
X13454250Y-6032500D02*
G75*
G03*
X13454250Y-6032500I-87500J0D01*
G01*
X13454250Y-7937500D02*
G75*
G03*
X13454250Y-7937500I-87500J0D01*
G01*
X13454250Y-9842500D02*
G75*
G03*
X13454250Y-9842500I-87500J0D01*
G01*
X13454250Y-11747500D02*
G75*
G03*
X13454250Y-11747500I-87500J0D01*
G01*
X14343250Y-4127500D02*
G75*
G03*
X14343250Y-4127500I-87500J0D01*
G01*
X14343250Y-6032500D02*
G75*
G03*
X14343250Y-6032500I-87500J0D01*
G01*
X14343250Y-7937500D02*
G75*
G03*
X14343250Y-7937500I-87500J0D01*
G01*
X14343250Y-9842500D02*
G75*
G03*
X14343250Y-9842500I-87500J0D01*
G01*
X14343250Y-11747500D02*
G75*
G03*
X14343250Y-11747500I-87500J0D01*
G01*
X15359250Y-4127500D02*
G75*
G03*
X15359250Y-4127500I-87500J0D01*
G01*
X15359250Y-6032500D02*
G75*
G03*
X15359250Y-6032500I-87500J0D01*
G01*
X15359250Y-7937500D02*
G75*
G03*
X15359250Y-7937500I-87500J0D01*
G01*
X15359250Y-9842500D02*
G75*
G03*
X15359250Y-9842500I-87500J0D01*
G01*
X15359250Y-11747500D02*
G75*
G03*
X15359250Y-11747500I-87500J0D01*
G01*
X16248250Y-4127500D02*
G75*
G03*
X16248250Y-4127500I-87500J0D01*
G01*
X16248250Y-6032500D02*
G75*
G03*
X16248250Y-6032500I-87500J0D01*
G01*
X16248250Y-7937500D02*
G75*
G03*
X16248250Y-7937500I-87500J0D01*
G01*
X16248250Y-9842500D02*
G75*
G03*
X16248250Y-9842500I-87500J0D01*
G01*
X16248250Y-11747500D02*
G75*
G03*
X16248250Y-11747500I-87500J0D01*
G01*
X17264250Y-4127500D02*
G75*
G03*
X17264250Y-4127500I-87500J0D01*
G01*
X17264250Y-6032500D02*
G75*
G03*
X17264250Y-6032500I-87500J0D01*
G01*
X17264250Y-7937500D02*
G75*
G03*
X17264250Y-7937500I-87500J0D01*
G01*
X17264250Y-9842500D02*
G75*
G03*
X17264250Y-9842500I-87500J0D01*
G01*
X17264250Y-11747500D02*
G75*
G03*
X17264250Y-11747500I-87500J0D01*
G01*
X18153250Y-4127500D02*
G75*
G03*
X18153250Y-4127500I-87500J0D01*
G01*
X18153250Y-6032500D02*
G75*
G03*
X18153250Y-6032500I-87500J0D01*
G01*
X18153250Y-7937500D02*
G75*
G03*
X18153250Y-7937500I-87500J0D01*
G01*
X18153250Y-9842500D02*
G75*
G03*
X18153250Y-9842500I-87500J0D01*
G01*
X18153250Y-11747500D02*
G75*
G03*
X18153250Y-11747500I-87500J0D01*
G01*
X19169250Y-4127500D02*
G75*
G03*
X19169250Y-4127500I-87500J0D01*
G01*
X19169250Y-6032500D02*
G75*
G03*
X19169250Y-6032500I-87500J0D01*
G01*
X19169250Y-7937500D02*
G75*
G03*
X19169250Y-7937500I-87500J0D01*
G01*
X19169250Y-9842500D02*
G75*
G03*
X19169250Y-9842500I-87500J0D01*
G01*
X19169250Y-11747500D02*
G75*
G03*
X19169250Y-11747500I-87500J0D01*
G01*
X20058250Y-4127500D02*
G75*
G03*
X20058250Y-4127500I-87500J0D01*
G01*
X20058250Y-6032500D02*
G75*
G03*
X20058250Y-6032500I-87500J0D01*
G01*
X20058250Y-7937500D02*
G75*
G03*
X20058250Y-7937500I-87500J0D01*
G01*
X20058250Y-9842500D02*
G75*
G03*
X20058250Y-9842500I-87500J0D01*
G01*
X20058250Y-11747500D02*
G75*
G03*
X20058250Y-11747500I-87500J0D01*
G01*
X21074250Y-4127500D02*
G75*
G03*
X21074250Y-4127500I-87500J0D01*
G01*
X21074250Y-6032500D02*
G75*
G03*
X21074250Y-6032500I-87500J0D01*
G01*
X21074250Y-7937500D02*
G75*
G03*
X21074250Y-7937500I-87500J0D01*
G01*
X21074250Y-9842500D02*
G75*
G03*
X21074250Y-9842500I-87500J0D01*
G01*
X21074250Y-11747500D02*
G75*
G03*
X21074250Y-11747500I-87500J0D01*
G01*
X21963250Y-4127500D02*
G75*
G03*
X21963250Y-4127500I-87500J0D01*
G01*
X21963250Y-6032500D02*
G75*
G03*
X21963250Y-6032500I-87500J0D01*
G01*
X21963250Y-7937500D02*
G75*
G03*
X21963250Y-7937500I-87500J0D01*
G01*
X21963250Y-9842500D02*
G75*
G03*
X21963250Y-9842500I-87500J0D01*
G01*
X21963250Y-11747500D02*
G75*
G03*
X21963250Y-11747500I-87500J0D01*
G01*
X22979250Y-4127500D02*
G75*
G03*
X22979250Y-4127500I-87500J0D01*
G01*
X22979250Y-6032500D02*
G75*
G03*
X22979250Y-6032500I-87500J0D01*
G01*
X22979250Y-7937500D02*
G75*
G03*
X22979250Y-7937500I-87500J0D01*
G01*
X22979250Y-9842500D02*
G75*
G03*
X22979250Y-9842500I-87500J0D01*
G01*
X22979250Y-11747500D02*
G75*
G03*
X22979250Y-11747500I-87500J0D01*
G01*
X23868250Y-4127500D02*
G75*
G03*
X23868250Y-4127500I-87500J0D01*
G01*
X23868250Y-6032500D02*
G75*
G03*
X23868250Y-6032500I-87500J0D01*
G01*
X23868250Y-7937500D02*
G75*
G03*
X23868250Y-7937500I-87500J0D01*
G01*
X23868250Y-9842500D02*
G75*
G03*
X23868250Y-9842500I-87500J0D01*
G01*
X23868250Y-11747500D02*
G75*
G03*
X23868250Y-11747500I-87500J0D01*
G01*
X24884250Y-4127500D02*
G75*
G03*
X24884250Y-4127500I-87500J0D01*
G01*
X24884250Y-6032500D02*
G75*
G03*
X24884250Y-6032500I-87500J0D01*
G01*
X24884250Y-7937500D02*
G75*
G03*
X24884250Y-7937500I-87500J0D01*
G01*
X24884250Y-9842500D02*
G75*
G03*
X24884250Y-9842500I-87500J0D01*
G01*
X24884250Y-11747500D02*
G75*
G03*
X24884250Y-11747500I-87500J0D01*
G01*
X25773250Y-4127500D02*
G75*
G03*
X25773250Y-4127500I-87500J0D01*
G01*
X25773250Y-6032500D02*
G75*
G03*
X25773250Y-6032500I-87500J0D01*
G01*
X25773250Y-7937500D02*
G75*
G03*
X25773250Y-7937500I-87500J0D01*
G01*
X25773250Y-9842500D02*
G75*
G03*
X25773250Y-9842500I-87500J0D01*
G01*
X25773250Y-11747500D02*
G75*
G03*
X25773250Y-11747500I-87500J0D01*
G01*
X26789250Y-4127500D02*
G75*
G03*
X26789250Y-4127500I-87500J0D01*
G01*
X26789250Y-6032500D02*
G75*
G03*
X26789250Y-6032500I-87500J0D01*
G01*
X26789250Y-7937500D02*
G75*
G03*
X26789250Y-7937500I-87500J0D01*
G01*
X26789250Y-9842500D02*
G75*
G03*
X26789250Y-9842500I-87500J0D01*
G01*
X26789250Y-11747500D02*
G75*
G03*
X26789250Y-11747500I-87500J0D01*
G01*
X3333750Y-9276250D02*
X3333750Y-9456250D01*
X3243750Y-9366250D02*
X3423750Y-9366250D01*
X3253750Y-9336250D02*
X3253750Y-9396250D01*
X3413750Y-9336250D02*
X3413750Y-9396250D01*
X3253750Y-9396250D02*
G75*
G03*
X3413750Y-9396250I80000J0D01*
G01*
X3413750Y-9336250D02*
G75*
G03*
X3253750Y-9336250I-80000J0D01*
G01*
X14763750Y-7371250D02*
X14763750Y-7551250D01*
X14673750Y-7461250D02*
X14853750Y-7461250D01*
X14683750Y-7431250D02*
X14683750Y-7491250D01*
X14843750Y-7431250D02*
X14843750Y-7491250D01*
X14683750Y-7491250D02*
G75*
G03*
X14843750Y-7491250I80000J0D01*
G01*
X14843750Y-7431250D02*
G75*
G03*
X14683750Y-7431250I-80000J0D01*
G01*
X3474741Y-4268491D02*
X3474741Y-3986509D01*
X3192759Y-3986509D01*
X3192759Y-4268491D01*
X3474741Y-4268491D01*
X3474741Y-6173491D02*
X3474741Y-5891509D01*
X3192759Y-5891509D01*
X3192759Y-6173491D01*
X3474741Y-6173491D01*
X3474741Y-8078491D02*
X3474741Y-7796509D01*
X3192759Y-7796509D01*
X3192759Y-8078491D01*
X3474741Y-8078491D01*
X3474741Y-9983491D02*
X3474741Y-9701509D01*
X3192759Y-9701509D01*
X3192759Y-9983491D01*
X3474741Y-9983491D01*
X3474741Y-11888491D02*
X3474741Y-11606509D01*
X3192759Y-11606509D01*
X3192759Y-11888491D01*
X3474741Y-11888491D01*
X5379741Y-4268491D02*
X5379741Y-3986509D01*
X5097759Y-3986509D01*
X5097759Y-4268491D01*
X5379741Y-4268491D01*
X5379741Y-6173491D02*
X5379741Y-5891509D01*
X5097759Y-5891509D01*
X5097759Y-6173491D01*
X5379741Y-6173491D01*
X5379741Y-8078491D02*
X5379741Y-7796509D01*
X5097759Y-7796509D01*
X5097759Y-8078491D01*
X5379741Y-8078491D01*
X5379741Y-9983491D02*
X5379741Y-9701509D01*
X5097759Y-9701509D01*
X5097759Y-9983491D01*
X5379741Y-9983491D01*
X5379741Y-11888491D02*
X5379741Y-11606509D01*
X5097759Y-11606509D01*
X5097759Y-11888491D01*
X5379741Y-11888491D01*
X7284741Y-4268491D02*
X7284741Y-3986509D01*
X7002759Y-3986509D01*
X7002759Y-4268491D01*
X7284741Y-4268491D01*
X7284741Y-6173491D02*
X7284741Y-5891509D01*
X7002759Y-5891509D01*
X7002759Y-6173491D01*
X7284741Y-6173491D01*
X7284741Y-8078491D02*
X7284741Y-7796509D01*
X7002759Y-7796509D01*
X7002759Y-8078491D01*
X7284741Y-8078491D01*
X7284741Y-9983491D02*
X7284741Y-9701509D01*
X7002759Y-9701509D01*
X7002759Y-9983491D01*
X7284741Y-9983491D01*
X7284741Y-11888491D02*
X7284741Y-11606509D01*
X7002759Y-11606509D01*
X7002759Y-11888491D01*
X7284741Y-11888491D01*
X9189741Y-4268491D02*
X9189741Y-3986509D01*
X8907759Y-3986509D01*
X8907759Y-4268491D01*
X9189741Y-4268491D01*
X9189741Y-6173491D02*
X9189741Y-5891509D01*
X8907759Y-5891509D01*
X8907759Y-6173491D01*
X9189741Y-6173491D01*
X9189741Y-8078491D02*
X9189741Y-7796509D01*
X8907759Y-7796509D01*
X8907759Y-8078491D01*
X9189741Y-8078491D01*
X9189741Y-9983491D02*
X9189741Y-9701509D01*
X8907759Y-9701509D01*
X8907759Y-9983491D01*
X9189741Y-9983491D01*
X9189741Y-11888491D02*
X9189741Y-11606509D01*
X8907759Y-11606509D01*
X8907759Y-11888491D01*
X9189741Y-11888491D01*
X11094741Y-4268491D02*
X11094741Y-3986509D01*
X10812759Y-3986509D01*
X10812759Y-4268491D01*
X11094741Y-4268491D01*
X11094741Y-6173491D02*
X11094741Y-5891509D01*
X10812759Y-5891509D01*
X10812759Y-6173491D01*
X11094741Y-6173491D01*
X11094741Y-8078491D02*
X11094741Y-7796509D01*
X10812759Y-7796509D01*
X10812759Y-8078491D01*
X11094741Y-8078491D01*
X11094741Y-9983491D02*
X11094741Y-9701509D01*
X10812759Y-9701509D01*
X10812759Y-9983491D01*
X11094741Y-9983491D01*
X11094741Y-11888491D02*
X11094741Y-11606509D01*
X10812759Y-11606509D01*
X10812759Y-11888491D01*
X11094741Y-11888491D01*
X12999741Y-4268491D02*
X12999741Y-3986509D01*
X12717759Y-3986509D01*
X12717759Y-4268491D01*
X12999741Y-4268491D01*
X12999741Y-6173491D02*
X12999741Y-5891509D01*
X12717759Y-5891509D01*
X12717759Y-6173491D01*
X12999741Y-6173491D01*
X12999741Y-8078491D02*
X12999741Y-7796509D01*
X12717759Y-7796509D01*
X12717759Y-8078491D01*
X12999741Y-8078491D01*
X12999741Y-9983491D02*
X12999741Y-9701509D01*
X12717759Y-9701509D01*
X12717759Y-9983491D01*
X12999741Y-9983491D01*
X12999741Y-11888491D02*
X12999741Y-11606509D01*
X12717759Y-11606509D01*
X12717759Y-11888491D01*
X12999741Y-11888491D01*
X14904741Y-4268491D02*
X14904741Y-3986509D01*
X14622759Y-3986509D01*
X14622759Y-4268491D01*
X14904741Y-4268491D01*
X14904741Y-6173491D02*
X14904741Y-5891509D01*
X14622759Y-5891509D01*
X14622759Y-6173491D01*
X14904741Y-6173491D01*
X14904741Y-8078491D02*
X14904741Y-7796509D01*
X14622759Y-7796509D01*
X14622759Y-8078491D01*
X14904741Y-8078491D01*
X14904741Y-9983491D02*
X14904741Y-9701509D01*
X14622759Y-9701509D01*
X14622759Y-9983491D01*
X14904741Y-9983491D01*
X14904741Y-11888491D02*
X14904741Y-11606509D01*
X14622759Y-11606509D01*
X14622759Y-11888491D01*
X14904741Y-11888491D01*
X16809741Y-4268491D02*
X16809741Y-3986509D01*
X16527759Y-3986509D01*
X16527759Y-4268491D01*
X16809741Y-4268491D01*
X16809741Y-6173491D02*
X16809741Y-5891509D01*
X16527759Y-5891509D01*
X16527759Y-6173491D01*
X16809741Y-6173491D01*
X16809741Y-8078491D02*
X16809741Y-7796509D01*
X16527759Y-7796509D01*
X16527759Y-8078491D01*
X16809741Y-8078491D01*
X16809741Y-9983491D02*
X16809741Y-9701509D01*
X16527759Y-9701509D01*
X16527759Y-9983491D01*
X16809741Y-9983491D01*
X16809741Y-11888491D02*
X16809741Y-11606509D01*
X16527759Y-11606509D01*
X16527759Y-11888491D01*
X16809741Y-11888491D01*
X18714741Y-4268491D02*
X18714741Y-3986509D01*
X18432759Y-3986509D01*
X18432759Y-4268491D01*
X18714741Y-4268491D01*
X18714741Y-6173491D02*
X18714741Y-5891509D01*
X18432759Y-5891509D01*
X18432759Y-6173491D01*
X18714741Y-6173491D01*
X18714741Y-8078491D02*
X18714741Y-7796509D01*
X18432759Y-7796509D01*
X18432759Y-8078491D01*
X18714741Y-8078491D01*
X18714741Y-9983491D02*
X18714741Y-9701509D01*
X18432759Y-9701509D01*
X18432759Y-9983491D01*
X18714741Y-9983491D01*
X18714741Y-11888491D02*
X18714741Y-11606509D01*
X18432759Y-11606509D01*
X18432759Y-11888491D01*
X18714741Y-11888491D01*
X20619741Y-4268491D02*
X20619741Y-3986509D01*
X20337759Y-3986509D01*
X20337759Y-4268491D01*
X20619741Y-4268491D01*
X20619741Y-6173491D02*
X20619741Y-5891509D01*
X20337759Y-5891509D01*
X20337759Y-6173491D01*
X20619741Y-6173491D01*
X20619741Y-8078491D02*
X20619741Y-7796509D01*
X20337759Y-7796509D01*
X20337759Y-8078491D01*
X20619741Y-8078491D01*
X20619741Y-9983491D02*
X20619741Y-9701509D01*
X20337759Y-9701509D01*
X20337759Y-9983491D01*
X20619741Y-9983491D01*
X20619741Y-11888491D02*
X20619741Y-11606509D01*
X20337759Y-11606509D01*
X20337759Y-11888491D01*
X20619741Y-11888491D01*
X22524741Y-4268491D02*
X22524741Y-3986509D01*
X22242759Y-3986509D01*
X22242759Y-4268491D01*
X22524741Y-4268491D01*
X22524741Y-6173491D02*
X22524741Y-5891509D01*
X22242759Y-5891509D01*
X22242759Y-6173491D01*
X22524741Y-6173491D01*
X22524741Y-8078491D02*
X22524741Y-7796509D01*
X22242759Y-7796509D01*
X22242759Y-8078491D01*
X22524741Y-8078491D01*
X22524741Y-9983491D02*
X22524741Y-9701509D01*
X22242759Y-9701509D01*
X22242759Y-9983491D01*
X22524741Y-9983491D01*
X22524741Y-11888491D02*
X22524741Y-11606509D01*
X22242759Y-11606509D01*
X22242759Y-11888491D01*
X22524741Y-11888491D01*
X24429741Y-4268491D02*
X24429741Y-3986509D01*
X24147759Y-3986509D01*
X24147759Y-4268491D01*
X24429741Y-4268491D01*
X24429741Y-6173491D02*
X24429741Y-5891509D01*
X24147759Y-5891509D01*
X24147759Y-6173491D01*
X24429741Y-6173491D01*
X24429741Y-8078491D02*
X24429741Y-7796509D01*
X24147759Y-7796509D01*
X24147759Y-8078491D01*
X24429741Y-8078491D01*
X24429741Y-9983491D02*
X24429741Y-9701509D01*
X24147759Y-9701509D01*
X24147759Y-9983491D01*
X24429741Y-9983491D01*
X24429741Y-11888491D02*
X24429741Y-11606509D01*
X24147759Y-11606509D01*
X24147759Y-11888491D01*
X24429741Y-11888491D01*
X26334741Y-4268491D02*
X26334741Y-3986509D01*
X26052759Y-3986509D01*
X26052759Y-4268491D01*
X26334741Y-4268491D01*
X26334741Y-6173491D02*
X26334741Y-5891509D01*
X26052759Y-5891509D01*
X26052759Y-6173491D01*
X26334741Y-6173491D01*
X26334741Y-8078491D02*
X26334741Y-7796509D01*
X26052759Y-7796509D01*
X26052759Y-8078491D01*
X26334741Y-8078491D01*
X26334741Y-9983491D02*
X26334741Y-9701509D01*
X26052759Y-9701509D01*
X26052759Y-9983491D01*
X26334741Y-9983491D01*
X26334741Y-11888491D02*
X26334741Y-11606509D01*
X26052759Y-11606509D01*
X26052759Y-11888491D01*
X26334741Y-11888491D01*
D12*
X2255621Y-29243614D02*
X2255621Y-28943614D01*
X2327050Y-28943614D01*
X2369907Y-28957900D01*
X2398478Y-28986471D01*
X2412764Y-29015043D01*
X2427050Y-29072186D01*
X2427050Y-29115043D01*
X2412764Y-29172186D01*
X2398478Y-29200757D01*
X2369907Y-29229328D01*
X2327050Y-29243614D01*
X2255621Y-29243614D01*
X2555621Y-29243614D02*
X2555621Y-29043614D01*
X2555621Y-29100757D02*
X2569907Y-29072186D01*
X2584193Y-29057900D01*
X2612764Y-29043614D01*
X2641335Y-29043614D01*
X2741335Y-29243614D02*
X2741335Y-29043614D01*
X2741335Y-28943614D02*
X2727050Y-28957900D01*
X2741335Y-28972186D01*
X2755621Y-28957900D01*
X2741335Y-28943614D01*
X2741335Y-28972186D01*
X2927050Y-29243614D02*
X2898478Y-29229328D01*
X2884193Y-29200757D01*
X2884193Y-28943614D01*
X3084193Y-29243614D02*
X3055621Y-29229328D01*
X3041335Y-29200757D01*
X3041335Y-28943614D01*
X3427050Y-29243614D02*
X3427050Y-28943614D01*
X3527050Y-29157900D01*
X3627050Y-28943614D01*
X3627050Y-29243614D01*
X3898478Y-29243614D02*
X3898478Y-29086471D01*
X3884193Y-29057900D01*
X3855621Y-29043614D01*
X3798478Y-29043614D01*
X3769907Y-29057900D01*
X3898478Y-29229328D02*
X3869907Y-29243614D01*
X3798478Y-29243614D01*
X3769907Y-29229328D01*
X3755621Y-29200757D01*
X3755621Y-29172186D01*
X3769907Y-29143614D01*
X3798478Y-29129328D01*
X3869907Y-29129328D01*
X3898478Y-29115043D01*
X4041335Y-29043614D02*
X4041335Y-29343614D01*
X4041335Y-29057900D02*
X4069907Y-29043614D01*
X4127050Y-29043614D01*
X4155621Y-29057900D01*
X4169907Y-29072186D01*
X4184193Y-29100757D01*
X4184193Y-29186471D01*
X4169907Y-29215043D01*
X4155621Y-29229328D01*
X4127050Y-29243614D01*
X4069907Y-29243614D01*
X4041335Y-29229328D01*
X4312764Y-29215043D02*
X4327050Y-29229328D01*
X4312764Y-29243614D01*
X4298478Y-29229328D01*
X4312764Y-29215043D01*
X4312764Y-29243614D01*
X4312764Y-29057900D02*
X4327050Y-29072186D01*
X4312764Y-29086471D01*
X4298478Y-29072186D01*
X4312764Y-29057900D01*
X4312764Y-29086471D01*
X1909193Y-29707900D02*
X1969193Y-29767900D01*
X1969193Y-29707900D02*
X1909193Y-29767900D01*
X2312764Y-29573614D02*
X2341335Y-29573614D01*
X2369907Y-29587900D01*
X2384193Y-29602186D01*
X2398478Y-29630757D01*
X2412764Y-29687900D01*
X2412764Y-29759328D01*
X2398478Y-29816471D01*
X2384193Y-29845043D01*
X2369907Y-29859328D01*
X2341335Y-29873614D01*
X2312764Y-29873614D01*
X2284193Y-29859328D01*
X2269907Y-29845043D01*
X2255621Y-29816471D01*
X2241335Y-29759328D01*
X2241335Y-29687900D01*
X2255621Y-29630757D01*
X2269907Y-29602186D01*
X2284193Y-29587900D01*
X2312764Y-29573614D01*
X2541335Y-29845043D02*
X2555621Y-29859328D01*
X2541335Y-29873614D01*
X2527050Y-29859328D01*
X2541335Y-29845043D01*
X2541335Y-29873614D01*
X2812764Y-29573614D02*
X2755621Y-29573614D01*
X2727050Y-29587900D01*
X2712764Y-29602186D01*
X2684193Y-29645043D01*
X2669907Y-29702186D01*
X2669907Y-29816471D01*
X2684193Y-29845043D01*
X2698478Y-29859328D01*
X2727050Y-29873614D01*
X2784193Y-29873614D01*
X2812764Y-29859328D01*
X2827050Y-29845043D01*
X2841335Y-29816471D01*
X2841335Y-29745043D01*
X2827050Y-29716471D01*
X2812764Y-29702186D01*
X2784193Y-29687900D01*
X2727050Y-29687900D01*
X2698478Y-29702186D01*
X2684193Y-29716471D01*
X2669907Y-29745043D01*
X3027050Y-29573614D02*
X3055621Y-29573614D01*
X3084193Y-29587900D01*
X3098478Y-29602186D01*
X3112764Y-29630757D01*
X3127050Y-29687900D01*
X3127050Y-29759328D01*
X3112764Y-29816471D01*
X3098478Y-29845043D01*
X3084193Y-29859328D01*
X3055621Y-29873614D01*
X3027050Y-29873614D01*
X2998478Y-29859328D01*
X2984193Y-29845043D01*
X2969907Y-29816471D01*
X2955621Y-29759328D01*
X2955621Y-29687900D01*
X2969907Y-29630757D01*
X2984193Y-29602186D01*
X2998478Y-29587900D01*
X3027050Y-29573614D01*
X3255621Y-29873614D02*
X3255621Y-29673614D01*
X3255621Y-29702186D02*
X3269907Y-29687900D01*
X3298478Y-29673614D01*
X3341335Y-29673614D01*
X3369907Y-29687900D01*
X3384193Y-29716471D01*
X3384193Y-29873614D01*
X3384193Y-29716471D02*
X3398478Y-29687900D01*
X3427050Y-29673614D01*
X3469907Y-29673614D01*
X3498478Y-29687900D01*
X3512764Y-29716471D01*
X3512764Y-29873614D01*
X3655621Y-29873614D02*
X3655621Y-29673614D01*
X3655621Y-29702186D02*
X3669907Y-29687900D01*
X3698478Y-29673614D01*
X3741335Y-29673614D01*
X3769907Y-29687900D01*
X3784193Y-29716471D01*
X3784193Y-29873614D01*
X3784193Y-29716471D02*
X3798478Y-29687900D01*
X3827050Y-29673614D01*
X3869907Y-29673614D01*
X3898478Y-29687900D01*
X3912764Y-29716471D01*
X3912764Y-29873614D01*
X4498478Y-29559328D02*
X4241335Y-29945043D01*
X4884193Y-29573614D02*
X4912764Y-29573614D01*
X4941335Y-29587900D01*
X4955621Y-29602186D01*
X4969907Y-29630757D01*
X4984193Y-29687900D01*
X4984193Y-29759328D01*
X4969907Y-29816471D01*
X4955621Y-29845043D01*
X4941335Y-29859328D01*
X4912764Y-29873614D01*
X4884193Y-29873614D01*
X4855621Y-29859328D01*
X4841335Y-29845043D01*
X4827050Y-29816471D01*
X4812764Y-29759328D01*
X4812764Y-29687900D01*
X4827050Y-29630757D01*
X4841335Y-29602186D01*
X4855621Y-29587900D01*
X4884193Y-29573614D01*
X5112764Y-29845043D02*
X5127050Y-29859328D01*
X5112764Y-29873614D01*
X5098478Y-29859328D01*
X5112764Y-29845043D01*
X5112764Y-29873614D01*
X5312764Y-29573614D02*
X5341335Y-29573614D01*
X5369907Y-29587900D01*
X5384193Y-29602186D01*
X5398478Y-29630757D01*
X5412764Y-29687900D01*
X5412764Y-29759328D01*
X5398478Y-29816471D01*
X5384193Y-29845043D01*
X5369907Y-29859328D01*
X5341335Y-29873614D01*
X5312764Y-29873614D01*
X5284193Y-29859328D01*
X5269907Y-29845043D01*
X5255621Y-29816471D01*
X5241335Y-29759328D01*
X5241335Y-29687900D01*
X5255621Y-29630757D01*
X5269907Y-29602186D01*
X5284193Y-29587900D01*
X5312764Y-29573614D01*
X5527050Y-29602186D02*
X5541335Y-29587900D01*
X5569907Y-29573614D01*
X5641335Y-29573614D01*
X5669907Y-29587900D01*
X5684193Y-29602186D01*
X5698478Y-29630757D01*
X5698478Y-29659328D01*
X5684193Y-29702186D01*
X5512764Y-29873614D01*
X5698478Y-29873614D01*
X5955621Y-29673614D02*
X5955621Y-29873614D01*
X5884192Y-29559328D02*
X5812764Y-29773614D01*
X5998478Y-29773614D01*
X6098478Y-29573614D02*
X6098478Y-29630757D01*
X6212764Y-29573614D02*
X6212764Y-29630757D01*
X6655621Y-29987900D02*
X6641335Y-29973614D01*
X6612764Y-29930757D01*
X6598478Y-29902186D01*
X6584192Y-29859328D01*
X6569907Y-29787900D01*
X6569907Y-29730757D01*
X6584192Y-29659328D01*
X6598478Y-29616471D01*
X6612764Y-29587900D01*
X6641335Y-29545043D01*
X6655621Y-29530757D01*
X6755621Y-29602186D02*
X6769907Y-29587900D01*
X6798478Y-29573614D01*
X6869907Y-29573614D01*
X6898478Y-29587900D01*
X6912764Y-29602186D01*
X6927050Y-29630757D01*
X6927050Y-29659328D01*
X6912764Y-29702186D01*
X6741335Y-29873614D01*
X6927050Y-29873614D01*
X7284193Y-29873614D02*
X7284193Y-29573614D01*
X7412764Y-29873614D02*
X7412764Y-29716471D01*
X7398478Y-29687900D01*
X7369907Y-29673614D01*
X7327050Y-29673614D01*
X7298478Y-29687900D01*
X7284193Y-29702186D01*
X7598478Y-29873614D02*
X7569907Y-29859328D01*
X7555621Y-29845043D01*
X7541335Y-29816471D01*
X7541335Y-29730757D01*
X7555621Y-29702186D01*
X7569907Y-29687900D01*
X7598478Y-29673614D01*
X7641335Y-29673614D01*
X7669907Y-29687900D01*
X7684193Y-29702186D01*
X7698478Y-29730757D01*
X7698478Y-29816471D01*
X7684193Y-29845043D01*
X7669907Y-29859328D01*
X7641335Y-29873614D01*
X7598478Y-29873614D01*
X7869907Y-29873614D02*
X7841335Y-29859328D01*
X7827050Y-29830757D01*
X7827050Y-29573614D01*
X8098478Y-29859328D02*
X8069907Y-29873614D01*
X8012764Y-29873614D01*
X7984193Y-29859328D01*
X7969907Y-29830757D01*
X7969907Y-29716471D01*
X7984193Y-29687900D01*
X8012764Y-29673614D01*
X8069907Y-29673614D01*
X8098478Y-29687900D01*
X8112764Y-29716471D01*
X8112764Y-29745043D01*
X7969907Y-29773614D01*
X8227050Y-29859328D02*
X8255621Y-29873614D01*
X8312764Y-29873614D01*
X8341335Y-29859328D01*
X8355621Y-29830757D01*
X8355621Y-29816471D01*
X8341335Y-29787900D01*
X8312764Y-29773614D01*
X8269907Y-29773614D01*
X8241335Y-29759328D01*
X8227050Y-29730757D01*
X8227050Y-29716471D01*
X8241335Y-29687900D01*
X8269907Y-29673614D01*
X8312764Y-29673614D01*
X8341335Y-29687900D01*
X8455621Y-29987900D02*
X8469907Y-29973614D01*
X8498478Y-29930757D01*
X8512764Y-29902186D01*
X8527050Y-29859328D01*
X8541335Y-29787900D01*
X8541335Y-29730757D01*
X8527050Y-29659328D01*
X8512764Y-29616471D01*
X8498478Y-29587900D01*
X8469907Y-29545043D01*
X8455621Y-29530757D01*
X8998478Y-29987900D02*
X8984193Y-29973614D01*
X8955621Y-29930757D01*
X8941335Y-29902186D01*
X8927050Y-29859328D01*
X8912764Y-29787900D01*
X8912764Y-29730757D01*
X8927050Y-29659328D01*
X8941335Y-29616471D01*
X8955621Y-29587900D01*
X8984193Y-29545043D01*
X8998478Y-29530757D01*
X9112764Y-29673614D02*
X9112764Y-29873614D01*
X9112764Y-29702186D02*
X9127050Y-29687900D01*
X9155621Y-29673614D01*
X9198478Y-29673614D01*
X9227050Y-29687900D01*
X9241335Y-29716471D01*
X9241335Y-29873614D01*
X9427050Y-29873614D02*
X9398478Y-29859328D01*
X9384193Y-29845043D01*
X9369907Y-29816471D01*
X9369907Y-29730757D01*
X9384193Y-29702186D01*
X9398478Y-29687900D01*
X9427050Y-29673614D01*
X9469907Y-29673614D01*
X9498478Y-29687900D01*
X9512764Y-29702186D01*
X9527050Y-29730757D01*
X9527050Y-29816471D01*
X9512764Y-29845043D01*
X9498478Y-29859328D01*
X9469907Y-29873614D01*
X9427050Y-29873614D01*
X9612764Y-29673614D02*
X9727050Y-29673614D01*
X9655621Y-29573614D02*
X9655621Y-29830757D01*
X9669907Y-29859328D01*
X9698478Y-29873614D01*
X9727050Y-29873614D01*
X10055621Y-29673614D02*
X10055621Y-29973614D01*
X10055621Y-29687900D02*
X10084193Y-29673614D01*
X10141335Y-29673614D01*
X10169907Y-29687900D01*
X10184193Y-29702186D01*
X10198478Y-29730757D01*
X10198478Y-29816471D01*
X10184193Y-29845043D01*
X10169907Y-29859328D01*
X10141335Y-29873614D01*
X10084193Y-29873614D01*
X10055621Y-29859328D01*
X10369907Y-29873614D02*
X10341335Y-29859328D01*
X10327050Y-29830757D01*
X10327050Y-29573614D01*
X10612764Y-29873614D02*
X10612764Y-29716471D01*
X10598478Y-29687900D01*
X10569907Y-29673614D01*
X10512764Y-29673614D01*
X10484193Y-29687900D01*
X10612764Y-29859328D02*
X10584193Y-29873614D01*
X10512764Y-29873614D01*
X10484193Y-29859328D01*
X10469907Y-29830757D01*
X10469907Y-29802186D01*
X10484193Y-29773614D01*
X10512764Y-29759328D01*
X10584193Y-29759328D01*
X10612764Y-29745043D01*
X10712764Y-29673614D02*
X10827050Y-29673614D01*
X10755621Y-29573614D02*
X10755621Y-29830757D01*
X10769907Y-29859328D01*
X10798478Y-29873614D01*
X10827050Y-29873614D01*
X11041335Y-29859328D02*
X11012764Y-29873614D01*
X10955621Y-29873614D01*
X10927050Y-29859328D01*
X10912764Y-29830757D01*
X10912764Y-29716471D01*
X10927050Y-29687900D01*
X10955621Y-29673614D01*
X11012764Y-29673614D01*
X11041335Y-29687900D01*
X11055621Y-29716471D01*
X11055621Y-29745043D01*
X10912764Y-29773614D01*
X11312764Y-29873614D02*
X11312764Y-29573614D01*
X11312764Y-29859328D02*
X11284193Y-29873614D01*
X11227050Y-29873614D01*
X11198478Y-29859328D01*
X11184193Y-29845043D01*
X11169907Y-29816471D01*
X11169907Y-29730757D01*
X11184193Y-29702186D01*
X11198478Y-29687900D01*
X11227050Y-29673614D01*
X11284193Y-29673614D01*
X11312764Y-29687900D01*
X11427050Y-29987900D02*
X11441335Y-29973614D01*
X11469907Y-29930757D01*
X11484193Y-29902186D01*
X11498478Y-29859328D01*
X11512764Y-29787900D01*
X11512764Y-29730757D01*
X11498478Y-29659328D01*
X11484193Y-29616471D01*
X11469907Y-29587900D01*
X11441335Y-29545043D01*
X11427050Y-29530757D01*
X1969193Y-30133900D02*
G75*
G03*
X1969193Y-30133900I-87500J0D01*
G01*
X2412764Y-30269614D02*
X2241335Y-30269614D01*
X2327050Y-30269614D02*
X2327050Y-29969614D01*
X2298478Y-30012471D01*
X2269907Y-30041043D01*
X2241335Y-30055328D01*
X2541335Y-30241043D02*
X2555621Y-30255328D01*
X2541335Y-30269614D01*
X2527050Y-30255328D01*
X2541335Y-30241043D01*
X2541335Y-30269614D01*
X2655621Y-29969614D02*
X2855621Y-29969614D01*
X2727050Y-30269614D01*
X3112764Y-29969614D02*
X2969907Y-29969614D01*
X2955621Y-30112471D01*
X2969907Y-30098186D01*
X2998478Y-30083900D01*
X3069907Y-30083900D01*
X3098478Y-30098186D01*
X3112764Y-30112471D01*
X3127050Y-30141043D01*
X3127050Y-30212471D01*
X3112764Y-30241043D01*
X3098478Y-30255328D01*
X3069907Y-30269614D01*
X2998478Y-30269614D01*
X2969907Y-30255328D01*
X2955621Y-30241043D01*
X3255621Y-30269614D02*
X3255621Y-30069614D01*
X3255621Y-30098186D02*
X3269907Y-30083900D01*
X3298478Y-30069614D01*
X3341335Y-30069614D01*
X3369907Y-30083900D01*
X3384193Y-30112471D01*
X3384193Y-30269614D01*
X3384193Y-30112471D02*
X3398478Y-30083900D01*
X3427050Y-30069614D01*
X3469907Y-30069614D01*
X3498478Y-30083900D01*
X3512764Y-30112471D01*
X3512764Y-30269614D01*
X3655621Y-30269614D02*
X3655621Y-30069614D01*
X3655621Y-30098186D02*
X3669907Y-30083900D01*
X3698478Y-30069614D01*
X3741335Y-30069614D01*
X3769907Y-30083900D01*
X3784193Y-30112471D01*
X3784193Y-30269614D01*
X3784193Y-30112471D02*
X3798478Y-30083900D01*
X3827050Y-30069614D01*
X3869907Y-30069614D01*
X3898478Y-30083900D01*
X3912764Y-30112471D01*
X3912764Y-30269614D01*
X4498478Y-29955328D02*
X4241335Y-30341043D01*
X4884193Y-29969614D02*
X4912764Y-29969614D01*
X4941335Y-29983900D01*
X4955621Y-29998186D01*
X4969907Y-30026757D01*
X4984193Y-30083900D01*
X4984193Y-30155328D01*
X4969907Y-30212471D01*
X4955621Y-30241043D01*
X4941335Y-30255328D01*
X4912764Y-30269614D01*
X4884193Y-30269614D01*
X4855621Y-30255328D01*
X4841335Y-30241043D01*
X4827050Y-30212471D01*
X4812764Y-30155328D01*
X4812764Y-30083900D01*
X4827050Y-30026757D01*
X4841335Y-29998186D01*
X4855621Y-29983900D01*
X4884193Y-29969614D01*
X5112764Y-30241043D02*
X5127050Y-30255328D01*
X5112764Y-30269614D01*
X5098478Y-30255328D01*
X5112764Y-30241043D01*
X5112764Y-30269614D01*
X5312764Y-29969614D02*
X5341335Y-29969614D01*
X5369907Y-29983900D01*
X5384193Y-29998186D01*
X5398478Y-30026757D01*
X5412764Y-30083900D01*
X5412764Y-30155328D01*
X5398478Y-30212471D01*
X5384193Y-30241043D01*
X5369907Y-30255328D01*
X5341335Y-30269614D01*
X5312764Y-30269614D01*
X5284193Y-30255328D01*
X5269907Y-30241043D01*
X5255621Y-30212471D01*
X5241335Y-30155328D01*
X5241335Y-30083900D01*
X5255621Y-30026757D01*
X5269907Y-29998186D01*
X5284193Y-29983900D01*
X5312764Y-29969614D01*
X5669907Y-29969614D02*
X5612764Y-29969614D01*
X5584193Y-29983900D01*
X5569907Y-29998186D01*
X5541335Y-30041043D01*
X5527050Y-30098186D01*
X5527050Y-30212471D01*
X5541335Y-30241043D01*
X5555621Y-30255328D01*
X5584193Y-30269614D01*
X5641335Y-30269614D01*
X5669907Y-30255328D01*
X5684193Y-30241043D01*
X5698478Y-30212471D01*
X5698478Y-30141043D01*
X5684193Y-30112471D01*
X5669907Y-30098186D01*
X5641335Y-30083900D01*
X5584193Y-30083900D01*
X5555621Y-30098186D01*
X5541335Y-30112471D01*
X5527050Y-30141043D01*
X5841335Y-30269614D02*
X5898478Y-30269614D01*
X5927050Y-30255328D01*
X5941335Y-30241043D01*
X5969907Y-30198186D01*
X5984192Y-30141043D01*
X5984192Y-30026757D01*
X5969907Y-29998186D01*
X5955621Y-29983900D01*
X5927050Y-29969614D01*
X5869907Y-29969614D01*
X5841335Y-29983900D01*
X5827050Y-29998186D01*
X5812764Y-30026757D01*
X5812764Y-30098186D01*
X5827050Y-30126757D01*
X5841335Y-30141043D01*
X5869907Y-30155328D01*
X5927050Y-30155328D01*
X5955621Y-30141043D01*
X5969907Y-30126757D01*
X5984192Y-30098186D01*
X6098478Y-29969614D02*
X6098478Y-30026757D01*
X6212764Y-29969614D02*
X6212764Y-30026757D01*
X6655621Y-30383900D02*
X6641335Y-30369614D01*
X6612764Y-30326757D01*
X6598478Y-30298186D01*
X6584192Y-30255328D01*
X6569907Y-30183900D01*
X6569907Y-30126757D01*
X6584192Y-30055328D01*
X6598478Y-30012471D01*
X6612764Y-29983900D01*
X6641335Y-29941043D01*
X6655621Y-29926757D01*
X6927050Y-30269614D02*
X6755621Y-30269614D01*
X6841335Y-30269614D02*
X6841335Y-29969614D01*
X6812764Y-30012471D01*
X6784193Y-30041043D01*
X6755621Y-30055328D01*
X7027050Y-29969614D02*
X7212764Y-29969614D01*
X7112764Y-30083900D01*
X7155621Y-30083900D01*
X7184193Y-30098186D01*
X7198478Y-30112471D01*
X7212764Y-30141043D01*
X7212764Y-30212471D01*
X7198478Y-30241043D01*
X7184193Y-30255328D01*
X7155621Y-30269614D01*
X7069907Y-30269614D01*
X7041335Y-30255328D01*
X7027050Y-30241043D01*
X7398478Y-29969614D02*
X7427050Y-29969614D01*
X7455621Y-29983900D01*
X7469907Y-29998186D01*
X7484193Y-30026757D01*
X7498478Y-30083900D01*
X7498478Y-30155328D01*
X7484193Y-30212471D01*
X7469907Y-30241043D01*
X7455621Y-30255328D01*
X7427050Y-30269614D01*
X7398478Y-30269614D01*
X7369907Y-30255328D01*
X7355621Y-30241043D01*
X7341335Y-30212471D01*
X7327050Y-30155328D01*
X7327050Y-30083900D01*
X7341335Y-30026757D01*
X7355621Y-29998186D01*
X7369907Y-29983900D01*
X7398478Y-29969614D01*
X7855621Y-30269614D02*
X7855621Y-29969614D01*
X7984193Y-30269614D02*
X7984193Y-30112471D01*
X7969907Y-30083900D01*
X7941335Y-30069614D01*
X7898478Y-30069614D01*
X7869907Y-30083900D01*
X7855621Y-30098186D01*
X8169907Y-30269614D02*
X8141335Y-30255328D01*
X8127050Y-30241043D01*
X8112764Y-30212471D01*
X8112764Y-30126757D01*
X8127050Y-30098186D01*
X8141335Y-30083900D01*
X8169907Y-30069614D01*
X8212764Y-30069614D01*
X8241335Y-30083900D01*
X8255621Y-30098186D01*
X8269907Y-30126757D01*
X8269907Y-30212471D01*
X8255621Y-30241043D01*
X8241335Y-30255328D01*
X8212764Y-30269614D01*
X8169907Y-30269614D01*
X8441335Y-30269614D02*
X8412764Y-30255328D01*
X8398478Y-30226757D01*
X8398478Y-29969614D01*
X8669907Y-30255328D02*
X8641335Y-30269614D01*
X8584193Y-30269614D01*
X8555621Y-30255328D01*
X8541335Y-30226757D01*
X8541335Y-30112471D01*
X8555621Y-30083900D01*
X8584193Y-30069614D01*
X8641335Y-30069614D01*
X8669907Y-30083900D01*
X8684193Y-30112471D01*
X8684193Y-30141043D01*
X8541335Y-30169614D01*
X8798478Y-30255328D02*
X8827050Y-30269614D01*
X8884193Y-30269614D01*
X8912764Y-30255328D01*
X8927050Y-30226757D01*
X8927050Y-30212471D01*
X8912764Y-30183900D01*
X8884193Y-30169614D01*
X8841335Y-30169614D01*
X8812764Y-30155328D01*
X8798478Y-30126757D01*
X8798478Y-30112471D01*
X8812764Y-30083900D01*
X8841335Y-30069614D01*
X8884193Y-30069614D01*
X8912764Y-30083900D01*
X9027050Y-30383900D02*
X9041335Y-30369614D01*
X9069907Y-30326757D01*
X9084193Y-30298186D01*
X9098478Y-30255328D01*
X9112764Y-30183900D01*
X9112764Y-30126757D01*
X9098478Y-30055328D01*
X9084193Y-30012471D01*
X9069907Y-29983900D01*
X9041335Y-29941043D01*
X9027050Y-29926757D01*
X9569907Y-30383900D02*
X9555621Y-30369614D01*
X9527050Y-30326757D01*
X9512764Y-30298186D01*
X9498478Y-30255328D01*
X9484193Y-30183900D01*
X9484193Y-30126757D01*
X9498478Y-30055328D01*
X9512764Y-30012471D01*
X9527050Y-29983900D01*
X9555621Y-29941043D01*
X9569907Y-29926757D01*
X9684193Y-30069614D02*
X9684193Y-30269614D01*
X9684193Y-30098186D02*
X9698478Y-30083900D01*
X9727050Y-30069614D01*
X9769907Y-30069614D01*
X9798478Y-30083900D01*
X9812764Y-30112471D01*
X9812764Y-30269614D01*
X9998478Y-30269614D02*
X9969907Y-30255328D01*
X9955621Y-30241043D01*
X9941335Y-30212471D01*
X9941335Y-30126757D01*
X9955621Y-30098186D01*
X9969907Y-30083900D01*
X9998478Y-30069614D01*
X10041335Y-30069614D01*
X10069907Y-30083900D01*
X10084193Y-30098186D01*
X10098478Y-30126757D01*
X10098478Y-30212471D01*
X10084193Y-30241043D01*
X10069907Y-30255328D01*
X10041335Y-30269614D01*
X9998478Y-30269614D01*
X10184193Y-30069614D02*
X10298478Y-30069614D01*
X10227050Y-29969614D02*
X10227050Y-30226757D01*
X10241335Y-30255328D01*
X10269907Y-30269614D01*
X10298478Y-30269614D01*
X10627050Y-30069614D02*
X10627050Y-30369614D01*
X10627050Y-30083900D02*
X10655621Y-30069614D01*
X10712764Y-30069614D01*
X10741335Y-30083900D01*
X10755621Y-30098186D01*
X10769907Y-30126757D01*
X10769907Y-30212471D01*
X10755621Y-30241043D01*
X10741335Y-30255328D01*
X10712764Y-30269614D01*
X10655621Y-30269614D01*
X10627050Y-30255328D01*
X10941335Y-30269614D02*
X10912764Y-30255328D01*
X10898478Y-30226757D01*
X10898478Y-29969614D01*
X11184193Y-30269614D02*
X11184193Y-30112471D01*
X11169907Y-30083900D01*
X11141335Y-30069614D01*
X11084193Y-30069614D01*
X11055621Y-30083900D01*
X11184193Y-30255328D02*
X11155621Y-30269614D01*
X11084193Y-30269614D01*
X11055621Y-30255328D01*
X11041335Y-30226757D01*
X11041335Y-30198186D01*
X11055621Y-30169614D01*
X11084193Y-30155328D01*
X11155621Y-30155328D01*
X11184193Y-30141043D01*
X11284193Y-30069614D02*
X11398478Y-30069614D01*
X11327050Y-29969614D02*
X11327050Y-30226757D01*
X11341335Y-30255328D01*
X11369907Y-30269614D01*
X11398478Y-30269614D01*
X11612764Y-30255328D02*
X11584193Y-30269614D01*
X11527050Y-30269614D01*
X11498478Y-30255328D01*
X11484193Y-30226757D01*
X11484193Y-30112471D01*
X11498478Y-30083900D01*
X11527050Y-30069614D01*
X11584193Y-30069614D01*
X11612764Y-30083900D01*
X11627050Y-30112471D01*
X11627050Y-30141043D01*
X11484193Y-30169614D01*
X11884193Y-30269614D02*
X11884193Y-29969614D01*
X11884193Y-30255328D02*
X11855621Y-30269614D01*
X11798478Y-30269614D01*
X11769907Y-30255328D01*
X11755621Y-30241043D01*
X11741335Y-30212471D01*
X11741335Y-30126757D01*
X11755621Y-30098186D01*
X11769907Y-30083900D01*
X11798478Y-30069614D01*
X11855621Y-30069614D01*
X11884193Y-30083900D01*
X11998478Y-30383900D02*
X12012764Y-30369614D01*
X12041335Y-30326757D01*
X12055621Y-30298186D01*
X12069907Y-30255328D01*
X12084193Y-30183900D01*
X12084193Y-30126757D01*
X12069907Y-30055328D01*
X12055621Y-30012471D01*
X12041335Y-29983900D01*
X12012764Y-29941043D01*
X11998478Y-29926757D01*
X1879193Y-30439900D02*
X1879193Y-30619900D01*
X1789193Y-30529900D02*
X1969193Y-30529900D01*
X2412764Y-30665614D02*
X2241335Y-30665614D01*
X2327050Y-30665614D02*
X2327050Y-30365614D01*
X2298478Y-30408471D01*
X2269907Y-30437043D01*
X2241335Y-30451328D01*
X2541335Y-30637043D02*
X2555621Y-30651328D01*
X2541335Y-30665614D01*
X2527050Y-30651328D01*
X2541335Y-30637043D01*
X2541335Y-30665614D01*
X2727050Y-30494186D02*
X2698478Y-30479900D01*
X2684193Y-30465614D01*
X2669907Y-30437043D01*
X2669907Y-30422757D01*
X2684193Y-30394186D01*
X2698478Y-30379900D01*
X2727050Y-30365614D01*
X2784193Y-30365614D01*
X2812764Y-30379900D01*
X2827050Y-30394186D01*
X2841335Y-30422757D01*
X2841335Y-30437043D01*
X2827050Y-30465614D01*
X2812764Y-30479900D01*
X2784193Y-30494186D01*
X2727050Y-30494186D01*
X2698478Y-30508471D01*
X2684193Y-30522757D01*
X2669907Y-30551328D01*
X2669907Y-30608471D01*
X2684193Y-30637043D01*
X2698478Y-30651328D01*
X2727050Y-30665614D01*
X2784193Y-30665614D01*
X2812764Y-30651328D01*
X2827050Y-30637043D01*
X2841335Y-30608471D01*
X2841335Y-30551328D01*
X2827050Y-30522757D01*
X2812764Y-30508471D01*
X2784193Y-30494186D01*
X3027050Y-30365614D02*
X3055621Y-30365614D01*
X3084193Y-30379900D01*
X3098478Y-30394186D01*
X3112764Y-30422757D01*
X3127050Y-30479900D01*
X3127050Y-30551328D01*
X3112764Y-30608471D01*
X3098478Y-30637043D01*
X3084193Y-30651328D01*
X3055621Y-30665614D01*
X3027050Y-30665614D01*
X2998478Y-30651328D01*
X2984193Y-30637043D01*
X2969907Y-30608471D01*
X2955621Y-30551328D01*
X2955621Y-30479900D01*
X2969907Y-30422757D01*
X2984193Y-30394186D01*
X2998478Y-30379900D01*
X3027050Y-30365614D01*
X3255621Y-30665614D02*
X3255621Y-30465614D01*
X3255621Y-30494186D02*
X3269907Y-30479900D01*
X3298478Y-30465614D01*
X3341335Y-30465614D01*
X3369907Y-30479900D01*
X3384193Y-30508471D01*
X3384193Y-30665614D01*
X3384193Y-30508471D02*
X3398478Y-30479900D01*
X3427050Y-30465614D01*
X3469907Y-30465614D01*
X3498478Y-30479900D01*
X3512764Y-30508471D01*
X3512764Y-30665614D01*
X3655621Y-30665614D02*
X3655621Y-30465614D01*
X3655621Y-30494186D02*
X3669907Y-30479900D01*
X3698478Y-30465614D01*
X3741335Y-30465614D01*
X3769907Y-30479900D01*
X3784193Y-30508471D01*
X3784193Y-30665614D01*
X3784193Y-30508471D02*
X3798478Y-30479900D01*
X3827050Y-30465614D01*
X3869907Y-30465614D01*
X3898478Y-30479900D01*
X3912764Y-30508471D01*
X3912764Y-30665614D01*
X4498478Y-30351328D02*
X4241335Y-30737043D01*
X4884193Y-30365614D02*
X4912764Y-30365614D01*
X4941335Y-30379900D01*
X4955621Y-30394186D01*
X4969907Y-30422757D01*
X4984193Y-30479900D01*
X4984193Y-30551328D01*
X4969907Y-30608471D01*
X4955621Y-30637043D01*
X4941335Y-30651328D01*
X4912764Y-30665614D01*
X4884193Y-30665614D01*
X4855621Y-30651328D01*
X4841335Y-30637043D01*
X4827050Y-30608471D01*
X4812764Y-30551328D01*
X4812764Y-30479900D01*
X4827050Y-30422757D01*
X4841335Y-30394186D01*
X4855621Y-30379900D01*
X4884193Y-30365614D01*
X5112764Y-30637043D02*
X5127050Y-30651328D01*
X5112764Y-30665614D01*
X5098478Y-30651328D01*
X5112764Y-30637043D01*
X5112764Y-30665614D01*
X5312764Y-30365614D02*
X5341335Y-30365614D01*
X5369907Y-30379900D01*
X5384193Y-30394186D01*
X5398478Y-30422757D01*
X5412764Y-30479900D01*
X5412764Y-30551328D01*
X5398478Y-30608471D01*
X5384193Y-30637043D01*
X5369907Y-30651328D01*
X5341335Y-30665614D01*
X5312764Y-30665614D01*
X5284193Y-30651328D01*
X5269907Y-30637043D01*
X5255621Y-30608471D01*
X5241335Y-30551328D01*
X5241335Y-30479900D01*
X5255621Y-30422757D01*
X5269907Y-30394186D01*
X5284193Y-30379900D01*
X5312764Y-30365614D01*
X5512764Y-30365614D02*
X5712764Y-30365614D01*
X5584193Y-30665614D01*
X5984192Y-30665614D02*
X5812764Y-30665614D01*
X5898478Y-30665614D02*
X5898478Y-30365614D01*
X5869907Y-30408471D01*
X5841335Y-30437043D01*
X5812764Y-30451328D01*
X6098478Y-30365614D02*
X6098478Y-30422757D01*
X6212764Y-30365614D02*
X6212764Y-30422757D01*
X6655621Y-30779900D02*
X6641335Y-30765614D01*
X6612764Y-30722757D01*
X6598478Y-30694186D01*
X6584192Y-30651328D01*
X6569907Y-30579900D01*
X6569907Y-30522757D01*
X6584192Y-30451328D01*
X6598478Y-30408471D01*
X6612764Y-30379900D01*
X6641335Y-30337043D01*
X6655621Y-30322757D01*
X6827050Y-30365614D02*
X6855621Y-30365614D01*
X6884193Y-30379900D01*
X6898478Y-30394186D01*
X6912764Y-30422757D01*
X6927050Y-30479900D01*
X6927050Y-30551328D01*
X6912764Y-30608471D01*
X6898478Y-30637043D01*
X6884193Y-30651328D01*
X6855621Y-30665614D01*
X6827050Y-30665614D01*
X6798478Y-30651328D01*
X6784193Y-30637043D01*
X6769907Y-30608471D01*
X6755621Y-30551328D01*
X6755621Y-30479900D01*
X6769907Y-30422757D01*
X6784193Y-30394186D01*
X6798478Y-30379900D01*
X6827050Y-30365614D01*
X7284193Y-30665614D02*
X7284193Y-30365614D01*
X7412764Y-30665614D02*
X7412764Y-30508471D01*
X7398478Y-30479900D01*
X7369907Y-30465614D01*
X7327050Y-30465614D01*
X7298478Y-30479900D01*
X7284193Y-30494186D01*
X7598478Y-30665614D02*
X7569907Y-30651328D01*
X7555621Y-30637043D01*
X7541335Y-30608471D01*
X7541335Y-30522757D01*
X7555621Y-30494186D01*
X7569907Y-30479900D01*
X7598478Y-30465614D01*
X7641335Y-30465614D01*
X7669907Y-30479900D01*
X7684193Y-30494186D01*
X7698478Y-30522757D01*
X7698478Y-30608471D01*
X7684193Y-30637043D01*
X7669907Y-30651328D01*
X7641335Y-30665614D01*
X7598478Y-30665614D01*
X7869907Y-30665614D02*
X7841335Y-30651328D01*
X7827050Y-30622757D01*
X7827050Y-30365614D01*
X8098478Y-30651328D02*
X8069907Y-30665614D01*
X8012764Y-30665614D01*
X7984193Y-30651328D01*
X7969907Y-30622757D01*
X7969907Y-30508471D01*
X7984193Y-30479900D01*
X8012764Y-30465614D01*
X8069907Y-30465614D01*
X8098478Y-30479900D01*
X8112764Y-30508471D01*
X8112764Y-30537043D01*
X7969907Y-30565614D01*
X8227050Y-30651328D02*
X8255621Y-30665614D01*
X8312764Y-30665614D01*
X8341335Y-30651328D01*
X8355621Y-30622757D01*
X8355621Y-30608471D01*
X8341335Y-30579900D01*
X8312764Y-30565614D01*
X8269907Y-30565614D01*
X8241335Y-30551328D01*
X8227050Y-30522757D01*
X8227050Y-30508471D01*
X8241335Y-30479900D01*
X8269907Y-30465614D01*
X8312764Y-30465614D01*
X8341335Y-30479900D01*
X8712764Y-30551328D02*
X8941335Y-30551328D01*
X8827050Y-30665614D02*
X8827050Y-30437043D01*
X9298478Y-30394186D02*
X9312764Y-30379900D01*
X9341335Y-30365614D01*
X9412764Y-30365614D01*
X9441335Y-30379900D01*
X9455621Y-30394186D01*
X9469907Y-30422757D01*
X9469907Y-30451328D01*
X9455621Y-30494186D01*
X9284193Y-30665614D01*
X9469907Y-30665614D01*
X9812764Y-30651328D02*
X9841335Y-30665614D01*
X9898478Y-30665614D01*
X9927050Y-30651328D01*
X9941335Y-30622757D01*
X9941335Y-30608471D01*
X9927050Y-30579900D01*
X9898478Y-30565614D01*
X9855621Y-30565614D01*
X9827050Y-30551328D01*
X9812764Y-30522757D01*
X9812764Y-30508471D01*
X9827050Y-30479900D01*
X9855621Y-30465614D01*
X9898478Y-30465614D01*
X9927050Y-30479900D01*
X10112764Y-30665614D02*
X10084193Y-30651328D01*
X10069907Y-30622757D01*
X10069907Y-30365614D01*
X10269907Y-30665614D02*
X10241335Y-30651328D01*
X10227050Y-30637043D01*
X10212764Y-30608471D01*
X10212764Y-30522757D01*
X10227050Y-30494186D01*
X10241335Y-30479900D01*
X10269907Y-30465614D01*
X10312764Y-30465614D01*
X10341335Y-30479900D01*
X10355621Y-30494186D01*
X10369907Y-30522757D01*
X10369907Y-30608471D01*
X10355621Y-30637043D01*
X10341335Y-30651328D01*
X10312764Y-30665614D01*
X10269907Y-30665614D01*
X10455621Y-30465614D02*
X10569907Y-30465614D01*
X10498478Y-30365614D02*
X10498478Y-30622757D01*
X10512764Y-30651328D01*
X10541335Y-30665614D01*
X10569907Y-30665614D01*
X10655621Y-30651328D02*
X10684193Y-30665614D01*
X10741335Y-30665614D01*
X10769907Y-30651328D01*
X10784193Y-30622757D01*
X10784193Y-30608471D01*
X10769907Y-30579900D01*
X10741335Y-30565614D01*
X10698478Y-30565614D01*
X10669907Y-30551328D01*
X10655621Y-30522757D01*
X10655621Y-30508471D01*
X10669907Y-30479900D01*
X10698478Y-30465614D01*
X10741335Y-30465614D01*
X10769907Y-30479900D01*
X10884193Y-30779900D02*
X10898478Y-30765614D01*
X10927050Y-30722757D01*
X10941335Y-30694186D01*
X10955621Y-30651328D01*
X10969907Y-30579900D01*
X10969907Y-30522757D01*
X10955621Y-30451328D01*
X10941335Y-30408471D01*
X10927050Y-30379900D01*
X10898478Y-30337043D01*
X10884193Y-30322757D01*
X11427050Y-30779900D02*
X11412764Y-30765614D01*
X11384193Y-30722757D01*
X11369907Y-30694186D01*
X11355621Y-30651328D01*
X11341335Y-30579900D01*
X11341335Y-30522757D01*
X11355621Y-30451328D01*
X11369907Y-30408471D01*
X11384193Y-30379900D01*
X11412764Y-30337043D01*
X11427050Y-30322757D01*
X11541335Y-30465614D02*
X11541335Y-30665614D01*
X11541335Y-30494186D02*
X11555621Y-30479900D01*
X11584193Y-30465614D01*
X11627050Y-30465614D01*
X11655621Y-30479900D01*
X11669907Y-30508471D01*
X11669907Y-30665614D01*
X11855621Y-30665614D02*
X11827050Y-30651328D01*
X11812764Y-30637043D01*
X11798478Y-30608471D01*
X11798478Y-30522757D01*
X11812764Y-30494186D01*
X11827050Y-30479900D01*
X11855621Y-30465614D01*
X11898478Y-30465614D01*
X11927050Y-30479900D01*
X11941335Y-30494186D01*
X11955621Y-30522757D01*
X11955621Y-30608471D01*
X11941335Y-30637043D01*
X11927050Y-30651328D01*
X11898478Y-30665614D01*
X11855621Y-30665614D01*
X12041335Y-30465614D02*
X12155621Y-30465614D01*
X12084193Y-30365614D02*
X12084193Y-30622757D01*
X12098478Y-30651328D01*
X12127050Y-30665614D01*
X12155621Y-30665614D01*
X12484193Y-30465614D02*
X12484193Y-30765614D01*
X12484193Y-30479900D02*
X12512764Y-30465614D01*
X12569907Y-30465614D01*
X12598478Y-30479900D01*
X12612764Y-30494186D01*
X12627050Y-30522757D01*
X12627050Y-30608471D01*
X12612764Y-30637043D01*
X12598478Y-30651328D01*
X12569907Y-30665614D01*
X12512764Y-30665614D01*
X12484193Y-30651328D01*
X12798478Y-30665614D02*
X12769907Y-30651328D01*
X12755621Y-30622757D01*
X12755621Y-30365614D01*
X13041335Y-30665614D02*
X13041335Y-30508471D01*
X13027050Y-30479900D01*
X12998478Y-30465614D01*
X12941335Y-30465614D01*
X12912764Y-30479900D01*
X13041335Y-30651328D02*
X13012764Y-30665614D01*
X12941335Y-30665614D01*
X12912764Y-30651328D01*
X12898478Y-30622757D01*
X12898478Y-30594186D01*
X12912764Y-30565614D01*
X12941335Y-30551328D01*
X13012764Y-30551328D01*
X13041335Y-30537043D01*
X13141335Y-30465614D02*
X13255621Y-30465614D01*
X13184193Y-30365614D02*
X13184193Y-30622757D01*
X13198478Y-30651328D01*
X13227050Y-30665614D01*
X13255621Y-30665614D01*
X13469907Y-30651328D02*
X13441335Y-30665614D01*
X13384193Y-30665614D01*
X13355621Y-30651328D01*
X13341335Y-30622757D01*
X13341335Y-30508471D01*
X13355621Y-30479900D01*
X13384193Y-30465614D01*
X13441335Y-30465614D01*
X13469907Y-30479900D01*
X13484193Y-30508471D01*
X13484193Y-30537043D01*
X13341335Y-30565614D01*
X13741335Y-30665614D02*
X13741335Y-30365614D01*
X13741335Y-30651328D02*
X13712764Y-30665614D01*
X13655621Y-30665614D01*
X13627050Y-30651328D01*
X13612764Y-30637043D01*
X13598478Y-30608471D01*
X13598478Y-30522757D01*
X13612764Y-30494186D01*
X13627050Y-30479900D01*
X13655621Y-30465614D01*
X13712764Y-30465614D01*
X13741335Y-30479900D01*
X13855621Y-30779900D02*
X13869907Y-30765614D01*
X13898478Y-30722757D01*
X13912764Y-30694186D01*
X13927050Y-30651328D01*
X13941335Y-30579900D01*
X13941335Y-30522757D01*
X13927050Y-30451328D01*
X13912764Y-30408471D01*
X13898478Y-30379900D01*
X13869907Y-30337043D01*
X13855621Y-30322757D01*
X1910794Y-31066891D02*
X1910794Y-30784909D01*
X1628811Y-30784909D01*
X1628811Y-31066891D01*
X1910794Y-31066891D01*
X2227050Y-30761614D02*
X2412764Y-30761614D01*
X2312764Y-30875900D01*
X2355621Y-30875900D01*
X2384193Y-30890186D01*
X2398478Y-30904471D01*
X2412764Y-30933043D01*
X2412764Y-31004471D01*
X2398478Y-31033043D01*
X2384193Y-31047328D01*
X2355621Y-31061614D01*
X2269907Y-31061614D01*
X2241335Y-31047328D01*
X2227050Y-31033043D01*
X2541335Y-31033043D02*
X2555621Y-31047328D01*
X2541335Y-31061614D01*
X2527050Y-31047328D01*
X2541335Y-31033043D01*
X2541335Y-31061614D01*
X2698478Y-31061614D02*
X2755621Y-31061614D01*
X2784193Y-31047328D01*
X2798478Y-31033043D01*
X2827050Y-30990186D01*
X2841335Y-30933043D01*
X2841335Y-30818757D01*
X2827050Y-30790186D01*
X2812764Y-30775900D01*
X2784193Y-30761614D01*
X2727050Y-30761614D01*
X2698478Y-30775900D01*
X2684193Y-30790186D01*
X2669907Y-30818757D01*
X2669907Y-30890186D01*
X2684193Y-30918757D01*
X2698478Y-30933043D01*
X2727050Y-30947328D01*
X2784193Y-30947328D01*
X2812764Y-30933043D01*
X2827050Y-30918757D01*
X2841335Y-30890186D01*
X2984193Y-31061614D02*
X3041335Y-31061614D01*
X3069907Y-31047328D01*
X3084193Y-31033043D01*
X3112764Y-30990186D01*
X3127050Y-30933043D01*
X3127050Y-30818757D01*
X3112764Y-30790186D01*
X3098478Y-30775900D01*
X3069907Y-30761614D01*
X3012764Y-30761614D01*
X2984193Y-30775900D01*
X2969907Y-30790186D01*
X2955621Y-30818757D01*
X2955621Y-30890186D01*
X2969907Y-30918757D01*
X2984193Y-30933043D01*
X3012764Y-30947328D01*
X3069907Y-30947328D01*
X3098478Y-30933043D01*
X3112764Y-30918757D01*
X3127050Y-30890186D01*
X3255621Y-31061614D02*
X3255621Y-30861614D01*
X3255621Y-30890186D02*
X3269907Y-30875900D01*
X3298478Y-30861614D01*
X3341335Y-30861614D01*
X3369907Y-30875900D01*
X3384193Y-30904471D01*
X3384193Y-31061614D01*
X3384193Y-30904471D02*
X3398478Y-30875900D01*
X3427050Y-30861614D01*
X3469907Y-30861614D01*
X3498478Y-30875900D01*
X3512764Y-30904471D01*
X3512764Y-31061614D01*
X3655621Y-31061614D02*
X3655621Y-30861614D01*
X3655621Y-30890186D02*
X3669907Y-30875900D01*
X3698478Y-30861614D01*
X3741335Y-30861614D01*
X3769907Y-30875900D01*
X3784193Y-30904471D01*
X3784193Y-31061614D01*
X3784193Y-30904471D02*
X3798478Y-30875900D01*
X3827050Y-30861614D01*
X3869907Y-30861614D01*
X3898478Y-30875900D01*
X3912764Y-30904471D01*
X3912764Y-31061614D01*
X4498478Y-30747328D02*
X4241335Y-31133043D01*
X4884193Y-30761614D02*
X4912764Y-30761614D01*
X4941335Y-30775900D01*
X4955621Y-30790186D01*
X4969907Y-30818757D01*
X4984193Y-30875900D01*
X4984193Y-30947328D01*
X4969907Y-31004471D01*
X4955621Y-31033043D01*
X4941335Y-31047328D01*
X4912764Y-31061614D01*
X4884193Y-31061614D01*
X4855621Y-31047328D01*
X4841335Y-31033043D01*
X4827050Y-31004471D01*
X4812764Y-30947328D01*
X4812764Y-30875900D01*
X4827050Y-30818757D01*
X4841335Y-30790186D01*
X4855621Y-30775900D01*
X4884193Y-30761614D01*
X5112764Y-31033043D02*
X5127050Y-31047328D01*
X5112764Y-31061614D01*
X5098478Y-31047328D01*
X5112764Y-31033043D01*
X5112764Y-31061614D01*
X5412764Y-31061614D02*
X5241335Y-31061614D01*
X5327050Y-31061614D02*
X5327050Y-30761614D01*
X5298478Y-30804471D01*
X5269907Y-30833043D01*
X5241335Y-30847328D01*
X5684193Y-30761614D02*
X5541335Y-30761614D01*
X5527050Y-30904471D01*
X5541335Y-30890186D01*
X5569907Y-30875900D01*
X5641335Y-30875900D01*
X5669907Y-30890186D01*
X5684193Y-30904471D01*
X5698478Y-30933043D01*
X5698478Y-31004471D01*
X5684193Y-31033043D01*
X5669907Y-31047328D01*
X5641335Y-31061614D01*
X5569907Y-31061614D01*
X5541335Y-31047328D01*
X5527050Y-31033043D01*
X5798478Y-30761614D02*
X5998478Y-30761614D01*
X5869907Y-31061614D01*
X6098478Y-30761614D02*
X6098478Y-30818757D01*
X6212764Y-30761614D02*
X6212764Y-30818757D01*
X6655621Y-31175900D02*
X6641335Y-31161614D01*
X6612764Y-31118757D01*
X6598478Y-31090186D01*
X6584192Y-31047328D01*
X6569907Y-30975900D01*
X6569907Y-30918757D01*
X6584192Y-30847328D01*
X6598478Y-30804471D01*
X6612764Y-30775900D01*
X6641335Y-30733043D01*
X6655621Y-30718757D01*
X6898478Y-30761614D02*
X6841335Y-30761614D01*
X6812764Y-30775900D01*
X6798478Y-30790186D01*
X6769907Y-30833043D01*
X6755621Y-30890186D01*
X6755621Y-31004471D01*
X6769907Y-31033043D01*
X6784193Y-31047328D01*
X6812764Y-31061614D01*
X6869907Y-31061614D01*
X6898478Y-31047328D01*
X6912764Y-31033043D01*
X6927050Y-31004471D01*
X6927050Y-30933043D01*
X6912764Y-30904471D01*
X6898478Y-30890186D01*
X6869907Y-30875900D01*
X6812764Y-30875900D01*
X6784193Y-30890186D01*
X6769907Y-30904471D01*
X6755621Y-30933043D01*
X7198478Y-30761614D02*
X7055621Y-30761614D01*
X7041335Y-30904471D01*
X7055621Y-30890186D01*
X7084193Y-30875900D01*
X7155621Y-30875900D01*
X7184193Y-30890186D01*
X7198478Y-30904471D01*
X7212764Y-30933043D01*
X7212764Y-31004471D01*
X7198478Y-31033043D01*
X7184193Y-31047328D01*
X7155621Y-31061614D01*
X7084193Y-31061614D01*
X7055621Y-31047328D01*
X7041335Y-31033043D01*
X7569907Y-31061614D02*
X7569907Y-30761614D01*
X7698478Y-31061614D02*
X7698478Y-30904471D01*
X7684193Y-30875900D01*
X7655621Y-30861614D01*
X7612764Y-30861614D01*
X7584193Y-30875900D01*
X7569907Y-30890186D01*
X7884193Y-31061614D02*
X7855621Y-31047328D01*
X7841335Y-31033043D01*
X7827050Y-31004471D01*
X7827050Y-30918757D01*
X7841335Y-30890186D01*
X7855621Y-30875900D01*
X7884193Y-30861614D01*
X7927050Y-30861614D01*
X7955621Y-30875900D01*
X7969907Y-30890186D01*
X7984193Y-30918757D01*
X7984193Y-31004471D01*
X7969907Y-31033043D01*
X7955621Y-31047328D01*
X7927050Y-31061614D01*
X7884193Y-31061614D01*
X8155621Y-31061614D02*
X8127050Y-31047328D01*
X8112764Y-31018757D01*
X8112764Y-30761614D01*
X8384193Y-31047328D02*
X8355621Y-31061614D01*
X8298478Y-31061614D01*
X8269907Y-31047328D01*
X8255621Y-31018757D01*
X8255621Y-30904471D01*
X8269907Y-30875900D01*
X8298478Y-30861614D01*
X8355621Y-30861614D01*
X8384193Y-30875900D01*
X8398478Y-30904471D01*
X8398478Y-30933043D01*
X8255621Y-30961614D01*
X8512764Y-31047328D02*
X8541335Y-31061614D01*
X8598478Y-31061614D01*
X8627050Y-31047328D01*
X8641335Y-31018757D01*
X8641335Y-31004471D01*
X8627050Y-30975900D01*
X8598478Y-30961614D01*
X8555621Y-30961614D01*
X8527050Y-30947328D01*
X8512764Y-30918757D01*
X8512764Y-30904471D01*
X8527050Y-30875900D01*
X8555621Y-30861614D01*
X8598478Y-30861614D01*
X8627050Y-30875900D01*
X8741335Y-31175900D02*
X8755621Y-31161614D01*
X8784193Y-31118757D01*
X8798478Y-31090186D01*
X8812764Y-31047328D01*
X8827050Y-30975900D01*
X8827050Y-30918757D01*
X8812764Y-30847328D01*
X8798478Y-30804471D01*
X8784193Y-30775900D01*
X8755621Y-30733043D01*
X8741335Y-30718757D01*
X9284193Y-31175900D02*
X9269907Y-31161614D01*
X9241335Y-31118757D01*
X9227050Y-31090186D01*
X9212764Y-31047328D01*
X9198478Y-30975900D01*
X9198478Y-30918757D01*
X9212764Y-30847328D01*
X9227050Y-30804471D01*
X9241335Y-30775900D01*
X9269907Y-30733043D01*
X9284193Y-30718757D01*
X9398478Y-30861614D02*
X9398478Y-31061614D01*
X9398478Y-30890186D02*
X9412764Y-30875900D01*
X9441335Y-30861614D01*
X9484193Y-30861614D01*
X9512764Y-30875900D01*
X9527050Y-30904471D01*
X9527050Y-31061614D01*
X9712764Y-31061614D02*
X9684193Y-31047328D01*
X9669907Y-31033043D01*
X9655621Y-31004471D01*
X9655621Y-30918757D01*
X9669907Y-30890186D01*
X9684193Y-30875900D01*
X9712764Y-30861614D01*
X9755621Y-30861614D01*
X9784193Y-30875900D01*
X9798478Y-30890186D01*
X9812764Y-30918757D01*
X9812764Y-31004471D01*
X9798478Y-31033043D01*
X9784193Y-31047328D01*
X9755621Y-31061614D01*
X9712764Y-31061614D01*
X9898478Y-30861614D02*
X10012764Y-30861614D01*
X9941335Y-30761614D02*
X9941335Y-31018757D01*
X9955621Y-31047328D01*
X9984193Y-31061614D01*
X10012764Y-31061614D01*
X10341335Y-30861614D02*
X10341335Y-31161614D01*
X10341335Y-30875900D02*
X10369907Y-30861614D01*
X10427050Y-30861614D01*
X10455621Y-30875900D01*
X10469907Y-30890186D01*
X10484193Y-30918757D01*
X10484193Y-31004471D01*
X10469907Y-31033043D01*
X10455621Y-31047328D01*
X10427050Y-31061614D01*
X10369907Y-31061614D01*
X10341335Y-31047328D01*
X10655621Y-31061614D02*
X10627050Y-31047328D01*
X10612764Y-31018757D01*
X10612764Y-30761614D01*
X10898478Y-31061614D02*
X10898478Y-30904471D01*
X10884193Y-30875900D01*
X10855621Y-30861614D01*
X10798478Y-30861614D01*
X10769907Y-30875900D01*
X10898478Y-31047328D02*
X10869907Y-31061614D01*
X10798478Y-31061614D01*
X10769907Y-31047328D01*
X10755621Y-31018757D01*
X10755621Y-30990186D01*
X10769907Y-30961614D01*
X10798478Y-30947328D01*
X10869907Y-30947328D01*
X10898478Y-30933043D01*
X10998478Y-30861614D02*
X11112764Y-30861614D01*
X11041335Y-30761614D02*
X11041335Y-31018757D01*
X11055621Y-31047328D01*
X11084193Y-31061614D01*
X11112764Y-31061614D01*
X11327050Y-31047328D02*
X11298478Y-31061614D01*
X11241335Y-31061614D01*
X11212764Y-31047328D01*
X11198478Y-31018757D01*
X11198478Y-30904471D01*
X11212764Y-30875900D01*
X11241335Y-30861614D01*
X11298478Y-30861614D01*
X11327050Y-30875900D01*
X11341335Y-30904471D01*
X11341335Y-30933043D01*
X11198478Y-30961614D01*
X11598478Y-31061614D02*
X11598478Y-30761614D01*
X11598478Y-31047328D02*
X11569907Y-31061614D01*
X11512764Y-31061614D01*
X11484192Y-31047328D01*
X11469907Y-31033043D01*
X11455621Y-31004471D01*
X11455621Y-30918757D01*
X11469907Y-30890186D01*
X11484192Y-30875900D01*
X11512764Y-30861614D01*
X11569907Y-30861614D01*
X11598478Y-30875900D01*
X11712764Y-31175900D02*
X11727050Y-31161614D01*
X11755621Y-31118757D01*
X11769907Y-31090186D01*
X11784193Y-31047328D01*
X11798478Y-30975900D01*
X11798478Y-30918757D01*
X11784193Y-30847328D01*
X11769907Y-30804471D01*
X11755621Y-30775900D01*
X11727050Y-30733043D01*
X11712764Y-30718757D01*
M02*
