M48
; DRILL file {KiCad 5.1.9+dfsg1-1} date Wed Dec 29 06:26:33 2021
; FORMAT={-:-/ absolute / metric / decimal}
; #@! TF.CreationDate,2021-12-29T06:26:33+01:00
; #@! TF.GenerationSoftware,Kicad,Pcbnew,5.1.9+dfsg1-1
; #@! TF.FileFunction,Plated,1,2,PTH
FMAT,2
METRIC
T1C0.400
T2C0.600
T3C1.470
%
G90
G05
T1
X23.812Y-46.038
X23.812Y-65.087
X23.812Y-84.138
X23.812Y-103.188
X23.812Y-122.237
X27.781Y-30.162
X27.781Y-128.588
X41.275Y-90.487
X42.862Y-46.038
X42.862Y-84.138
X42.862Y-122.237
X43.656Y-92.869
X46.038Y-36.512
X53.975Y-34.925
X53.975Y-38.1
X57.15Y-49.212
X57.531Y-35.719
X57.944Y-47.625
X57.944Y-50.8
X58.674Y-34.163
X58.674Y-38.1
X58.737Y-63.5
X58.737Y-66.675
X58.928Y-29.972
X59.531Y-70.644
X60.325Y-35.719
X60.325Y-47.625
X60.325Y-50.8
X60.325Y-63.5
X60.325Y-66.675
X61.119Y-69.056
X61.912Y-73.025
X61.912Y-90.487
X61.912Y-103.188
X61.93Y-27.986
X62.484Y-61.722
X62.484Y-66.675
X62.706Y-47.625
X62.706Y-50.8
X63.5Y-35.719
X63.5Y-37.306
X63.5Y-49.212
X63.5Y-65.881
X63.5Y-71.438
X63.5Y-128.588
X64.292Y-34.923
X65.024Y-29.972
X65.087Y-47.625
X65.087Y-50.8
X65.112Y-34.156
X65.881Y-35.719
X65.881Y-65.087
X65.881Y-68.263
X69.289Y-62.865
X69.85Y-34.925
X69.85Y-38.1
X70.644Y-49.212
X70.644Y-84.138
X71.438Y-69.056
X72.231Y-82.55
X72.765Y-36.512
X72.898Y-70.612
X72.898Y-75.184
X73.819Y-69.056
X73.819Y-76.994
X74.295Y-60.325
X75.229Y-86.696
X76.994Y-67.469
X76.994Y-75.406
X77.066Y-63.428
X78.105Y-71.374
X78.994Y-61.912
X79.375Y-51.594
X79.375Y-56.356
X79.375Y-84.138
X79.375Y-88.9
X80.899Y-68.58
X80.899Y-71.374
X80.899Y-74.295
X80.962Y-46.038
X80.962Y-59.531
X80.962Y-122.237
X82.55Y-51.594
X82.55Y-61.912
X82.55Y-91.281
X83.566Y-71.374
X84.836Y-67.437
X84.931Y-75.406
X86.519Y-51.594
X86.519Y-56.356
X86.519Y-61.912
X86.61Y-80.229
X88.158Y-76.994
X90.487Y-56.356
X91.281Y-92.075
X91.948Y-68.326
X96.837Y-74.612
X98.425Y-92.869
X98.425Y-100.806
X99.219Y-30.162
X99.219Y-128.588
X100.012Y-65.087
X100.012Y-103.981
X107.156Y-90.487
X111.919Y-30.162
X111.919Y-128.588
X119.062Y-46.038
X119.062Y-84.138
X119.062Y-122.237
X138.112Y-65.087
X138.112Y-103.188
X140.494Y-74.612
X145.256Y-90.487
X147.637Y-30.162
X147.637Y-128.588
X157.162Y-46.038
X157.162Y-84.138
X157.162Y-122.237
X158.75Y-73.819
X176.213Y-65.087
X176.213Y-103.188
X183.356Y-30.162
X183.356Y-90.487
X183.356Y-128.588
X195.262Y-46.038
X195.262Y-84.138
X195.262Y-122.237
X196.056Y-30.162
X196.056Y-128.588
X196.723Y-73.533
X214.312Y-65.087
X214.312Y-103.188
X221.456Y-90.487
X231.775Y-30.162
X231.775Y-128.588
X233.362Y-46.038
X233.362Y-84.138
X233.362Y-122.237
X252.412Y-65.087
X252.412Y-103.188
X267.494Y-30.162
X267.494Y-128.588
X271.462Y-46.038
X271.462Y-65.087
X271.462Y-84.138
X271.462Y-103.188
X271.462Y-122.237
T3
X30.797Y-46.355
X30.797Y-65.405
X30.797Y-84.455
X30.797Y-103.505
X30.797Y-122.555
X37.148Y-43.815
X37.148Y-62.865
X37.148Y-81.915
X37.148Y-100.965
X37.148Y-120.015
X49.847Y-46.355
X49.847Y-65.405
X49.847Y-84.455
X49.847Y-103.505
X49.847Y-122.555
X56.197Y-43.815
X56.197Y-62.865
X56.197Y-81.915
X56.197Y-100.965
X56.197Y-120.015
X68.897Y-46.355
X68.897Y-65.405
X68.897Y-84.455
X68.897Y-103.505
X68.897Y-122.555
X75.248Y-43.815
X75.248Y-62.865
X75.248Y-81.915
X75.248Y-100.965
X75.248Y-120.015
X87.947Y-46.355
X87.947Y-65.405
X87.947Y-84.455
X87.947Y-103.505
X87.947Y-122.555
X94.297Y-43.815
X94.297Y-62.865
X94.297Y-81.915
X94.297Y-100.965
X94.297Y-120.015
X106.997Y-46.355
X106.997Y-65.405
X106.997Y-84.455
X106.997Y-103.505
X106.997Y-122.555
X113.347Y-43.815
X113.347Y-62.865
X113.347Y-81.915
X113.347Y-100.965
X113.347Y-120.015
X126.047Y-46.355
X126.047Y-65.405
X126.047Y-84.455
X126.047Y-103.505
X126.047Y-122.555
X132.398Y-43.815
X132.398Y-62.865
X132.398Y-81.915
X132.398Y-100.965
X132.398Y-120.015
X145.097Y-46.355
X145.097Y-65.405
X145.097Y-84.455
X145.097Y-103.505
X145.097Y-122.555
X151.447Y-43.815
X151.447Y-62.865
X151.447Y-81.915
X151.447Y-100.965
X151.447Y-120.015
X164.147Y-46.355
X164.147Y-65.405
X164.147Y-84.455
X164.147Y-103.505
X164.147Y-122.555
X170.498Y-43.815
X170.498Y-62.865
X170.498Y-81.915
X170.498Y-100.965
X170.498Y-120.015
X183.197Y-46.355
X183.197Y-65.405
X183.197Y-84.455
X183.197Y-103.505
X183.197Y-122.555
X189.547Y-43.815
X189.547Y-62.865
X189.547Y-81.915
X189.547Y-100.965
X189.547Y-120.015
X202.248Y-46.355
X202.248Y-65.405
X202.248Y-84.455
X202.248Y-103.505
X202.248Y-122.555
X208.597Y-43.815
X208.597Y-62.865
X208.597Y-81.915
X208.597Y-100.965
X208.597Y-120.015
X221.297Y-46.355
X221.297Y-65.405
X221.297Y-84.455
X221.297Y-103.505
X221.297Y-122.555
X227.647Y-43.815
X227.647Y-62.865
X227.647Y-81.915
X227.647Y-100.965
X227.647Y-120.015
X240.347Y-46.355
X240.347Y-65.405
X240.347Y-84.455
X240.347Y-103.505
X240.347Y-122.555
X246.697Y-43.815
X246.697Y-62.865
X246.697Y-81.915
X246.697Y-100.965
X246.697Y-120.015
X259.397Y-46.355
X259.397Y-65.405
X259.397Y-84.455
X259.397Y-103.505
X259.397Y-122.555
X265.748Y-43.815
X265.748Y-62.865
X265.748Y-81.915
X265.748Y-100.965
X265.748Y-120.015
T2
X57.592Y-27.586G85X57.592Y-28.386
G05
X57.592Y-31.606G85X57.592Y-32.706
G05
X66.233Y-27.586G85X66.233Y-28.386
G05
X66.233Y-31.606G85X66.233Y-32.706
G05
T0
M30
