0
SECTION
2
HEADER
9
$INSUNITS
70
4
9
$ACADVER
1
AC1014
9
$HANDSEED
5
FFFF
0
ENDSEC
0
SECTION
2
TABLES
0
TABLE
2
VPORT
5
8
100
AcDbSymbolTable
0
ENDTAB
0
TABLE
2
LTYPE
5
5
100
AcDbSymbolTable
0
LTYPE
5
14
100
AcDbSymbolTableRecord
100
AcDbLinetypeTableRecord
2
BYBLOCK
70
0
0
LTYPE
5
15
100
AcDbSymbolTableRecord
100
AcDbLinetypeTableRecord
2
BYLAYER
70
0
0
ENDTAB
0
TABLE
2
LAYER
5
2
100
AcDbSymbolTable
70
2
0
LAYER
5
50
100
AcDbSymbolTableRecord
100
AcDbLayerTableRecord
2
0
70
0
6
CONTINUOUS
0
ENDTAB
0
TABLE
2
STYLE
5
3
100
AcDbSymbolTable
70
1
0
STYLE
5
11
100
AcDbSymbolTableRecord
100
AcDbTextStyleTableRecord
2
STANDARD
70
0
0
ENDTAB
0
TABLE
2
VIEW
5
6
100
AcDbSymbolTable
70
0
0
ENDTAB
0
TABLE
2
UCS
5
7
100
AcDbSymbolTable
70
0
0
ENDTAB
0
TABLE
2
APPID
5
9
100
AcDbSymbolTable
70
2
0
APPID
5
12
100
AcDbSymbolTableRecord
100
AcDbRegAppTableRecord
2
ACAD
70
0
0
ENDTAB
0
TABLE
2
DIMSTYLE
5
A
100
AcDbSymbolTable
70
1
0
ENDTAB
0
TABLE
2
BLOCK_RECORD
5
1
100
AcDbSymbolTable
70
1
0
BLOCK_RECORD
5
1F
100
AcDbSymbolTableRecord
100
AcDbBlockTableRecord
2
*MODEL_SPACE
0
BLOCK_RECORD
5
1B
100
AcDbSymbolTableRecord
100
AcDbBlockTableRecord
2
*PAPER_SPACE
0
ENDTAB
0
ENDSEC
0
SECTION
2
BLOCKS
0
BLOCK
5
20
100
AcDbEntity
100
AcDbBlockBegin
2
*MODEL_SPACE
0
ENDBLK
5
21
100
AcDbEntity
100
AcDbBlockEnd
0
BLOCK
5
1C
100
AcDbEntity
100
AcDbBlockBegin
2
*PAPER_SPACE
0
ENDBLK
5
1D
100
AcDbEntity
100
AcDbBlockEnd
0
ENDSEC
0
SECTION
2
ENTITIES
0
ARC
5
100
100
AcDbEntity
8
0
100
AcDbCircle
10
-6.2928932188134539
20
6.2928932188134539
30
0
40
0.99999999999999967
210
0
220
-0
230
1
100
AcDbArc
50
44.999999999999964
51
225.00000000000003
0
ARC
5
101
100
AcDbEntity
8
0
100
AcDbCircle
10
6.2928932188134539
20
6.2928932188134539
30
0
40
0.99999999999999967
210
0
220
0
230
1
100
AcDbArc
50
-45.00000000000005
51
135.00000000000006
0
ARC
5
102
100
AcDbEntity
8
0
100
AcDbCircle
10
6.2928932188134539
20
-6.2928932188134539
30
0
40
0.99999999999999967
210
0
220
0
230
1
100
AcDbArc
50
-135.00000000000006
51
45.000000000000028
0
ARC
5
103
100
AcDbEntity
8
0
100
AcDbCircle
10
-6.2928932188134539
20
-6.2928932188134539
30
0
40
0.99999999999999967
210
0
220
0
230
1
100
AcDbArc
50
134.99999999999997
51
315.00000000000006
0
LINE
5
104
100
AcDbEntity
8
0
100
AcDbLine
10
-7.0000000000000009
20
-5.585786437626906
30
0
11
-7.0000000000000009
21
5.585786437626906
31
0
0
LINE
5
105
100
AcDbEntity
8
0
100
AcDbLine
10
-5.585786437626906
20
7.0000000000000009
30
0
11
5.585786437626906
21
7.0000000000000009
31
0
0
LINE
5
106
100
AcDbEntity
8
0
100
AcDbLine
10
7.0000000000000009
20
5.585786437626906
30
0
11
7.0000000000000009
21
-5.585786437626906
31
0
0
LINE
5
107
100
AcDbEntity
8
0
100
AcDbLine
10
5.585786437626906
20
-7.0000000000000009
30
0
11
-5.585786437626906
21
-7.0000000000000009
31
0
0
LWPOLYLINE
5
108
100
AcDbEntity
8
0
100
AcDbPolyline
90
8
70
1
43
0.0
10
-119.88578643762692
20
-45.100000000000009
10
-108.71421356237312
20
-45.100000000000009
42
0.99999999999999989
10
-107.30000000000003
20
-43.685786437626916
10
-107.30000000000003
20
-32.514213562373101
42
0.99999999999999989
10
-108.71421356237312
20
-31.100000000000001
10
-119.88578643762692
20
-31.100000000000001
42
0.99999999999999989
10
-121.30000000000001
20
-32.514213562373101
10
-121.30000000000001
20
-43.685786437626916
42
0.99999999999999989
0
LWPOLYLINE
5
109
100
AcDbEntity
8
0
100
AcDbPolyline
90
8
70
1
43
0.0
10
-100.83578643762692
20
-45.100000000000009
10
-89.664213562373121
20
-45.100000000000009
42
0.99999999999999989
10
-88.250000000000028
20
-43.685786437626916
10
-88.250000000000028
20
-32.514213562373101
42
0.99999999999999989
10
-89.664213562373121
20
-31.100000000000001
10
-100.83578643762692
20
-31.100000000000001
42
0.99999999999999989
10
-102.25000000000001
20
-32.514213562373101
10
-102.25000000000001
20
-43.685786437626916
42
0.99999999999999989
0
LWPOLYLINE
5
110
100
AcDbEntity
8
0
100
AcDbPolyline
90
8
70
1
43
0.0
10
-81.785786437626911
20
-45.100000000000009
10
-70.614213562373095
20
-45.100000000000009
42
0.99999999999999989
10
-69.200000000000003
20
-43.685786437626916
10
-69.200000000000003
20
-32.514213562373101
42
0.99999999999999989
10
-70.614213562373095
20
-31.100000000000001
10
-81.785786437626911
20
-31.100000000000001
42
0.99999999999999989
10
-83.200000000000003
20
-32.514213562373101
10
-83.200000000000003
20
-43.685786437626916
42
0.99999999999999989
0
LWPOLYLINE
5
111
100
AcDbEntity
8
0
100
AcDbPolyline
90
8
70
1
43
0.0
10
-62.735786437626913
20
-45.100000000000009
10
-51.564213562373098
20
-45.100000000000009
42
0.99999999999999989
10
-50.150000000000006
20
-43.685786437626916
10
-50.150000000000006
20
-32.514213562373101
42
0.99999999999999989
10
-51.564213562373098
20
-31.100000000000001
10
-62.735786437626913
20
-31.100000000000001
42
0.99999999999999989
10
-64.150000000000006
20
-32.514213562373101
10
-64.150000000000006
20
-43.685786437626916
42
0.99999999999999989
0
LWPOLYLINE
5
112
100
AcDbEntity
8
0
100
AcDbPolyline
90
8
70
1
43
0.0
10
-43.685786437626916
20
-45.100000000000009
10
-32.514213562373101
20
-45.100000000000009
42
0.99999999999999989
10
-31.100000000000001
20
-43.685786437626916
10
-31.100000000000001
20
-32.514213562373101
42
0.99999999999999989
10
-32.514213562373101
20
-31.100000000000001
10
-43.685786437626916
20
-31.100000000000001
42
0.99999999999999989
10
-45.100000000000009
20
-32.514213562373101
10
-45.100000000000009
20
-43.685786437626916
42
0.99999999999999989
0
LINE
5
113
100
AcDbEntity
8
0
100
AcDbLine
10
-13.464213562373097
20
-45.100000000000009
30
0
11
-24.635786437626908
21
-45.100000000000009
31
0
0
ARC
5
114
100
AcDbEntity
8
0
100
AcDbCircle
10
-25.342893218813458
20
-44.392893218813462
30
0
40
0.999999999999998
210
0
220
0
230
1
100
AcDbArc
50
135
51
315.00000000000017
0
LINE
5
115
100
AcDbEntity
8
0
100
AcDbLine
10
-24.635786437626908
20
-31.100000000000001
30
0
11
-13.464213562373097
21
-31.100000000000001
31
0
0
ARC
5
116
100
AcDbEntity
8
0
100
AcDbCircle
10
-12.757106781186549
20
-44.392893218813462
30
0
40
0.99999999999999967
210
0
220
0
230
1
100
AcDbArc
50
-135.00000000000009
51
44.999999999999922
0
LINE
5
117
100
AcDbEntity
8
0
100
AcDbLine
10
-12.050000000000001
20
-32.514213562373101
30
0
11
-12.050000000000001
21
-43.685786437626916
31
0
0
ARC
5
118
100
AcDbEntity
8
0
100
AcDbCircle
10
-25.342893218813458
20
-31.807106781186548
30
0
40
1.0000000000000011
210
0
220
-0
230
1
100
AcDbArc
50
44.999999999999858
51
225.00000000000028
0
LINE
5
119
100
AcDbEntity
8
0
100
AcDbLine
10
-26.050000000000004
20
-43.685786437626916
30
0
11
-26.050000000000004
21
-32.514213562373101
31
0
0
ARC
5
120
100
AcDbEntity
8
0
100
AcDbCircle
10
-12.757106781186549
20
-31.807106781186548
30
0
40
1.0000000000000027
210
0
220
0
230
1
100
AcDbArc
50
-45.000000000000199
51
135.00000000000009
0
LINE
5
121
100
AcDbEntity
8
0
100
AcDbLine
10
5.585786437626906
20
-45.100000000000009
30
0
11
-5.585786437626906
21
-45.100000000000009
31
0
0
ARC
5
122
100
AcDbEntity
8
0
100
AcDbCircle
10
-6.2928932188134539
20
-44.392893218813462
30
0
40
0.99999999999999878
210
0
220
0
230
1
100
AcDbArc
50
135.00000000000006
51
315.00000000000006
0
LINE
5
123
100
AcDbEntity
8
0
100
AcDbLine
10
-5.585786437626906
20
-31.100000000000001
30
0
11
5.585786437626906
21
-31.100000000000001
31
0
0
ARC
5
124
100
AcDbEntity
8
0
100
AcDbCircle
10
6.2928932188134539
20
-44.392893218813462
30
0
40
0.99999999999999878
210
0
220
0
230
1
100
AcDbArc
50
-135.00000000000009
51
44.999999999999964
0
LINE
5
125
100
AcDbEntity
8
0
100
AcDbLine
10
7.0000000000000009
20
-32.514213562373101
30
0
11
7.0000000000000009
21
-43.685786437626916
31
0
0
ARC
5
126
100
AcDbEntity
8
0
100
AcDbCircle
10
-6.2928932188134539
20
-31.807106781186548
30
0
40
0.99999999999999878
210
0
220
-0
230
1
100
AcDbArc
50
44.999999999999922
51
225.00000000000026
0
LINE
5
127
100
AcDbEntity
8
0
100
AcDbLine
10
-7.0000000000000009
20
-43.685786437626916
30
0
11
-7.0000000000000009
21
-32.514213562373101
31
0
0
ARC
5
128
100
AcDbEntity
8
0
100
AcDbCircle
10
6.2928932188134539
20
-31.807106781186548
30
0
40
1.000000000000002
210
0
220
0
230
1
100
AcDbArc
50
-45.000000000000256
51
135.00000000000009
0
LINE
5
129
100
AcDbEntity
8
0
100
AcDbLine
10
24.635786437626908
20
-45.100000000000009
30
0
11
13.464213562373097
21
-45.100000000000009
31
0
0
ARC
5
130
100
AcDbEntity
8
0
100
AcDbCircle
10
12.757106781186549
20
-44.392893218813462
30
0
40
0.99999999999999967
210
0
220
0
230
1
100
AcDbArc
50
135.00000000000009
51
315.00000000000006
0
LINE
5
131
100
AcDbEntity
8
0
100
AcDbLine
10
13.464213562373097
20
-31.100000000000001
30
0
11
24.635786437626908
21
-31.100000000000001
31
0
0
ARC
5
132
100
AcDbEntity
8
0
100
AcDbCircle
10
25.342893218813458
20
-44.392893218813462
30
0
40
1.0000000000000011
210
0
220
0
230
1
100
AcDbArc
50
-135.00000000000017
51
45
0
LINE
5
133
100
AcDbEntity
8
0
100
AcDbLine
10
26.050000000000004
20
-32.514213562373101
30
0
11
26.050000000000004
21
-43.685786437626916
31
0
0
ARC
5
134
100
AcDbEntity
8
0
100
AcDbCircle
10
12.757106781186549
20
-31.807106781186548
30
0
40
0.99999999999999967
210
0
220
-0
230
1
100
AcDbArc
50
44.999999999999922
51
225.00000000000023
0
LINE
5
135
100
AcDbEntity
8
0
100
AcDbLine
10
12.050000000000001
20
-43.685786437626916
30
0
11
12.050000000000001
21
-32.514213562373101
31
0
0
ARC
5
136
100
AcDbEntity
8
0
100
AcDbCircle
10
25.342893218813458
20
-31.807106781186548
30
0
40
1.0000000000000011
210
0
220
0
230
1
100
AcDbArc
50
-45.000000000000306
51
135.00000000000017
0
LWPOLYLINE
5
137
100
AcDbEntity
8
0
100
AcDbPolyline
90
8
70
1
43
0.0
10
32.514213562373101
20
-45.100000000000009
10
43.685786437626916
20
-45.100000000000009
42
0.99999999999999989
10
45.100000000000009
20
-43.685786437626916
10
45.100000000000009
20
-32.514213562373101
42
0.99999999999999989
10
43.685786437626916
20
-31.100000000000001
10
32.514213562373101
20
-31.100000000000001
42
0.99999999999999989
10
31.100000000000001
20
-32.514213562373101
10
31.100000000000001
20
-43.685786437626916
42
0.99999999999999989
0
LWPOLYLINE
5
138
100
AcDbEntity
8
0
100
AcDbPolyline
90
8
70
1
43
0.0
10
51.564213562373098
20
-45.100000000000009
10
62.735786437626913
20
-45.100000000000009
42
0.99999999999999989
10
64.150000000000006
20
-43.685786437626916
10
64.150000000000006
20
-32.514213562373101
42
0.99999999999999989
10
62.735786437626913
20
-31.100000000000001
10
51.564213562373098
20
-31.100000000000001
42
0.99999999999999989
10
50.150000000000006
20
-32.514213562373101
10
50.150000000000006
20
-43.685786437626916
42
0.99999999999999989
0
LWPOLYLINE
5
139
100
AcDbEntity
8
0
100
AcDbPolyline
90
8
70
1
43
0.0
10
70.614213562373095
20
-45.100000000000009
10
81.785786437626911
20
-45.100000000000009
42
0.99999999999999989
10
83.200000000000003
20
-43.685786437626916
10
83.200000000000003
20
-32.514213562373101
42
0.99999999999999989
10
81.785786437626911
20
-31.100000000000001
10
70.614213562373095
20
-31.100000000000001
42
0.99999999999999989
10
69.200000000000003
20
-32.514213562373101
10
69.200000000000003
20
-43.685786437626916
42
0.99999999999999989
0
LWPOLYLINE
5
140
100
AcDbEntity
8
0
100
AcDbPolyline
90
8
70
1
43
0.0
10
89.664213562373121
20
-45.100000000000009
10
100.83578643762692
20
-45.100000000000009
42
0.99999999999999989
10
102.25000000000001
20
-43.685786437626916
10
102.25000000000001
20
-32.514213562373101
42
0.99999999999999989
10
100.83578643762692
20
-31.100000000000001
10
89.664213562373121
20
-31.100000000000001
42
0.99999999999999989
10
88.250000000000028
20
-32.514213562373101
10
88.250000000000028
20
-43.685786437626916
42
0.99999999999999989
0
LWPOLYLINE
5
141
100
AcDbEntity
8
0
100
AcDbPolyline
90
8
70
1
43
0.0
10
108.71421356237312
20
-45.100000000000009
10
119.88578643762692
20
-45.100000000000009
42
0.99999999999999989
10
121.30000000000001
20
-43.685786437626916
10
121.30000000000001
20
-32.514213562373101
42
0.99999999999999989
10
119.88578643762692
20
-31.100000000000001
10
108.71421356237312
20
-31.100000000000001
42
0.99999999999999989
10
107.30000000000003
20
-32.514213562373101
10
107.30000000000003
20
-43.685786437626916
42
0.99999999999999989
0
LINE
5
142
100
AcDbEntity
8
0
100
AcDbLine
10
-108.71421356237312
20
-26.050000000000004
30
0
11
-119.88578643762692
21
-26.050000000000004
31
0
0
ARC
5
143
100
AcDbEntity
8
0
100
AcDbCircle
10
-120.59289321881346
20
-25.342893218813458
30
0
40
1.0000000000000011
210
0
220
0
230
1
100
AcDbArc
50
135.00000000000017
51
314.99999999999972
0
LINE
5
144
100
AcDbEntity
8
0
100
AcDbLine
10
-119.88578643762692
20
-12.050000000000001
30
0
11
-108.71421356237312
21
-12.050000000000001
31
0
0
ARC
5
145
100
AcDbEntity
8
0
100
AcDbCircle
10
-108.00710678118656
20
-25.342893218813458
30
0
40
0.999999999999998
210
0
220
0
230
1
100
AcDbArc
50
-135.00000000000031
51
45.000000000000433
0
LINE
5
146
100
AcDbEntity
8
0
100
AcDbLine
10
-107.30000000000003
20
-13.464213562373097
30
0
11
-107.30000000000003
21
-24.635786437626908
31
0
0
ARC
5
147
100
AcDbEntity
8
0
100
AcDbCircle
10
-120.59289321881346
20
-12.757106781186549
30
0
40
0.99999999999999967
210
0
220
-0
230
1
100
AcDbArc
50
45.000000000000355
51
224.99999999999977
0
LINE
5
148
100
AcDbEntity
8
0
100
AcDbLine
10
-121.30000000000001
20
-24.635786437626908
30
0
11
-121.30000000000001
21
-13.464213562373097
31
0
0
ARC
5
149
100
AcDbEntity
8
0
100
AcDbCircle
10
-108.00710678118656
20
-12.757106781186549
30
0
40
0.99999999999999967
210
0
220
0
230
1
100
AcDbArc
50
-45.000000000000355
51
135.00000000000023
0
LINE
5
150
100
AcDbEntity
8
0
100
AcDbLine
10
-89.664213562373121
20
-26.050000000000004
30
0
11
-100.83578643762692
21
-26.050000000000004
31
0
0
ARC
5
151
100
AcDbEntity
8
0
100
AcDbCircle
10
-101.54289321881348
20
-25.342893218813458
30
0
40
1.0000000000000011
210
0
220
0
230
1
100
AcDbArc
50
134.9999999999996
51
315.00000000000028
0
LINE
5
152
100
AcDbEntity
8
0
100
AcDbLine
10
-100.83578643762692
20
-12.050000000000001
30
0
11
-89.664213562373121
21
-12.050000000000001
31
0
0
ARC
5
153
100
AcDbEntity
8
0
100
AcDbCircle
10
-88.957106781186582
20
-25.342893218813458
30
0
40
0.999999999999998
210
0
220
0
230
1
100
AcDbArc
50
-134.99999999999972
51
44.999999999999858
0
LINE
5
154
100
AcDbEntity
8
0
100
AcDbLine
10
-88.250000000000028
20
-13.464213562373097
30
0
11
-88.250000000000028
21
-24.635786437626908
31
0
0
ARC
5
155
100
AcDbEntity
8
0
100
AcDbCircle
10
-101.54289321881348
20
-12.757106781186549
30
0
40
0.99999999999999967
210
0
220
-0
230
1
100
AcDbArc
50
44.999999999999787
51
225.00000000000037
0
LINE
5
156
100
AcDbEntity
8
0
100
AcDbLine
10
-102.25000000000001
20
-24.635786437626908
30
0
11
-102.25000000000001
21
-13.464213562373097
31
0
0
ARC
5
157
100
AcDbEntity
8
0
100
AcDbCircle
10
-88.957106781186582
20
-12.757106781186549
30
0
40
0.99999999999999967
210
0
220
0
230
1
100
AcDbArc
50
-44.999999999999794
51
134.99999999999966
0
LINE
5
158
100
AcDbEntity
8
0
100
AcDbLine
10
-70.614213562373095
20
-26.050000000000004
30
0
11
-81.785786437626911
21
-26.050000000000004
31
0
0
ARC
5
159
100
AcDbEntity
8
0
100
AcDbCircle
10
-82.492893218813464
20
-25.342893218813458
30
0
40
1.0000000000000011
210
0
220
0
230
1
100
AcDbArc
50
134.9999999999996
51
315.00000000000028
0
LINE
5
160
100
AcDbEntity
8
0
100
AcDbLine
10
-81.785786437626911
20
-12.050000000000001
30
0
11
-70.614213562373095
21
-12.050000000000001
31
0
0
ARC
5
161
100
AcDbEntity
8
0
100
AcDbCircle
10
-69.907106781186556
20
-25.342893218813458
30
0
40
0.999999999999998
210
0
220
0
230
1
100
AcDbArc
50
-134.99999999999972
51
44.999999999999858
0
LINE
5
162
100
AcDbEntity
8
0
100
AcDbLine
10
-69.200000000000003
20
-13.464213562373097
30
0
11
-69.200000000000003
21
-24.635786437626908
31
0
0
ARC
5
163
100
AcDbEntity
8
0
100
AcDbCircle
10
-82.492893218813464
20
-12.757106781186549
30
0
40
0.99999999999999967
210
0
220
-0
230
1
100
AcDbArc
50
44.999999999999787
51
225.00000000000037
0
LINE
5
164
100
AcDbEntity
8
0
100
AcDbLine
10
-83.200000000000003
20
-24.635786437626908
30
0
11
-83.200000000000003
21
-13.464213562373097
31
0
0
ARC
5
165
100
AcDbEntity
8
0
100
AcDbCircle
10
-69.907106781186556
20
-12.757106781186549
30
0
40
0.99999999999999967
210
0
220
0
230
1
100
AcDbArc
50
-44.999999999999794
51
134.99999999999966
0
LINE
5
166
100
AcDbEntity
8
0
100
AcDbLine
10
-51.564213562373098
20
-26.050000000000004
30
0
11
-62.735786437626913
21
-26.050000000000004
31
0
0
ARC
5
167
100
AcDbEntity
8
0
100
AcDbCircle
10
-63.442893218813467
20
-25.342893218813458
30
0
40
1.0000000000000011
210
0
220
0
230
1
100
AcDbArc
50
134.9999999999996
51
315.00000000000028
0
LINE
5
168
100
AcDbEntity
8
0
100
AcDbLine
10
-62.735786437626913
20
-12.050000000000001
30
0
11
-51.564213562373098
21
-12.050000000000001
31
0
0
ARC
5
169
100
AcDbEntity
8
0
100
AcDbCircle
10
-50.857106781186552
20
-25.342893218813458
30
0
40
0.999999999999998
210
0
220
0
230
1
100
AcDbArc
50
-135
51
45.000000000000135
0
LINE
5
170
100
AcDbEntity
8
0
100
AcDbLine
10
-50.150000000000006
20
-13.464213562373097
30
0
11
-50.150000000000006
21
-24.635786437626908
31
0
0
ARC
5
171
100
AcDbEntity
8
0
100
AcDbCircle
10
-63.442893218813467
20
-12.757106781186549
30
0
40
0.99999999999999967
210
0
220
-0
230
1
100
AcDbArc
50
44.999999999999787
51
225.00000000000037
0
LINE
5
172
100
AcDbEntity
8
0
100
AcDbLine
10
-64.150000000000006
20
-24.635786437626908
30
0
11
-64.150000000000006
21
-13.464213562373097
31
0
0
ARC
5
173
100
AcDbEntity
8
0
100
AcDbCircle
10
-50.857106781186552
20
-12.757106781186549
30
0
40
0.99999999999999967
210
0
220
0
230
1
100
AcDbArc
50
-45.00000000000005
51
134.99999999999994
0
LINE
5
174
100
AcDbEntity
8
0
100
AcDbLine
10
-32.514213562373101
20
-26.050000000000004
30
0
11
-43.685786437626916
21
-26.050000000000004
31
0
0
ARC
5
175
100
AcDbEntity
8
0
100
AcDbCircle
10
-44.392893218813462
20
-25.342893218813458
30
0
40
1.0000000000000011
210
0
220
0
230
1
100
AcDbArc
50
134.99999999999986
51
315
0
LINE
5
176
100
AcDbEntity
8
0
100
AcDbLine
10
-43.685786437626916
20
-12.050000000000001
30
0
11
-32.514213562373101
21
-12.050000000000001
31
0
0
ARC
5
177
100
AcDbEntity
8
0
100
AcDbCircle
10
-31.807106781186548
20
-25.342893218813458
30
0
40
1.0000000000000011
210
0
220
0
230
1
100
AcDbArc
50
-135.00000000000031
51
45.000000000000135
0
LINE
5
178
100
AcDbEntity
8
0
100
AcDbLine
10
-31.100000000000001
20
-13.464213562373097
30
0
11
-31.100000000000001
21
-24.635786437626908
31
0
0
ARC
5
179
100
AcDbEntity
8
0
100
AcDbCircle
10
-44.392893218813462
20
-12.757106781186549
30
0
40
0.99999999999999967
210
0
220
-0
230
1
100
AcDbArc
50
45.000000000000071
51
225.00000000000006
0
LINE
5
180
100
AcDbEntity
8
0
100
AcDbLine
10
-45.100000000000009
20
-24.635786437626908
30
0
11
-45.100000000000009
21
-13.464213562373097
31
0
0
ARC
5
181
100
AcDbEntity
8
0
100
AcDbCircle
10
-31.807106781186548
20
-12.757106781186549
30
0
40
0.99999999999999967
210
0
220
0
230
1
100
AcDbArc
50
-45.00000000000005
51
135.00000000000023
0
LWPOLYLINE
5
182
100
AcDbEntity
8
0
100
AcDbPolyline
90
8
70
1
43
0.0
10
-24.635786437626908
20
-26.050000000000004
10
-13.464213562373097
20
-26.050000000000004
42
0.99999999999999989
10
-12.050000000000001
20
-24.635786437626908
10
-12.050000000000001
20
-13.464213562373097
42
0.99999999999999989
10
-13.464213562373097
20
-12.050000000000001
10
-24.635786437626908
20
-12.050000000000001
42
0.99999999999999989
10
-26.050000000000004
20
-13.464213562373097
10
-26.050000000000004
20
-24.635786437626908
42
0.99999999999999989
0
LINE
5
183
100
AcDbEntity
8
0
100
AcDbLine
10
5.585786437626906
20
-26.050000000000004
30
0
11
-5.585786437626906
21
-26.050000000000004
31
0
0
ARC
5
184
100
AcDbEntity
8
0
100
AcDbCircle
10
-6.2928932188134539
20
-25.342893218813458
30
0
40
1.000000000000002
210
0
220
0
230
1
100
AcDbArc
50
134.99999999999991
51
315.00000000000006
0
LINE
5
185
100
AcDbEntity
8
0
100
AcDbLine
10
-5.585786437626906
20
-12.050000000000001
30
0
11
5.585786437626906
21
-12.050000000000001
31
0
0
ARC
5
186
100
AcDbEntity
8
0
100
AcDbCircle
10
6.2928932188134539
20
-25.342893218813458
30
0
40
0.99999999999999878
210
0
220
0
230
1
100
AcDbArc
50
-135.00000000000009
51
45.000000000000107
0
LINE
5
187
100
AcDbEntity
8
0
100
AcDbLine
10
7.0000000000000009
20
-13.464213562373097
30
0
11
7.0000000000000009
21
-24.635786437626908
31
0
0
ARC
5
188
100
AcDbEntity
8
0
100
AcDbCircle
10
-6.2928932188134539
20
-12.757106781186549
30
0
40
1.0000000000000004
210
0
220
-0
230
1
100
AcDbArc
50
45
51
225.00000000000003
0
LINE
5
189
100
AcDbEntity
8
0
100
AcDbLine
10
-7.0000000000000009
20
-24.635786437626908
30
0
11
-7.0000000000000009
21
-13.464213562373097
31
0
0
ARC
5
190
100
AcDbEntity
8
0
100
AcDbCircle
10
6.2928932188134539
20
-12.757106781186549
30
0
40
1.0000000000000004
210
0
220
0
230
1
100
AcDbArc
50
-45.00000000000005
51
135
0
LWPOLYLINE
5
191
100
AcDbEntity
8
0
100
AcDbPolyline
90
8
70
1
43
0.0
10
13.464213562373097
20
-26.050000000000004
10
24.635786437626908
20
-26.050000000000004
42
0.99999999999999989
10
26.050000000000004
20
-24.635786437626908
10
26.050000000000004
20
-13.464213562373097
42
0.99999999999999989
10
24.635786437626908
20
-12.050000000000001
10
13.464213562373097
20
-12.050000000000001
42
0.99999999999999989
10
12.050000000000001
20
-13.464213562373097
10
12.050000000000001
20
-24.635786437626908
42
0.99999999999999989
0
LINE
5
192
100
AcDbEntity
8
0
100
AcDbLine
10
43.685786437626916
20
-26.050000000000004
30
0
11
32.514213562373101
21
-26.050000000000004
31
0
0
ARC
5
193
100
AcDbEntity
8
0
100
AcDbCircle
10
31.807106781186548
20
-25.342893218813458
30
0
40
1.0000000000000011
210
0
220
0
230
1
100
AcDbArc
50
134.99999999999986
51
315.00000000000028
0
LINE
5
194
100
AcDbEntity
8
0
100
AcDbLine
10
32.514213562373101
20
-12.050000000000001
30
0
11
43.685786437626916
21
-12.050000000000001
31
0
0
ARC
5
195
100
AcDbEntity
8
0
100
AcDbCircle
10
44.392893218813462
20
-25.342893218813458
30
0
40
0.999999999999998
210
0
220
0
230
1
100
AcDbArc
50
-135
51
45.000000000000135
0
LINE
5
196
100
AcDbEntity
8
0
100
AcDbLine
10
45.100000000000009
20
-13.464213562373097
30
0
11
45.100000000000009
21
-24.635786437626908
31
0
0
ARC
5
197
100
AcDbEntity
8
0
100
AcDbCircle
10
31.807106781186548
20
-12.757106781186549
30
0
40
1.0000000000000027
210
0
220
-0
230
1
100
AcDbArc
50
44.999999999999787
51
225.00000000000006
0
LINE
5
198
100
AcDbEntity
8
0
100
AcDbLine
10
31.100000000000001
20
-24.635786437626908
30
0
11
31.100000000000001
21
-13.464213562373097
31
0
0
ARC
5
199
100
AcDbEntity
8
0
100
AcDbCircle
10
44.392893218813462
20
-12.757106781186549
30
0
40
0.99999999999999967
210
0
220
0
230
1
100
AcDbArc
50
-45.00000000000005
51
134.99999999999994
0
LINE
5
200
100
AcDbEntity
8
0
100
AcDbLine
10
62.735786437626913
20
-26.050000000000004
30
0
11
51.564213562373098
21
-26.050000000000004
31
0
0
ARC
5
201
100
AcDbEntity
8
0
100
AcDbCircle
10
50.857106781186552
20
-25.342893218813458
30
0
40
1.0000000000000011
210
0
220
0
230
1
100
AcDbArc
50
134.99999999999986
51
315
0
LINE
5
202
100
AcDbEntity
8
0
100
AcDbLine
10
51.564213562373098
20
-12.050000000000001
30
0
11
62.735786437626913
21
-12.050000000000001
31
0
0
ARC
5
203
100
AcDbEntity
8
0
100
AcDbCircle
10
63.442893218813467
20
-25.342893218813458
30
0
40
0.999999999999998
210
0
220
0
230
1
100
AcDbArc
50
-135.00000000000031
51
45.000000000000433
0
LINE
5
204
100
AcDbEntity
8
0
100
AcDbLine
10
64.150000000000006
20
-13.464213562373097
30
0
11
64.150000000000006
21
-24.635786437626908
31
0
0
ARC
5
205
100
AcDbEntity
8
0
100
AcDbCircle
10
50.857106781186552
20
-12.757106781186549
30
0
40
0.99999999999999967
210
0
220
-0
230
1
100
AcDbArc
50
45.000000000000071
51
225.00000000000006
0
LINE
5
206
100
AcDbEntity
8
0
100
AcDbLine
10
50.150000000000006
20
-24.635786437626908
30
0
11
50.150000000000006
21
-13.464213562373097
31
0
0
ARC
5
207
100
AcDbEntity
8
0
100
AcDbCircle
10
63.442893218813467
20
-12.757106781186549
30
0
40
0.99999999999999967
210
0
220
0
230
1
100
AcDbArc
50
-45.000000000000355
51
135.00000000000023
0
LINE
5
208
100
AcDbEntity
8
0
100
AcDbLine
10
81.785786437626911
20
-26.050000000000004
30
0
11
70.614213562373095
21
-26.050000000000004
31
0
0
ARC
5
209
100
AcDbEntity
8
0
100
AcDbCircle
10
69.907106781186556
20
-25.342893218813458
30
0
40
1.0000000000000011
210
0
220
0
230
1
100
AcDbArc
50
135.00000000000017
51
314.99999999999972
0
LINE
5
210
100
AcDbEntity
8
0
100
AcDbLine
10
70.614213562373095
20
-12.050000000000001
30
0
11
81.785786437626911
21
-12.050000000000001
31
0
0
ARC
5
211
100
AcDbEntity
8
0
100
AcDbCircle
10
82.492893218813464
20
-25.342893218813458
30
0
40
0.999999999999998
210
0
220
0
230
1
100
AcDbArc
50
-135.00000000000031
51
45.000000000000433
0
LINE
5
212
100
AcDbEntity
8
0
100
AcDbLine
10
83.200000000000003
20
-13.464213562373097
30
0
11
83.200000000000003
21
-24.635786437626908
31
0
0
ARC
5
213
100
AcDbEntity
8
0
100
AcDbCircle
10
69.907106781186556
20
-12.757106781186549
30
0
40
0.99999999999999967
210
0
220
-0
230
1
100
AcDbArc
50
45.000000000000355
51
224.99999999999977
0
LINE
5
214
100
AcDbEntity
8
0
100
AcDbLine
10
69.200000000000003
20
-24.635786437626908
30
0
11
69.200000000000003
21
-13.464213562373097
31
0
0
ARC
5
215
100
AcDbEntity
8
0
100
AcDbCircle
10
82.492893218813464
20
-12.757106781186549
30
0
40
0.99999999999999967
210
0
220
0
230
1
100
AcDbArc
50
-45.000000000000355
51
135.00000000000023
0
LINE
5
216
100
AcDbEntity
8
0
100
AcDbLine
10
100.83578643762692
20
-26.050000000000004
30
0
11
89.664213562373121
21
-26.050000000000004
31
0
0
ARC
5
217
100
AcDbEntity
8
0
100
AcDbCircle
10
88.957106781186582
20
-25.342893218813458
30
0
40
1.0000000000000011
210
0
220
0
230
1
100
AcDbArc
50
135.00000000000017
51
314.99999999999972
0
LINE
5
218
100
AcDbEntity
8
0
100
AcDbLine
10
89.664213562373121
20
-12.050000000000001
30
0
11
100.83578643762692
21
-12.050000000000001
31
0
0
ARC
5
219
100
AcDbEntity
8
0
100
AcDbCircle
10
101.54289321881348
20
-25.342893218813458
30
0
40
0.999999999999998
210
0
220
0
230
1
100
AcDbArc
50
-135.00000000000031
51
45.000000000000433
0
LINE
5
220
100
AcDbEntity
8
0
100
AcDbLine
10
102.25000000000001
20
-13.464213562373097
30
0
11
102.25000000000001
21
-24.635786437626908
31
0
0
ARC
5
221
100
AcDbEntity
8
0
100
AcDbCircle
10
88.957106781186582
20
-12.757106781186549
30
0
40
0.99999999999999967
210
0
220
-0
230
1
100
AcDbArc
50
45.000000000000355
51
224.99999999999977
0
LINE
5
222
100
AcDbEntity
8
0
100
AcDbLine
10
88.250000000000028
20
-24.635786437626908
30
0
11
88.250000000000028
21
-13.464213562373097
31
0
0
ARC
5
223
100
AcDbEntity
8
0
100
AcDbCircle
10
101.54289321881348
20
-12.757106781186549
30
0
40
0.99999999999999967
210
0
220
0
230
1
100
AcDbArc
50
-45.000000000000355
51
135.00000000000023
0
LINE
5
224
100
AcDbEntity
8
0
100
AcDbLine
10
119.88578643762692
20
-26.050000000000004
30
0
11
108.71421356237312
21
-26.050000000000004
31
0
0
ARC
5
225
100
AcDbEntity
8
0
100
AcDbCircle
10
108.00710678118656
20
-25.342893218813458
30
0
40
1.0000000000000011
210
0
220
0
230
1
100
AcDbArc
50
134.9999999999996
51
315.00000000000028
0
LINE
5
226
100
AcDbEntity
8
0
100
AcDbLine
10
108.71421356237312
20
-12.050000000000001
30
0
11
119.88578643762692
21
-12.050000000000001
31
0
0
ARC
5
227
100
AcDbEntity
8
0
100
AcDbCircle
10
120.59289321881346
20
-25.342893218813458
30
0
40
0.999999999999998
210
0
220
0
230
1
100
AcDbArc
50
-134.99999999999972
51
44.999999999999858
0
LINE
5
228
100
AcDbEntity
8
0
100
AcDbLine
10
121.30000000000001
20
-13.464213562373097
30
0
11
121.30000000000001
21
-24.635786437626908
31
0
0
ARC
5
229
100
AcDbEntity
8
0
100
AcDbCircle
10
108.00710678118656
20
-12.757106781186549
30
0
40
0.99999999999999967
210
0
220
-0
230
1
100
AcDbArc
50
44.999999999999787
51
225.00000000000037
0
LINE
5
230
100
AcDbEntity
8
0
100
AcDbLine
10
107.30000000000003
20
-24.635786437626908
30
0
11
107.30000000000003
21
-13.464213562373097
31
0
0
ARC
5
231
100
AcDbEntity
8
0
100
AcDbCircle
10
120.59289321881346
20
-12.757106781186549
30
0
40
0.99999999999999967
210
0
220
0
230
1
100
AcDbArc
50
-44.999999999999794
51
134.99999999999966
0
LWPOLYLINE
5
232
100
AcDbEntity
8
0
100
AcDbPolyline
90
8
70
1
43
0.0
10
-119.88578643762692
20
-7.0000000000000009
10
-108.71421356237312
20
-7.0000000000000009
42
0.99999999999999989
10
-107.30000000000003
20
-5.585786437626906
10
-107.30000000000003
20
5.585786437626906
42
0.99999999999999989
10
-108.71421356237312
20
7.0000000000000009
10
-119.88578643762692
20
7.0000000000000009
42
0.99999999999999989
10
-121.30000000000001
20
5.585786437626906
10
-121.30000000000001
20
-5.585786437626906
42
0.99999999999999989
0
LWPOLYLINE
5
233
100
AcDbEntity
8
0
100
AcDbPolyline
90
8
70
1
43
0.0
10
-100.83578643762692
20
-7.0000000000000009
10
-89.664213562373121
20
-7.0000000000000009
42
0.99999999999999989
10
-88.250000000000028
20
-5.585786437626906
10
-88.250000000000028
20
5.585786437626906
42
0.99999999999999989
10
-89.664213562373121
20
7.0000000000000009
10
-100.83578643762692
20
7.0000000000000009
42
0.99999999999999989
10
-102.25000000000001
20
5.585786437626906
10
-102.25000000000001
20
-5.585786437626906
42
0.99999999999999989
0
LWPOLYLINE
5
234
100
AcDbEntity
8
0
100
AcDbPolyline
90
8
70
1
43
0.0
10
-81.785786437626911
20
-7.0000000000000009
10
-70.614213562373095
20
-7.0000000000000009
42
0.99999999999999989
10
-69.200000000000003
20
-5.585786437626906
10
-69.200000000000003
20
5.585786437626906
42
0.99999999999999989
10
-70.614213562373095
20
7.0000000000000009
10
-81.785786437626911
20
7.0000000000000009
42
0.99999999999999989
10
-83.200000000000003
20
5.585786437626906
10
-83.200000000000003
20
-5.585786437626906
42
0.99999999999999989
0
LWPOLYLINE
5
235
100
AcDbEntity
8
0
100
AcDbPolyline
90
8
70
1
43
0.0
10
-62.735786437626913
20
-7.0000000000000009
10
-51.564213562373098
20
-7.0000000000000009
42
0.99999999999999989
10
-50.150000000000006
20
-5.585786437626906
10
-50.150000000000006
20
5.585786437626906
42
0.99999999999999989
10
-51.564213562373098
20
7.0000000000000009
10
-62.735786437626913
20
7.0000000000000009
42
0.99999999999999989
10
-64.150000000000006
20
5.585786437626906
10
-64.150000000000006
20
-5.585786437626906
42
0.99999999999999989
0
LINE
5
236
100
AcDbEntity
8
0
100
AcDbLine
10
-32.514213562373101
20
-7.0000000000000009
30
0
11
-43.685786437626916
21
-7.0000000000000009
31
0
0
ARC
5
237
100
AcDbEntity
8
0
100
AcDbCircle
10
-44.392893218813462
20
-6.2928932188134539
30
0
40
0.99999999999999878
210
0
220
0
230
1
100
AcDbArc
50
134.99999999999994
51
314.99999999999994
0
LINE
5
238
100
AcDbEntity
8
0
100
AcDbLine
10
-43.685786437626916
20
7.0000000000000009
30
0
11
-32.514213562373101
21
7.0000000000000009
31
0
0
ARC
5
239
100
AcDbEntity
8
0
100
AcDbCircle
10
-31.807106781186548
20
-6.2928932188134539
30
0
40
1.000000000000002
210
0
220
0
230
1
100
AcDbArc
50
-135.00000000000026
51
45.000000000000071
0
LINE
5
240
100
AcDbEntity
8
0
100
AcDbLine
10
-31.100000000000001
20
5.585786437626906
30
0
11
-31.100000000000001
21
-5.585786437626906
31
0
0
ARC
5
241
100
AcDbEntity
8
0
100
AcDbCircle
10
-44.392893218813462
20
6.2928932188134539
30
0
40
0.99999999999999878
210
0
220
-0
230
1
100
AcDbArc
50
45.000000000000028
51
225.00000000000006
0
LINE
5
242
100
AcDbEntity
8
0
100
AcDbLine
10
-45.100000000000009
20
-5.585786437626906
30
0
11
-45.100000000000009
21
5.585786437626906
31
0
0
ARC
5
243
100
AcDbEntity
8
0
100
AcDbCircle
10
-31.807106781186548
20
6.2928932188134539
30
0
40
0.99999999999999878
210
0
220
0
230
1
100
AcDbArc
50
-45.00000000000005
51
135.00000000000026
0
LINE
5
244
100
AcDbEntity
8
0
100
AcDbLine
10
-13.464213562373097
20
-7.0000000000000009
30
0
11
-24.635786437626908
21
-7.0000000000000009
31
0
0
ARC
5
245
100
AcDbEntity
8
0
100
AcDbCircle
10
-25.342893218813458
20
-6.2928932188134539
30
0
40
0.99999999999999878
210
0
220
0
230
1
100
AcDbArc
50
134.99999999999994
51
315.00000000000011
0
LINE
5
246
100
AcDbEntity
8
0
100
AcDbLine
10
-24.635786437626908
20
7.0000000000000009
30
0
11
-13.464213562373097
21
7.0000000000000009
31
0
0
ARC
5
247
100
AcDbEntity
8
0
100
AcDbCircle
10
-12.757106781186549
20
-6.2928932188134539
30
0
40
1.0000000000000004
210
0
220
0
230
1
100
AcDbArc
50
-135.00000000000006
51
45
0
LINE
5
248
100
AcDbEntity
8
0
100
AcDbLine
10
-12.050000000000001
20
5.585786437626906
30
0
11
-12.050000000000001
21
-5.585786437626906
31
0
0
ARC
5
249
100
AcDbEntity
8
0
100
AcDbCircle
10
-25.342893218813458
20
6.2928932188134539
30
0
40
1.000000000000002
210
0
220
-0
230
1
100
AcDbArc
50
44.999999999999893
51
225.00000000000006
0
LINE
5
250
100
AcDbEntity
8
0
100
AcDbLine
10
-26.050000000000004
20
-5.585786437626906
30
0
11
-26.050000000000004
21
5.585786437626906
31
0
0
ARC
5
251
100
AcDbEntity
8
0
100
AcDbCircle
10
-12.757106781186549
20
6.2928932188134539
30
0
40
1.0000000000000004
210
0
220
0
230
1
100
AcDbArc
50
-45
51
135.00000000000006
0
LINE
5
252
100
AcDbEntity
8
0
100
AcDbLine
10
24.635786437626908
20
-7.0000000000000009
30
0
11
13.464213562373097
21
-7.0000000000000009
31
0
0
ARC
5
253
100
AcDbEntity
8
0
100
AcDbCircle
10
12.757106781186549
20
-6.2928932188134539
30
0
40
1.0000000000000004
210
0
220
0
230
1
100
AcDbArc
50
135
51
315.00000000000006
0
LINE
5
254
100
AcDbEntity
8
0
100
AcDbLine
10
13.464213562373097
20
7.0000000000000009
30
0
11
24.635786437626908
21
7.0000000000000009
31
0
0
ARC
5
255
100
AcDbEntity
8
0
100
AcDbCircle
10
25.342893218813458
20
-6.2928932188134539
30
0
40
1.000000000000002
210
0
220
0
230
1
100
AcDbArc
50
-135.00000000000011
51
45.000000000000071
0
LINE
5
256
100
AcDbEntity
8
0
100
AcDbLine
10
26.050000000000004
20
5.585786437626906
30
0
11
26.050000000000004
21
-5.585786437626906
31
0
0
ARC
5
257
100
AcDbEntity
8
0
100
AcDbCircle
10
12.757106781186549
20
6.2928932188134539
30
0
40
1.0000000000000004
210
0
220
-0
230
1
100
AcDbArc
50
44.999999999999964
51
225
0
LINE
5
258
100
AcDbEntity
8
0
100
AcDbLine
10
12.050000000000001
20
-5.585786437626906
30
0
11
12.050000000000001
21
5.585786437626906
31
0
0
ARC
5
259
100
AcDbEntity
8
0
100
AcDbCircle
10
25.342893218813458
20
6.2928932188134539
30
0
40
0.99999999999999878
210
0
220
0
230
1
100
AcDbArc
50
-45.00000000000005
51
135.00000000000011
0
LINE
5
260
100
AcDbEntity
8
0
100
AcDbLine
10
43.685786437626916
20
-7.0000000000000009
30
0
11
32.514213562373101
21
-7.0000000000000009
31
0
0
ARC
5
261
100
AcDbEntity
8
0
100
AcDbCircle
10
31.807106781186548
20
-6.2928932188134539
30
0
40
0.99999999999999878
210
0
220
0
230
1
100
AcDbArc
50
134.99999999999994
51
315.00000000000028
0
LINE
5
262
100
AcDbEntity
8
0
100
AcDbLine
10
32.514213562373101
20
7.0000000000000009
30
0
11
43.685786437626916
21
7.0000000000000009
31
0
0
ARC
5
263
100
AcDbEntity
8
0
100
AcDbCircle
10
44.392893218813462
20
-6.2928932188134539
30
0
40
0.99999999999999878
210
0
220
0
230
1
100
AcDbArc
50
-134.99999999999997
51
45.000000000000071
0
LINE
5
264
100
AcDbEntity
8
0
100
AcDbLine
10
45.100000000000009
20
5.585786437626906
30
0
11
45.100000000000009
21
-5.585786437626906
31
0
0
ARC
5
265
100
AcDbEntity
8
0
100
AcDbCircle
10
31.807106781186548
20
6.2928932188134539
30
0
40
1.000000000000002
210
0
220
-0
230
1
100
AcDbArc
50
44.999999999999751
51
225.00000000000006
0
LINE
5
266
100
AcDbEntity
8
0
100
AcDbLine
10
31.100000000000001
20
-5.585786437626906
30
0
11
31.100000000000001
21
5.585786437626906
31
0
0
ARC
5
267
100
AcDbEntity
8
0
100
AcDbCircle
10
44.392893218813462
20
6.2928932188134539
30
0
40
0.99999999999999878
210
0
220
0
230
1
100
AcDbArc
50
-45.00000000000005
51
134.99999999999997
0
LWPOLYLINE
5
268
100
AcDbEntity
8
0
100
AcDbPolyline
90
8
70
1
43
0.0
10
51.564213562373098
20
-7.0000000000000009
10
62.735786437626913
20
-7.0000000000000009
42
0.99999999999999989
10
64.150000000000006
20
-5.585786437626906
10
64.150000000000006
20
5.585786437626906
42
0.99999999999999989
10
62.735786437626913
20
7.0000000000000009
10
51.564213562373098
20
7.0000000000000009
42
0.99999999999999989
10
50.150000000000006
20
5.585786437626906
10
50.150000000000006
20
-5.585786437626906
42
0.99999999999999989
0
LWPOLYLINE
5
269
100
AcDbEntity
8
0
100
AcDbPolyline
90
8
70
1
43
0.0
10
70.614213562373095
20
-7.0000000000000009
10
81.785786437626911
20
-7.0000000000000009
42
0.99999999999999989
10
83.200000000000003
20
-5.585786437626906
10
83.200000000000003
20
5.585786437626906
42
0.99999999999999989
10
81.785786437626911
20
7.0000000000000009
10
70.614213562373095
20
7.0000000000000009
42
0.99999999999999989
10
69.200000000000003
20
5.585786437626906
10
69.200000000000003
20
-5.585786437626906
42
0.99999999999999989
0
LWPOLYLINE
5
270
100
AcDbEntity
8
0
100
AcDbPolyline
90
8
70
1
43
0.0
10
89.664213562373121
20
-7.0000000000000009
10
100.83578643762692
20
-7.0000000000000009
42
0.99999999999999989
10
102.25000000000001
20
-5.585786437626906
10
102.25000000000001
20
5.585786437626906
42
0.99999999999999989
10
100.83578643762692
20
7.0000000000000009
10
89.664213562373121
20
7.0000000000000009
42
0.99999999999999989
10
88.250000000000028
20
5.585786437626906
10
88.250000000000028
20
-5.585786437626906
42
0.99999999999999989
0
LWPOLYLINE
5
271
100
AcDbEntity
8
0
100
AcDbPolyline
90
8
70
1
43
0.0
10
108.71421356237312
20
-7.0000000000000009
10
119.88578643762692
20
-7.0000000000000009
42
0.99999999999999989
10
121.30000000000001
20
-5.585786437626906
10
121.30000000000001
20
5.585786437626906
42
0.99999999999999989
10
119.88578643762692
20
7.0000000000000009
10
108.71421356237312
20
7.0000000000000009
42
0.99999999999999989
10
107.30000000000003
20
5.585786437626906
10
107.30000000000003
20
-5.585786437626906
42
0.99999999999999989
0
LINE
5
272
100
AcDbEntity
8
0
100
AcDbLine
10
-108.71421356237312
20
12.050000000000001
30
0
11
-119.88578643762692
21
12.050000000000001
31
0
0
ARC
5
273
100
AcDbEntity
8
0
100
AcDbCircle
10
-120.59289321881346
20
12.757106781186549
30
0
40
0.99999999999999967
210
0
220
0
230
1
100
AcDbArc
50
135.00000000000023
51
314.99999999999966
0
LINE
5
274
100
AcDbEntity
8
0
100
AcDbLine
10
-119.88578643762692
20
26.050000000000004
30
0
11
-108.71421356237312
21
26.050000000000004
31
0
0
ARC
5
275
100
AcDbEntity
8
0
100
AcDbCircle
10
-108.00710678118656
20
12.757106781186549
30
0
40
0.99999999999999967
210
0
220
0
230
1
100
AcDbArc
50
-135.00000000000023
51
45.000000000000355
0
LINE
5
276
100
AcDbEntity
8
0
100
AcDbLine
10
-107.30000000000003
20
24.635786437626908
30
0
11
-107.30000000000003
21
13.464213562373097
31
0
0
ARC
5
277
100
AcDbEntity
8
0
100
AcDbCircle
10
-120.59289321881346
20
25.342893218813458
30
0
40
0.999999999999998
210
0
220
-0
230
1
100
AcDbArc
50
45.000000000000291
51
224.99999999999986
0
LINE
5
278
100
AcDbEntity
8
0
100
AcDbLine
10
-121.30000000000001
20
13.464213562373097
30
0
11
-121.30000000000001
21
24.635786437626908
31
0
0
ARC
5
279
100
AcDbEntity
8
0
100
AcDbCircle
10
-108.00710678118656
20
25.342893218813458
30
0
40
1.0000000000000011
210
0
220
0
230
1
100
AcDbArc
50
-45.000000000000462
51
135.00000000000031
0
LINE
5
280
100
AcDbEntity
8
0
100
AcDbLine
10
-89.664213562373121
20
12.050000000000001
30
0
11
-100.83578643762692
21
12.050000000000001
31
0
0
ARC
5
281
100
AcDbEntity
8
0
100
AcDbCircle
10
-101.54289321881348
20
12.757106781186549
30
0
40
0.99999999999999967
210
0
220
0
230
1
100
AcDbArc
50
134.99999999999966
51
315.00000000000017
0
LINE
5
282
100
AcDbEntity
8
0
100
AcDbLine
10
-100.83578643762692
20
26.050000000000004
30
0
11
-89.664213562373121
21
26.050000000000004
31
0
0
ARC
5
283
100
AcDbEntity
8
0
100
AcDbCircle
10
-88.957106781186582
20
12.757106781186549
30
0
40
0.99999999999999967
210
0
220
0
230
1
100
AcDbArc
50
-134.99999999999966
51
44.999999999999787
0
LINE
5
284
100
AcDbEntity
8
0
100
AcDbLine
10
-88.250000000000028
20
24.635786437626908
30
0
11
-88.250000000000028
21
13.464213562373097
31
0
0
ARC
5
285
100
AcDbEntity
8
0
100
AcDbCircle
10
-101.54289321881348
20
25.342893218813458
30
0
40
0.999999999999998
210
0
220
-0
230
1
100
AcDbArc
50
44.999999999999709
51
225.0000000000004
0
LINE
5
286
100
AcDbEntity
8
0
100
AcDbLine
10
-102.25000000000001
20
13.464213562373097
30
0
11
-102.25000000000001
21
24.635786437626908
31
0
0
ARC
5
287
100
AcDbEntity
8
0
100
AcDbCircle
10
-88.957106781186582
20
25.342893218813458
30
0
40
1.0000000000000011
210
0
220
0
230
1
100
AcDbArc
50
-44.999999999999851
51
134.99999999999972
0
LINE
5
288
100
AcDbEntity
8
0
100
AcDbLine
10
-70.614213562373095
20
12.050000000000001
30
0
11
-81.785786437626911
21
12.050000000000001
31
0
0
ARC
5
289
100
AcDbEntity
8
0
100
AcDbCircle
10
-82.492893218813464
20
12.757106781186549
30
0
40
0.99999999999999967
210
0
220
0
230
1
100
AcDbArc
50
134.99999999999966
51
315.00000000000017
0
LINE
5
290
100
AcDbEntity
8
0
100
AcDbLine
10
-81.785786437626911
20
26.050000000000004
30
0
11
-70.614213562373095
21
26.050000000000004
31
0
0
ARC
5
291
100
AcDbEntity
8
0
100
AcDbCircle
10
-69.907106781186556
20
12.757106781186549
30
0
40
0.99999999999999967
210
0
220
0
230
1
100
AcDbArc
50
-134.99999999999966
51
44.999999999999787
0
LINE
5
292
100
AcDbEntity
8
0
100
AcDbLine
10
-69.200000000000003
20
24.635786437626908
30
0
11
-69.200000000000003
21
13.464213562373097
31
0
0
ARC
5
293
100
AcDbEntity
8
0
100
AcDbCircle
10
-82.492893218813464
20
25.342893218813458
30
0
40
0.999999999999998
210
0
220
-0
230
1
100
AcDbArc
50
44.999999999999709
51
225.0000000000004
0
LINE
5
294
100
AcDbEntity
8
0
100
AcDbLine
10
-83.200000000000003
20
13.464213562373097
30
0
11
-83.200000000000003
21
24.635786437626908
31
0
0
ARC
5
295
100
AcDbEntity
8
0
100
AcDbCircle
10
-69.907106781186556
20
25.342893218813458
30
0
40
1.0000000000000011
210
0
220
0
230
1
100
AcDbArc
50
-44.999999999999851
51
134.99999999999972
0
LINE
5
296
100
AcDbEntity
8
0
100
AcDbLine
10
-51.564213562373098
20
12.050000000000001
30
0
11
-62.735786437626913
21
12.050000000000001
31
0
0
ARC
5
297
100
AcDbEntity
8
0
100
AcDbCircle
10
-63.442893218813467
20
12.757106781186549
30
0
40
0.99999999999999967
210
0
220
0
230
1
100
AcDbArc
50
134.99999999999966
51
315.00000000000017
0
LINE
5
298
100
AcDbEntity
8
0
100
AcDbLine
10
-62.735786437626913
20
26.050000000000004
30
0
11
-51.564213562373098
21
26.050000000000004
31
0
0
ARC
5
299
100
AcDbEntity
8
0
100
AcDbCircle
10
-50.857106781186552
20
12.757106781186549
30
0
40
0.99999999999999967
210
0
220
0
230
1
100
AcDbArc
50
-134.99999999999994
51
45.000000000000071
0
LINE
5
300
100
AcDbEntity
8
0
100
AcDbLine
10
-50.150000000000006
20
24.635786437626908
30
0
11
-50.150000000000006
21
13.464213562373097
31
0
0
ARC
5
301
100
AcDbEntity
8
0
100
AcDbCircle
10
-63.442893218813467
20
25.342893218813458
30
0
40
0.999999999999998
210
0
220
-0
230
1
100
AcDbArc
50
44.999999999999709
51
225.0000000000004
0
LINE
5
302
100
AcDbEntity
8
0
100
AcDbLine
10
-64.150000000000006
20
13.464213562373097
30
0
11
-64.150000000000006
21
24.635786437626908
31
0
0
ARC
5
303
100
AcDbEntity
8
0
100
AcDbCircle
10
-50.857106781186552
20
25.342893218813458
30
0
40
1.0000000000000011
210
0
220
0
230
1
100
AcDbArc
50
-45.000000000000156
51
135
0
LINE
5
304
100
AcDbEntity
8
0
100
AcDbLine
10
-32.514213562373101
20
12.050000000000001
30
0
11
-43.685786437626916
21
12.050000000000001
31
0
0
ARC
5
305
100
AcDbEntity
8
0
100
AcDbCircle
10
-44.392893218813462
20
12.757106781186549
30
0
40
0.99999999999999967
210
0
220
0
230
1
100
AcDbArc
50
134.99999999999994
51
314.99999999999994
0
LINE
5
306
100
AcDbEntity
8
0
100
AcDbLine
10
-43.685786437626916
20
26.050000000000004
30
0
11
-32.514213562373101
21
26.050000000000004
31
0
0
ARC
5
307
100
AcDbEntity
8
0
100
AcDbCircle
10
-31.807106781186548
20
12.757106781186549
30
0
40
1.0000000000000027
210
0
220
0
230
1
100
AcDbArc
50
-135.00000000000023
51
45.000000000000071
0
LINE
5
308
100
AcDbEntity
8
0
100
AcDbLine
10
-31.100000000000001
20
24.635786437626908
30
0
11
-31.100000000000001
21
13.464213562373097
31
0
0
ARC
5
309
100
AcDbEntity
8
0
100
AcDbCircle
10
-44.392893218813462
20
25.342893218813458
30
0
40
0.999999999999998
210
0
220
-0
230
1
100
AcDbArc
50
45
51
225.00000000000014
0
LINE
5
310
100
AcDbEntity
8
0
100
AcDbLine
10
-45.100000000000009
20
13.464213562373097
30
0
11
-45.100000000000009
21
24.635786437626908
31
0
0
ARC
5
311
100
AcDbEntity
8
0
100
AcDbCircle
10
-31.807106781186548
20
25.342893218813458
30
0
40
1.0000000000000011
210
0
220
0
230
1
100
AcDbArc
50
-45.000000000000156
51
135.00000000000031
0
LWPOLYLINE
5
312
100
AcDbEntity
8
0
100
AcDbPolyline
90
8
70
1
43
0.0
10
-24.635786437626908
20
12.050000000000001
10
-13.464213562373097
20
12.050000000000001
42
0.99999999999999989
10
-12.050000000000001
20
13.464213562373097
10
-12.050000000000001
20
24.635786437626908
42
0.99999999999999989
10
-13.464213562373097
20
26.050000000000004
10
-24.635786437626908
20
26.050000000000004
42
0.99999999999999989
10
-26.050000000000004
20
24.635786437626908
10
-26.050000000000004
20
13.464213562373097
42
0.99999999999999989
0
LINE
5
313
100
AcDbEntity
8
0
100
AcDbLine
10
5.585786437626906
20
12.050000000000001
30
0
11
-5.585786437626906
21
12.050000000000001
31
0
0
ARC
5
314
100
AcDbEntity
8
0
100
AcDbCircle
10
-6.2928932188134539
20
12.757106781186549
30
0
40
1.0000000000000004
210
0
220
0
230
1
100
AcDbArc
50
134.99999999999997
51
315
0
LINE
5
315
100
AcDbEntity
8
0
100
AcDbLine
10
-5.585786437626906
20
26.050000000000004
30
0
11
5.585786437626906
21
26.050000000000004
31
0
0
ARC
5
316
100
AcDbEntity
8
0
100
AcDbCircle
10
6.2928932188134539
20
12.757106781186549
30
0
40
1.0000000000000004
210
0
220
0
230
1
100
AcDbArc
50
-135
51
45.000000000000028
0
LINE
5
317
100
AcDbEntity
8
0
100
AcDbLine
10
7.0000000000000009
20
24.635786437626908
30
0
11
7.0000000000000009
21
13.464213562373097
31
0
0
ARC
5
318
100
AcDbEntity
8
0
100
AcDbCircle
10
-6.2928932188134539
20
25.342893218813458
30
0
40
0.99999999999999878
210
0
220
-0
230
1
100
AcDbArc
50
44.999999999999922
51
225.00000000000011
0
LINE
5
319
100
AcDbEntity
8
0
100
AcDbLine
10
-7.0000000000000009
20
13.464213562373097
30
0
11
-7.0000000000000009
21
24.635786437626908
31
0
0
ARC
5
320
100
AcDbEntity
8
0
100
AcDbCircle
10
6.2928932188134539
20
25.342893218813458
30
0
40
1.000000000000002
210
0
220
0
230
1
100
AcDbArc
50
-45.000000000000099
51
135.00000000000009
0
LWPOLYLINE
5
321
100
AcDbEntity
8
0
100
AcDbPolyline
90
8
70
1
43
0.0
10
13.464213562373097
20
12.050000000000001
10
24.635786437626908
20
12.050000000000001
42
0.99999999999999989
10
26.050000000000004
20
13.464213562373097
10
26.050000000000004
20
24.635786437626908
42
0.99999999999999989
10
24.635786437626908
20
26.050000000000004
10
13.464213562373097
20
26.050000000000004
42
0.99999999999999989
10
12.050000000000001
20
24.635786437626908
10
12.050000000000001
20
13.464213562373097
42
0.99999999999999989
0
LINE
5
322
100
AcDbEntity
8
0
100
AcDbLine
10
43.685786437626916
20
12.050000000000001
30
0
11
32.514213562373101
21
12.050000000000001
31
0
0
ARC
5
323
100
AcDbEntity
8
0
100
AcDbCircle
10
31.807106781186548
20
12.757106781186549
30
0
40
0.99999999999999967
210
0
220
0
230
1
100
AcDbArc
50
134.99999999999994
51
315.00000000000017
0
LINE
5
324
100
AcDbEntity
8
0
100
AcDbLine
10
32.514213562373101
20
26.050000000000004
30
0
11
43.685786437626916
21
26.050000000000004
31
0
0
ARC
5
325
100
AcDbEntity
8
0
100
AcDbCircle
10
44.392893218813462
20
12.757106781186549
30
0
40
0.99999999999999967
210
0
220
0
230
1
100
AcDbArc
50
-134.99999999999994
51
45.000000000000071
0
LINE
5
326
100
AcDbEntity
8
0
100
AcDbLine
10
45.100000000000009
20
24.635786437626908
30
0
11
45.100000000000009
21
13.464213562373097
31
0
0
ARC
5
327
100
AcDbEntity
8
0
100
AcDbCircle
10
31.807106781186548
20
25.342893218813458
30
0
40
1.0000000000000011
210
0
220
-0
230
1
100
AcDbArc
50
44.999999999999709
51
225.00000000000014
0
LINE
5
328
100
AcDbEntity
8
0
100
AcDbLine
10
31.100000000000001
20
13.464213562373097
30
0
11
31.100000000000001
21
24.635786437626908
31
0
0
ARC
5
329
100
AcDbEntity
8
0
100
AcDbCircle
10
44.392893218813462
20
25.342893218813458
30
0
40
1.0000000000000011
210
0
220
0
230
1
100
AcDbArc
50
-45.000000000000156
51
135
0
LINE
5
330
100
AcDbEntity
8
0
100
AcDbLine
10
62.735786437626913
20
12.050000000000001
30
0
11
51.564213562373098
21
12.050000000000001
31
0
0
ARC
5
331
100
AcDbEntity
8
0
100
AcDbCircle
10
50.857106781186552
20
12.757106781186549
30
0
40
0.99999999999999967
210
0
220
0
230
1
100
AcDbArc
50
134.99999999999994
51
314.99999999999994
0
LINE
5
332
100
AcDbEntity
8
0
100
AcDbLine
10
51.564213562373098
20
26.050000000000004
30
0
11
62.735786437626913
21
26.050000000000004
31
0
0
ARC
5
333
100
AcDbEntity
8
0
100
AcDbCircle
10
63.442893218813467
20
12.757106781186549
30
0
40
0.99999999999999967
210
0
220
0
230
1
100
AcDbArc
50
-135.00000000000023
51
45.000000000000355
0
LINE
5
334
100
AcDbEntity
8
0
100
AcDbLine
10
64.150000000000006
20
24.635786437626908
30
0
11
64.150000000000006
21
13.464213562373097
31
0
0
ARC
5
335
100
AcDbEntity
8
0
100
AcDbCircle
10
50.857106781186552
20
25.342893218813458
30
0
40
0.999999999999998
210
0
220
-0
230
1
100
AcDbArc
50
45
51
225.00000000000014
0
LINE
5
336
100
AcDbEntity
8
0
100
AcDbLine
10
50.150000000000006
20
13.464213562373097
30
0
11
50.150000000000006
21
24.635786437626908
31
0
0
ARC
5
337
100
AcDbEntity
8
0
100
AcDbCircle
10
63.442893218813467
20
25.342893218813458
30
0
40
1.0000000000000011
210
0
220
0
230
1
100
AcDbArc
50
-45.000000000000462
51
135.00000000000031
0
LINE
5
338
100
AcDbEntity
8
0
100
AcDbLine
10
81.785786437626911
20
12.050000000000001
30
0
11
70.614213562373095
21
12.050000000000001
31
0
0
ARC
5
339
100
AcDbEntity
8
0
100
AcDbCircle
10
69.907106781186556
20
12.757106781186549
30
0
40
0.99999999999999967
210
0
220
0
230
1
100
AcDbArc
50
135.00000000000023
51
314.99999999999966
0
LINE
5
340
100
AcDbEntity
8
0
100
AcDbLine
10
70.614213562373095
20
26.050000000000004
30
0
11
81.785786437626911
21
26.050000000000004
31
0
0
ARC
5
341
100
AcDbEntity
8
0
100
AcDbCircle
10
82.492893218813464
20
12.757106781186549
30
0
40
0.99999999999999967
210
0
220
0
230
1
100
AcDbArc
50
-135.00000000000023
51
45.000000000000355
0
LINE
5
342
100
AcDbEntity
8
0
100
AcDbLine
10
83.200000000000003
20
24.635786437626908
30
0
11
83.200000000000003
21
13.464213562373097
31
0
0
ARC
5
343
100
AcDbEntity
8
0
100
AcDbCircle
10
69.907106781186556
20
25.342893218813458
30
0
40
0.999999999999998
210
0
220
-0
230
1
100
AcDbArc
50
45.000000000000291
51
224.99999999999986
0
LINE
5
344
100
AcDbEntity
8
0
100
AcDbLine
10
69.200000000000003
20
13.464213562373097
30
0
11
69.200000000000003
21
24.635786437626908
31
0
0
ARC
5
345
100
AcDbEntity
8
0
100
AcDbCircle
10
82.492893218813464
20
25.342893218813458
30
0
40
1.0000000000000011
210
0
220
0
230
1
100
AcDbArc
50
-45.000000000000462
51
135.00000000000031
0
LINE
5
346
100
AcDbEntity
8
0
100
AcDbLine
10
100.83578643762692
20
12.050000000000001
30
0
11
89.664213562373121
21
12.050000000000001
31
0
0
ARC
5
347
100
AcDbEntity
8
0
100
AcDbCircle
10
88.957106781186582
20
12.757106781186549
30
0
40
0.99999999999999967
210
0
220
0
230
1
100
AcDbArc
50
135.00000000000023
51
314.99999999999966
0
LINE
5
348
100
AcDbEntity
8
0
100
AcDbLine
10
89.664213562373121
20
26.050000000000004
30
0
11
100.83578643762692
21
26.050000000000004
31
0
0
ARC
5
349
100
AcDbEntity
8
0
100
AcDbCircle
10
101.54289321881348
20
12.757106781186549
30
0
40
0.99999999999999967
210
0
220
0
230
1
100
AcDbArc
50
-135.00000000000023
51
45.000000000000355
0
LINE
5
350
100
AcDbEntity
8
0
100
AcDbLine
10
102.25000000000001
20
24.635786437626908
30
0
11
102.25000000000001
21
13.464213562373097
31
0
0
ARC
5
351
100
AcDbEntity
8
0
100
AcDbCircle
10
88.957106781186582
20
25.342893218813458
30
0
40
0.999999999999998
210
0
220
-0
230
1
100
AcDbArc
50
45.000000000000291
51
224.99999999999986
0
LINE
5
352
100
AcDbEntity
8
0
100
AcDbLine
10
88.250000000000028
20
13.464213562373097
30
0
11
88.250000000000028
21
24.635786437626908
31
0
0
ARC
5
353
100
AcDbEntity
8
0
100
AcDbCircle
10
101.54289321881348
20
25.342893218813458
30
0
40
1.0000000000000011
210
0
220
0
230
1
100
AcDbArc
50
-45.000000000000462
51
135.00000000000031
0
LINE
5
354
100
AcDbEntity
8
0
100
AcDbLine
10
119.88578643762692
20
12.050000000000001
30
0
11
108.71421356237312
21
12.050000000000001
31
0
0
ARC
5
355
100
AcDbEntity
8
0
100
AcDbCircle
10
108.00710678118656
20
12.757106781186549
30
0
40
0.99999999999999967
210
0
220
0
230
1
100
AcDbArc
50
134.99999999999966
51
315.00000000000017
0
LINE
5
356
100
AcDbEntity
8
0
100
AcDbLine
10
108.71421356237312
20
26.050000000000004
30
0
11
119.88578643762692
21
26.050000000000004
31
0
0
ARC
5
357
100
AcDbEntity
8
0
100
AcDbCircle
10
120.59289321881346
20
12.757106781186549
30
0
40
0.99999999999999967
210
0
220
0
230
1
100
AcDbArc
50
-134.99999999999966
51
44.999999999999787
0
LINE
5
358
100
AcDbEntity
8
0
100
AcDbLine
10
121.30000000000001
20
24.635786437626908
30
0
11
121.30000000000001
21
13.464213562373097
31
0
0
ARC
5
359
100
AcDbEntity
8
0
100
AcDbCircle
10
108.00710678118656
20
25.342893218813458
30
0
40
0.999999999999998
210
0
220
-0
230
1
100
AcDbArc
50
44.999999999999709
51
225.0000000000004
0
LINE
5
360
100
AcDbEntity
8
0
100
AcDbLine
10
107.30000000000003
20
13.464213562373097
30
0
11
107.30000000000003
21
24.635786437626908
31
0
0
ARC
5
361
100
AcDbEntity
8
0
100
AcDbCircle
10
120.59289321881346
20
25.342893218813458
30
0
40
1.0000000000000011
210
0
220
0
230
1
100
AcDbArc
50
-44.999999999999851
51
134.99999999999972
0
LWPOLYLINE
5
362
100
AcDbEntity
8
0
100
AcDbPolyline
90
8
70
1
43
0.0
10
-119.88578643762692
20
31.100000000000001
10
-108.71421356237312
20
31.100000000000001
42
0.99999999999999989
10
-107.30000000000003
20
32.514213562373101
10
-107.30000000000003
20
43.685786437626916
42
0.99999999999999989
10
-108.71421356237312
20
45.100000000000009
10
-119.88578643762692
20
45.100000000000009
42
0.99999999999999989
10
-121.30000000000001
20
43.685786437626916
10
-121.30000000000001
20
32.514213562373101
42
0.99999999999999989
0
LWPOLYLINE
5
363
100
AcDbEntity
8
0
100
AcDbPolyline
90
8
70
1
43
0.0
10
-100.83578643762692
20
31.100000000000001
10
-89.664213562373121
20
31.100000000000001
42
0.99999999999999989
10
-88.250000000000028
20
32.514213562373101
10
-88.250000000000028
20
43.685786437626916
42
0.99999999999999989
10
-89.664213562373121
20
45.100000000000009
10
-100.83578643762692
20
45.100000000000009
42
0.99999999999999989
10
-102.25000000000001
20
43.685786437626916
10
-102.25000000000001
20
32.514213562373101
42
0.99999999999999989
0
LWPOLYLINE
5
364
100
AcDbEntity
8
0
100
AcDbPolyline
90
8
70
1
43
0.0
10
-81.785786437626911
20
31.100000000000001
10
-70.614213562373095
20
31.100000000000001
42
0.99999999999999989
10
-69.200000000000003
20
32.514213562373101
10
-69.200000000000003
20
43.685786437626916
42
0.99999999999999989
10
-70.614213562373095
20
45.100000000000009
10
-81.785786437626911
20
45.100000000000009
42
0.99999999999999989
10
-83.200000000000003
20
43.685786437626916
10
-83.200000000000003
20
32.514213562373101
42
0.99999999999999989
0
LWPOLYLINE
5
365
100
AcDbEntity
8
0
100
AcDbPolyline
90
8
70
1
43
0.0
10
-62.735786437626913
20
31.100000000000001
10
-51.564213562373098
20
31.100000000000001
42
0.99999999999999989
10
-50.150000000000006
20
32.514213562373101
10
-50.150000000000006
20
43.685786437626916
42
0.99999999999999989
10
-51.564213562373098
20
45.100000000000009
10
-62.735786437626913
20
45.100000000000009
42
0.99999999999999989
10
-64.150000000000006
20
43.685786437626916
10
-64.150000000000006
20
32.514213562373101
42
0.99999999999999989
0
LWPOLYLINE
5
366
100
AcDbEntity
8
0
100
AcDbPolyline
90
8
70
1
43
0.0
10
-43.685786437626916
20
31.100000000000001
10
-32.514213562373101
20
31.100000000000001
42
0.99999999999999989
10
-31.100000000000001
20
32.514213562373101
10
-31.100000000000001
20
43.685786437626916
42
0.99999999999999989
10
-32.514213562373101
20
45.100000000000009
10
-43.685786437626916
20
45.100000000000009
42
0.99999999999999989
10
-45.100000000000009
20
43.685786437626916
10
-45.100000000000009
20
32.514213562373101
42
0.99999999999999989
0
LINE
5
367
100
AcDbEntity
8
0
100
AcDbLine
10
-13.464213562373097
20
31.100000000000001
30
0
11
-24.635786437626908
21
31.100000000000001
31
0
0
ARC
5
368
100
AcDbEntity
8
0
100
AcDbCircle
10
-25.342893218813458
20
31.807106781186548
30
0
40
1.0000000000000011
210
0
220
0
230
1
100
AcDbArc
50
134.99999999999972
51
315.00000000000017
0
LINE
5
369
100
AcDbEntity
8
0
100
AcDbLine
10
-24.635786437626908
20
45.100000000000009
30
0
11
-13.464213562373097
21
45.100000000000009
31
0
0
ARC
5
370
100
AcDbEntity
8
0
100
AcDbCircle
10
-12.757106781186549
20
31.807106781186548
30
0
40
0.99999999999999967
210
0
220
0
230
1
100
AcDbArc
50
-135.00000000000009
51
45.00000000000022
0
LINE
5
371
100
AcDbEntity
8
0
100
AcDbLine
10
-12.050000000000001
20
43.685786437626916
30
0
11
-12.050000000000001
21
32.514213562373101
31
0
0
ARC
5
372
100
AcDbEntity
8
0
100
AcDbCircle
10
-25.342893218813458
20
44.392893218813462
30
0
40
1.0000000000000011
210
0
220
-0
230
1
100
AcDbArc
50
44.999999999999858
51
225
0
LINE
5
373
100
AcDbEntity
8
0
100
AcDbLine
10
-26.050000000000004
20
32.514213562373101
30
0
11
-26.050000000000004
21
43.685786437626916
31
0
0
ARC
5
374
100
AcDbEntity
8
0
100
AcDbCircle
10
-12.757106781186549
20
44.392893218813462
30
0
40
0.99999999999999967
210
0
220
0
230
1
100
AcDbArc
50
-44.99999999999995
51
135.00000000000009
0
LINE
5
375
100
AcDbEntity
8
0
100
AcDbLine
10
5.585786437626906
20
31.100000000000001
30
0
11
-5.585786437626906
21
31.100000000000001
31
0
0
ARC
5
376
100
AcDbEntity
8
0
100
AcDbCircle
10
-6.2928932188134539
20
31.807106781186548
30
0
40
1.000000000000002
210
0
220
0
230
1
100
AcDbArc
50
134.99999999999974
51
315.00000000000006
0
LINE
5
377
100
AcDbEntity
8
0
100
AcDbLine
10
-5.585786437626906
20
45.100000000000009
30
0
11
5.585786437626906
21
45.100000000000009
31
0
0
ARC
5
378
100
AcDbEntity
8
0
100
AcDbCircle
10
6.2928932188134539
20
31.807106781186548
30
0
40
0.99999999999999878
210
0
220
0
230
1
100
AcDbArc
50
-135.00000000000009
51
45.000000000000249
0
LINE
5
379
100
AcDbEntity
8
0
100
AcDbLine
10
7.0000000000000009
20
43.685786437626916
30
0
11
7.0000000000000009
21
32.514213562373101
31
0
0
ARC
5
380
100
AcDbEntity
8
0
100
AcDbCircle
10
-6.2928932188134539
20
44.392893218813462
30
0
40
0.99999999999999878
210
0
220
-0
230
1
100
AcDbArc
50
44.999999999999922
51
224.99999999999997
0
LINE
5
381
100
AcDbEntity
8
0
100
AcDbLine
10
-7.0000000000000009
20
32.514213562373101
30
0
11
-7.0000000000000009
21
43.685786437626916
31
0
0
ARC
5
382
100
AcDbEntity
8
0
100
AcDbCircle
10
6.2928932188134539
20
44.392893218813462
30
0
40
0.99999999999999878
210
0
220
0
230
1
100
AcDbArc
50
-44.99999999999995
51
135.00000000000009
0
LINE
5
383
100
AcDbEntity
8
0
100
AcDbLine
10
24.635786437626908
20
31.100000000000001
30
0
11
13.464213562373097
21
31.100000000000001
31
0
0
ARC
5
384
100
AcDbEntity
8
0
100
AcDbCircle
10
12.757106781186549
20
31.807106781186548
30
0
40
1.0000000000000027
210
0
220
0
230
1
100
AcDbArc
50
134.9999999999998
51
315.00000000000006
0
LINE
5
385
100
AcDbEntity
8
0
100
AcDbLine
10
13.464213562373097
20
45.100000000000009
30
0
11
24.635786437626908
21
45.100000000000009
31
0
0
ARC
5
386
100
AcDbEntity
8
0
100
AcDbCircle
10
25.342893218813458
20
31.807106781186548
30
0
40
1.0000000000000011
210
0
220
0
230
1
100
AcDbArc
50
-135.00000000000017
51
45.000000000000291
0
LINE
5
387
100
AcDbEntity
8
0
100
AcDbLine
10
26.050000000000004
20
43.685786437626916
30
0
11
26.050000000000004
21
32.514213562373101
31
0
0
ARC
5
388
100
AcDbEntity
8
0
100
AcDbCircle
10
12.757106781186549
20
44.392893218813462
30
0
40
0.99999999999999967
210
0
220
-0
230
1
100
AcDbArc
50
44.999999999999922
51
224.99999999999991
0
LINE
5
389
100
AcDbEntity
8
0
100
AcDbLine
10
12.050000000000001
20
32.514213562373101
30
0
11
12.050000000000001
21
43.685786437626916
31
0
0
ARC
5
390
100
AcDbEntity
8
0
100
AcDbCircle
10
25.342893218813458
20
44.392893218813462
30
0
40
0.999999999999998
210
0
220
0
230
1
100
AcDbArc
50
-45
51
135.00000000000017
0
LWPOLYLINE
5
391
100
AcDbEntity
8
0
100
AcDbPolyline
90
8
70
1
43
0.0
10
32.514213562373101
20
31.100000000000001
10
43.685786437626916
20
31.100000000000001
42
0.99999999999999989
10
45.100000000000009
20
32.514213562373101
10
45.100000000000009
20
43.685786437626916
42
0.99999999999999989
10
43.685786437626916
20
45.100000000000009
10
32.514213562373101
20
45.100000000000009
42
0.99999999999999989
10
31.100000000000001
20
43.685786437626916
10
31.100000000000001
20
32.514213562373101
42
0.99999999999999989
0
LWPOLYLINE
5
392
100
AcDbEntity
8
0
100
AcDbPolyline
90
8
70
1
43
0.0
10
51.564213562373098
20
31.100000000000001
10
62.735786437626913
20
31.100000000000001
42
0.99999999999999989
10
64.150000000000006
20
32.514213562373101
10
64.150000000000006
20
43.685786437626916
42
0.99999999999999989
10
62.735786437626913
20
45.100000000000009
10
51.564213562373098
20
45.100000000000009
42
0.99999999999999989
10
50.150000000000006
20
43.685786437626916
10
50.150000000000006
20
32.514213562373101
42
0.99999999999999989
0
LWPOLYLINE
5
393
100
AcDbEntity
8
0
100
AcDbPolyline
90
8
70
1
43
0.0
10
70.614213562373095
20
31.100000000000001
10
81.785786437626911
20
31.100000000000001
42
0.99999999999999989
10
83.200000000000003
20
32.514213562373101
10
83.200000000000003
20
43.685786437626916
42
0.99999999999999989
10
81.785786437626911
20
45.100000000000009
10
70.614213562373095
20
45.100000000000009
42
0.99999999999999989
10
69.200000000000003
20
43.685786437626916
10
69.200000000000003
20
32.514213562373101
42
0.99999999999999989
0
LWPOLYLINE
5
394
100
AcDbEntity
8
0
100
AcDbPolyline
90
8
70
1
43
0.0
10
89.664213562373121
20
31.100000000000001
10
100.83578643762692
20
31.100000000000001
42
0.99999999999999989
10
102.25000000000001
20
32.514213562373101
10
102.25000000000001
20
43.685786437626916
42
0.99999999999999989
10
100.83578643762692
20
45.100000000000009
10
89.664213562373121
20
45.100000000000009
42
0.99999999999999989
10
88.250000000000028
20
43.685786437626916
10
88.250000000000028
20
32.514213562373101
42
0.99999999999999989
0
LWPOLYLINE
5
395
100
AcDbEntity
8
0
100
AcDbPolyline
90
8
70
1
43
0.0
10
108.71421356237312
20
31.100000000000001
10
119.88578643762692
20
31.100000000000001
42
0.99999999999999989
10
121.30000000000001
20
32.514213562373101
10
121.30000000000001
20
43.685786437626916
42
0.99999999999999989
10
119.88578643762692
20
45.100000000000009
10
108.71421356237312
20
45.100000000000009
42
0.99999999999999989
10
107.30000000000003
20
43.685786437626916
10
107.30000000000003
20
32.514213562373101
42
0.99999999999999989
0
LWPOLYLINE
5
396
100
AcDbEntity
8
0
100
AcDbPolyline
90
40
70
1
43
0.0
10
-38.024768028775462
20
51.180555570272752
42
-0.38196601135614272
10
-37.527864033754945
20
51.625000014901168
10
37.527864041251924
20
51.625000014901168
42
-0.38196601125008134
10
38.024768036251885
20
51.180555570456725
42
0.89442719099991341
10
45.975231956251079
20
51.180555570456711
42
-0.38196601125010166
10
46.472135951251055
20
51.625000014901168
10
122.15342712953934
20
51.625000014901168
42
-0.41421356609837245
10
122.65342712953935
20
51.125000008541718
10
122.65342712099766
20
50.453427139647367
42
0.41421356237309503
10
126.6534271358988
20
46.453427124746199
10
127.32500000479317
20
46.453427133287882
42
-0.41421356609832038
10
127.82500001115264
20
45.95342713328791
10
127.82500001115267
20
-45.953427133287896
42
-0.41421356609836202
10
127.32500000479317
20
-46.453427133287889
10
126.6534271358988
20
-46.453427124746199
42
0.41421356237309503
10
122.65342712099766
20
-50.453427139647367
10
122.65342712953935
20
-51.12500000854169
42
-0.41421356609837762
10
122.15342712953934
20
-51.625000014901154
10
46.472135966245034
20
-51.625000014901175
42
-0.38196601135617592
10
45.975231971224524
20
-51.180555570272759
42
0.8944271913331151
10
38.02476802127844
20
-51.180555570272759
42
-0.38196601135614777
10
37.52786402625793
20
-51.625000014901168
10
-37.527864033754952
20
-51.625000014901161
42
-0.38196601135616126
10
-38.024768028775469
20
-51.180555570272759
42
0.89442719133311555
10
-45.975231978721574
20
-51.180555570272759
42
-0.38196601135616126
10
-46.472135973742098
20
-51.625000014901161
10
-122.1534271370364
20
-51.625000014901161
42
-0.41421356609837245
10
-122.65342713703639
20
-51.12500000854169
10
-122.65342712849471
20
-50.453427139647367
42
0.41421356237309503
10
-126.65342714339586
20
-46.453427124746213
10
-127.3250000122902
20
-46.45342713328791
42
-0.41421356609838283
10
-127.82500001864967
20
-45.953427133287903
10
-127.82500001864967
20
45.95342713328791
42
-0.41421356609835164
10
-127.3250000122902
20
46.453427133287903
10
-126.65342714339586
20
46.453427124746199
42
0.41421356237309503
10
-122.65342712849468
20
50.453427139647367
10
-122.65342713703639
20
51.125000008541683
42
-0.41421356609839322
10
-122.15342713703637
20
51.625000014901168
10
-46.472135973742105
20
51.625000014901168
42
-0.38196601135614272
10
-45.975231978721581
20
51.180555570272752
42
0.89442719133311355
0
LINE
5
397
100
AcDbEntity
8
0
100
AcDbLine
10
38.999999996251482
20
-51.625000014901168
30
0
11
38.999999996251482
21
-51.625000014901168
31
0
0
LINE
5
398
100
AcDbEntity
8
0
100
AcDbLine
10
-45.000000003748511
20
-51.625000014901168
30
0
11
-45.000000003748511
21
-51.625000014901161
31
0
0
LINE
5
399
100
AcDbEntity
8
0
100
AcDbLine
10
-39.000000003748532
20
-51.625000014901168
30
0
11
-39.000000003748532
21
-51.625000014901161
31
0
0
ENDSEC
0
SECTION
2
OBJECTS
0
DICTIONARY
5
C
100
AcDbDictionary
3
ACAD_GROUP
350
D
3
ACAD_MLINESTYLE
350
17
0
DICTIONARY
5
D
100
AcDbDictionary
0
DICTIONARY
5
1A
330
C
100
AcDbDictionary
0
DICTIONARY
5
17
100
AcDbDictionary
0
ENDSEC
0
EOF
